<svg id="Layer_1" xmlns="http://www.w3.org/2000/svg" width="21.6" height="19.8" viewBox="0 0 21.6 19.8"><style><![CDATA[
	.st0{fill:#FFFFFF;}
]]></style><path class="st0" d="M-.4-.2h22v20h-22z"/><path d="M5.3 16.6c.4.3.9.4 1.5.4s1.2-.1 1.5-.3c.4-.2.7-.5.9-.7.5-.6.8-1.5.8-2.7V2.8H8.2v10.4c0 .5 0 .9-.1 1.1-.1.3-.2.5-.4.6-.1.1-.3.2-.4.2h-.8c-.2 0-.3-.1-.4-.2-.1-.1-.3-.3-.4-.6-.1-.3-.1-.6-.1-1.1V2.8h-2v10.4c0 1.2.3 2.1.8 2.7.2.3.5.5.9.7zM12.8 8.4l3.5 8.6h1.5V2.8H16v8.6l-3.5-8.6H11V17h1.8zM21.6 18.7V1.1h-1v17.6h.1zM20.6.1h1v1h-1z"/><path d="M20.7 18.7h.9v1h-.9zM.1.1h20.5v1H.1zM.1 18.7h20.5v1H.1z"/><path d="M1 18.7V1.1H.1v17.6zM20.6 1.1h1v17.7h-1zM20.6.1h1v1h-1z"/><path d="M20.6 18.7h1v1h-1z"/></svg>