<?xml version="1.0" encoding="utf-8"?>
<!-- Generator: Adobe Illustrator 16.0.0, SVG Export Plug-In . SVG Version: 6.00 Build 0)  -->
<!DOCTYPE svg PUBLIC "-//W3C//DTD SVG 1.1//EN" "http://www.w3.org/Graphics/SVG/1.1/DTD/svg11.dtd">
<svg version="1.1" id="Layer_1" xmlns="http://www.w3.org/2000/svg" xmlns:xlink="http://www.w3.org/1999/xlink" x="0px" y="0px"
	 width="223px" height="66.5px" viewBox="-12.9 -15.6 223 66.5" style="enable-background:new -12.9 -15.6 223 66.5;"
	 xml:space="preserve">
<style type="text/css">
<![CDATA[
	.st0{display:inline;opacity:0.8;}
	.st1{display:inline;fill:#FFFFFF;}
	.st2{opacity:0.8;}
	.st3{fill:#FFFFFF;}
	.st4{display:inline;}
	.st5{display:inline;fill:none;}
	.st6{display:none;}
]]>
</style>
<g class="st6">
	<rect x="-6.8" y="-10.9" class="st0" width="211.8" height="58.9"/>
	<rect x="54.7" y="-11.1" class="st1" width="146.3" height="55.3"/>
	<rect x="57.5" y="-8.8" class="st4" width="140.5" height="49.9"/>
	<path class="st1" d="M67.1,37.5h-5.4V-5.2h8.9c3.6,0,6.4,1.1,8.3,3.2c1.7,2,2.6,5,2.6,8.8c0,3.9-0.9,6.8-2.6,8.9
		c-1.9,2.2-4.6,3.2-8.3,3.2h-3.4V37.5z M67.1,13.4h3.4c1.5,0,2.5-0.2,3.1-0.5c0.5-0.3,0.9-0.6,1-0.8c0.8-0.9,1.3-2.6,1.3-5.3
		c0-1.4-0.1-2.5-0.3-3.4c-0.2-0.8-0.6-1.5-1-2c-0.4-0.5-1-0.8-1.7-0.9c-0.7-0.2-1.5-0.2-2.3-0.2h-3.4V13.4z"/>
	<path class="st1" d="M83.7,37.5h-5.6l9.8-42.7h4.3l10,42.7h-5.7l-2.7-11.9h-7.4L83.7,37.5z M90.1,9.6l-2.4,10.5h4.9L90.1,9.6z"/>
	<path class="st1" d="M113.5,37.5c-1,0-2-0.1-2.8-0.3c-0.8-0.2-1.5-0.5-2.2-0.8c-0.6-0.3-1.2-0.7-1.6-1.1c-0.4-0.4-0.8-0.8-1.1-1.2
		c-1.6-2.1-2.4-5-2.4-8.8V7c0-3.8,0.8-6.7,2.4-8.8c0.6-0.8,1.5-1.5,2.8-2.3s2.9-1.1,4.9-1.1s3.7,0.4,4.9,1.1
		c1.2,0.7,2.1,1.5,2.7,2.3c1.7,2.1,2.5,5.1,2.5,8.8v2.7h-5.5V7c0-1.7-0.2-3-0.5-3.9c-0.3-0.9-0.7-1.6-1.2-2c-0.5-0.4-1-0.6-1.5-0.7
		c-0.5-0.1-1-0.1-1.4-0.1c-0.4,0-0.9,0-1.4,0.1c-0.5,0.1-1,0.3-1.5,0.7c-0.5,0.4-0.9,1.1-1.2,2C109,4,108.8,5.3,108.8,7v18.3
		c0,2.5,0.4,4.3,1.3,5.4c0.2,0.3,0.5,0.6,1,0.9s1.3,0.5,2.3,0.5c1,0,1.8-0.2,2.3-0.5c0.5-0.3,0.8-0.6,1.1-0.9c0.8-1.2,1.3-3,1.3-5.4
		v-2.7h5.5v2.7c0,3.7-0.8,6.7-2.5,8.8c-0.6,0.8-1.5,1.5-2.7,2.3C117.2,37.1,115.6,37.5,113.5,37.5z"/>
	<path class="st1" d="M144.5,37.5L134.8,20l-2.3,3.5v13.9h-5.4V22H127l0.1-0.1V-5.2h5.4v18.6l12.1-18.6h6.5l-13,20l12.6,22.7H144.5z
		"/>
	<path class="st1" d="M159.6,0.2v13.1h12.2v5.4h-12.2V32h12.2v5.4h-17.7V-5.2h17.7v5.4H159.6z"/>
	<path class="st1" d="M183,37.5h-8.5V-5.2h8.5c3.7,0,6.4,1.1,8.3,3.4c1.7,2,2.5,5,2.5,8.9v17.9c0,3.9-0.9,6.9-2.5,9
		C189.4,36.3,186.7,37.5,183,37.5z M180,32h3.1c0.7,0,1.4-0.1,2-0.2c0.6-0.1,1.2-0.4,1.7-0.9s0.9-1.2,1.2-2.1
		c0.3-0.9,0.5-2.2,0.5-3.8V7.1c0-1.6-0.2-2.8-0.5-3.8c-0.3-0.9-0.7-1.6-1.2-2.1c-0.5-0.5-1-0.8-1.7-0.9c-0.6-0.1-1.3-0.2-2-0.2H180
		V32z"/>
	<rect x="-7.5" y="-11.9" class="st1" width="62.2" height="56.1"/>
	<path class="st4" d="M6.7,36.4c1.2,0.7,2.7,1,4.6,1c1.9,0,3.5-0.3,4.6-1c1.2-0.7,2-1.4,2.6-2.2c1.5-1.9,2.3-4.6,2.3-8.2V-5.2h-5.4
		v31.3c0,1.5-0.1,2.6-0.4,3.4c-0.3,0.8-0.6,1.4-1.1,1.8c-0.4,0.4-0.9,0.6-1.3,0.6C12.2,32,11.7,32,11.3,32c-0.4,0-0.8,0-1.3-0.1
		c-0.5-0.1-0.9-0.3-1.3-0.6c-0.4-0.4-0.8-1-1.1-1.8c-0.3-0.8-0.4-1.9-0.4-3.4V-5.2H1.8v31.3c0,3.5,0.8,6.3,2.3,8.2
		C4.7,35,5.6,35.8,6.7,36.4z"/>
	<polygon class="st4" points="29.5,11.6 39.9,37.5 44.6,37.5 44.6,-5.2 39.1,-5.2 39.1,20.6 28.6,-5.2 24.1,-5.2 24.1,37.5 
		29.5,37.5 	"/>
	<rect x="55.9" y="-10.5" class="st5" width="143.7" height="53.2"/>
	<rect x="55.9" y="-13.4" class="st4" width="143.7" height="2.9"/>
	<rect x="55.9" y="42.8" class="st4" width="143.7" height="2.9"/>
	<polygon class="st4" points="55.9,42.8 55.9,-10.5 53,-10.5 53,42.8 53.1,42.8 	"/>
	<rect x="53" y="-13.4" class="st4" width="2.9" height="2.9"/>
	<rect x="53.1" y="42.8" class="st4" width="2.8" height="2.9"/>
	<rect x="53" y="42.8" class="st4" width="0.1" height="2.9"/>
	<rect x="199.6" y="-10.5" class="st4" width="2.9" height="53.2"/>
	<rect x="199.6" y="-13.4" class="st4" width="2.9" height="2.9"/>
	<rect x="199.6" y="42.8" class="st4" width="2.9" height="2.9"/>
	<rect x="-8.9" y="-13.4" class="st4" width="61.9" height="2.9"/>
	<rect x="-8.9" y="42.8" class="st4" width="61.9" height="2.9"/>
	<polygon class="st4" points="-6,42.8 -6,-10.5 -8.9,-10.5 -8.9,42.8 -8.8,42.8 	"/>
	<rect x="53" y="-10.5" class="st4" width="2.9" height="53.2"/>
	<rect x="53" y="-13.4" class="st4" width="2.9" height="2.9"/>
	<rect x="53" y="42.8" class="st4" width="2.9" height="2.9"/>
</g>
<g>
	<rect x="-7.8" y="-8.1" class="st2" width="214.7" height="54.9"/>
	<rect x="-8.5" y="-9.9" class="st3" width="210.3" height="53"/>
	<rect x="-10" y="-11.4" width="214.3" height="2.9"/>
	<rect x="-10" y="41.7" width="213.1" height="2.9"/>
	<polygon points="-7.1,44.6 -7.1,-8.5 -10,-8.5 -10,44.6 -9.9,44.6 	"/>
	<rect x="201.4" y="-8.5" width="2.9" height="53"/>
	<rect x="51.7" y="-11.4" width="2.9" height="2.9"/>
	<path d="M16.3-1.4v5.8H6.9v8.5h8.8v5.6H6.9v15.7H1.7V-1.4H16.3z"/>
	<path d="M24.6-1.4v35.6h-5.1V-1.4H24.6z"/>
	<path d="M42.3-1.4v5.8h-9.2v8.4h8.6v5.6h-8.6v9.9h9.3v5.9H28.1V-1.4H42.3z"/>
	<path d="M51.5-1.4v29.8h9.4v5.7H46.3V-1.4H51.5z"/>
	<path d="M73.5-1.4c0.8,0.1,1.8,0.1,2.6,0.3c1.2,0.4,3.4,1.4,4.5,5.1c0.9,3.1,1,7.8,1,11c0,0.9,0,5.3-0.4,8.9
		c-0.2,2.6-0.7,5.1-2,7.1c-1.9,2.9-4,3.1-6.8,3.1H64V-1.4H73.5z M69.2,28.9h2.4c0.6,0,1.2,0,1.7-0.2c0.8-0.3,1.8-0.9,2.3-3.1
		c0.5-1.8,0.7-4.9,0.7-9.3c0-0.4,0-4.4-0.3-7c-0.2-2.5-0.7-3.7-1.3-4.5c-0.9-1.1-1.9-1.1-3-1.2h-2.5V28.9z"/>
	<path d="M101.9-1.5l8.1,26.1l-0.5-26.1h4.9v35.6h-6.1l-8.2-26.4l0.3,26.4h-4.9V-1.5H101.9z"/>
	<path d="M134.3,2.5c1.2,2.8,1.5,6,1.5,12.4c0,6.5-0.1,10.1-0.8,13c-1.2,5.2-4,7-8.1,7c-2.9,0-5.6-0.8-7.2-4.2
		c-1.5-3-1.8-7.2-1.8-14.4c0-7.6,0.3-11.6,1.9-14.7c1.1-2,2.9-3.8,6.9-3.9C131.4-2.3,133.3,0,134.3,2.5z M123.6,6.3
		c-0.4,2-0.5,5.9-0.5,11c0,2.5,0,4.9,0.2,7.3c0.2,1.4,0.3,3.1,1.2,4.2c0.4,0.5,1.2,1,2.5,1c1,0,2.6-0.3,3.1-3.3
		c0.3-1.8,0.5-5.4,0.5-10c0-1.5,0-2.9,0-4.2c0-1.3,0-2.5-0.1-3.7c-0.2-2.5-0.5-3.8-1.2-4.7c-0.6-0.8-1.4-1-2.3-1
		C125.9,2.9,124.3,3.1,123.6,6.3z"/>
	<path d="M155.1-1.4v5.8h-5.9v29.7H144V4.4h-5.9v-5.9H155.1z"/>
	<path d="M172.1-1.4v5.8h-9.2v8.4h8.6v5.6h-8.6v9.9h9.3v5.9h-14.4V-1.4H172.1z"/>
	<path d="M187.2,9.4c0-1.2,0-2.4-0.3-3.6c-0.5-2.6-2.1-2.8-2.8-2.8c-2.5,0-2.8,2.5-2.8,3.6c0,0.4,0,1.2,0.4,2.1
		c0.6,1.2,1.6,2,3.4,3.6c1.7,1.5,4.4,3.6,5.7,5.6c1.4,2.1,1.8,4.3,1.8,7c0,1.2,0,4.2-1.8,6.8c-0.3,0.6-1.4,1.9-3,2.6
		c-0.7,0.3-1.9,0.6-3.7,0.6c-3.3,0-4.9-1.3-6-2.8c-2.1-2.9-2.1-6.7-2.1-10.4h5.1c0,3,0,4.9,0.5,6.1c0.8,1.8,2.3,1.9,2.7,1.9
		c1.2,0,3.2-0.6,3.2-4.3c0-3-1.2-3.9-2.9-5.4c-3.2-3-5.1-4.4-6.4-6.2c-0.7-1-1.8-3-1.8-6.4c0-6.6,3.3-9.6,8.1-9.6
		c1,0,4.4,0.1,6.4,3.7c1.3,2.4,1.3,5.1,1.4,8L187.2,9.4z"/>
</g>
</svg>
