<?xml version="1.0" encoding="utf-8"?>
<!-- Generator: Adobe Illustrator 21.0.0, SVG Export Plug-In . SVG Version: 6.00 Build 0)  -->
<svg version="1.1" id="Layer_1" xmlns="http://www.w3.org/2000/svg" xmlns:xlink="http://www.w3.org/1999/xlink" x="0px" y="0px"
	 viewBox="0 0 2000 251.9" style="enable-background:new 0 0 2000 251.9;" xml:space="preserve">
<style type="text/css">
	.st0{fill:#FFFFFF;}
</style>
<g>
	<path class="st0" d="M1478.3,12.9h-477.5H523.3H45.9v11h0v22.5h14.9c2.8,0,5,2.2,5,5V59c0,2.8-2.2,5-5,5H45.9v21.7h14.9
		c2.8,0,5,2.2,5,5v7.6c0,2.8-2.2,5-5,5H45.9V125h14.9c2.8,0,5,2.2,5,5v7.6c0,2.8-2.2,5-5,5H45.9v21.7h14.9c2.8,0,5,2.2,5,5v7.6
		c0,2.8-2.2,5-5,5H45.9v21.7h14.9c2.8,0,5,2.2,5,5v7.6c0,2.8-2.2,5-5,5H45.9v15.6h1.7c-0.1-0.3-0.1-0.6-0.1-1v-7.6c0-2.8,2.2-5,5-5
		h25.2v-2H74c-2.8,0-5-2.2-5-5v-7.6c0-2.8,2.2-5,5-5h3.7v-2H52.5c-2.8,0-5-2.2-5-5V189c0-2.8,2.2-5,5-5h25.2v-2H74c-2.8,0-5-2.2-5-5
		v-7.6c0-2.8,2.2-5,5-5h3.7v-2H52.5c-2.8,0-5-2.2-5-5v-7.6c0-2.8,2.2-5,5-5h25.3c0-0.7,0.1-1.4,0.1-2H74c-2.8,0-5-2.2-5-5V130
		c0-2.7,2.2-5,5-5h10.2c1.9-2.8,4.1-5.4,6.7-7.6v-7.1c0-2.8,2.2-5,5-5H126c2.8,0,5,2.2,5,5v0.5c1.1,0.5,2.1,1,3.2,1.5v-2
		c0-2.8,2.2-5,5-5h30.2c2.8,0,5,2.2,5,5v7.6c0,2.8-2.2,5-5,5h-22.7c0.5,0.7,1,1.4,1.5,2.1c2.4,0.4,4.3,2.4,4.3,4.9v3.7
		c1.2,3.5,1.9,7.1,2.1,11h14.8c2.8,0,5,2.2,5,5v7.6c0,2.8-2.2,5-5,5h-14.7V184h14.7c2.8,0,5,2.2,5,5v7.6c0,2.8-2.2,5-5,5h-14.7v21.7
		h14.7c2.8,0,5,2.2,5,5v7.6c0,0.3,0,0.7-0.1,1h3.4c-0.1-0.3-0.1-0.6-0.1-1v-7.6c0-2.8,2.2-5,5-5h6.6v-2h-28.5c-2.8,0-5-2.2-5-5v-7.6
		c0-2.8,2.2-5,5-5h28.5v-2h-6.6c-2.8,0-5-2.2-5-5V189c0-2.8,2.2-5,5-5h6.6v-2h-28.5c-2.8,0-5-2.2-5-5v-7.6c0-2.8,2.2-5,5-5h28.5v-2
		h-6.6c-2.8,0-5-2.2-5-5v-7.6c0-2.8,2.2-5,5-5h6.7c0-0.7,0.1-1.4,0.1-2h-28.7c-2.8,0-5-2.2-5-5V130c0-2.7,2.2-5,5-5h30.2
		c1.5,0,2.8,0.6,3.7,1.7c0.8-1.3,1.6-2.5,2.5-3.7h-14.6c-2.8,0-5-2.2-5-5v-7.6c0-2.8,2.2-5,5-5h30.2c2.3,0,4.3,1.6,4.8,3.8
		c1.1-0.3,2.3-0.6,3.4-0.8c0.8-1.8,2.5-3.1,4.6-3.1h30.2c2.7,0,5,2.2,5,5v7.6c0,2-1.2,3.8-3,4.6c0.6,0.8,1.2,1.6,1.8,2.5h17.7
		c2.8,0,5,2.2,5,5v7.6c0,2.8-2.2,5-5,5H266c0.1,1,0.1,2,0.2,3c0.8-0.6,1.8-0.9,2.9-0.9h30.2c0.9,0,1.7,0.3,2.4,0.7
		c0-0.9,0.1-1.8,0.2-2.7h-11.3c-2.8,0-5-2.2-5-5V130c0-2.7,2.2-5,5-5h17.6c0.6-0.9,1.3-1.8,2-2.7c-1.6-0.8-2.7-2.5-2.7-4.4v-7.6
		c0-2.8,2.2-5,5-5h30.2c2.1,0,3.9,1.3,4.6,3.2c1.2,0.2,2.4,0.5,3.6,0.9c0.5-2.3,2.5-4,4.9-4H386c2.8,0,5,2.2,5,5v7.6
		c0,2.8-2.2,5-5,5h-15.3c1,1.3,1.9,2.7,2.7,4.1c0.9-1.2,2.4-2,4-2h30.2c2.8,0,5,2.2,5,5v7.6c0,2.8-2.2,5-5,5h-29.2
		c0.1,0.7,0.1,1.4,0.1,2h7.4c2.8,0,5,2.2,5,5v7.6c0,2.8-2.2,5-5,5h-7.3v2h29c2.8,0,5,2.2,5,5v7.6c0,2.8-2.2,5-5,5h-29v2h7.3
		c2.8,0,5,2.2,5,5v7.6c0,2.8-2.2,5-5,5h-7.3v2h29c2.8,0,5,2.2,5,5v7.6c0,2.8-2.2,5-5,5h-29v2h7.3c2.8,0,5,2.2,5,5v7.6
		c0,0.3,0,0.7-0.1,1h3.5c-0.1-0.3-0.1-0.6-0.1-1v-7.6c0-2.8,2.2-5,5-5h13.8v-21.7h-13.8c-2.8,0-5-2.2-5-5V189c0-2.8,2.2-5,5-5h13.8
		v-21.7h-13.8c-2.8,0-5-2.2-5-5v-7.6c0-2.8,2.2-5,5-5h13.9c0.2-4.4,1.1-8.5,2.6-12.4V130c0-2.3,1.6-4.2,3.6-4.8
		c0.5-0.8,1-1.5,1.6-2.3h-21.8c-2.8,0-5-2.2-5-5v-7.6c0-2.8,2.2-5,5-5h30.2c2.8,0,5,2.2,5,5v1.5c1-0.5,2.1-1,3.2-1.4v-0.1
		c0-2.8,2.2-5,5-5H473c2.8,0,5,2.2,5,5v7.6c0,0.1,0,0.2,0,0.2c2.2,2,4.1,4.3,5.8,6.8h10.7c2.8,0,5,2.2,5,5v7.6c0,2.8-2.2,5-5,5H490
		c0.1,0.7,0.1,1.4,0.1,2h26.2c2.8,0,5,2.2,5,5v7.6c0,2.8-2.2,5-5,5h-26.1v2h4.3c2.8,0,5,2.2,5,5v7.6c0,2.8-2.2,5-5,5h-4.3v2h26.1
		c2.8,0,5,2.2,5,5v7.6c0,2.8-2.2,5-5,5h-26.1v2h4.3c2.8,0,5,2.2,5,5v7.6c0,2.8-2.2,5-5,5h-4.3v2h26.1c2.8,0,5,2.2,5,5v7.6
		c0,0.3,0,0.7-0.1,1h2.1h1.7c-0.1-0.3-0.1-0.6-0.1-1v-7.6c0-2.8,2.2-5,5-5h25.2v-2h-3.7c-2.8,0-5-2.2-5-5v-7.6c0-2.8,2.2-5,5-5h3.7
		v-2h-25.2c-2.8,0-5-2.2-5-5V189c0-2.8,2.2-5,5-5h25.2v-2h-3.7c-2.8,0-5-2.2-5-5v-7.6c0-2.8,2.2-5,5-5h3.7v-2h-25.2
		c-2.8,0-5-2.2-5-5v-7.6c0-2.8,2.2-5,5-5h25.3c0-0.7,0.1-1.4,0.1-2h-3.9c-2.8,0-5-2.2-5-5V130c0-2.7,2.2-5,5-5h10.2
		c1.9-2.8,4.1-5.4,6.7-7.6v-7.1c0-2.8,2.2-5,5-5h30.2c2.8,0,5,2.2,5,5v0.5c1.1,0.5,2.1,1,3.2,1.5v-2c0-2.8,2.2-5,5-5h30.2
		c2.8,0,5,2.2,5,5v7.6c0,2.8-2.2,5-5,5h-22.7c0.5,0.7,1,1.4,1.5,2.1c2.4,0.4,4.3,2.4,4.3,4.9v3.7c1.2,3.5,1.9,7.1,2.1,11h14.8
		c2.8,0,5,2.2,5,5v7.6c0,2.8-2.2,5-5,5h-14.7V184h14.7c2.8,0,5,2.2,5,5v7.6c0,2.8-2.2,5-5,5h-14.7v21.7h14.7c2.8,0,5,2.2,5,5v7.6
		c0,0.3,0,0.7-0.1,1h3.4c-0.1-0.3-0.1-0.6-0.1-1v-7.6c0-2.8,2.2-5,5-5h6.6v-2h-28.5c-2.8,0-5-2.2-5-5v-7.6c0-2.8,2.2-5,5-5h28.5v-2
		H660c-2.8,0-5-2.2-5-5V189c0-2.8,2.2-5,5-5h6.6v-2h-28.5c-2.8,0-5-2.2-5-5v-7.6c0-2.8,2.2-5,5-5h28.5v-2H660c-2.8,0-5-2.2-5-5v-7.6
		c0-2.8,2.2-5,5-5h6.7c0-0.7,0.1-1.4,0.1-2h-28.7c-2.8,0-5-2.2-5-5V130c0-2.7,2.2-5,5-5h30.2c1.5,0,2.8,0.6,3.7,1.7
		c0.8-1.3,1.6-2.5,2.5-3.7H660c-2.8,0-5-2.2-5-5v-7.6c0-2.8,2.2-5,5-5h30.2c2.3,0,4.3,1.6,4.8,3.8c1.1-0.3,2.3-0.6,3.4-0.8
		c0.8-1.8,2.5-3.1,4.6-3.1h30.2c2.8,0,5,2.2,5,5v7.6c0,2-1.2,3.8-3,4.6c0.6,0.8,1.2,1.6,1.8,2.5h17.7c2.8,0,5,2.2,5,5v7.6
		c0,2.8-2.2,5-5,5h-11.4c0.1,1,0.1,2,0.2,3c0.8-0.6,1.8-0.9,2.9-0.9h30.2c0.9,0,1.7,0.3,2.4,0.7c0-0.9,0.1-1.8,0.2-2.7h-11.3
		c-2.8,0-5-2.2-5-5V130c0-2.7,2.2-5,5-5h17.6c0.6-0.9,1.3-1.8,2-2.7c-1.6-0.8-2.7-2.5-2.7-4.4v-7.6c0-2.8,2.2-5,5-5h30.2
		c2.1,0,3.9,1.3,4.6,3.2c1.2,0.2,2.4,0.5,3.6,0.9c0.5-2.3,2.5-4,4.9-4h30.2c2.8,0,5,2.2,5,5v7.6c0,2.8-2.2,5-5,5h-15.3
		c1,1.3,1.9,2.7,2.7,4.1c0.9-1.2,2.4-2,4-2h30.2c2.8,0,5,2.2,5,5v7.6c0,2.8-2.2,5-5,5H856c0.1,0.7,0.1,1.4,0.1,2h7.4
		c2.8,0,5,2.2,5,5v7.6c0,2.8-2.2,5-5,5h-7.3v2h29c2.8,0,5,2.2,5,5v7.6c0,2.8-2.2,5-5,5h-29v2h7.3c2.8,0,5,2.2,5,5v7.6
		c0,2.8-2.2,5-5,5h-7.3v2h29c2.8,0,5,2.2,5,5v7.6c0,2.8-2.2,5-5,5h-29v2h7.3c2.8,0,5,2.2,5,5v7.6c0,0.3,0,0.7-0.1,1h3.5
		c-0.1-0.3-0.1-0.6-0.1-1v-7.6c0-2.8,2.2-5,5-5h13.8v-21.7h-13.8c-2.8,0-5-2.2-5-5V189c0-2.8,2.2-5,5-5h13.8v-21.7h-13.8
		c-2.8,0-5-2.2-5-5v-7.6c0-2.8,2.2-5,5-5h13.9c0.2-4.4,1.1-8.5,2.6-12.4V130c0-2.3,1.6-4.2,3.6-4.8c0.5-0.8,1-1.5,1.6-2.3h-21.8
		c-2.8,0-5-2.2-5-5v-7.6c0-2.8,2.2-5,5-5h30.2c2.8,0,5,2.2,5,5v1.5c1-0.5,2.1-1,3.2-1.4v-0.1c0-2.8,2.2-5,5-5h30.2c2.8,0,5,2.2,5,5
		v7.6c0,0.1,0,0.2,0,0.2c2.2,2,4.1,4.3,5.8,6.8h10.7c2.8,0,5,2.2,5,5v7.6c0,2.8-2.2,5-5,5h-4.5c0.1,0.7,0.1,1.4,0.1,2h26.2
		c2.8,0,5,2.2,5,5v7.6c0,2.8-2.2,5-5,5h-26.1v2h4.3c2.8,0,5,2.2,5,5v7.6c0,2.8-2.2,5-5,5h-4.3v2h26.1c2.8,0,5,2.2,5,5v7.6
		c0,2.8-2.2,5-5,5h-26.1v2h4.3c2.8,0,5,2.2,5,5v7.6c0,2.8-2.2,5-5,5h-4.3v2h26.1c2.8,0,5,2.2,5,5v7.6c0,0.3,0,0.7-0.1,1h2.1h1.7
		c-0.1-0.3-0.1-0.6-0.1-1v-7.6c0-2.8,2.2-5,5-5h25.3v-2h-3.7c-2.8,0-5-2.2-5-5v-7.6c0-2.8,2.3-5,5-5h3.7v-2h-25.3c-2.8,0-5-2.2-5-5
		V189c0-2.8,2.2-5,5-5h25.3v-2h-3.7c-2.8,0-5-2.2-5-5v-7.6c0-2.8,2.3-5,5-5h3.7v-2h-25.3c-2.8,0-5-2.2-5-5v-7.6c0-2.8,2.2-5,5-5
		h25.3c0-0.7,0.1-1.4,0.1-2h-3.9c-2.8,0-5-2.2-5-5V130c0-2.7,2.3-5,5-5h10.2c1.9-2.8,4.1-5.4,6.7-7.6v-7.1c0-2.8,2.2-5,5-5h30.2
		c2.8,0,5,2.2,5,5v0.5c1.1,0.5,2.1,1,3.2,1.5v-2c0-2.8,2.2-5,5-5h30.2c2.8,0,5,2.2,5,5v7.6c0,2.8-2.2,5-5,5h-22.7
		c0.5,0.7,1,1.4,1.5,2.1c2.4,0.4,4.3,2.4,4.3,4.9v3.7c1.2,3.5,1.9,7.1,2.1,11h14.8c2.8,0,5,2.2,5,5v7.6c0,2.8-2.2,5-5,5h-14.7V184
		h14.7c2.8,0,5,2.2,5,5v7.6c0,2.8-2.2,5-5,5h-14.7v21.7h14.7c2.8,0,5,2.2,5,5v7.6c0,0.3,0,0.7-0.1,1h3.4c-0.1-0.3-0.1-0.6-0.1-1
		v-7.6c0-2.8,2.2-5,5-5h6.6v-2h-28.5c-2.8,0-5-2.2-5-5v-7.6c0-2.8,2.2-5,5-5h28.5v-2h-6.6c-2.8,0-5-2.2-5-5V189c0-2.8,2.2-5,5-5h6.6
		v-2h-28.5c-2.8,0-5-2.2-5-5v-7.6c0-2.8,2.2-5,5-5h28.5v-2h-6.6c-2.8,0-5-2.2-5-5v-7.6c0-2.8,2.2-5,5-5h6.7c0-0.7,0.1-1.4,0.1-2
		h-28.7c-2.8,0-5-2.2-5-5V130c0-2.7,2.2-5,5-5h30.2c1.5,0,2.8,0.6,3.7,1.7c0.8-1.3,1.6-2.5,2.5-3.7h-14.6c-2.8,0-5-2.2-5-5v-7.6
		c0-2.8,2.2-5,5-5h30.2c2.3,0,4.3,1.6,4.8,3.8c1.1-0.3,2.3-0.6,3.4-0.8c0.8-1.8,2.5-3.1,4.6-3.1h30.2c2.8,0,5,2.2,5,5v7.6
		c0,2-1.2,3.8-3,4.6c0.6,0.8,1.2,1.6,1.8,2.5h17.7c2.8,0,5,2.2,5,5v7.6c0,2.8-2.2,5-5,5H1221c0.1,1,0.1,2,0.2,3
		c0.8-0.6,1.8-0.9,2.9-0.9h30.2c0.9,0,1.7,0.3,2.4,0.7c0-0.9,0.1-1.8,0.2-2.7h-11.3c-2.8,0-5-2.2-5-5V130c0-2.7,2.2-5,5-5h17.6
		c0.6-0.9,1.3-1.8,2-2.7c-1.6-0.8-2.7-2.5-2.7-4.4v-7.6c0-2.8,2.2-5,5-5h30.2c2.1,0,3.9,1.3,4.6,3.2c1.2,0.2,2.4,0.5,3.6,0.9
		c0.5-2.3,2.5-4,4.9-4h30.2c2.8,0,5,2.2,5,5v7.6c0,2.8-2.2,5-5,5h-15.3c1,1.3,1.9,2.7,2.7,4.1c0.9-1.2,2.4-2,4-2h30.2
		c2.8,0,5,2.2,5,5v7.6c0,2.8-2.2,5-5,5h-29.2c0.1,0.7,0.1,1.4,0.1,2h7.4c2.8,0,5,2.2,5,5v7.6c0,2.8-2.2,5-5,5h-7.3v2h29
		c2.8,0,5,2.2,5,5v7.6c0,2.8-2.2,5-5,5h-29v2h7.3c2.8,0,5,2.2,5,5v7.6c0,2.8-2.2,5-5,5h-7.3v2h29c2.8,0,5,2.2,5,5v7.6
		c0,2.8-2.2,5-5,5h-29v2h7.3c2.8,0,5,2.2,5,5v7.6c0,0.3,0,0.7-0.1,1h3.5c-0.1-0.3-0.1-0.6-0.1-1v-7.6c0-2.8,2.2-5,5-5h13.8v-21.7
		h-13.8c-2.8,0-5-2.2-5-5V189c0-2.8,2.2-5,5-5h13.8v-21.7h-13.8c-2.8,0-5-2.2-5-5v-7.6c0-2.8,2.2-5,5-5h13.9
		c0.2-4.4,1.1-8.5,2.6-12.4V130c0-2.3,1.6-4.2,3.6-4.8c0.5-0.8,1-1.5,1.6-2.3h-21.8c-2.8,0-5-2.2-5-5v-7.6c0-2.8,2.2-5,5-5h30.2
		c2.8,0,5,2.2,5,5v1.5c1-0.5,2.1-1,3.2-1.4v-0.1c0-2.8,2.2-5,5-5h30.2c2.8,0,5,2.2,5,5v7.6c0,0.1,0,0.2,0,0.2c2.2,2,4.1,4.3,5.8,6.8
		h10.7c2.8,0,5,2.2,5,5v7.6c0,2.8-2.2,5-5,5h-4.5c0.1,0.7,0.1,1.4,0.1,2h26.2c2.8,0,5,2.2,5,5v7.6c0,2.8-2.2,5-5,5h-26.1v2h4.3
		c2.8,0,5,2.2,5,5v7.6c0,2.8-2.2,5-5,5h-4.3v2h26.1c2.8,0,5,2.2,5,5v7.6c0,2.8-2.2,5-5,5h-26.1v2h4.3c2.8,0,5,2.2,5,5v7.6
		c0,2.8-2.2,5-5,5h-4.3v2h26.1c2.8,0,5,2.2,5,5v7.6c0,0.3,0,0.7-0.1,1h2.1v-15.6h-15.7c-2.8,0-5-2.2-5-5v-7.6c0-2.8,2.2-5,5-5h15.7
		v-21.7h-15.7c-2.8,0-5-2.2-5-5v-7.6c0-2.8,2.2-5,5-5h15.7v-21.7h-15.7c-2.8,0-5-2.2-5-5V130c0-2.7,2.2-5,5-5h15.7v-21.7h-15.7
		c-2.8,0-5-2.2-5-5v-7.6c0-2.8,2.2-5,5-5h15.7V64h-15.7c-2.8,0-5-2.2-5-5v-7.6c0-2.8,2.2-5,5-5h15.7V23.9h0v22.5h14.9
		c2.8,0,5,2.2,5,5V59c0,2.8-2.2,5-5,5h-14.9v21.7h14.9c2.8,0,5,2.2,5,5v7.6c0,2.8-2.2,5-5,5h-14.9V125h14.9c2.8,0,5,2.2,5,5v7.6
		c0,2.8-2.2,5-5,5h-14.9v21.7h14.9c2.8,0,5,2.2,5,5v7.6c0,2.8-2.2,5-5,5h-14.9v21.7h14.9c2.8,0,5,2.2,5,5v7.6c0,2.8-2.2,5-5,5h-14.9
		v15.6h1.7c-0.1-0.3-0.1-0.6-0.1-1v-7.6c0-2.8,2.2-5,5-5h25.2v-2h-3.7c-2.8,0-5-2.2-5-5v-7.6c0-2.8,2.2-5,5-5h3.7v-2h-25.2
		c-2.8,0-5-2.2-5-5V189c0-2.8,2.2-5,5-5h25.2v-2h-3.7c-2.8,0-5-2.2-5-5v-7.6c0-2.8,2.2-5,5-5h3.7v-2h-25.2c-2.8,0-5-2.2-5-5v-7.6
		c0-2.8,2.2-5,5-5h25.3c0-0.7,0.1-1.4,0.1-2h-3.9c-2.8,0-5-2.2-5-5V130c0-2.7,2.2-5,5-5h10.2c1.9-2.8,4.1-5.4,6.7-7.6v-7.1
		c0-2.8,2.2-5,5-5h30.2c2.8,0,5,2.2,5,5v0.5c1.1,0.5,2.1,1,3.2,1.5v-2c0-2.8,2.2-5,5-5h30.2c2.8,0,5,2.2,5,5v7.6c0,2.8-2.2,5-5,5
		h-22.7c0.5,0.7,1,1.4,1.5,2.1c2.4,0.4,4.3,2.4,4.3,4.9v3.7c1.2,3.5,1.9,7.1,2.1,11h14.8c2.8,0,5,2.2,5,5v7.6c0,2.8-2.2,5-5,5h-14.7
		V184h14.7c2.8,0,5,2.2,5,5v7.6c0,2.8-2.2,5-5,5h-14.7v21.7h14.7c2.8,0,5,2.2,5,5v7.6c0,0.3,0,0.7-0.1,1h3.4c-0.1-0.3-0.1-0.6-0.1-1
		v-7.6c0-2.8,2.2-5,5-5h6.6v-2h-28.5c-2.8,0-5-2.2-5-5v-7.6c0-2.8,2.2-5,5-5h28.5v-2h-6.6c-2.8,0-5-2.2-5-5V189c0-2.8,2.2-5,5-5h6.6
		v-2h-28.5c-2.8,0-5-2.2-5-5v-7.6c0-2.8,2.2-5,5-5h28.5v-2h-6.6c-2.8,0-5-2.2-5-5v-7.6c0-2.8,2.2-5,5-5h6.7c0-0.7,0.1-1.4,0.1-2
		h-28.7c-2.8,0-5-2.2-5-5V130c0-2.7,2.2-5,5-5h30.2c1.5,0,2.8,0.6,3.7,1.7c0.8-1.3,1.6-2.5,2.5-3.7H1615c-2.8,0-5-2.2-5-5v-7.6
		c0-2.8,2.2-5,5-5h30.2c2.3,0,4.3,1.6,4.8,3.8c1.1-0.3,2.3-0.6,3.4-0.8c0.8-1.8,2.5-3.1,4.6-3.1h30.2c2.8,0,5,2.2,5,5v7.6
		c0,2-1.2,3.8-3,4.6c0.6,0.8,1.2,1.6,1.8,2.5h17.7c2.8,0,5,2.2,5,5v7.6c0,2.8-2.2,5-5,5h-11.4c0.1,1,0.1,2,0.2,3
		c0.8-0.6,1.8-0.9,2.9-0.9h30.2c0.9,0,1.7,0.3,2.4,0.7c0-0.9,0.1-1.8,0.2-2.7H1723c-2.8,0-5-2.2-5-5V130c0-2.7,2.2-5,5-5h17.6
		c0.6-0.9,1.3-1.8,2-2.7c-1.6-0.8-2.7-2.5-2.7-4.4v-7.6c0-2.8,2.2-5,5-5h30.2c2.1,0,3.9,1.3,4.6,3.2c1.2,0.2,2.4,0.5,3.6,0.9
		c0.5-2.3,2.5-4,4.9-4h30.2c2.8,0,5,2.2,5,5v7.6c0,2.8-2.2,5-5,5h-15.3c1,1.3,1.9,2.7,2.7,4.1c0.9-1.2,2.4-2,4-2h30.2
		c2.8,0,5,2.2,5,5v7.6c0,2.8-2.2,5-5,5h-29.2c0.1,0.7,0.1,1.4,0.1,2h7.4c2.8,0,5,2.2,5,5v7.6c0,2.8-2.2,5-5,5h-7.3v2h29
		c2.8,0,5,2.2,5,5v7.6c0,2.8-2.2,5-5,5h-29v2h7.3c2.8,0,5,2.2,5,5v7.6c0,2.8-2.2,5-5,5h-7.3v2h29c2.8,0,5,2.2,5,5v7.6
		c0,2.8-2.2,5-5,5h-29v2h7.3c2.8,0,5,2.2,5,5v7.6c0,0.3,0,0.7-0.1,1h3.5c-0.1-0.3-0.1-0.6-0.1-1v-7.6c0-2.8,2.2-5,5-5h13.8v-21.7
		h-13.8c-2.8,0-5-2.2-5-5V189c0-2.8,2.2-5,5-5h13.8v-21.7h-13.8c-2.8,0-5-2.2-5-5v-7.6c0-2.8,2.2-5,5-5h13.9
		c0.2-4.4,1.1-8.5,2.6-12.4V130c0-2.3,1.6-4.2,3.6-4.8c0.5-0.8,1-1.5,1.6-2.3h-21.8c-2.8,0-5-2.2-5-5v-7.6c0-2.8,2.2-5,5-5h30.2
		c2.8,0,5,2.2,5,5v1.5c1-0.5,2.1-1,3.2-1.4v-0.1c0-2.8,2.2-5,5-5h30.2c2.8,0,5,2.2,5,5v7.6c0,0.1,0,0.2,0,0.2c2.2,2,4.1,4.3,5.8,6.8
		h10.7c2.8,0,5,2.2,5,5v7.6c0,2.8-2.2,5-5,5h-4.5c0.1,0.7,0.1,1.4,0.1,2h26.2c2.8,0,5,2.2,5,5v7.6c0,2.8-2.2,5-5,5h-26.1v2h4.3
		c2.8,0,5,2.2,5,5v7.6c0,2.8-2.2,5-5,5h-4.3v2h26.1c2.8,0,5,2.2,5,5v7.6c0,2.8-2.2,5-5,5h-26.1v2h4.3c2.8,0,5,2.2,5,5v7.6
		c0,2.8-2.2,5-5,5h-4.3v2h26.1c2.8,0,5,2.2,5,5v7.6c0,0.3,0,0.7-0.1,1h2.1v-15.6H1940c-2.8,0-5-2.2-5-5v-7.6c0-2.8,2.2-5,5-5h15.7
		v-21.7H1940c-2.8,0-5-2.2-5-5v-7.6c0-2.8,2.2-5,5-5h15.7v-21.7H1940c-2.8,0-5-2.2-5-5V130c0-2.7,2.2-5,5-5h15.7v-21.7H1940
		c-2.8,0-5-2.2-5-5v-7.6c0-2.8,2.2-5,5-5h15.7V64H1940c-2.8,0-5-2.2-5-5v-7.6c0-2.8,2.2-5,5-5h15.7V23.9v-11H1478.3z M1419.2,64
		c-2.8,0-5-2.2-5-5v-7.6c0-2.8,2.2-5,5-5h30.2c2.8,0,5,2.2,5,5V59c0,2.8-2.2,5-5,5H1419.2z M1432.9,71.1v7.6c0,2.8-2.2,5-5,5h-30.2
		c-2.8,0-5-2.2-5-5v-7.6c0-2.8,2.2-5,5-5h30.2C1430.6,66.1,1432.9,68.3,1432.9,71.1z M1432.9,39.4c0,2.8-2.2,5-5,5h-30.2
		c-2.8,0-5-2.2-5-5v-7.6c0-2.8,2.2-5,5-5h30.2c2.8,0,5,2.2,5,5V39.4z M1406,46.4c2.8,0,5,2.2,5,5V59c0,2.8-2.2,5-5,5h-30.2
		c-2.8,0-5-2.2-5-5v-7.6c0-2.8,2.2-5,5-5H1406z M1389.5,71.1v7.6c0,2.8-2.2,5-5,5h-30.2c-2.8,0-5-2.2-5-5v-7.6c0-2.8,2.2-5,5-5h30.2
		C1387.3,66.1,1389.5,68.3,1389.5,71.1z M1389.5,39.4c0,2.8-2.2,5-5,5h-30.2c-2.8,0-5-2.2-5-5v-7.6c0-2.8,2.2-5,5-5h30.2
		c2.8,0,5,2.2,5,5V39.4z M1362.7,46.4c2.8,0,5,2.2,5,5V59c0,2.8-2.2,5-5,5h-30.2c-2.8,0-5-2.2-5-5v-7.6c0-2.8,2.2-5,5-5H1362.7z
		 M1346,71.1v7.6c0,2.8-2.2,5-5,5h-30.2c-2.8,0-5-2.2-5-5v-7.6c0-2.8,2.2-5,5-5h30.2C1343.7,66.1,1346,68.3,1346,71.1z M1346,39.4
		c0,2.8-2.2,5-5,5h-30.2c-2.8,0-5-2.2-5-5v-7.6c0-2.8,2.2-5,5-5h30.2c2.8,0,5,2.2,5,5V39.4z M1319.1,46.4c2.8,0,5,2.2,5,5V59
		c0,2.8-2.2,5-5,5h-30.2c-2.8,0-5-2.2-5-5v-7.6c0-2.8,2.2-5,5-5H1319.1z M1302.6,71.1v7.6c0,2.8-2.2,5-5,5h-30.2c-2.8,0-5-2.2-5-5
		v-7.6c0-2.8,2.2-5,5-5h30.2C1300.4,66.1,1302.6,68.3,1302.6,71.1z M1302.6,39.4c0,2.8-2.2,5-5,5h-30.2c-2.8,0-5-2.2-5-5v-7.6
		c0-2.8,2.2-5,5-5h30.2c2.8,0,5,2.2,5,5V39.4z M1275.7,46.4c2.8,0,5,2.2,5,5V59c0,2.8-2.2,5-5,5h-30.2c-2.8,0-5-2.2-5-5v-7.6
		c0-2.8,2.2-5,5-5H1275.7z M1259.2,71.1v7.6c0,2.8-2.2,5-5,5H1224c-2.8,0-5-2.2-5-5v-7.6c0-2.8,2.2-5,5-5h30.2
		C1257,66.1,1259.2,68.3,1259.2,71.1z M1259.2,39.4c0,2.8-2.2,5-5,5H1224c-2.8,0-5-2.2-5-5v-7.6c0-2.8,2.2-5,5-5h30.2
		c2.8,0,5,2.2,5,5V39.4z M1232.4,46.4c2.8,0,5,2.2,5,5V59c0,2.8-2.2,5-5,5h-30.2c-2.8,0-5-2.2-5-5v-7.6c0-2.8,2.2-5,5-5H1232.4z
		 M1215.9,71.1v7.6c0,2.8-2.2,5-5,5h-30.2c-2.8,0-5-2.2-5-5v-7.6c0-2.8,2.2-5,5-5h30.2C1213.6,66.1,1215.9,68.3,1215.9,71.1z
		 M1215.9,39.4c0,2.8-2.2,5-5,5h-30.2c-2.8,0-5-2.2-5-5v-7.6c0-2.8,2.2-5,5-5h30.2c2.8,0,5,2.2,5,5V39.4z M1189,46.4
		c2.8,0,5,2.2,5,5V59c0,2.8-2.2,5-5,5h-30.2c-2.8,0-5-2.2-5-5v-7.6c0-2.8,2.2-5,5-5H1189z M1172.7,71.1v7.6c0,2.8-2.2,5-5,5h-30.2
		c-2.8,0-5-2.2-5-5v-7.6c0-2.8,2.2-5,5-5h30.2C1170.5,66.1,1172.7,68.3,1172.7,71.1z M1172.7,39.4c0,2.8-2.2,5-5,5h-30.2
		c-2.8,0-5-2.2-5-5v-7.6c0-2.8,2.2-5,5-5h30.2c2.8,0,5,2.2,5,5V39.4z M1145.9,46.4c2.8,0,5,2.2,5,5V59c0,2.8-2.2,5-5,5h-30.2
		c-2.8,0-5-2.2-5-5v-7.6c0-2.8,2.2-5,5-5H1145.9z M1129.4,71.1v7.6c0,2.8-2.2,5-5,5h-30.2c-2.8,0-5-2.2-5-5v-7.6c0-2.8,2.2-5,5-5
		h30.2C1127.1,66.1,1129.4,68.3,1129.4,71.1z M1129.4,39.4c0,2.8-2.2,5-5,5h-30.2c-2.8,0-5-2.2-5-5v-7.6c0-2.8,2.2-5,5-5h30.2
		c2.8,0,5,2.2,5,5V39.4z M1102.5,46.4c2.8,0,5,2.2,5,5V59c0,2.8-2.2,5-5,5h-30.2c-2.8,0-5-2.2-5-5v-7.6c0-2.8,2.2-5,5-5H1102.5z
		 M1086,71.1v7.6c0,2.8-2.2,5-5,5h-30.2c-2.8,0-5-2.2-5-5v-7.6c0-2.8,2.2-5,5-5h30.2C1083.7,66.1,1086,68.3,1086,71.1z M1086,39.4
		c0,2.8-2.2,5-5,5h-30.2c-2.8,0-5-2.2-5-5v-7.6c0-2.8,2.2-5,5-5h30.2c2.8,0,5,2.2,5,5V39.4z M1059.1,46.4c2.8,0,5,2.2,5,5V59
		c0,2.8-2.2,5-5,5h-30.2c-2.8,0-5-2.2-5-5v-7.6c0-2.8,2.3-5,5-5H1059.1z M104.2,46.4c2.8,0,5,2.2,5,5V59c0,2.8-2.2,5-5,5H74
		c-2.8,0-5-2.2-5-5v-7.6c0-2.8,2.2-5,5-5H104.2z M90.8,39.4v-7.6c0-2.8,2.2-5,5-5H126c2.8,0,5,2.2,5,5v7.6c0,2.8-2.2,5-5,5H95.8
		C93.1,44.4,90.8,42.1,90.8,39.4z M90.8,71.1c0-2.8,2.2-5,5-5H126c2.8,0,5,2.2,5,5v7.6c0,2.8-2.2,5-5,5H95.8c-2.8,0-5-2.2-5-5V71.1z
		 M117.3,64c-2.8,0-5-2.2-5-5v-7.6c0-2.8,2.2-5,5-5h30.2c2.8,0,5,2.2,5,5V59c0,2.8-2.2,5-5,5H117.3z M134.2,39.4v-7.6
		c0-2.8,2.2-5,5-5h30.2c2.8,0,5,2.2,5,5v7.6c0,2.8-2.2,5-5,5h-30.2C136.5,44.4,134.2,42.1,134.2,39.4z M134.2,71.1c0-2.8,2.2-5,5-5
		h30.2c2.8,0,5,2.2,5,5v7.6c0,2.8-2.2,5-5,5h-30.2c-2.8,0-5-2.2-5-5V71.1z M160.7,64c-2.8,0-5-2.2-5-5v-7.6c0-2.8,2.2-5,5-5h30.2
		c2.8,0,5,2.2,5,5V59c0,2.8-2.2,5-5,5H160.7z M177.6,39.4v-7.6c0-2.8,2.2-5,5-5h30.2c2.8,0,5,2.2,5,5v7.6c0,2.8-2.2,5-5,5h-30.2
		C179.8,44.4,177.6,42.1,177.6,39.4z M177.6,71.1c0-2.8,2.2-5,5-5h30.2c2.8,0,5,2.2,5,5v7.6c0,2.8-2.2,5-5,5h-30.2c-2.8,0-5-2.2-5-5
		V71.1z M203.8,64c-2.8,0-5-2.2-5-5v-7.6c0-2.8,2.2-5,5-5h30.2c2.8,0,5,2.2,5,5V59c0,2.8-2.2,5-5,5H203.8z M220.7,39.4v-7.6
		c0-2.8,2.2-5,5-5h30.2c2.7,0,5,2.2,5,5v7.6c0,2.8-2.2,5-5,5h-30.2C223,44.4,220.7,42.1,220.7,39.4z M220.7,71.1c0-2.8,2.2-5,5-5
		h30.2c2.7,0,5,2.2,5,5v7.6c0,2.8-2.2,5-5,5h-30.2c-2.8,0-5-2.2-5-5V71.1z M247.2,64c-2.8,0-5-2.2-5-5v-7.6c0-2.8,2.2-5,5-5h30.2
		c2.8,0,5,2.2,5,5V59c0,2.8-2.2,5-5,5H247.2z M264.1,39.4v-7.6c0-2.8,2.2-5,5-5h30.2c2.8,0,5,2.2,5,5v7.6c0,2.8-2.2,5-5,5h-30.2
		C266.3,44.4,264.1,42.1,264.1,39.4z M264.1,71.1c0-2.8,2.2-5,5-5h30.2c2.8,0,5,2.2,5,5v7.6c0,2.8-2.2,5-5,5h-30.2c-2.8,0-5-2.2-5-5
		V71.1z M290.6,64c-2.8,0-5-2.2-5-5v-7.6c0-2.8,2.2-5,5-5h30.2c2.8,0,5,2.2,5,5V59c0,2.8-2.2,5-5,5H290.6z M307.5,39.4v-7.6
		c0-2.8,2.2-5,5-5h30.2c2.8,0,5,2.2,5,5v7.6c0,2.8-2.2,5-5,5h-30.2C309.7,44.4,307.5,42.1,307.5,39.4z M307.5,71.1c0-2.8,2.2-5,5-5
		h30.2c2.8,0,5,2.2,5,5v7.6c0,2.8-2.2,5-5,5h-30.2c-2.8,0-5-2.2-5-5V71.1z M334,64c-2.8,0-5-2.2-5-5v-7.6c0-2.8,2.2-5,5-5h30.2
		c2.8,0,5,2.2,5,5V59c0,2.8-2.2,5-5,5H334z M350.8,39.4v-7.6c0-2.8,2.2-5,5-5H386c2.8,0,5,2.2,5,5v7.6c0,2.8-2.2,5-5,5h-30.2
		C353.1,44.4,350.8,42.1,350.8,39.4z M350.8,71.1c0-2.8,2.2-5,5-5H386c2.8,0,5,2.2,5,5v7.6c0,2.8-2.2,5-5,5h-30.2c-2.8,0-5-2.2-5-5
		V71.1z M377.5,64c-2.8,0-5-2.2-5-5v-7.6c0-2.8,2.2-5,5-5h30.2c2.8,0,5,2.2,5,5V59c0,2.8-2.2,5-5,5H377.5z M394.4,39.4v-7.6
		c0-2.8,2.2-5,5-5h30.2c2.8,0,5,2.2,5,5v7.6c0,2.8-2.2,5-5,5h-30.2C396.6,44.4,394.4,42.1,394.4,39.4z M394.4,71.1c0-2.8,2.2-5,5-5
		h30.2c2.8,0,5,2.2,5,5v7.6c0,2.8-2.2,5-5,5h-30.2c-2.8,0-5-2.2-5-5V71.1z M420.9,64c-2.8,0-5-2.2-5-5v-7.6c0-2.8,2.2-5,5-5h30.2
		c2.8,0,5,2.2,5,5V59c0,2.8-2.2,5-5,5H420.9z M437.7,39.4v-7.6c0-2.8,2.2-5,5-5H473c2.8,0,5,2.2,5,5v7.6c0,2.8-2.2,5-5,5h-30.2
		C440,44.4,437.7,42.1,437.7,39.4z M437.7,71.1c0-2.8,2.2-5,5-5H473c2.8,0,5,2.2,5,5v7.6c0,2.8-2.2,5-5,5h-30.2c-2.8,0-5-2.2-5-5
		V71.1z M464.3,64c-2.8,0-5-2.2-5-5v-7.6c0-2.8,2.2-5,5-5h30.2c2.8,0,5,2.2,5,5V59c0,2.8-2.2,5-5,5H464.3z M538.3,46.4
		c2.8,0,5,2.2,5,5V59c0,2.8-2.2,5-5,5h-14.9h-15.7c-2.8,0-5-2.2-5-5v-7.6c0-2.8,2.2-5,5-5h15.7H538.3z M524.9,39.4v-7.6
		c0-2.8,2.2-5,5-5h30.2c2.8,0,5,2.2,5,5v7.6c0,2.8-2.2,5-5,5h-30.2C527.2,44.4,524.9,42.1,524.9,39.4z M521.3,39.4c0,2.8-2.2,5-5,5
		h-30.2c-2.8,0-5-2.2-5-5v-7.6c0-2.8,2.2-5,5-5h30.2c2.8,0,5,2.2,5,5V39.4z M481.1,71.1c0-2.8,2.2-5,5-5h30.2c2.8,0,5,2.2,5,5v7.6
		c0,2.8-2.2,5-5,5h-30.2c-2.8,0-5-2.2-5-5V71.1z M502.6,90.7c0-2.8,2.2-5,5-5h15.7h14.9c2.8,0,5,2.2,5,5v7.6c0,2.8-2.2,5-5,5h-14.9
		h-15.7c-2.8,0-5-2.2-5-5V90.7z M529.9,83.7c-2.8,0-5-2.2-5-5v-7.6c0-2.8,2.2-5,5-5h30.2c2.8,0,5,2.2,5,5v7.6c0,2.8-2.2,5-5,5H529.9
		z M551.4,64c-2.8,0-5-2.2-5-5v-7.6c0-2.8,2.2-5,5-5h30.2c2.8,0,5,2.2,5,5V59c0,2.8-2.2,5-5,5H551.4z M568.3,39.4v-7.6
		c0-2.8,2.2-5,5-5h30.2c2.8,0,5,2.2,5,5v7.6c0,2.8-2.2,5-5,5h-30.2C570.5,44.4,568.3,42.1,568.3,39.4z M568.3,71.1c0-2.8,2.2-5,5-5
		h30.2c2.8,0,5,2.2,5,5v7.6c0,2.8-2.2,5-5,5h-30.2c-2.8,0-5-2.2-5-5V71.1z M594.8,64c-2.8,0-5-2.2-5-5v-7.6c0-2.8,2.2-5,5-5H625
		c2.8,0,5,2.2,5,5V59c0,2.8-2.2,5-5,5H594.8z M611.7,39.4v-7.6c0-2.8,2.2-5,5-5h30.2c2.8,0,5,2.2,5,5v7.6c0,2.8-2.2,5-5,5h-30.2
		C613.9,44.4,611.7,42.1,611.7,39.4z M611.7,71.1c0-2.8,2.2-5,5-5h30.2c2.8,0,5,2.2,5,5v7.6c0,2.8-2.2,5-5,5h-30.2c-2.8,0-5-2.2-5-5
		V71.1z M638.2,64c-2.8,0-5-2.2-5-5v-7.6c0-2.8,2.2-5,5-5h30.2c2.8,0,5,2.2,5,5V59c0,2.8-2.2,5-5,5H638.2z M655,39.4v-7.6
		c0-2.8,2.2-5,5-5h30.2c2.8,0,5,2.2,5,5v7.6c0,2.8-2.2,5-5,5H660C657.3,44.4,655,42.1,655,39.4z M655,71.1c0-2.8,2.2-5,5-5h30.2
		c2.8,0,5,2.2,5,5v7.6c0,2.8-2.2,5-5,5H660c-2.8,0-5-2.2-5-5V71.1z M681.3,64c-2.8,0-5-2.2-5-5v-7.6c0-2.8,2.2-5,5-5h30.2
		c2.8,0,5,2.2,5,5V59c0,2.8-2.2,5-5,5H681.3z M698.2,39.4v-7.6c0-2.8,2.2-5,5-5h30.2c2.8,0,5,2.2,5,5v7.6c0,2.8-2.2,5-5,5h-30.2
		C700.4,44.4,698.2,42.1,698.2,39.4z M698.2,71.1c0-2.8,2.2-5,5-5h30.2c2.8,0,5,2.2,5,5v7.6c0,2.8-2.2,5-5,5h-30.2c-2.8,0-5-2.2-5-5
		V71.1z M724.7,64c-2.8,0-5-2.2-5-5v-7.6c0-2.8,2.2-5,5-5h30.2c2.8,0,5,2.2,5,5V59c0,2.8-2.2,5-5,5H724.7z M741.5,39.4v-7.6
		c0-2.8,2.2-5,5-5h30.2c2.8,0,5,2.2,5,5v7.6c0,2.8-2.2,5-5,5h-30.2C743.8,44.4,741.5,42.1,741.5,39.4z M741.5,71.1c0-2.8,2.2-5,5-5
		h30.2c2.8,0,5,2.2,5,5v7.6c0,2.8-2.2,5-5,5h-30.2c-2.8,0-5-2.2-5-5V71.1z M768.1,64c-2.8,0-5-2.2-5-5v-7.6c0-2.8,2.2-5,5-5h30.2
		c2.8,0,5,2.2,5,5V59c0,2.8-2.2,5-5,5H768.1z M784.9,39.4v-7.6c0-2.8,2.2-5,5-5h30.2c2.8,0,5,2.2,5,5v7.6c0,2.8-2.2,5-5,5h-30.2
		C787.2,44.4,784.9,42.1,784.9,39.4z M784.9,71.1c0-2.8,2.2-5,5-5h30.2c2.8,0,5,2.2,5,5v7.6c0,2.8-2.2,5-5,5h-30.2c-2.8,0-5-2.2-5-5
		V71.1z M811.4,64c-2.8,0-5-2.2-5-5v-7.6c0-2.8,2.2-5,5-5h30.2c2.8,0,5,2.2,5,5V59c0,2.8-2.2,5-5,5H811.4z M828.3,39.4v-7.6
		c0-2.8,2.2-5,5-5h30.2c2.8,0,5,2.2,5,5v7.6c0,2.8-2.2,5-5,5h-30.2C830.5,44.4,828.3,42.1,828.3,39.4z M828.3,71.1c0-2.8,2.2-5,5-5
		h30.2c2.8,0,5,2.2,5,5v7.6c0,2.8-2.2,5-5,5h-30.2c-2.8,0-5-2.2-5-5V71.1z M855,64c-2.8,0-5-2.2-5-5v-7.6c0-2.8,2.2-5,5-5h30.2
		c2.8,0,5,2.2,5,5V59c0,2.8-2.2,5-5,5H855z M871.8,39.4v-7.6c0-2.8,2.2-5,5-5h30.2c2.8,0,5,2.2,5,5v7.6c0,2.8-2.2,5-5,5h-30.2
		C874.1,44.4,871.8,42.1,871.8,39.4z M871.8,71.1c0-2.8,2.2-5,5-5h30.2c2.8,0,5,2.2,5,5v7.6c0,2.8-2.2,5-5,5h-30.2c-2.8,0-5-2.2-5-5
		V71.1z M898.4,64c-2.8,0-5-2.2-5-5v-7.6c0-2.8,2.2-5,5-5h30.2c2.8,0,5,2.2,5,5V59c0,2.8-2.2,5-5,5H898.4z M915.2,39.4v-7.6
		c0-2.8,2.2-5,5-5h30.2c2.8,0,5,2.2,5,5v7.6c0,2.8-2.2,5-5,5h-30.2C917.5,44.4,915.2,42.1,915.2,39.4z M915.2,71.1c0-2.8,2.2-5,5-5
		h30.2c2.8,0,5,2.2,5,5v7.6c0,2.8-2.2,5-5,5h-30.2c-2.8,0-5-2.2-5-5V71.1z M941.7,64c-2.8,0-5-2.2-5-5v-7.6c0-2.8,2.2-5,5-5h30.2
		c2.8,0,5,2.2,5,5V59c0,2.8-2.2,5-5,5H941.7z M958.6,39.4v-7.6c0-2.8,2.2-5,5-5h30.2c2.8,0,5,2.2,5,5v7.6c0,2.8-2.2,5-5,5h-30.2
		C960.8,44.4,958.6,42.1,958.6,39.4z M958.6,71.1c0-2.8,2.2-5,5-5h30.2c2.8,0,5,2.2,5,5v7.6c0,2.8-2.2,5-5,5h-30.2c-2.8,0-5-2.2-5-5
		V71.1z M980.1,90.7c0-2.8,2.2-5,5-5h15.7h14.9c2.8,0,5,2.2,5,5v7.6c0,2.8-2.2,5-5,5h-14.9h-15.7c-2.8,0-5-2.2-5-5V90.7z
		 M1007.4,83.7c-2.8,0-5-2.2-5-5v-7.6c0-2.8,2.2-5,5-5h30.2c2.8,0,5,2.2,5,5v7.6c0,2.8-2.2,5-5,5H1007.4z M1042.6,39.4
		c0,2.8-2.2,5-5,5h-30.2c-2.8,0-5-2.2-5-5v-7.6c0-2.8,2.2-5,5-5h30.2c2.8,0,5,2.2,5,5V39.4z M1015.7,46.4c2.8,0,5,2.2,5,5V59
		c0,2.8-2.2,5-5,5h-14.9h-15.7c-2.8,0-5-2.2-5-5v-7.6c0-2.8,2.2-5,5-5h15.7H1015.7z M52.5,44.4c-2.8,0-5-2.2-5-5v-7.6
		c0-2.8,2.2-5,5-5h30.2c2.8,0,5,2.2,5,5v7.6c0,2.8-2.2,5-5,5H52.5z M52.5,83.7c-2.8,0-5-2.2-5-5v-7.6c0-2.8,2.2-5,5-5h30.2
		c2.8,0,5,2.2,5,5v7.6c0,2.8-2.2,5-5,5H52.5z M87.7,118c0,2.8-2.2,5-5,5H52.5c-2.8,0-5-2.2-5-5v-7.6c0-2.8,2.2-5,5-5h30.2
		c2.8,0,5,2.2,5,5V118z M109.2,98.3c0,2.8-2.2,5-5,5H74c-2.8,0-5-2.2-5-5v-7.6c0-2.8,2.2-5,5-5h30.2c2.8,0,5,2.2,5,5V98.3z
		 M152.6,98.3c0,2.8-2.2,5-5,5h-30.2c-2.8,0-5-2.2-5-5v-7.6c0-2.8,2.2-5,5-5h30.2c2.8,0,5,2.2,5,5V98.3z M195.9,98.3
		c0,2.8-2.2,5-5,5h-30.2c-2.8,0-5-2.2-5-5v-7.6c0-2.8,2.2-5,5-5h30.2c2.8,0,5,2.2,5,5V98.3z M239.1,98.3c0,2.8-2.2,5-5,5h-30.2
		c-2.8,0-5-2.2-5-5v-7.6c0-2.8,2.2-5,5-5h30.2c2.8,0,5,2.2,5,5V98.3z M247.2,103.3c-2.8,0-5-2.2-5-5v-7.6c0-2.8,2.2-5,5-5h30.2
		c2.8,0,5,2.2,5,5v7.6c0,2.8-2.2,5-5,5H247.2z M304.3,118c0,2.8-2.2,5-5,5h-30.2c-2.8,0-5-2.2-5-5v-7.6c0-2.8,2.2-5,5-5h30.2
		c2.8,0,5,2.2,5,5V118z M325.8,98.3c0,2.8-2.2,5-5,5h-30.2c-2.8,0-5-2.2-5-5v-7.6c0-2.8,2.2-5,5-5h30.2c2.8,0,5,2.2,5,5V98.3z
		 M369.2,98.3c0,2.8-2.2,5-5,5H334c-2.8,0-5-2.2-5-5v-7.6c0-2.8,2.2-5,5-5h30.2c2.8,0,5,2.2,5,5V98.3z M412.7,98.3c0,2.8-2.2,5-5,5
		h-30.2c-2.8,0-5-2.2-5-5v-7.6c0-2.8,2.2-5,5-5h30.2c2.8,0,5,2.2,5,5V98.3z M456.1,98.3c0,2.8-2.2,5-5,5h-30.2c-2.8,0-5-2.2-5-5
		v-7.6c0-2.8,2.2-5,5-5h30.2c2.8,0,5,2.2,5,5V98.3z M464.3,103.3c-2.8,0-5-2.2-5-5v-7.6c0-2.8,2.2-5,5-5h30.2c2.8,0,5,2.2,5,5v7.6
		c0,2.8-2.2,5-5,5H464.3z M486.1,123c-2.8,0-5-2.2-5-5v-7.6c0-2.8,2.2-5,5-5h30.2c2.8,0,5,2.2,5,5v7.6c0,2.8-2.2,5-5,5H486.1z
		 M538.3,203.6c2.8,0,5,2.2,5,5v7.6c0,2.8-2.2,5-5,5h-14.9h-15.7c-2.8,0-5-2.2-5-5v-7.6c0-2.8,2.2-5,5-5h15.7H538.3z M538.3,164.3
		c2.8,0,5,2.2,5,5v7.6c0,2.8-2.2,5-5,5h-14.9h-15.7c-2.8,0-5-2.2-5-5v-7.6c0-2.8,2.2-5,5-5h15.7H538.3z M543.3,137.6
		c0,2.8-2.2,5-5,5h-14.9h-15.7c-2.8,0-5-2.2-5-5V130c0-2.7,2.2-5,5-5h15.7h14.9c2.8,0,5,2.2,5,5V137.6z M565.1,118c0,2.8-2.2,5-5,5
		h-30.2c-2.8,0-5-2.2-5-5v-7.6c0-2.8,2.2-5,5-5h30.2c2.8,0,5,2.2,5,5V118z M586.7,98.3c0,2.8-2.2,5-5,5h-30.2c-2.8,0-5-2.2-5-5v-7.6
		c0-2.8,2.2-5,5-5h30.2c2.8,0,5,2.2,5,5V98.3z M630,98.3c0,2.8-2.2,5-5,5h-30.2c-2.8,0-5-2.2-5-5v-7.6c0-2.8,2.2-5,5-5H625
		c2.8,0,5,2.2,5,5V98.3z M673.4,98.3c0,2.8-2.2,5-5,5h-30.2c-2.8,0-5-2.2-5-5v-7.6c0-2.8,2.2-5,5-5h30.2c2.8,0,5,2.2,5,5V98.3z
		 M716.5,98.3c0,2.8-2.2,5-5,5h-30.2c-2.8,0-5-2.2-5-5v-7.6c0-2.8,2.2-5,5-5h30.2c2.8,0,5,2.2,5,5V98.3z M724.7,103.3
		c-2.8,0-5-2.2-5-5v-7.6c0-2.8,2.2-5,5-5h30.2c2.8,0,5,2.2,5,5v7.6c0,2.8-2.2,5-5,5H724.7z M781.8,118c0,2.8-2.2,5-5,5h-30.2
		c-2.8,0-5-2.2-5-5v-7.6c0-2.8,2.2-5,5-5h30.2c2.8,0,5,2.2,5,5V118z M803.3,98.3c0,2.8-2.2,5-5,5h-30.2c-2.8,0-5-2.2-5-5v-7.6
		c0-2.8,2.2-5,5-5h30.2c2.8,0,5,2.2,5,5V98.3z M846.7,98.3c0,2.8-2.2,5-5,5h-30.2c-2.8,0-5-2.2-5-5v-7.6c0-2.8,2.2-5,5-5h30.2
		c2.8,0,5,2.2,5,5V98.3z M890.2,98.3c0,2.8-2.2,5-5,5H855c-2.8,0-5-2.2-5-5v-7.6c0-2.8,2.2-5,5-5h30.2c2.8,0,5,2.2,5,5V98.3z
		 M933.6,98.3c0,2.8-2.2,5-5,5h-30.2c-2.8,0-5-2.2-5-5v-7.6c0-2.8,2.2-5,5-5h30.2c2.8,0,5,2.2,5,5V98.3z M941.7,103.3
		c-2.8,0-5-2.2-5-5v-7.6c0-2.8,2.2-5,5-5h30.2c2.8,0,5,2.2,5,5v7.6c0,2.8-2.2,5-5,5H941.7z M963.6,123c-2.8,0-5-2.2-5-5v-7.6
		c0-2.8,2.2-5,5-5h30.2c2.8,0,5,2.2,5,5v7.6c0,2.8-2.2,5-5,5H963.6z M1015.7,203.6c2.8,0,5,2.2,5,5v7.6c0,2.8-2.2,5-5,5h-14.9h-15.7
		c-2.8,0-5-2.2-5-5v-7.6c0-2.8,2.2-5,5-5h15.7H1015.7z M1015.7,164.3c2.8,0,5,2.2,5,5v7.6c0,2.8-2.2,5-5,5h-14.9h-15.7
		c-2.8,0-5-2.2-5-5v-7.6c0-2.8,2.2-5,5-5h15.7H1015.7z M1020.7,137.6c0,2.8-2.2,5-5,5h-14.9h-15.7c-2.8,0-5-2.2-5-5V130
		c0-2.7,2.2-5,5-5h15.7h14.9c2.8,0,5,2.2,5,5V137.6z M1042.6,118c0,2.8-2.2,5-5,5h-30.2c-2.8,0-5-2.2-5-5v-7.6c0-2.8,2.2-5,5-5h30.2
		c2.8,0,5,2.2,5,5V118z M1064.1,98.3c0,2.8-2.2,5-5,5h-30.2c-2.8,0-5-2.2-5-5v-7.6c0-2.8,2.3-5,5-5h30.2c2.8,0,5,2.2,5,5V98.3z
		 M1107.5,98.3c0,2.8-2.2,5-5,5h-30.2c-2.8,0-5-2.2-5-5v-7.6c0-2.8,2.2-5,5-5h30.2c2.8,0,5,2.2,5,5V98.3z M1150.9,98.3
		c0,2.8-2.2,5-5,5h-30.2c-2.8,0-5-2.2-5-5v-7.6c0-2.8,2.2-5,5-5h30.2c2.8,0,5,2.2,5,5V98.3z M1194,98.3c0,2.8-2.2,5-5,5h-30.2
		c-2.8,0-5-2.2-5-5v-7.6c0-2.8,2.2-5,5-5h30.2c2.8,0,5,2.2,5,5V98.3z M1202.2,103.3c-2.8,0-5-2.2-5-5v-7.6c0-2.8,2.2-5,5-5h30.2
		c2.8,0,5,2.2,5,5v7.6c0,2.8-2.2,5-5,5H1202.2z M1259.2,118c0,2.8-2.2,5-5,5H1224c-2.8,0-5-2.2-5-5v-7.6c0-2.8,2.2-5,5-5h30.2
		c2.8,0,5,2.2,5,5V118z M1280.7,98.3c0,2.8-2.2,5-5,5h-30.2c-2.8,0-5-2.2-5-5v-7.6c0-2.8,2.2-5,5-5h30.2c2.8,0,5,2.2,5,5V98.3z
		 M1324.1,98.3c0,2.8-2.2,5-5,5h-30.2c-2.8,0-5-2.2-5-5v-7.6c0-2.8,2.2-5,5-5h30.2c2.8,0,5,2.2,5,5V98.3z M1367.7,98.3
		c0,2.8-2.2,5-5,5h-30.2c-2.8,0-5-2.2-5-5v-7.6c0-2.8,2.2-5,5-5h30.2c2.8,0,5,2.2,5,5V98.3z M1411,98.3c0,2.8-2.2,5-5,5h-30.2
		c-2.8,0-5-2.2-5-5v-7.6c0-2.8,2.2-5,5-5h30.2c2.8,0,5,2.2,5,5V98.3z M1419.2,103.3c-2.8,0-5-2.2-5-5v-7.6c0-2.8,2.2-5,5-5h30.2
		c2.8,0,5,2.2,5,5v7.6c0,2.8-2.2,5-5,5H1419.2z M1471.3,105.4c2.8,0,5,2.2,5,5v7.6c0,2.8-2.2,5-5,5h-30.2c-2.8,0-5-2.2-5-5v-7.6
		c0-2.8,2.2-5,5-5H1471.3z M1471.3,66.1c2.8,0,5,2.2,5,5v7.6c0,2.8-2.2,5-5,5h-30.2c-2.8,0-5-2.2-5-5v-7.6c0-2.8,2.2-5,5-5H1471.3z
		 M1476.3,39.4c0,2.8-2.2,5-5,5h-30.2c-2.8,0-5-2.2-5-5v-7.6c0-2.8,2.2-5,5-5h30.2c2.8,0,5,2.2,5,5V39.4z M1536.6,46.4
		c2.8,0,5,2.2,5,5V59c0,2.8-2.2,5-5,5h-30.2c-2.8,0-5-2.2-5-5v-7.6c0-2.8,2.2-5,5-5H1536.6z M1523.2,39.4v-7.6c0-2.8,2.2-5,5-5h30.2
		c2.8,0,5,2.2,5,5v7.6c0,2.8-2.2,5-5,5h-30.2C1525.5,44.4,1523.2,42.1,1523.2,39.4z M1523.2,71.1c0-2.8,2.2-5,5-5h30.2
		c2.8,0,5,2.2,5,5v7.6c0,2.8-2.2,5-5,5h-30.2c-2.8,0-5-2.2-5-5V71.1z M1549.7,64c-2.8,0-5-2.2-5-5v-7.6c0-2.8,2.2-5,5-5h30.2
		c2.8,0,5,2.2,5,5V59c0,2.8-2.2,5-5,5H1549.7z M1566.6,39.4v-7.6c0-2.8,2.2-5,5-5h30.2c2.8,0,5,2.2,5,5v7.6c0,2.8-2.2,5-5,5h-30.2
		C1568.9,44.4,1566.6,42.1,1566.6,39.4z M1566.6,71.1c0-2.8,2.2-5,5-5h30.2c2.8,0,5,2.2,5,5v7.6c0,2.8-2.2,5-5,5h-30.2
		c-2.8,0-5-2.2-5-5V71.1z M1593.1,64c-2.8,0-5-2.2-5-5v-7.6c0-2.8,2.2-5,5-5h30.2c2.8,0,5,2.2,5,5V59c0,2.8-2.2,5-5,5H1593.1z
		 M1610,39.4v-7.6c0-2.8,2.2-5,5-5h30.2c2.8,0,5,2.2,5,5v7.6c0,2.8-2.2,5-5,5H1615C1612.2,44.4,1610,42.1,1610,39.4z M1610,71.1
		c0-2.8,2.2-5,5-5h30.2c2.8,0,5,2.2,5,5v7.6c0,2.8-2.2,5-5,5H1615c-2.8,0-5-2.2-5-5V71.1z M1636.2,64c-2.8,0-5-2.2-5-5v-7.6
		c0-2.8,2.2-5,5-5h30.2c2.8,0,5,2.2,5,5V59c0,2.8-2.2,5-5,5H1636.2z M1653.1,39.4v-7.6c0-2.8,2.2-5,5-5h30.2c2.8,0,5,2.2,5,5v7.6
		c0,2.8-2.2,5-5,5h-30.2C1655.4,44.4,1653.1,42.1,1653.1,39.4z M1653.1,71.1c0-2.8,2.2-5,5-5h30.2c2.8,0,5,2.2,5,5v7.6
		c0,2.8-2.2,5-5,5h-30.2c-2.8,0-5-2.2-5-5V71.1z M1679.6,64c-2.8,0-5-2.2-5-5v-7.6c0-2.8,2.2-5,5-5h30.2c2.8,0,5,2.2,5,5V59
		c0,2.8-2.2,5-5,5H1679.6z M1696.5,39.4v-7.6c0-2.8,2.2-5,5-5h30.2c2.8,0,5,2.2,5,5v7.6c0,2.8-2.2,5-5,5h-30.2
		C1698.7,44.4,1696.5,42.1,1696.5,39.4z M1696.5,71.1c0-2.8,2.2-5,5-5h30.2c2.8,0,5,2.2,5,5v7.6c0,2.8-2.2,5-5,5h-30.2
		c-2.8,0-5-2.2-5-5V71.1z M1723,64c-2.8,0-5-2.2-5-5v-7.6c0-2.8,2.2-5,5-5h30.2c2.8,0,5,2.2,5,5V59c0,2.8-2.2,5-5,5H1723z
		 M1739.9,39.4v-7.6c0-2.8,2.2-5,5-5h30.2c2.8,0,5,2.2,5,5v7.6c0,2.8-2.2,5-5,5h-30.2C1742.1,44.4,1739.9,42.1,1739.9,39.4z
		 M1739.9,71.1c0-2.8,2.2-5,5-5h30.2c2.8,0,5,2.2,5,5v7.6c0,2.8-2.2,5-5,5h-30.2c-2.8,0-5-2.2-5-5V71.1z M1766.4,64
		c-2.8,0-5-2.2-5-5v-7.6c0-2.8,2.2-5,5-5h30.2c2.8,0,5,2.2,5,5V59c0,2.8-2.2,5-5,5H1766.4z M1783.2,39.4v-7.6c0-2.8,2.2-5,5-5h30.2
		c2.8,0,5,2.2,5,5v7.6c0,2.8-2.2,5-5,5h-30.2C1785.5,44.4,1783.2,42.1,1783.2,39.4z M1783.2,71.1c0-2.8,2.2-5,5-5h30.2
		c2.8,0,5,2.2,5,5v7.6c0,2.8-2.2,5-5,5h-30.2c-2.8,0-5-2.2-5-5V71.1z M1809.9,64c-2.8,0-5-2.2-5-5v-7.6c0-2.8,2.2-5,5-5h30.2
		c2.8,0,5,2.2,5,5V59c0,2.8-2.2,5-5,5H1809.9z M1826.8,39.4v-7.6c0-2.8,2.2-5,5-5h30.2c2.8,0,5,2.2,5,5v7.6c0,2.8-2.2,5-5,5h-30.2
		C1829,44.4,1826.8,42.1,1826.8,39.4z M1826.8,71.1c0-2.8,2.2-5,5-5h30.2c2.8,0,5,2.2,5,5v7.6c0,2.8-2.2,5-5,5h-30.2
		c-2.8,0-5-2.2-5-5V71.1z M1853.3,64c-2.8,0-5-2.2-5-5v-7.6c0-2.8,2.2-5,5-5h30.2c2.8,0,5,2.2,5,5V59c0,2.8-2.2,5-5,5H1853.3z
		 M1870.1,71.1c0-2.8,2.2-5,5-5h30.2c2.8,0,5,2.2,5,5v7.6c0,2.8-2.2,5-5,5h-30.2c-2.8,0-5-2.2-5-5V71.1z M1896.7,64
		c-2.8,0-5-2.2-5-5v-7.6c0-2.8,2.2-5,5-5h30.2c2.8,0,5,2.2,5,5V59c0,2.8-2.2,5-5,5H1896.7z M1910.4,39.4c0,2.8-2.2,5-5,5h-30.2
		c-2.8,0-5-2.2-5-5v-7.6c0-2.8,2.2-5,5-5h30.2c2.8,0,5,2.2,5,5V39.4z M1484.9,44.4c-2.8,0-5-2.2-5-5v-7.6c0-2.8,2.2-5,5-5h30.2
		c2.8,0,5,2.2,5,5v7.6c0,2.8-2.2,5-5,5H1484.9z M1484.9,83.7c-2.8,0-5-2.2-5-5v-7.6c0-2.8,2.2-5,5-5h30.2c2.8,0,5,2.2,5,5v7.6
		c0,2.8-2.2,5-5,5H1484.9z M1520.1,118c0,2.8-2.2,5-5,5h-30.2c-2.8,0-5-2.2-5-5v-7.6c0-2.8,2.2-5,5-5h30.2c2.8,0,5,2.2,5,5V118z
		 M1541.6,98.3c0,2.8-2.2,5-5,5h-30.2c-2.8,0-5-2.2-5-5v-7.6c0-2.8,2.2-5,5-5h30.2c2.8,0,5,2.2,5,5V98.3z M1585,98.3
		c0,2.8-2.2,5-5,5h-30.2c-2.8,0-5-2.2-5-5v-7.6c0-2.8,2.2-5,5-5h30.2c2.8,0,5,2.2,5,5V98.3z M1628.3,98.3c0,2.8-2.2,5-5,5h-30.2
		c-2.8,0-5-2.2-5-5v-7.6c0-2.8,2.2-5,5-5h30.2c2.8,0,5,2.2,5,5V98.3z M1671.5,98.3c0,2.8-2.2,5-5,5h-30.2c-2.8,0-5-2.2-5-5v-7.6
		c0-2.8,2.2-5,5-5h30.2c2.8,0,5,2.2,5,5V98.3z M1679.6,103.3c-2.8,0-5-2.2-5-5v-7.6c0-2.8,2.2-5,5-5h30.2c2.8,0,5,2.2,5,5v7.6
		c0,2.8-2.2,5-5,5H1679.6z M1736.7,118c0,2.8-2.2,5-5,5h-30.2c-2.8,0-5-2.2-5-5v-7.6c0-2.8,2.2-5,5-5h30.2c2.8,0,5,2.2,5,5V118z
		 M1758.2,98.3c0,2.8-2.2,5-5,5H1723c-2.8,0-5-2.2-5-5v-7.6c0-2.8,2.2-5,5-5h30.2c2.8,0,5,2.2,5,5V98.3z M1801.6,98.3
		c0,2.8-2.2,5-5,5h-30.2c-2.8,0-5-2.2-5-5v-7.6c0-2.8,2.2-5,5-5h30.2c2.8,0,5,2.2,5,5V98.3z M1845.1,98.3c0,2.8-2.2,5-5,5h-30.2
		c-2.8,0-5-2.2-5-5v-7.6c0-2.8,2.2-5,5-5h30.2c2.8,0,5,2.2,5,5V98.3z M1888.5,98.3c0,2.8-2.2,5-5,5h-30.2c-2.8,0-5-2.2-5-5v-7.6
		c0-2.8,2.2-5,5-5h30.2c2.8,0,5,2.2,5,5V98.3z M1896.7,103.3c-2.8,0-5-2.2-5-5v-7.6c0-2.8,2.2-5,5-5h30.2c2.8,0,5,2.2,5,5v7.6
		c0,2.8-2.2,5-5,5H1896.7z M1948.7,105.4c2.8,0,5,2.2,5,5v7.6c0,2.8-2.2,5-5,5h-30.2c-2.8,0-5-2.2-5-5v-7.6c0-2.8,2.2-5,5-5H1948.7z
		 M1948.7,66.1c2.8,0,5,2.2,5,5v7.6c0,2.8-2.2,5-5,5h-30.2c-2.8,0-5-2.2-5-5v-7.6c0-2.8,2.2-5,5-5H1948.7z M1953.7,39.4
		c0,2.8-2.2,5-5,5h-30.2c-2.8,0-5-2.2-5-5v-7.6c0-2.8,2.2-5,5-5h30.2c2.8,0,5,2.2,5,5V39.4z"/>
	<path class="st0" d="M1701.5,162.3c-1.1,0-2.1-0.3-2.9-0.9v3h11.2c2.8,0,5,2.2,5,5v7.6c0,2.8-2.2,5-5,5h-11.2v3
		c0.8-0.6,1.8-0.9,2.9-0.9h30.2c0.9,0,1.7,0.2,2.4,0.6v-2.7H1723c-2.8,0-5-2.2-5-5v-7.6c0-2.8,2.2-5,5-5h11.1v-2.7
		c-0.7,0.4-1.5,0.6-2.4,0.6H1701.5z"/>
	<path class="st0" d="M1701.5,201.6c-1.1,0-2.1-0.3-2.9-0.9v3h11.2c2.8,0,5,2.2,5,5v7.6c0,2.8-2.2,5-5,5h-11.2v3
		c0.8-0.6,1.8-0.9,2.9-0.9h30.2c0.9,0,1.7,0.2,2.4,0.6v-2.7H1723c-2.8,0-5-2.2-5-5v-7.6c0-2.8,2.2-5,5-5h11.1v-2.7
		c-0.7,0.4-1.5,0.6-2.4,0.6H1701.5z"/>
	<path class="st0" d="M1224,162.3c-1.1,0-2.1-0.3-2.9-0.9v3h11.2c2.8,0,5,2.2,5,5v7.6c0,2.8-2.2,5-5,5h-11.2v3
		c0.8-0.6,1.8-0.9,2.9-0.9h30.2c0.9,0,1.7,0.2,2.4,0.6v-2.7h-11.1c-2.8,0-5-2.2-5-5v-7.6c0-2.8,2.2-5,5-5h11.1v-2.7
		c-0.7,0.4-1.5,0.6-2.4,0.6H1224z"/>
	<path class="st0" d="M1224,201.6c-1.1,0-2.1-0.3-2.9-0.9v3h11.2c2.8,0,5,2.2,5,5v7.6c0,2.8-2.2,5-5,5h-11.2v3
		c0.8-0.6,1.8-0.9,2.9-0.9h30.2c0.9,0,1.7,0.2,2.4,0.6v-2.7h-11.1c-2.8,0-5-2.2-5-5v-7.6c0-2.8,2.2-5,5-5h11.1v-2.7
		c-0.7,0.4-1.5,0.6-2.4,0.6H1224z"/>
	<path class="st0" d="M746.5,162.3c-1.1,0-2.1-0.3-2.9-0.9v3h11.2c2.8,0,5,2.2,5,5v7.6c0,2.8-2.2,5-5,5h-11.2v3
		c0.8-0.6,1.8-0.9,2.9-0.9h30.2c0.9,0,1.7,0.2,2.4,0.6v-2.7h-11.1c-2.8,0-5-2.2-5-5v-7.6c0-2.8,2.2-5,5-5h11.1v-2.7
		c-0.7,0.4-1.5,0.6-2.4,0.6H746.5z"/>
	<path class="st0" d="M746.5,201.6c-1.1,0-2.1-0.3-2.9-0.9v3h11.2c2.8,0,5,2.2,5,5v7.6c0,2.8-2.2,5-5,5h-11.2v3
		c0.8-0.6,1.8-0.9,2.9-0.9h30.2c0.9,0,1.7,0.2,2.4,0.6v-2.7h-11.1c-2.8,0-5-2.2-5-5v-7.6c0-2.8,2.2-5,5-5h11.1v-2.7
		c-0.7,0.4-1.5,0.6-2.4,0.6H746.5z"/>
	<path class="st0" d="M269.1,162.3c-1.1,0-2.1-0.3-2.9-0.9v3h11.2c2.8,0,5,2.2,5,5v7.6c0,2.8-2.2,5-5,5h-11.2v3
		c0.8-0.6,1.8-0.9,2.9-0.9h30.2c0.9,0,1.7,0.2,2.4,0.6v-2.7h-11.1c-2.8,0-5-2.2-5-5v-7.6c0-2.8,2.2-5,5-5h11.1v-2.7
		c-0.7,0.4-1.5,0.6-2.4,0.6H269.1z"/>
	<path class="st0" d="M269.1,201.6c-1.1,0-2.1-0.3-2.9-0.9v3h11.2c2.8,0,5,2.2,5,5v7.6c0,2.8-2.2,5-5,5h-11.2v3
		c0.8-0.6,1.8-0.9,2.9-0.9h30.2c0.9,0,1.7,0.2,2.4,0.6v-2.7h-11.1c-2.8,0-5-2.2-5-5v-7.6c0-2.8,2.2-5,5-5h11.1v-2.7
		c-0.7,0.4-1.5,0.6-2.4,0.6H269.1z"/>
</g>
</svg>
