<?xml version="1.0" encoding="utf-8"?>
<!-- Generator: Adobe Illustrator 21.0.0, SVG Export Plug-In . SVG Version: 6.00 Build 0)  -->
<svg version="1.1" id="Layer_1" xmlns="http://www.w3.org/2000/svg" xmlns:xlink="http://www.w3.org/1999/xlink" x="0px" y="0px"
	 viewBox="0 0 1291.4 205.5" style="enable-background:new 0 0 1291.4 205.5;" xml:space="preserve">
<style type="text/css">
	.st0{fill-rule:evenodd;clip-rule:evenodd;fill:#3C617A;}
	.st1{fill-rule:evenodd;clip-rule:evenodd;fill:#D1E5E8;}
	.st2{fill-rule:evenodd;clip-rule:evenodd;fill:#74B4D5;}
	.st3{fill-rule:evenodd;clip-rule:evenodd;fill:#0E3051;}
</style>
<path class="st0" d="M-1.4,58.2v100h68.9v-35.5c39.5-23.9,97.9-39,163-39s123.5,15.1,163,39v35.5h79.7v-35.5
	c39.5-23.9,97.9-39,163-39s123.5,15.1,163,39v35.5h88.2v-35.5c39.5-23.9,97.9-39,163-39s123.5,15.1,163,39v35.5h80.2v-100H-1.4z"/>
<rect x="716.4" y="1363.4" class="st0" width="839.7" height="102.1"/>
<path class="st1" d="M1077.4,60.7H862.1h-0.9H646.5h-0.6H430.2H214.9h-0.9H-1.4v4.7v5.5c2.7,0,5.4,0,8.1,0c0.7,0,1.4,0.6,1.4,1.4
	c0,1.7,0,3.3,0,4.9c0,0.7-0.6,1.4-1.4,1.4c-2.7,0-5.4,0-8.1,0v4.7v5.4c2.7,0,5.4,0,8.1,0c0.7,0,1.4,0.6,1.4,1.4c0,1.7,0,3.3,0,4.9
	c0,0.7-0.6,1.4-1.4,1.4c-2.7,0-5.4,0-8.1,0v4.8v5.6c2.7,0,5.4,0,8.1,0c0.7,0,1.4,0.6,1.4,1.4c0,1.7,0,3.3,0,4.9
	c0,0.7-0.6,1.4-1.4,1.4c-2.7,0-5.4,0-8.1,0v4.8v5.2c2.7,0,5.4,0,8.1,0c0.7,0,1.4,0.6,1.4,1.4c0,1.7,0,3.3,0,4.9
	c0,0.7-0.6,1.4-1.4,1.4c-2.7,0-5.4,0-8.1,0v5.1v5.2c2.7,0,5.4,0,8.1,0c0.7,0,1.4,0.6,1.4,1.4c0,1.7,0,3.3,0,4.9
	c0,0.7-0.6,1.4-1.4,1.4c-2.7,0-5.4,0-8.1,0v1v0.2h3.7h5.6h1.7h3.6h35.6h15h3.6v-9.8c-2.4,0-4.8,0-7.2,0c-0.8,0-1.4-0.6-1.4-1.4
	c0-1.6,0-3.3,0-4.9c0-0.8,0.6-1.4,1.4-1.4c2.4,0,4.8,0,7.2,0v-10.3c-2.4,0-4.8,0-7.2,0c-0.8,0-1.4-0.6-1.4-1.4c0-1.6,0-3.3,0-4.9
	c0-0.8,0.6-1.4,1.4-1.4c5,0,10.1,0,15.1,0c0.8,0,1.4,0.6,1.4,1.4c0,0.1,0,0.2,0,0.3c0.6-0.3,1.2-0.6,1.8-1c0.2-0.5,0.7-0.8,1.3-0.8
	c0.1,0,0.2,0,0.3,0c0.7-0.3,1.4-0.7,2.1-1c-4,0-8.1,0-12.1,0c-0.8,0-1.4-0.6-1.4-1.4c0-1.7,0-3.3,0-4.9c0-0.7,0.6-1.4,1.4-1.4
	c5,0,10.1,0,15.1,0c0.8,0,1.4,0.6,1.4,1.4c0,1.4,0,2.8,0,4.2c0.5-0.3,1.1-0.5,1.7-0.8c0-1.1,0-2.3,0-3.4c0-0.7,0.6-1.4,1.4-1.4
	c3.2,0,6.5,0,9.8,0c1.1-0.4,2.1-0.8,3.2-1.3c-1.1,0-2.1,0-3.2,0c-0.8,0-1.4-0.6-1.4-1.4c0-1.6,0-3.3,0-4.9c0-0.8,0.6-1.4,1.4-1.4
	c5,0,10.1,0,15.1,0c0.8,0,1.4,0.6,1.4,1.4c0,0.5,0,1,0,1.5c0.6-0.2,1.1-0.4,1.7-0.5c0-0.3,0-0.7,0-1c0-0.8,0.6-1.4,1.4-1.4
	c2.2,0,4.3,0,6.4,0c1.5-0.4,3.1-0.9,4.6-1.3c-0.4,0-0.8,0-1.3,0c-0.8,0-1.4-0.6-1.4-1.4c0-1.7,0-3.3,0-4.9c0-0.7,0.6-1.4,1.4-1.4
	c5,0,10.1,0,15.1,0c0.8,0,1.4,0.6,1.4,1.4c0,0.8,0,1.7,0,2.5c0.6-0.1,1.1-0.2,1.7-0.4c0-0.7,0-1.4,0-2.1c0-0.7,0.6-1.4,1.4-1.4
	c5.1,0,10.1,0,15.2,0c0.2,0,0.5,0.1,0.7,0.2c4.1-0.7,8.3-1.3,12.6-1.9c-0.2-0.3-0.4-0.6-0.4-1c0-1.6,0-3.3,0-4.9
	c0-0.8,0.6-1.4,1.4-1.4c5.1,0,10.1,0,15.2,0c0.8,0,1.4,0.6,1.4,1.4c0,1.3,0,2.6,0,3.9c0.6,0,1.1-0.1,1.7-0.1c0-1.3,0-2.5,0-3.7
	c0-0.8,0.6-1.4,1.4-1.4c5,0,10,0,15.1,0c0.8,0,1.4,0.6,1.4,1.4c0,0.9,0,1.8,0,2.6c0.7,0,1.3,0,2-0.1c0-0.9,0-1.8,0-2.7
	c0-0.8,0.6-1.4,1.4-1.4c5.1,0,10.1,0,15.2,0c0.7,0,1.4,0.6,1.4,1.4c0,0.8,0,1.6,0,2.4c0.5,0,0.9,0,1.4,0c0-0.8,0-1.6,0-2.3
	c0-0.7,0.6-1.4,1.4-1.4c5.1,0,10.1,0,15.2,0c0.7,0,1.4,0.6,1.4,1.4c0,1,0,2,0,2.9c0.6,0,1.1,0.1,1.7,0.1c0-1,0-2,0-3
	c0-0.7,0.6-1.4,1.4-1.4c5.1,0,10.1,0,15.2,0c0.7,0,1.4,0.6,1.4,1.4c0,1.5,0,3,0,4.5c0.6,0.1,1.1,0.1,1.7,0.2c0-1.6,0-3.1,0-4.7
	c0-0.7,0.6-1.4,1.4-1.4c5,0,10.1,0,15.1,0c0.8,0,1.4,0.6,1.4,1.4c0,1.7,0,3.3,0,4.9c0,0.8-0.6,1.4-1.4,1.4c-1.1,0-2.2,0-3.3,0
	c2.3,0.3,4.6,0.7,6.8,1c2.1,0,4.2,0,6.3,0c0.8,0,1.4,0.6,1.4,1.3c0.6,0.1,1.1,0.2,1.7,0.3c0-0.1,0-0.2,0-0.2c0-0.8,0.6-1.4,1.4-1.4
	c5,0,10.1,0,15.1,0c0.8,0,1.4,0.6,1.4,1.4c0,1.4,0,2.8,0,4.1c0.6,0.1,1.1,0.3,1.7,0.4c0-1.5,0-3,0-4.6c0-0.8,0.6-1.4,1.4-1.4
	c5,0,10.1,0,15.1,0c0.8,0,1.4,0.6,1.4,1.4c0,1.6,0,3.3,0,4.9c0,0.8-0.6,1.4-1.4,1.4c-3.3,0-6.6,0-9.9,0c1.5,0.4,3,0.8,4.5,1.3
	c0,0,0,0,0.1,0c5,0,10.1,0,15.1,0c0.8,0,1.4,0.6,1.4,1.4c0,1.3,0,2.6,0,4c0.6,0.2,1.1,0.4,1.7,0.6c0-1.5,0-3,0-4.6
	c0-0.7,0.6-1.4,1.4-1.4c5,0,10.1,0,15.1,0c0.8,0,1.4,0.6,1.4,1.4c0,1.7,0,3.3,0,4.9c0,0.8-0.6,1.4-1.4,1.4c-3.9,0-7.8,0-11.8,0
	c1.8,0.7,3.5,1.4,5.2,2.1c0.2-0.4,0.7-0.8,1.2-0.8c5.1,0,10.1,0,15.2,0c0.7,0,1.4,0.6,1.4,1.4c0,1.6,0,3.3,0,4.9
	c0,0.8-0.6,1.4-1.4,1.4c-0.3,0-0.6,0-0.9,0c0.8,0.4,1.7,0.8,2.5,1.3c2.7,0,5.4,0,8.2,0c0.7,0,1.4,0.6,1.4,1.4c0,1.3,0,2.5,0,3.8
	c0.6,0.3,1.1,0.7,1.7,1c0-1.6,0-3.2,0-4.8c0-0.7,0.6-1.4,1.4-1.4c5.1,0,10.1,0,15.2,0c0.7,0,1.4,0.6,1.4,1.4c0,1.7,0,3.3,0,4.9
	c0,0.8-0.6,1.4-1.4,1.4c-5.1,0-10.1,0-15.2,0c0,0,0,0,0,0v1c1.8,0,3.6,0,5.4,0c0.7,0,1.4,0.6,1.4,1.4c0,1.6,0,3.3,0,4.9
	c0,0.8-0.6,1.4-1.4,1.4c-1.8,0-3.6,0-5.4,0v1.3c0,0,0,0,0,0c5.1,0,10.1,0,15.2,0c0.7,0,1.4,0.6,1.4,1.4c0,1.7,0,3.3,0,4.9
	c0,0.8-0.6,1.4-1.4,1.4c-5.1,0-10.1,0-15.2,0c0,0,0,0,0,0v1.3c1.8,0,3.6,0,5.4,0c0.7,0,1.4,0.6,1.4,1.4c0,1.6,0,3.3,0,4.9
	c0,0.8-0.6,1.4-1.4,1.4c-1.8,0-3.6,0-5.4,0v1.1h22.3h3.6h1.7h9.3h9.2h1.7h3.6h28.3v-1.1c-3.6,0-7.3,0-11,0c-0.7,0-1.4-0.6-1.4-1.4
	c0-1.7,0-3.3,0-4.9c0-0.7,0.6-1.4,1.4-1.4c3.7,0,7.3,0,11,0v-1.3c-0.4,0-0.8,0-1.2,0c-0.7,0-1.4-0.6-1.4-1.4c0-1.6,0-3.3,0-4.9
	c0-0.8,0.6-1.4,1.4-1.4c0.4,0,0.8,0,1.2,0v-1c-3.6,0-7.3,0-11,0c-0.7,0-1.4-0.6-1.4-1.4c0-1.7,0-3.3,0-4.9c0-0.7,0.6-1.4,1.4-1.4
	c3.7,0,7.3,0,11,0v-1.3c-0.4,0-0.8,0-1.2,0c-0.7,0-1.4-0.6-1.4-1.4c0-1.6,0-3.3,0-4.9c0-0.8,0.6-1.4,1.4-1.4c4.6,0,9.1,0,13.6,0
	c0.9-0.4,1.7-0.9,2.6-1.3c-2.1,0-4.3,0-6.4,0c-0.7,0-1.4-0.6-1.4-1.4c0-1.7,0-3.3,0-4.9c0-0.7,0.6-1.4,1.4-1.4c5.1,0,10.1,0,15.2,0
	c0.7,0,1.4,0.6,1.4,1.4c0,0.6,0,1.1,0,1.7c0.6-0.2,1.1-0.5,1.7-0.7c0-0.3,0-0.6,0-0.9c0-0.7,0.6-1.4,1.4-1.4c1.4,0,2.7,0,4.1,0
	c1.5-0.6,3.1-1.2,4.6-1.8c-0.2-0.2-0.3-0.6-0.3-0.9c0-1.6,0-3.3,0-4.9c0-0.8,0.6-1.4,1.4-1.4c5,0,10.1,0,15.1,0
	c0.7,0,1.3,0.5,1.4,1.2c0.6-0.2,1.3-0.4,1.9-0.6c0.3-0.4,0.7-0.6,1.2-0.6c0.3,0,0.6,0,1,0c1.2-0.4,2.4-0.7,3.6-1
	c-4.8,0-9.6,0-14.4,0c-0.8,0-1.4-0.6-1.4-1.4c0-1.7,0-3.3,0-4.9c0-0.7,0.6-1.4,1.4-1.4c5,0,10.1,0,15.1,0c0.8,0,1.4,0.6,1.4,1.4
	c0,1.7,0,3.3,0,4.9c0,0.4-0.1,0.7-0.4,0.9c0.7-0.2,1.4-0.4,2.1-0.6c0-0.1-0.1-0.2-0.1-0.4c0-1.7,0-3.3,0-4.9c0-0.7,0.6-1.4,1.4-1.4
	c5,0,10.1,0,15.1,0c0.8,0,1.4,0.6,1.4,1.4c0,0.4,0,0.7,0,1.1c0.6-0.1,1.1-0.2,1.7-0.3c0-0.3,0-0.5,0-0.8c0-0.7,0.6-1.4,1.4-1.4
	c3.4,0,6.8,0,10.2,0c2.7-0.4,5.4-0.9,8.1-1.3c-2.8,0-5.7,0-8.5,0c-0.8,0-1.4-0.6-1.4-1.4c0-1.6,0-3.3,0-4.9c0-0.8,0.6-1.4,1.4-1.4
	c5.1,0,10.1,0,15.1,0c0.8,0,1.4,0.6,1.4,1.4c0,1.6,0,3.3,0,4.9c0,0.1,0,0.2,0,0.4c0.6-0.1,1.2-0.2,1.8-0.2c0,0,0-0.1,0-0.1
	c0-1.6,0-3.3,0-4.9c0-0.8,0.6-1.4,1.4-1.4c5.1,0,10.1,0,15.2,0c0.7,0,1.4,0.6,1.4,1.4c0,1.1,0,2.2,0,3.3c0.6,0,1.1-0.1,1.7-0.1
	c0-1.1,0-2.1,0-3.2c0-0.8,0.6-1.4,1.4-1.4c5.1,0,10.1,0,15.2,0c0.7,0,1.4,0.6,1.4,1.4c0,0.8,0,1.6,0,2.4c0.6,0,1.1,0,1.7,0
	c0-0.8,0-1.6,0-2.3c0-0.8,0.6-1.4,1.4-1.4c5.1,0,10.1,0,15.2,0c0.8,0,1.4,0.6,1.4,1.4c0,0.8,0,1.5,0,2.3c0.6,0,1.1,0,1.7,0
	c0-0.8,0-1.6,0-2.4s0.6-1.4,1.4-1.4c5,0,10,0,15.1,0c0.8,0,1.4,0.6,1.4,1.4c0,1.1,0,2.1,0,3.2c0.7,0,1.3,0.1,2,0.1
	c0-1.2,0-2.3,0-3.5c0-0.8,0.6-1.4,1.4-1.4c5.1,0,10.1,0,15.2,0c0.7,0,1.4,0.6,1.4,1.4c0,1.7,0,3.3,0,4.9c0,0.1,0,0.2,0,0.3
	c0.5,0.1,1.1,0.1,1.6,0.2c-0.1-0.2-0.1-0.3-0.1-0.5c0-1.7,0-3.3,0-4.9c0-0.8,0.6-1.4,1.4-1.4c5.1,0,10.1,0,15.2,0
	c0.7,0,1.4,0.6,1.4,1.4c0,1.7,0,3.3,0,4.9c0,0.7-0.6,1.4-1.4,1.4c-3.3,0-6.6,0-9.9,0c2.6,0.4,5.2,0.8,7.8,1.2c3.9,0,7.9,0,11.8,0
	c0.8,0,1.4,0.6,1.4,1.4c0,0.3,0,0.7,0,1c0.6,0.1,1.1,0.2,1.7,0.3c0-0.5,0-0.9,0-1.4c0-0.8,0.6-1.4,1.4-1.4c5,0,10,0,15.1,0
	c0.8,0,1.4,0.6,1.4,1.4c0,1.6,0,3.3,0,4.9c0,0.2-0.1,0.5-0.2,0.7c2.4,0.6,4.8,1.3,7.2,2c0.4,0,0.9,0,1.3,0c0.6,0,1,0.3,1.3,0.8
	c0.6,0.2,1.2,0.4,1.8,0.6c0-0.7,0.6-1.3,1.4-1.3c5,0,10.1,0,15.1,0c0.8,0,1.4,0.6,1.4,1.4c0,1.7,0,3.3,0,4.9c0,0.4-0.2,0.8-0.4,1
	c1.2,0.5,2.5,0.9,3.7,1.4c1.7,0,3.4,0,5.1,0c0.8,0,1.4,0.6,1.4,1.4c0,0.4,0,0.9,0,1.3c0.6,0.2,1.1,0.5,1.7,0.7c0-0.7,0-1.3,0-2
	c0-0.8,0.6-1.4,1.4-1.4c5,0,10.1,0,15.1,0c0.8,0,1.4,0.6,1.4,1.4c0,1.6,0,3.3,0,4.9c0,0.8-0.6,1.4-1.4,1.4c-2.4,0-4.9,0-7.3,0
	c0.8,0.4,1.7,0.8,2.5,1.3c4.8,0,9.7,0,14.6,0c0.8,0,1.4,0.6,1.4,1.4c0,1.7,0,3.3,0,4.9c0,0.8-0.6,1.4-1.4,1.4c-0.6,0-1.1,0-1.7,0
	v1.3c3.8,0,7.7,0,11.5,0c0.8,0,1.4,0.6,1.4,1.4c0,1.6,0,3.3,0,4.9c0,0.8-0.6,1.4-1.4,1.4c-3.8,0-7.6,0-11.5,0v1.3c0.6,0,1.1,0,1.7,0
	c0.8,0,1.4,0.6,1.4,1.4c0,1.7,0,3.3,0,4.9c0,0.8-0.6,1.4-1.4,1.4c-0.6,0-1.1,0-1.7,0v1c3.8,0,7.7,0,11.5,0c0.8,0,1.4,0.6,1.4,1.4
	c0,1.6,0,3.3,0,4.9c0,0.8-0.6,1.4-1.4,1.4c-3.8,0-7.6,0-11.5,0v1.2h12.8h35.6h3.6h1.7h8.3h0.9h8.3h1.7h3.6h11.6v-1.2
	c-4.5,0-8.9,0-13.4,0c-0.8,0-1.4-0.6-1.4-1.4c0-1.6,0-3.3,0-4.9c0-0.8,0.6-1.4,1.4-1.4c4.4,0,8.9,0,13.4,0v-1h-3.6
	c-0.8,0-1.4-0.6-1.4-1.4v-4.9c0-0.7,0.6-1.4,1.4-1.4h3.6v-1.3c-4.5,0-8.9,0-13.4,0c-0.8,0-1.4-0.6-1.4-1.4c0-1.6,0-3.3,0-4.9
	c0-0.8,0.6-1.4,1.4-1.4c4.4,0,8.9,0,13.4,0v-1.3h-3.6c-0.8,0-1.4-0.6-1.4-1.4v-4.9c0-0.7,0.6-1.4,1.4-1.4h15.1
	c0.3,0,0.6,0.1,0.8,0.3c1.1-0.6,2.2-1.1,3.3-1.6c-3,0-6.1,0-9.1,0c-0.7,0-1.4-0.6-1.4-1.4c0-1.7,0-3.3,0-4.9c0-0.8,0.6-1.4,1.4-1.4
	c5.1,0,10.1,0,15.2,0c0.7,0,1.4,0.6,1.4,1.4c0,1,0,1.9,0,2.8c0.6-0.3,1.2-0.5,1.8-0.8c0-0.6,0-1.2,0-1.8c0-0.7,0.6-1.4,1.4-1.4
	c2,0,4.1,0,6.2,0c1.1-0.4,2.2-0.9,3.3-1.3c-0.6-0.1-1.1-0.7-1.1-1.4c0-1.6,0-3.3,0-4.9c0-0.8,0.6-1.4,1.4-1.4c5,0,10.1,0,15.1,0
	c0.8,0,1.4,0.6,1.4,1.4c0,0.1,0,0.3,0,0.4c0.6-0.2,1.1-0.3,1.7-0.5c0.1-0.7,0.7-1.3,1.4-1.3c1,0,2,0,3,0c1.9-0.5,3.8-1.1,5.7-1.6
	c-0.2-0.2-0.3-0.5-0.3-0.9c0-1.7,0-3.3,0-4.9c0-0.7,0.6-1.4,1.4-1.4c5,0,10.1,0,15.1,0c0.8,0,1.4,0.6,1.4,1.4c0,0.5,0,1,0,1.5
	c0.6-0.1,1.1-0.2,1.7-0.4c0-0.4,0-0.8,0-1.2c0-0.7,0.6-1.4,1.4-1.4c4.1,0,8.2,0,12.2,0c2.7-0.4,5.4-0.9,8.1-1.3c-3.5,0-7,0-10.6,0
	c-0.7,0-1.4-0.6-1.4-1.4c0-1.6,0-3.3,0-4.9c0-0.8,0.6-1.4,1.4-1.4c5.1,0,10.1,0,15.2,0c0.7,0,1.4,0.6,1.4,1.4c0,1.6,0,3.3,0,4.9
	c0,0.2-0.1,0.4-0.1,0.6c0.6-0.1,1.3-0.2,1.9-0.2c0-0.1-0.1-0.2-0.1-0.4c0-1.6,0-3.3,0-4.9c0-0.8,0.6-1.4,1.4-1.4
	c5.1,0,10.1,0,15.2,0c0.8,0,1.4,0.6,1.4,1.4c0,1.1,0,2.3,0,3.5c0.6,0,1.1-0.1,1.7-0.1c0-1.1,0-2.2,0-3.3c0-0.8,0.6-1.4,1.4-1.4
	c5,0,10,0,15.1,0c0.8,0,1.4,0.6,1.4,1.4c0,0.8,0,1.6,0,2.4c0.7,0,1.3,0,2,0c0-0.8,0-1.6,0-2.4c0-0.8,0.6-1.4,1.4-1.4
	c5.1,0,10.1,0,15.2,0c0.7,0,1.4,0.6,1.4,1.4c0,0.8,0,1.6,0,2.4c0.5,0,1,0,1.5,0c0-0.8,0-1.6,0-2.4c0-0.8,0.6-1.4,1.4-1.4
	c5.1,0,10.1,0,15.2,0c0.7,0,1.4,0.6,1.4,1.4c0,1.1,0,2.1,0,3.2c0.5,0,1,0.1,1.6,0.1c0-1.1,0-2.1,0-3.2c0-0.8,0.6-1.4,1.4-1.4
	c5.1,0,10.1,0,15.2,0c0.8,0,1.4,0.6,1.4,1.4c0,1.6,0,3.2,0,4.8c0.6,0.1,1.1,0.1,1.7,0.2c0-0.1,0-0.1,0-0.2c0-1.6,0-3.3,0-4.9
	c0-0.8,0.6-1.4,1.4-1.4c5,0,10,0,15.1,0c0.8,0,1.4,0.6,1.4,1.4c0,1.6,0,3.3,0,4.9c0,0.8-0.6,1.4-1.4,1.4c-2.3,0-4.7,0-7,0
	c2.4,0.3,4.7,0.7,7.1,1.1c3.3,0,6.5,0,9.8,0c0.8,0,1.4,0.6,1.4,1.4c0,0.2,0,0.4,0,0.6c0.6,0.1,1.1,0.2,1.7,0.3c0-0.3,0-0.6,0-0.9
	c0-0.8,0.6-1.4,1.4-1.4c5,0,10.1,0,15.1,0c0.8,0,1.4,0.6,1.4,1.4c0,1.6,0,3.3,0,4.9c0,0.1,0,0.1,0,0.2c0.6,0.2,1.2,0.3,1.8,0.5
	c-0.1-0.2-0.2-0.4-0.2-0.7c0-1.6,0-3.3,0-4.9c0-0.8,0.6-1.4,1.4-1.4c5,0,10.1,0,15.1,0c0.8,0,1.4,0.6,1.4,1.4c0,1.6,0,3.3,0,4.9
	c0,0.8-0.6,1.4-1.4,1.4c-4.5,0-9.1,0-13.6,0c2.4,0.6,4.7,1.3,7,2c0.2-0.4,0.7-0.7,1.2-0.7c5,0,10.1,0,15.1,0c0.8,0,1.4,0.6,1.4,1.4
	c0,1.7,0,3.3,0,4.9c0,0.1,0,0.3-0.1,0.4c1.8,0.7,3.6,1.4,5.4,2.1c1,0,2,0,3.1,0c0.8,0,1.4,0.6,1.4,1.4c0,0.1,0,0.3,0,0.4
	c0.6,0.2,1.1,0.5,1.7,0.7c0-0.4,0-0.8,0-1.1c0-0.8,0.6-1.4,1.4-1.4c5.1,0,10.1,0,15.2,0c0.7,0,1.4,0.6,1.4,1.4c0,1.6,0,3.3,0,4.9
	c0,0.8-0.6,1.4-1.4,1.4c-1.8,0-3.5,0-5.3,0c0.8,0.4,1.7,0.8,2.5,1.3c4.2,0,8.4,0,12.6,0c0.7,0,1.4,0.6,1.4,1.4c0,1.7,0,3.3,0,4.9
	c0,0.7-0.5,1.2-1,1.4v1.4c3.2,0,6.3,0,9.5,0c0.7,0,1.4,0.6,1.4,1.4c0,1.6,0,3.3,0,4.9c0,0.8-0.6,1.4-1.4,1.4c-3.2,0-6.3,0-9.5,0v1.3
	c0.6,0.2,1,0.7,1,1.3c0,1.7,0,3.3,0,4.9c0,0.7-0.5,1.2-1,1.4v1.1c3.2,0,6.3,0,9.5,0c0.7,0,1.4,0.6,1.4,1.4c0,1.6,0,3.3,0,4.9
	c0,0.8-0.6,1.4-1.4,1.4c-3.2,0-6.3,0-9.5,0v1.2h15.3h14.9h35.6h3.6h1.7h9.3V151v-1.1c-2.3,0-4.7,0-7.1,0c-0.7,0-1.4-0.6-1.4-1.4
	c0-1.7,0-3.3,0-4.9c0-0.8,0.6-1.4,1.4-1.4c2.4,0,4.7,0,7.1,0v-5.1v-5c-2.3,0-4.7,0-7.1,0c-0.7,0-1.4-0.6-1.4-1.4c0-1.7,0-3.3,0-4.9
	c0-0.8,0.6-1.4,1.4-1.4c2.4,0,4.7,0,7.1,0v-5.3v-5c-2.5,0-5,0-7.6,0c-0.7,0-1.4-0.6-1.4-1.4c0-1.7,0-3.3,0-4.9
	c0-0.8,0.6-1.4,1.4-1.4c2.5,0,5.1,0,7.6,0v-5.4v-4.7c-2.3,0-4.7,0-7.1,0c-0.7,0-1.4-0.6-1.4-1.4c0-1.7,0-3.3,0-4.9
	c0-0.8,0.6-1.4,1.4-1.4c2.4,0,4.7,0,7.1,0v-5.5v-4.7c-2.5,0-5,0-7.6,0c-0.7,0-1.4-0.6-1.4-1.4c0-1.7,0-3.3,0-4.9
	c0-0.8,0.6-1.4,1.4-1.4c2.5,0,5.1,0,7.6,0v-5.5v-4.7H1077.4z M1255.4,63.3c0-0.7,0.6-1.4,1.4-1.4h15.1c0.8,0,1.4,0.6,1.4,1.4v4.9
	c0,0.8-0.6,1.4-1.4,1.4h-15.1c-0.8,0-1.4-0.6-1.4-1.4V63.3z M1176.8,81.4c0-0.8,0.6-1.4,1.4-1.4c5.1,0,10.1,0,15.1,0
	c0.8,0,1.4,0.6,1.4,1.4c0,1.6,0,3.3,0,4.9c0,0.8-0.6,1.4-1.4,1.4c-5,0-10,0-15.1,0c-0.8,0-1.4-0.6-1.4-1.4
	C1176.8,84.7,1176.8,83,1176.8,81.4z M1168.6,78.6c-0.8,0-1.4-0.6-1.4-1.4c0-1.6,0-3.3,0-4.9c0-0.8,0.6-1.4,1.4-1.4
	c5.1,0,10.1,0,15.1,0c0.8,0,1.4,0.6,1.4,1.4c0,1.6,0,3.3,0,4.9c0,0.8-0.6,1.4-1.4,1.4C1178.7,78.6,1173.7,78.6,1168.6,78.6z
	 M1186.8,77.2c0-1.6,0-3.3,0-4.9c0-0.8,0.6-1.4,1.4-1.4c5.1,0,10.1,0,15.2,0c0.7,0,1.4,0.6,1.4,1.4c0,1.6,0,3.3,0,4.9
	c0,0.8-0.6,1.4-1.4,1.4c-5.1,0-10.1,0-15.2,0C1187.4,78.6,1186.8,78,1186.8,77.2z M1186.7,90.2c0-0.8,0.6-1.4,1.4-1.4
	c5.1,0,10.1,0,15.2,0c0.7,0,1.4,0.6,1.4,1.4c0,1.6,0,3.3,0,4.9c0,0.8-0.6,1.4-1.4,1.4c-5.1,0-10.1,0-15.2,0c-0.8,0-1.4-0.6-1.4-1.4
	C1186.7,93.5,1186.7,91.8,1186.7,90.2z M1197.8,87.7c-0.8,0-1.4-0.6-1.4-1.4c0-1.6,0-3.3,0-4.9c0-0.8,0.6-1.4,1.4-1.4
	c5.1,0,10.1,0,15.2,0c0.7,0,1.4,0.6,1.4,1.4c0,1.6,0,3.3,0,4.9c0,0.8-0.6,1.4-1.4,1.4C1207.9,87.7,1202.9,87.7,1197.8,87.7z
	 M1252.2,80c0.8,0,1.4,0.6,1.4,1.4c0,1.6,0,3.3,0,4.9c0,0.8-0.6,1.4-1.4,1.4c-5.1,0-10.1,0-15.2,0c-0.7,0-1.4-0.6-1.4-1.4
	c0-1.6,0-3.3,0-4.9c0-0.8,0.6-1.4,1.4-1.4C1242.1,80,1247.1,80,1252.2,80z M1245.6,77.2c0-1.6,0-3.3,0-4.9c0-0.8,0.6-1.4,1.4-1.4
	c5,0,10,0,15.1,0c0.8,0,1.4,0.6,1.4,1.4c0,1.6,0,3.3,0,4.9c0,0.8-0.6,1.4-1.4,1.4c-5.1,0-10.1,0-15.1,0
	C1246.3,78.6,1245.6,78,1245.6,77.2z M1253.6,104c0,0.8-0.6,1.4-1.4,1.4c-5.1,0-10.1,0-15.2,0c-0.7,0-1.4-0.6-1.4-1.4
	c0-1.7,0-3.3,0-4.9c0-0.7,0.6-1.4,1.4-1.4c5.1,0,10.1,0,15.2,0c0.7,0,1.4,0.6,1.4,1.4C1253.6,100.8,1253.6,102.4,1253.6,104z
	 M1262,106.5c0.8,0,1.4,0.6,1.4,1.4c0,1.6,0,3.3,0,4.9c0,0.8-0.6,1.4-1.4,1.4c-5.1,0-10.1,0-15.1,0c-0.8,0-1.4-0.6-1.4-1.4
	c0-1.6,0-3.3,0-4.9c0-0.8,0.6-1.4,1.4-1.4C1251.9,106.5,1257,106.5,1262,106.5z M1227.3,96.5c-0.7,0-1.4-0.6-1.4-1.4
	c0-1.6,0-3.3,0-4.9c0-0.8,0.6-1.4,1.4-1.4c5.1,0,10.1,0,15.2,0c0.8,0,1.4,0.6,1.4,1.4c0,1.6,0,3.3,0,4.9c0,0.8-0.6,1.4-1.4,1.4
	C1237.3,96.5,1232.3,96.5,1227.3,96.5z M1246.9,96.5c-0.8,0-1.4-0.6-1.4-1.4c0-1.6,0-3.3,0-4.9c0-0.8,0.6-1.4,1.4-1.4
	c5,0,10,0,15.1,0c0.8,0,1.4,0.6,1.4,1.4c0,1.6,0,3.3,0,4.9c0,0.8-0.6,1.4-1.4,1.4C1257,96.5,1251.9,96.5,1246.9,96.5z M1243.9,77.2
	c0,0.8-0.6,1.4-1.4,1.4c-5.1,0-10.1,0-15.2,0c-0.7,0-1.4-0.6-1.4-1.4c0-1.6,0-3.3,0-4.9c0-0.8,0.6-1.4,1.4-1.4c5.1,0,10.1,0,15.2,0
	c0.8,0,1.4,0.6,1.4,1.4C1243.9,73.9,1243.9,75.6,1243.9,77.2z M1232.6,80c0.7,0,1.4,0.6,1.4,1.4c0,1.6,0,3.3,0,4.9
	c0,0.8-0.6,1.4-1.4,1.4c-5.1,0-10.1,0-15.2,0c-0.7,0-1.4-0.6-1.4-1.4c0-1.6,0-3.3,0-4.9c0-0.8,0.6-1.4,1.4-1.4
	C1222.5,80,1227.5,80,1232.6,80z M1224.3,77.2c0,0.8-0.6,1.4-1.4,1.4c-5.1,0-10.1,0-15.2,0c-0.7,0-1.4-0.6-1.4-1.4
	c0-1.6,0-3.3,0-4.9c0-0.8,0.6-1.4,1.4-1.4c5.1,0,10.1,0,15.2,0c0.7,0,1.4,0.6,1.4,1.4C1224.3,73.9,1224.3,75.6,1224.3,77.2z
	 M1206.3,90.2c0-0.8,0.6-1.4,1.4-1.4c5.1,0,10.1,0,15.2,0c0.7,0,1.4,0.6,1.4,1.4c0,1.6,0,3.3,0,4.9c0,0.8-0.6,1.4-1.4,1.4
	c-5.1,0-10.1,0-15.2,0c-0.7,0-1.4-0.6-1.4-1.4C1206.3,93.5,1206.3,91.8,1206.3,90.2z M1216.1,99.1c0-0.7,0.6-1.4,1.4-1.4
	c5.1,0,10.1,0,15.2,0c0.7,0,1.4,0.6,1.4,1.4c0,1.7,0,3.3,0,4.9c0,0.8-0.6,1.4-1.4,1.4c-5.1,0-10.1,0-15.2,0c-0.7,0-1.4-0.6-1.4-1.4
	C1216.1,102.4,1216.1,100.8,1216.1,99.1z M1225.9,107.9c0-0.8,0.6-1.4,1.4-1.4c5.1,0,10.1,0,15.2,0c0.8,0,1.4,0.6,1.4,1.4
	c0,1.6,0,3.3,0,4.9c0,0.8-0.6,1.4-1.4,1.4c-5.1,0-10.1,0-15.2,0c-0.7,0-1.4-0.6-1.4-1.4C1225.9,111.2,1225.9,109.5,1225.9,107.9z
	 M1235.7,116.8c0-0.7,0.6-1.4,1.4-1.4c5.1,0,10.1,0,15.2,0c0.7,0,1.4,0.6,1.4,1.4c0,1.7,0,3.3,0,4.9c0,0.8-0.6,1.4-1.4,1.4
	c-5.1,0-10.1,0-15.2,0c-0.7,0-1.4-0.6-1.4-1.4C1235.7,120.1,1235.7,118.5,1235.7,116.8z M1242.4,124.5c0.8,0,1.4,0.6,1.4,1.4
	c0,1.6,0,3.3,0,4.9c0,0.8-0.6,1.4-1.4,1.4c-5.1,0-10.1,0-15.2,0c-0.7,0-1.4-0.6-1.4-1.4c0-1.6,0-3.3,0-4.9c0-0.8,0.6-1.4,1.4-1.4
	C1232.3,124.5,1237.3,124.5,1242.4,124.5z M1235.7,134.8c0-0.7,0.6-1.4,1.4-1.4c5.1,0,10.1,0,15.2,0c0.7,0,1.4,0.6,1.4,1.4
	c0,1.7,0,3.3,0,4.9c0,0.8-0.6,1.4-1.4,1.4c-5.1,0-10.1,0-15.2,0c-0.7,0-1.4-0.6-1.4-1.4C1235.7,138.1,1235.7,136.5,1235.7,134.8z
	 M1246.9,132.2c-0.8,0-1.4-0.6-1.4-1.4c0-1.6,0-3.3,0-4.9c0-0.8,0.6-1.4,1.4-1.4c5,0,10,0,15.1,0c0.8,0,1.4,0.6,1.4,1.4
	c0,1.6,0,3.3,0,4.9c0,0.8-0.6,1.4-1.4,1.4C1257,132.2,1251.9,132.2,1246.9,132.2z M1255.3,134.8c0-0.7,0.6-1.4,1.4-1.4h15.1
	c0.8,0,1.4,0.6,1.4,1.4v4.9c0,0.8-0.6,1.4-1.4,1.4h-15.1c-0.8,0-1.4-0.6-1.4-1.4V134.8z M1266.8,132.1c-0.7,0-1.4-0.6-1.4-1.4
	c0-1.7,0-3.3,0-4.9c0-0.8,0.6-1.4,1.4-1.4c5.1,0,10.1,0,15.2,0c0.7,0,1.4,0.6,1.4,1.4c0,1.7,0,3.3,0,4.9c0,0.7-0.6,1.4-1.4,1.4
	C1276.9,132.1,1271.8,132.1,1266.8,132.1z M1273.2,121.8c0,0.8-0.6,1.4-1.4,1.4h-15.1c-0.8,0-1.4-0.6-1.4-1.4v-4.9
	c0-0.7,0.6-1.4,1.4-1.4h15.1c0.8,0,1.4,0.6,1.4,1.4V121.8z M1266.8,114.1c-0.7,0-1.4-0.6-1.4-1.4c0-1.7,0-3.3,0-4.9
	c0-0.8,0.6-1.4,1.4-1.4c5.1,0,10.1,0,15.2,0c0.7,0,1.4,0.6,1.4,1.4c0,1.7,0,3.3,0,4.9c0,0.7-0.6,1.4-1.4,1.4
	C1276.9,114.1,1271.8,114.1,1266.8,114.1z M1273.2,104c0,0.8-0.6,1.4-1.4,1.4h-15.1c-0.8,0-1.4-0.6-1.4-1.4v-4.9
	c0-0.7,0.6-1.4,1.4-1.4h15.1c0.8,0,1.4,0.6,1.4,1.4V104z M1266.8,96.4c-0.7,0-1.4-0.6-1.4-1.4c0-1.7,0-3.3,0-4.9
	c0-0.8,0.6-1.4,1.4-1.4c5.1,0,10.1,0,15.2,0c0.7,0,1.4,0.6,1.4,1.4c0,1.7,0,3.3,0,4.9c0,0.7-0.6,1.4-1.4,1.4
	C1276.9,96.4,1271.8,96.4,1266.8,96.4z M1273.2,86.3c0,0.8-0.6,1.4-1.4,1.4c-5.1,0-10.1,0-15.1,0c-0.8,0-1.4-0.6-1.4-1.4
	c0-1.6,0-3.3,0-4.9c0-0.8,0.6-1.4,1.4-1.4c5,0,10,0,15.1,0c0.8,0,1.4,0.6,1.4,1.4C1273.2,83,1273.2,84.7,1273.2,86.3z M1266.9,78.5
	c-0.7,0-1.4-0.6-1.4-1.4c0-1.7,0-3.3,0-4.9c0-0.8,0.6-1.4,1.4-1.4c5.1,0,10.1,0,15.2,0c0.7,0,1.4,0.6,1.4,1.4c0,1.7,0,3.3,0,4.9
	c0,0.7-0.6,1.4-1.4,1.4C1277,78.5,1272,78.5,1266.9,78.5z M1235.9,63.3c0-0.7,0.6-1.4,1.4-1.4c5.1,0,10.1,0,15.2,0
	c0.7,0,1.4,0.6,1.4,1.4c0,1.7,0,3.3,0,4.9c0,0.8-0.6,1.4-1.4,1.4c-5.1,0-10.1,0-15.2,0c-0.7,0-1.4-0.6-1.4-1.4
	C1235.9,66.5,1235.9,64.9,1235.9,63.3z M1216.2,63.3c0-0.7,0.6-1.4,1.4-1.4c5.1,0,10.1,0,15.2,0c0.7,0,1.4,0.6,1.4,1.4
	c0,1.7,0,3.3,0,4.9c0,0.8-0.6,1.4-1.4,1.4c-5.1,0-10.1,0-15.2,0c-0.7,0-1.4-0.6-1.4-1.4C1216.2,66.5,1216.2,64.9,1216.2,63.3z
	 M1196.6,63.3c0-0.7,0.6-1.4,1.4-1.4c5.1,0,10.1,0,15.2,0c0.7,0,1.4,0.6,1.4,1.4c0,1.7,0,3.3,0,4.9c0,0.8-0.6,1.4-1.4,1.4
	c-5.1,0-10.1,0-15.2,0c-0.7,0-1.4-0.6-1.4-1.4C1196.6,66.5,1196.6,64.9,1196.6,63.3z M1177,63.3c0-0.7,0.6-1.4,1.4-1.4
	c5,0,10.1,0,15.1,0c0.8,0,1.4,0.6,1.4,1.4c0,1.7,0,3.3,0,4.9c0,0.8-0.6,1.4-1.4,1.4c-5,0-10.1,0-15.1,0c-0.8,0-1.4-0.6-1.4-1.4
	C1177,66.5,1177,64.9,1177,63.3z M1157.4,63.3c0-0.7,0.6-1.4,1.4-1.4c5,0,10.1,0,15.1,0c0.8,0,1.4,0.6,1.4,1.4c0,1.7,0,3.3,0,4.9
	c0,0.8-0.6,1.4-1.4,1.4c-5,0-10.1,0-15.1,0c-0.8,0-1.4-0.6-1.4-1.4C1157.4,66.5,1157.4,64.9,1157.4,63.3z M1165.5,72.3
	c0,1.6,0,3.3,0,4.9c0,0.8-0.6,1.4-1.4,1.4c-5,0-10.1,0-15.1,0c-0.8,0-1.4-0.6-1.4-1.4c0-1.6,0-3.3,0-4.9c0-0.8,0.6-1.4,1.4-1.4
	c5,0,10.1,0,15.1,0C1164.9,70.9,1165.5,71.6,1165.5,72.3z M1137.8,63.3c0-0.7,0.6-1.4,1.4-1.4c5,0,10.1,0,15.1,0
	c0.8,0,1.4,0.6,1.4,1.4c0,1.7,0,3.3,0,4.9c0,0.8-0.6,1.4-1.4,1.4c-5,0-10.1,0-15.1,0c-0.8,0-1.4-0.6-1.4-1.4
	C1137.8,66.5,1137.8,64.9,1137.8,63.3z M1145.9,72.3c0,1.6,0,3.3,0,4.9c0,0.8-0.6,1.4-1.4,1.4c-5,0-10.1,0-15.1,0
	c-0.8,0-1.4-0.6-1.4-1.4c0-1.6,0-3.3,0-4.9c0-0.8,0.6-1.4,1.4-1.4c5,0,10.1,0,15.1,0C1145.3,70.9,1145.9,71.6,1145.9,72.3z
	 M1118.2,63.3c0-0.7,0.6-1.4,1.4-1.4c5,0,10.1,0,15.1,0c0.8,0,1.4,0.6,1.4,1.4c0,1.7,0,3.3,0,4.9c0,0.8-0.6,1.4-1.4,1.4
	c-5,0-10.1,0-15.1,0c-0.8,0-1.4-0.6-1.4-1.4C1118.2,66.5,1118.2,64.9,1118.2,63.3z M1098.6,63.3c0-0.7,0.6-1.4,1.4-1.4
	c5,0,10.1,0,15.1,0c0.8,0,1.4,0.6,1.4,1.4c0,1.7,0,3.3,0,4.9c0,0.8-0.6,1.4-1.4,1.4c-5,0-10.1,0-15.1,0c-0.8,0-1.4-0.6-1.4-1.4
	C1098.6,66.5,1098.6,64.9,1098.6,63.3z M1079,63.3c0-0.7,0.6-1.4,1.4-1.4c5.1,0,10.1,0,15.2,0c0.7,0,1.4,0.6,1.4,1.4
	c0,1.7,0,3.3,0,4.9c0,0.8-0.6,1.4-1.4,1.4c-5.1,0-10.1,0-15.2,0c-0.7,0-1.4-0.6-1.4-1.4C1079,66.5,1079,64.9,1079,63.3z
	 M1059.3,63.3c0-0.7,0.6-1.4,1.4-1.4c5.1,0,10.1,0,15.2,0c0.7,0,1.4,0.6,1.4,1.4c0,1.7,0,3.3,0,4.9c0,0.8-0.6,1.4-1.4,1.4
	c-5.1,0-10.1,0-15.2,0c-0.7,0-1.4-0.6-1.4-1.4C1059.3,66.5,1059.3,64.9,1059.3,63.3z M1040.1,63.4c0-0.8,0.6-1.4,1.4-1.4
	c5.1,0,10.1,0,15.2,0c0.7,0,1.4,0.6,1.4,1.4c0,1.7,0,3.3,0,4.9c0,0.7-0.6,1.4-1.4,1.4c-5.1,0-10.1,0-15.2,0c-0.7,0-1.4-0.6-1.4-1.4
	C1040.1,66.7,1040.1,65.1,1040.1,63.4z M1020.2,63.5c0-0.8,0.6-1.4,1.4-1.4c5,0,10,0,15.1,0c0.8,0,1.4,0.6,1.4,1.4
	c0,1.6,0,3.3,0,4.9c0,0.8-0.6,1.4-1.4,1.4c-5.1,0-10.1,0-15.1,0c-0.8,0-1.4-0.6-1.4-1.4C1020.2,66.8,1020.2,65.1,1020.2,63.5z
	 M1000.6,63.5c0-0.8,0.6-1.4,1.4-1.4c5.1,0,10.1,0,15.2,0c0.8,0,1.4,0.6,1.4,1.4c0,1.6,0,3.3,0,4.9c0,0.8-0.6,1.4-1.4,1.4
	c-5.1,0-10.1,0-15.2,0c-0.7,0-1.4-0.6-1.4-1.4C1000.6,66.8,1000.6,65.1,1000.6,63.5z M980.9,63.5c0-0.8,0.6-1.4,1.4-1.4
	c5.1,0,10.1,0,15.2,0c0.7,0,1.4,0.6,1.4,1.4c0,1.6,0,3.3,0,4.9c0,0.8-0.6,1.4-1.4,1.4c-5.1,0-10.1,0-15.2,0c-0.7,0-1.4-0.6-1.4-1.4
	C980.9,66.8,980.9,65.1,980.9,63.5z M961.3,63.5c0-0.8,0.6-1.4,1.4-1.4c5.1,0,10.1,0,15.2,0c0.7,0,1.4,0.6,1.4,1.4
	c0,1.6,0,3.3,0,4.9c0,0.8-0.6,1.4-1.4,1.4c-5.1,0-10.1,0-15.2,0c-0.8,0-1.4-0.6-1.4-1.4C961.3,66.8,961.3,65.1,961.3,63.5z
	 M969.4,72.5c0,1.7,0,3.3,0,4.9c0,0.8-0.6,1.4-1.4,1.4c-5,0-10.1,0-15.1,0c-0.8,0-1.4-0.6-1.4-1.4c0-1.7,0-3.3,0-4.9
	c0-0.7,0.6-1.4,1.4-1.4c5,0,10.1,0,15.1,0C968.8,71.1,969.4,71.7,969.4,72.5z M941.7,63.5c0-0.8,0.6-1.4,1.4-1.4
	c5.1,0,10.1,0,15.1,0c0.8,0,1.4,0.6,1.4,1.4c0,1.6,0,3.3,0,4.9c0,0.8-0.6,1.4-1.4,1.4c-5,0-10,0-15.1,0c-0.8,0-1.4-0.6-1.4-1.4
	C941.7,66.8,941.7,65.1,941.7,63.5z M861,121.8c0,0.8-0.6,1.4-1.4,1.4c-5.1,0-10.1,0-15.2,0c-0.7,0-1.4-0.6-1.4-1.4
	c0-1.7,0-3.3,0-4.9c0-0.7,0.6-1.4,1.4-1.4c5.1,0,10.1,0,15.2,0c0.7,0,1.4,0.6,1.4,1.4C861,118.5,861,120.1,861,121.8z M869.4,124.5
	c0.8,0,1.4,0.6,1.4,1.4c0,1.6,0,3.3,0,4.9c0,0.8-0.6,1.4-1.4,1.4c-5.1,0-10.1,0-15.2,0c-0.7,0-1.4-0.6-1.4-1.4c0-1.6,0-3.3,0-4.9
	c0-0.8,0.6-1.4,1.4-1.4C859.3,124.5,864.4,124.5,869.4,124.5z M745,81.4c0-0.8,0.6-1.4,1.4-1.4c5,0,10.1,0,15.1,0
	c0.8,0,1.4,0.6,1.4,1.4c0,1.6,0,3.3,0,4.9c0,0.8-0.6,1.4-1.4,1.4c-5,0-10.1,0-15.1,0c-0.8,0-1.4-0.6-1.4-1.4
	C745,84.7,745,83,745,81.4z M736.8,78.6c-0.8,0-1.4-0.6-1.4-1.4c0-1.6,0-3.3,0-4.9c0-0.8,0.6-1.4,1.4-1.4c5,0,10.1,0,15.1,0
	c0.8,0,1.4,0.6,1.4,1.4c0,1.6,0,3.3,0,4.9c0,0.8-0.6,1.4-1.4,1.4C746.9,78.6,741.8,78.6,736.8,78.6z M756.4,78.6
	c-0.8,0-1.4-0.6-1.4-1.4c0-1.6,0-3.3,0-4.9c0-0.8,0.6-1.4,1.4-1.4c5,0,10.1,0,15.1,0c0.8,0,1.4,0.6,1.4,1.4c0,1.6,0,3.3,0,4.9
	c0,0.8-0.6,1.4-1.4,1.4C766.5,78.6,761.4,78.6,756.4,78.6z M764.6,81.4c0-0.8,0.6-1.4,1.4-1.4c5,0,10.1,0,15.1,0
	c0.8,0,1.4,0.6,1.4,1.4c0,1.6,0,3.3,0,4.9c0,0.8-0.6,1.4-1.4,1.4c-5,0-10.1,0-15.1,0c-0.8,0-1.4-0.6-1.4-1.4
	C764.6,84.7,764.6,83,764.6,81.4z M774.6,77.2c0-1.6,0-3.3,0-4.9c0-0.8,0.6-1.4,1.4-1.4c5,0,10.1,0,15.1,0c0.8,0,1.4,0.6,1.4,1.4
	c0,1.6,0,3.3,0,4.9c0,0.8-0.6,1.4-1.4,1.4c-5,0-10.1,0-15.1,0C775.2,78.6,774.6,78,774.6,77.2z M774.4,90.2c0-0.8,0.6-1.4,1.4-1.4
	c5,0,10.1,0,15.1,0c0.8,0,1.4,0.6,1.4,1.4c0,1.6,0,3.3,0,4.9c0,0.8-0.6,1.4-1.4,1.4c-5,0-10.1,0-15.1,0c-0.8,0-1.4-0.6-1.4-1.4
	C774.4,93.5,774.4,91.8,774.4,90.2z M785.6,87.7c-0.8,0-1.4-0.6-1.4-1.4c0-1.6,0-3.3,0-4.9c0-0.8,0.6-1.4,1.4-1.4c5,0,10.1,0,15.1,0
	c0.8,0,1.4,0.6,1.4,1.4c0,1.6,0,3.3,0,4.9c0,0.8-0.6,1.4-1.4,1.4C795.7,87.7,790.6,87.7,785.6,87.7z M879.2,80
	c0.8,0,1.4,0.6,1.4,1.4c0,1.6,0,3.3,0,4.9c0,0.8-0.6,1.4-1.4,1.4c-5.1,0-10.1,0-15.2,0c-0.7,0-1.4-0.6-1.4-1.4c0-1.6,0-3.3,0-4.9
	c0-0.8,0.6-1.4,1.4-1.4C869.1,80,874.1,80,879.2,80z M872.7,77.2c0-1.6,0-3.3,0-4.9c0-0.8,0.6-1.4,1.4-1.4c5,0,10,0,15.1,0
	c0.8,0,1.4,0.6,1.4,1.4c0,1.6,0,3.3,0,4.9c0,0.8-0.6,1.4-1.4,1.4c-5.1,0-10.1,0-15.1,0C873.3,78.6,872.7,78,872.7,77.2z M869.4,88.8
	c0.8,0,1.4,0.6,1.4,1.4c0,1.6,0,3.3,0,4.9c0,0.8-0.6,1.4-1.4,1.4c-5.1,0-10.1,0-15.2,0c-0.7,0-1.4-0.6-1.4-1.4c0-1.6,0-3.3,0-4.9
	c0-0.8,0.6-1.4,1.4-1.4C859.3,88.8,864.4,88.8,869.4,88.8z M823.5,99.1c0-0.7,0.6-1.4,1.4-1.4c5.1,0,10.1,0,15.2,0
	c0.7,0,1.4,0.6,1.4,1.4c0,1.7,0,3.3,0,4.9c0,0.8-0.6,1.4-1.4,1.4c-5.1,0-10.1,0-15.2,0c-0.7,0-1.4-0.6-1.4-1.4
	C823.5,102.4,823.5,100.8,823.5,99.1z M815.1,96.5c-0.8,0-1.4-0.6-1.4-1.4c0-1.6,0-3.3,0-4.9c0-0.8,0.6-1.4,1.4-1.4
	c5.1,0,10.1,0,15.2,0c0.7,0,1.4,0.6,1.4,1.4c0,1.6,0,3.3,0,4.9c0,0.8-0.6,1.4-1.4,1.4C825.2,96.5,820.1,96.5,815.1,96.5z
	 M833.3,95.1c0-1.6,0-3.3,0-4.9c0-0.8,0.6-1.4,1.4-1.4c5.1,0,10.1,0,15.2,0c0.7,0,1.4,0.6,1.4,1.4c0,1.6,0,3.3,0,4.9
	c0,0.8-0.6,1.4-1.4,1.4c-5.1,0-10.1,0-15.2,0C833.9,96.5,833.3,95.9,833.3,95.1z M833.3,107.9c0-0.8,0.6-1.4,1.4-1.4
	c5.1,0,10.1,0,15.2,0c0.7,0,1.4,0.6,1.4,1.4c0,1.6,0,3.3,0,4.9c0,0.8-0.6,1.4-1.4,1.4c-5.1,0-10.1,0-15.2,0c-0.7,0-1.4-0.6-1.4-1.4
	C833.3,111.2,833.3,109.5,833.3,107.9z M844.5,105.5c-0.7,0-1.4-0.6-1.4-1.4c0-1.7,0-3.3,0-4.9c0-0.7,0.6-1.4,1.4-1.4
	c5.1,0,10.1,0,15.2,0c0.7,0,1.4,0.6,1.4,1.4c0,1.7,0,3.3,0,4.9c0,0.8-0.6,1.4-1.4,1.4C854.6,105.5,849.5,105.5,844.5,105.5z
	 M861,86.3c0,0.8-0.6,1.4-1.4,1.4c-5.1,0-10.1,0-15.2,0c-0.7,0-1.4-0.6-1.4-1.4c0-1.6,0-3.3,0-4.9c0-0.8,0.6-1.4,1.4-1.4
	c5.1,0,10.1,0,15.2,0c0.7,0,1.4,0.6,1.4,1.4C861,83,861,84.7,861,86.3z M851.3,77.2c0,0.8-0.6,1.4-1.4,1.4c-5.1,0-10.1,0-15.2,0
	c-0.7,0-1.4-0.6-1.4-1.4c0-1.6,0-3.3,0-4.9c0-0.8,0.6-1.4,1.4-1.4c5.1,0,10.1,0,15.2,0c0.7,0,1.4,0.6,1.4,1.4
	C851.3,73.9,851.3,75.6,851.3,77.2z M840,80c0.7,0,1.4,0.6,1.4,1.4c0,1.6,0,3.3,0,4.9c0,0.8-0.6,1.4-1.4,1.4c-5.1,0-10.1,0-15.2,0
	c-0.8,0-1.4-0.6-1.4-1.4c0-1.6,0-3.3,0-4.9c0-0.8,0.6-1.4,1.4-1.4C829.9,80,834.9,80,840,80z M831.7,77.2c0,0.8-0.6,1.4-1.4,1.4
	c-5.1,0-10.1,0-15.2,0c-0.8,0-1.4-0.6-1.4-1.4c0-1.6,0-3.3,0-4.9c0-0.8,0.6-1.4,1.4-1.4c5.1,0,10.1,0,15.2,0c0.7,0,1.4,0.6,1.4,1.4
	C831.7,73.9,831.7,75.6,831.7,77.2z M820.3,80c0.8,0,1.4,0.6,1.4,1.4c0,1.6,0,3.3,0,4.9c0,0.8-0.6,1.4-1.4,1.4c-5,0-10,0-15.1,0
	c-0.8,0-1.4-0.6-1.4-1.4c0-1.6,0-3.3,0-4.9c0-0.8,0.6-1.4,1.4-1.4C810.3,80,815.3,80,820.3,80z M812.1,77.2c0,0.8-0.6,1.4-1.4,1.4
	c-5,0-10,0-15.1,0c-0.8,0-1.4-0.6-1.4-1.4c0-1.6,0-3.3,0-4.9c0-0.8,0.6-1.4,1.4-1.4c5.1,0,10.1,0,15.1,0c0.8,0,1.4,0.6,1.4,1.4
	C812.1,73.9,812.1,75.6,812.1,77.2z M794,90.2c0-0.8,0.6-1.4,1.4-1.4c5.1,0,10.1,0,15.1,0c0.8,0,1.4,0.6,1.4,1.4c0,1.6,0,3.3,0,4.9
	c0,0.8-0.6,1.4-1.4,1.4c-5,0-10,0-15.1,0c-0.8,0-1.4-0.6-1.4-1.4C794,93.5,794,91.8,794,90.2z M803.9,99.1c0-0.7,0.6-1.4,1.4-1.4
	c5,0,10.1,0,15.1,0c0.8,0,1.4,0.6,1.4,1.4c0,1.7,0,3.3,0,4.9c0,0.8-0.6,1.4-1.4,1.4c-5,0-10.1,0-15.1,0c-0.8,0-1.4-0.6-1.4-1.4
	C803.9,102.4,803.9,100.8,803.9,99.1z M813.7,107.9c0-0.8,0.6-1.4,1.4-1.4c5.1,0,10.1,0,15.2,0c0.7,0,1.4,0.6,1.4,1.4
	c0,1.6,0,3.3,0,4.9c0,0.8-0.6,1.4-1.4,1.4c-5.1,0-10.1,0-15.2,0c-0.8,0-1.4-0.6-1.4-1.4C813.7,111.2,813.7,109.5,813.7,107.9z
	 M823.5,116.8c0-0.7,0.6-1.4,1.4-1.4c5.1,0,10.1,0,15.2,0c0.7,0,1.4,0.6,1.4,1.4c0,1.7,0,3.3,0,4.9c0,0.8-0.6,1.4-1.4,1.4
	c-5.1,0-10.1,0-15.2,0c-0.7,0-1.4-0.6-1.4-1.4C823.5,120.1,823.5,118.5,823.5,116.8z M830.2,124.5c0.7,0,1.4,0.6,1.4,1.4
	c0,1.6,0,3.3,0,4.9c0,0.8-0.6,1.4-1.4,1.4c-5.1,0-10.1,0-15.2,0c-0.8,0-1.4-0.6-1.4-1.4c0-1.6,0-3.3,0-4.9c0-0.8,0.6-1.4,1.4-1.4
	C820.1,124.5,825.2,124.5,830.2,124.5z M823.5,134.8c0-0.7,0.6-1.4,1.4-1.4c5.1,0,10.1,0,15.2,0c0.7,0,1.4,0.6,1.4,1.4
	c0,1.7,0,3.3,0,4.9c0,0.8-0.6,1.4-1.4,1.4c-5.1,0-10.1,0-15.2,0c-0.7,0-1.4-0.6-1.4-1.4C823.5,138.1,823.5,136.5,823.5,134.8z
	 M834.7,132.2c-0.7,0-1.4-0.6-1.4-1.4c0-1.6,0-3.3,0-4.9c0-0.8,0.6-1.4,1.4-1.4c5.1,0,10.1,0,15.2,0c0.7,0,1.4,0.6,1.4,1.4
	c0,1.6,0,3.3,0,4.9c0,0.8-0.6,1.4-1.4,1.4C844.8,132.2,839.7,132.2,834.7,132.2z M854.3,114.2c-0.7,0-1.4-0.6-1.4-1.4
	c0-1.6,0-3.3,0-4.9c0-0.8,0.6-1.4,1.4-1.4c5.1,0,10.1,0,15.2,0c0.8,0,1.4,0.6,1.4,1.4c0,1.6,0,3.3,0,4.9c0,0.8-0.6,1.4-1.4,1.4
	C864.4,114.2,859.3,114.2,854.3,114.2z M864.1,105.5c-0.7,0-1.4-0.6-1.4-1.4c0-1.7,0-3.3,0-4.9c0-0.7,0.6-1.4,1.4-1.4
	c5.1,0,10.1,0,15.2,0c0.7,0,1.4,0.6,1.4,1.4c0,1.7,0,3.3,0,4.9c0,0.8-0.6,1.4-1.4,1.4C874.2,105.5,869.2,105.5,864.1,105.5z
	 M873.9,96.5c-0.8,0-1.4-0.6-1.4-1.4c0-1.6,0-3.3,0-4.9c0-0.8,0.6-1.4,1.4-1.4c5,0,10,0,15.1,0c0.8,0,1.4,0.6,1.4,1.4
	c0,1.6,0,3.3,0,4.9c0,0.8-0.6,1.4-1.4,1.4C884,96.5,878.9,96.5,873.9,96.5z M883.7,87.7c-0.8,0-1.4-0.6-1.4-1.4c0-1.6,0-3.3,0-4.9
	c0-0.8,0.6-1.4,1.4-1.4c5,0,10,0,15.1,0c0.8,0,1.4,0.6,1.4,1.4c0,1.6,0,3.3,0,4.9c0,0.8-0.6,1.4-1.4,1.4
	C893.7,87.7,888.7,87.7,883.7,87.7z M892.6,77.2c0-1.7,0-3.3,0-4.9c0-0.8,0.6-1.4,1.4-1.4c5.1,0,10.1,0,15.2,0
	c0.7,0,1.4,0.6,1.4,1.4c0,1.7,0,3.3,0,4.9c0,0.7-0.6,1.4-1.4,1.4c-5.1,0-10.1,0-15.2,0C893.2,78.5,892.6,77.9,892.6,77.2z
	 M892.4,90.1c0-0.8,0.6-1.4,1.4-1.4c5.1,0,10.1,0,15.2,0c0.7,0,1.4,0.6,1.4,1.4c0,1.7,0,3.3,0,4.9c0,0.7-0.6,1.4-1.4,1.4
	c-5.1,0-10.1,0-15.2,0c-0.7,0-1.4-0.6-1.4-1.4C892.4,93.4,892.4,91.8,892.4,90.1z M903.6,87.6c-0.7,0-1.4-0.6-1.4-1.4
	c0-1.7,0-3.3,0-4.9c0-0.8,0.6-1.4,1.4-1.4c5.1,0,10.1,0,15.2,0c0.7,0,1.4,0.6,1.4,1.4c0,1.7,0,3.3,0,4.9c0,0.7-0.6,1.4-1.4,1.4
	C913.7,87.6,908.6,87.6,903.6,87.6z M913.7,78.8c-0.8,0-1.4-0.6-1.4-1.4c0-1.7,0-3.3,0-4.9c0-0.7,0.6-1.4,1.4-1.4c5,0,10.1,0,15.1,0
	c0.8,0,1.4,0.6,1.4,1.4c0,1.7,0,3.3,0,4.9c0,0.8-0.6,1.4-1.4,1.4C923.8,78.8,918.7,78.8,913.7,78.8z M922,81.4
	c0-0.8,0.6-1.4,1.4-1.4c5,0,10.1,0,15.1,0c0.8,0,1.4,0.6,1.4,1.4c0,1.6,0,3.3,0,4.9c0,0.8-0.6,1.4-1.4,1.4c-5,0-10.1,0-15.1,0
	c-0.8,0-1.4-0.6-1.4-1.4C922,84.7,922,83,922,81.4z M933.3,78.8c-0.8,0-1.4-0.6-1.4-1.4c0-1.7,0-3.3,0-4.9c0-0.7,0.6-1.4,1.4-1.4
	c5,0,10.1,0,15.1,0c0.8,0,1.4,0.6,1.4,1.4c0,1.7,0,3.3,0,4.9c0,0.8-0.6,1.4-1.4,1.4C943.4,78.8,938.3,78.8,933.3,78.8z M922.1,63.5
	c0-0.8,0.6-1.4,1.4-1.4c5,0,10.1,0,15.1,0c0.8,0,1.4,0.6,1.4,1.4c0,1.6,0,3.3,0,4.9c0,0.8-0.6,1.4-1.4,1.4c-5,0-10.1,0-15.1,0
	c-0.8,0-1.4-0.6-1.4-1.4C922.1,66.8,922.1,65.1,922.1,63.5z M902.2,63.5c0-0.8,0.6-1.4,1.4-1.4c5,0,10.1,0,15.1,0
	c0.8,0,1.4,0.6,1.4,1.4c0,1.6,0,3.3,0,4.9c0,0.8-0.6,1.4-1.4,1.4c-5,0-10.1,0-15.1,0c-0.8,0-1.4-0.6-1.4-1.4
	C902.2,66.8,902.2,65.1,902.2,63.5z M882.5,63.3c0-0.7,0.6-1.4,1.4-1.4H899c0.8,0,1.4,0.6,1.4,1.4v4.9c0,0.8-0.6,1.4-1.4,1.4h-15.1
	c-0.8,0-1.4-0.6-1.4-1.4V63.3z M862.9,63.3c0-0.7,0.6-1.4,1.4-1.4c5.1,0,10.1,0,15.2,0c0.7,0,1.4,0.6,1.4,1.4c0,1.7,0,3.3,0,4.9
	c0,0.8-0.6,1.4-1.4,1.4c-5.1,0-10.1,0-15.2,0c-0.7,0-1.4-0.6-1.4-1.4C862.9,66.5,862.9,64.9,862.9,63.3z M869.6,70.9
	c0.8,0,1.4,0.6,1.4,1.4c0,1.6,0,3.3,0,4.9c0,0.8-0.6,1.4-1.4,1.4c-5.1,0-10.1,0-15.2,0c-0.7,0-1.4-0.6-1.4-1.4c0-1.6,0-3.3,0-4.9
	c0-0.8,0.6-1.4,1.4-1.4C859.5,70.9,864.5,70.9,869.6,70.9z M843.2,63.3c0-0.7,0.6-1.4,1.4-1.4c5.1,0,10.1,0,15.2,0
	c0.7,0,1.4,0.6,1.4,1.4c0,1.7,0,3.3,0,4.9c0,0.8-0.6,1.4-1.4,1.4c-5.1,0-10.1,0-15.2,0c-0.7,0-1.4-0.6-1.4-1.4
	C843.2,66.5,843.2,64.9,843.2,63.3z M823.6,63.3c0-0.7,0.6-1.4,1.4-1.4c5.1,0,10.1,0,15.2,0c0.7,0,1.4,0.6,1.4,1.4
	c0,1.7,0,3.3,0,4.9c0,0.8-0.6,1.4-1.4,1.4c-5.1,0-10.1,0-15.2,0c-0.7,0-1.4-0.6-1.4-1.4C823.6,66.5,823.6,64.9,823.6,63.3z
	 M804,63.3c0-0.7,0.6-1.4,1.4-1.4c5,0,10.1,0,15.1,0c0.8,0,1.4,0.6,1.4,1.4c0,1.7,0,3.3,0,4.9c0,0.8-0.6,1.4-1.4,1.4
	c-5,0-10.1,0-15.1,0c-0.8,0-1.4-0.6-1.4-1.4C804,66.5,804,64.9,804,63.3z M784.4,63.3c0-0.7,0.6-1.4,1.4-1.4c5,0,10.1,0,15.1,0
	c0.8,0,1.4,0.6,1.4,1.4c0,1.7,0,3.3,0,4.9c0,0.8-0.6,1.4-1.4,1.4c-5,0-10.1,0-15.1,0c-0.8,0-1.4-0.6-1.4-1.4
	C784.4,66.5,784.4,64.9,784.4,63.3z M764.8,63.3c0-0.7,0.6-1.4,1.4-1.4c5,0,10.1,0,15.1,0c0.8,0,1.4,0.6,1.4,1.4c0,1.7,0,3.3,0,4.9
	c0,0.8-0.6,1.4-1.4,1.4c-5,0-10.1,0-15.1,0c-0.8,0-1.4-0.6-1.4-1.4C764.8,66.5,764.8,64.9,764.8,63.3z M745.2,63.3
	c0-0.7,0.6-1.4,1.4-1.4c5,0,10.1,0,15.1,0c0.8,0,1.4,0.6,1.4,1.4c0,1.7,0,3.3,0,4.9c0,0.8-0.6,1.4-1.4,1.4c-5,0-10.1,0-15.1,0
	c-0.8,0-1.4-0.6-1.4-1.4C745.2,66.5,745.2,64.9,745.2,63.3z M725.6,63.3c0-0.7,0.6-1.4,1.4-1.4c5,0,10.1,0,15.1,0
	c0.8,0,1.4,0.6,1.4,1.4c0,1.7,0,3.3,0,4.9c0,0.8-0.6,1.4-1.4,1.4c-5,0-10.1,0-15.1,0c-0.8,0-1.4-0.6-1.4-1.4
	C725.6,66.5,725.6,64.9,725.6,63.3z M733.7,72.3c0,1.6,0,3.3,0,4.9c0,0.8-0.6,1.4-1.4,1.4c-5.1,0-10.1,0-15.1,0
	c-0.8,0-1.4-0.6-1.4-1.4c0-1.6,0-3.3,0-4.9c0-0.8,0.6-1.4,1.4-1.4c5,0,10,0,15.1,0C733.1,70.9,733.7,71.6,733.7,72.3z M706,63.3
	c0-0.7,0.6-1.4,1.4-1.4c5.1,0,10.1,0,15.2,0c0.7,0,1.4,0.6,1.4,1.4c0,1.7,0,3.3,0,4.9c0,0.8-0.6,1.4-1.4,1.4c-5.1,0-10.1,0-15.2,0
	c-0.7,0-1.4-0.6-1.4-1.4C706,66.5,706,64.9,706,63.3z M686.4,63.3c0-0.7,0.6-1.4,1.4-1.4c5.1,0,10.1,0,15.2,0c0.7,0,1.4,0.6,1.4,1.4
	c0,1.7,0,3.3,0,4.9c0,0.8-0.6,1.4-1.4,1.4c-5.1,0-10.1,0-15.2,0c-0.7,0-1.4-0.6-1.4-1.4C686.4,66.5,686.4,64.9,686.4,63.3z
	 M667.1,63.4c0-0.8,0.6-1.4,1.4-1.4c5.1,0,10.1,0,15.2,0c0.7,0,1.4,0.6,1.4,1.4c0,1.7,0,3.3,0,4.9c0,0.7-0.6,1.4-1.4,1.4
	c-5.1,0-10.1,0-15.2,0c-0.7,0-1.4-0.6-1.4-1.4C667.1,66.7,667.1,65.1,667.1,63.4z M647.2,63.5c0-0.8,0.6-1.4,1.4-1.4
	c5,0,10,0,15.1,0c0.8,0,1.4,0.6,1.4,1.4c0,1.6,0,3.3,0,4.9c0,0.8-0.6,1.4-1.4,1.4c-5.1,0-10.1,0-15.1,0c-0.8,0-1.4-0.6-1.4-1.4
	C647.2,66.8,647.2,65.1,647.2,63.5z M627.6,63.5c0-0.8,0.6-1.4,1.4-1.4c5.1,0,10.1,0,15.2,0c0.8,0,1.4,0.6,1.4,1.4
	c0,1.6,0,3.3,0,4.9c0,0.8-0.6,1.4-1.4,1.4c-5.1,0-10.1,0-15.2,0c-0.7,0-1.4-0.6-1.4-1.4C627.6,66.8,627.6,65.1,627.6,63.5z
	 M608,63.5c0-0.8,0.6-1.4,1.4-1.4c5.1,0,10.1,0,15.2,0c0.7,0,1.4,0.6,1.4,1.4c0,1.6,0,3.3,0,4.9c0,0.8-0.6,1.4-1.4,1.4
	c-5.1,0-10.1,0-15.2,0c-0.7,0-1.4-0.6-1.4-1.4C608,66.8,608,65.1,608,63.5z M588.4,63.5c0-0.8,0.6-1.4,1.4-1.4c5.1,0,10.1,0,15.2,0
	c0.7,0,1.4,0.6,1.4,1.4c0,1.6,0,3.3,0,4.9c0,0.8-0.6,1.4-1.4,1.4c-5.1,0-10.1,0-15.2,0c-0.8,0-1.4-0.6-1.4-1.4
	C588.4,66.8,588.4,65.1,588.4,63.5z M568.7,63.5c0-0.8,0.6-1.4,1.4-1.4c5.1,0,10.1,0,15.1,0c0.8,0,1.4,0.6,1.4,1.4
	c0,1.6,0,3.3,0,4.9c0,0.8-0.6,1.4-1.4,1.4c-5,0-10,0-15.1,0c-0.8,0-1.4-0.6-1.4-1.4C568.7,66.8,568.7,65.1,568.7,63.5z M549.1,63.5
	c0-0.8,0.6-1.4,1.4-1.4c5,0,10.1,0,15.1,0c0.8,0,1.4,0.6,1.4,1.4c0,1.6,0,3.3,0,4.9c0,0.8-0.6,1.4-1.4,1.4c-5,0-10.1,0-15.1,0
	c-0.8,0-1.4-0.6-1.4-1.4C549.1,66.8,549.1,65.1,549.1,63.5z M557.3,72.5c0,1.7,0,3.3,0,4.9c0,0.8-0.6,1.4-1.4,1.4
	c-5,0-10.1,0-15.1,0c-0.8,0-1.4-0.6-1.4-1.4c0-1.7,0-3.3,0-4.9c0-0.7,0.6-1.4,1.4-1.4c5,0,10.1,0,15.1,0
	C556.6,71.1,557.3,71.7,557.3,72.5z M529.5,63.5c0-0.8,0.6-1.4,1.4-1.4c5,0,10.1,0,15.1,0c0.8,0,1.4,0.6,1.4,1.4c0,1.6,0,3.3,0,4.9
	c0,0.8-0.6,1.4-1.4,1.4c-5,0-10.1,0-15.1,0c-0.8,0-1.4-0.6-1.4-1.4C529.5,66.8,529.5,65.1,529.5,63.5z M537.7,72.5
	c0,1.7,0,3.3,0,4.9c0,0.8-0.6,1.4-1.4,1.4c-5,0-10.1,0-15.1,0c-0.8,0-1.4-0.6-1.4-1.4c0-1.7,0-3.3,0-4.9c0-0.7,0.6-1.4,1.4-1.4
	c5,0,10.1,0,15.1,0C537,71.1,537.7,71.7,537.7,72.5z M509.9,63.5c0-0.8,0.6-1.4,1.4-1.4c5,0,10.1,0,15.1,0c0.8,0,1.4,0.6,1.4,1.4
	c0,1.6,0,3.3,0,4.9c0,0.8-0.6,1.4-1.4,1.4c-5,0-10.1,0-15.1,0c-0.8,0-1.4-0.6-1.4-1.4C509.9,66.8,509.9,65.1,509.9,63.5z
	 M449.2,121.9c0,0.8-0.6,1.4-1.4,1.4h-15.1c-0.8,0-1.4-0.6-1.4-1.4V117c0-0.7,0.6-1.4,1.4-1.4h15.1c0.8,0,1.4,0.6,1.4,1.4V121.9z
	 M457.9,124.3c0.7,0,1.4,0.6,1.4,1.4c0,1.7,0,3.3,0,4.9c0,0.7-0.6,1.4-1.4,1.4c-5.1,0-10.1,0-15.2,0c-0.7,0-1.4-0.6-1.4-1.4
	c0-1.7,0-3.3,0-4.9c0-0.8,0.6-1.4,1.4-1.4C447.8,124.3,452.8,124.3,457.9,124.3z M352.8,81.3c0-0.7,0.6-1.4,1.4-1.4
	c5,0,10.1,0,15.1,0c0.8,0,1.4,0.6,1.4,1.4c0,1.7,0,3.3,0,4.9c0,0.8-0.6,1.4-1.4,1.4c-5,0-10.1,0-15.1,0c-0.8,0-1.4-0.6-1.4-1.4
	C352.8,84.6,352.8,83,352.8,81.3z M344.4,78.7c-0.8,0-1.4-0.6-1.4-1.4c0-1.6,0-3.3,0-4.9c0-0.8,0.6-1.4,1.4-1.4c5.1,0,10.1,0,15.1,0
	c0.8,0,1.4,0.6,1.4,1.4c0,1.6,0,3.3,0,4.9c0,0.8-0.6,1.4-1.4,1.4C354.5,78.7,349.4,78.7,344.4,78.7z M364,78.7
	c-0.8,0-1.4-0.6-1.4-1.4c0-1.6,0-3.3,0-4.9c0-0.8,0.6-1.4,1.4-1.4c5.1,0,10.1,0,15.2,0c0.7,0,1.4,0.6,1.4,1.4c0,1.6,0,3.3,0,4.9
	c0,0.8-0.6,1.4-1.4,1.4C374.1,78.7,369,78.7,364,78.7z M372.4,81.3c0-0.7,0.6-1.4,1.4-1.4c5.1,0,10.1,0,15.2,0
	c0.7,0,1.4,0.6,1.4,1.4c0,1.7,0,3.3,0,4.9c0,0.8-0.6,1.4-1.4,1.4c-5.1,0-10.1,0-15.2,0c-0.7,0-1.4-0.6-1.4-1.4
	C372.4,84.6,372.4,83,372.4,81.3z M467.6,79.9c0.7,0,1.4,0.6,1.4,1.4c0,1.7,0,3.3,0,4.9c0,0.7-0.6,1.4-1.4,1.4c-5.1,0-10.1,0-15.2,0
	c-0.7,0-1.4-0.6-1.4-1.4c0-1.7,0-3.3,0-4.9c0-0.8,0.6-1.4,1.4-1.4C457.5,79.9,462.6,79.9,467.6,79.9z M460.9,77.4c0-1.7,0-3.3,0-4.9
	c0-0.7,0.6-1.4,1.4-1.4c5.1,0,10.1,0,15.2,0c0.7,0,1.4,0.6,1.4,1.4c0,1.7,0,3.3,0,4.9c0,0.8-0.6,1.4-1.4,1.4c-5.1,0-10.1,0-15.2,0
	C461.5,78.8,460.9,78.2,460.9,77.4z M442.7,96.3c-0.7,0-1.4-0.6-1.4-1.4c0-1.7,0-3.3,0-4.9c0-0.8,0.6-1.4,1.4-1.4
	c5.1,0,10.1,0,15.2,0c0.7,0,1.4,0.6,1.4,1.4c0,1.7,0,3.3,0,4.9c0,0.7-0.6,1.4-1.4,1.4C452.8,96.3,447.8,96.3,442.7,96.3z M449.2,99
	v4.9c0,0.8-0.6,1.4-1.4,1.4h-15.1c-0.8,0-1.4-0.6-1.4-1.4V99c0-0.7,0.6-1.4,1.4-1.4h15.1C448.5,97.7,449.2,98.3,449.2,99z
	 M459.2,77.2c0,0.7-0.6,1.4-1.4,1.4c-5.1,0-10.1,0-15.2,0c-0.7,0-1.4-0.6-1.4-1.4c0-1.7,0-3.3,0-4.9c0-0.8,0.6-1.4,1.4-1.4
	c5.1,0,10.1,0,15.2,0c0.7,0,1.4,0.6,1.4,1.4C459.2,73.9,459.2,75.5,459.2,77.2z M447.7,79.9c0.8,0,1.4,0.6,1.4,1.4v4.9
	c0,0.8-0.6,1.4-1.4,1.4h-15.1c-0.8,0-1.4-0.6-1.4-1.4v-4.9c0-0.7,0.6-1.4,1.4-1.4H447.7z M437.9,88.7c0.8,0,1.4,0.6,1.4,1.4
	c0,1.6,0,3.3,0,4.9c0,0.8-0.6,1.4-1.4,1.4c-5.1,0-10.1,0-15.1,0c-0.8,0-1.4-0.6-1.4-1.4c0-1.6,0-3.3,0-4.9c0-0.8,0.6-1.4,1.4-1.4
	C427.8,88.7,432.9,88.7,437.9,88.7z M429.5,86.2c0,0.8-0.6,1.4-1.4,1.4c-5.1,0-10.1,0-15.2,0c-0.7,0-1.4-0.6-1.4-1.4
	c0-1.7,0-3.3,0-4.9c0-0.7,0.6-1.4,1.4-1.4c5.1,0,10.1,0,15.2,0c0.7,0,1.4,0.6,1.4,1.4C429.5,83,429.5,84.6,429.5,86.2z M419.7,77.3
	c0,0.8-0.6,1.4-1.4,1.4c-5.1,0-10.1,0-15.2,0c-0.7,0-1.4-0.6-1.4-1.4c0-1.6,0-3.3,0-4.9c0-0.8,0.6-1.4,1.4-1.4c5.1,0,10.1,0,15.2,0
	c0.8,0,1.4,0.6,1.4,1.4C419.7,74,419.7,75.6,419.7,77.3z M408.5,79.9c0.7,0,1.4,0.6,1.4,1.4c0,1.7,0,3.3,0,4.9
	c0,0.8-0.6,1.4-1.4,1.4c-5.1,0-10.1,0-15.2,0c-0.7,0-1.4-0.6-1.4-1.4c0-1.7,0-3.3,0-4.9c0-0.7,0.6-1.4,1.4-1.4
	C398.4,79.9,403.5,79.9,408.5,79.9z M400.1,77.3c0,0.8-0.6,1.4-1.4,1.4c-5.1,0-10.1,0-15.2,0c-0.7,0-1.4-0.6-1.4-1.4
	c0-1.6,0-3.3,0-4.9c0-0.8,0.6-1.4,1.4-1.4c5.1,0,10.1,0,15.2,0c0.7,0,1.4,0.6,1.4,1.4C400.1,74,400.1,75.6,400.1,77.3z M382.2,90.1
	c0-0.8,0.6-1.4,1.4-1.4c5.1,0,10.1,0,15.2,0c0.7,0,1.4,0.6,1.4,1.4c0,1.6,0,3.3,0,4.9c0,0.8-0.6,1.4-1.4,1.4c-5.1,0-10.1,0-15.2,0
	c-0.7,0-1.4-0.6-1.4-1.4C382.2,93.4,382.2,91.7,382.2,90.1z M392,99c0-0.7,0.6-1.4,1.4-1.4c5.1,0,10.1,0,15.2,0
	c0.7,0,1.4,0.6,1.4,1.4c0,1.7,0,3.3,0,4.9c0,0.8-0.6,1.4-1.4,1.4c-5.1,0-10.1,0-15.2,0c-0.7,0-1.4-0.6-1.4-1.4
	C392,102.3,392,100.7,392,99z M403.2,96.4c-0.7,0-1.4-0.6-1.4-1.4c0-1.6,0-3.3,0-4.9c0-0.8,0.6-1.4,1.4-1.4c5.1,0,10.1,0,15.2,0
	c0.8,0,1.4,0.6,1.4,1.4c0,1.6,0,3.3,0,4.9c0,0.8-0.6,1.4-1.4,1.4C413.3,96.4,408.2,96.4,403.2,96.4z M411.6,99
	c0-0.7,0.6-1.4,1.4-1.4c5.1,0,10.1,0,15.2,0c0.7,0,1.4,0.6,1.4,1.4c0,1.7,0,3.3,0,4.9c0,0.8-0.6,1.4-1.4,1.4c-5.1,0-10.1,0-15.2,0
	c-0.7,0-1.4-0.6-1.4-1.4C411.6,102.3,411.6,100.7,411.6,99z M421.4,108.1c0-0.8,0.6-1.4,1.4-1.4c5,0,10,0,15.1,0
	c0.8,0,1.4,0.6,1.4,1.4c0,1.6,0,3.3,0,4.9c0,0.8-0.6,1.4-1.4,1.4c-5.1,0-10.1,0-15.1,0c-0.8,0-1.4-0.6-1.4-1.4
	C421.4,111.4,421.4,109.7,421.4,108.1z M428.2,115.6c0.7,0,1.4,0.6,1.4,1.4c0,1.7,0,3.3,0,4.9c0,0.8-0.6,1.4-1.4,1.4
	c-5.1,0-10.1,0-15.2,0c-0.7,0-1.4-0.6-1.4-1.4c0-1.7,0-3.3,0-4.9c0-0.7,0.6-1.4,1.4-1.4C418.1,115.6,423.1,115.6,428.2,115.6z
	 M421.4,125.8c0-0.8,0.6-1.4,1.4-1.4c5,0,10,0,15.1,0c0.8,0,1.4,0.6,1.4,1.4c0,1.6,0,3.3,0,4.9c0,0.8-0.6,1.4-1.4,1.4
	c-5.1,0-10.1,0-15.1,0c-0.8,0-1.4-0.6-1.4-1.4C421.4,129.1,421.4,127.4,421.4,125.8z M442.7,114.3c-0.7,0-1.4-0.6-1.4-1.4
	c0-1.7,0-3.3,0-4.9c0-0.8,0.6-1.4,1.4-1.4c5.1,0,10.1,0,15.2,0c0.7,0,1.4,0.6,1.4,1.4c0,1.7,0,3.3,0,4.9c0,0.7-0.6,1.4-1.4,1.4
	C452.8,114.3,447.8,114.3,442.7,114.3z M452.5,105.3c-0.7,0-1.4-0.6-1.4-1.4c0-1.7,0-3.3,0-4.9c0-0.8,0.6-1.4,1.4-1.4
	c5.1,0,10.1,0,15.2,0c0.7,0,1.4,0.6,1.4,1.4c0,1.7,0,3.3,0,4.9c0,0.7-0.6,1.4-1.4,1.4C462.6,105.3,457.5,105.3,452.5,105.3z
	 M462.1,96.7c-0.7,0-1.4-0.6-1.4-1.4c0-1.7,0-3.3,0-4.9c0-0.7,0.6-1.4,1.4-1.4c5.1,0,10.1,0,15.2,0c0.7,0,1.4,0.6,1.4,1.4
	c0,1.7,0,3.3,0,4.9c0,0.8-0.6,1.4-1.4,1.4C472.2,96.7,467.2,96.7,462.1,96.7z M471.9,87.7c-0.7,0-1.4-0.6-1.4-1.4c0-1.6,0-3.3,0-4.9
	c0-0.8,0.6-1.4,1.4-1.4c5.1,0,10.1,0,15.2,0c0.8,0,1.4,0.6,1.4,1.4c0,1.6,0,3.3,0,4.9c0,0.8-0.6,1.4-1.4,1.4
	C482,87.7,477,87.7,471.9,87.7z M480.5,77.4c0-1.7,0-3.3,0-4.9c0-0.7,0.6-1.4,1.4-1.4c5.1,0,10.1,0,15.2,0c0.7,0,1.4,0.6,1.4,1.4
	c0,1.7,0,3.3,0,4.9c0,0.8-0.6,1.4-1.4,1.4c-5.1,0-10.1,0-15.2,0C481.1,78.8,480.5,78.2,480.5,77.4z M480.4,90.3
	c0-0.7,0.6-1.4,1.4-1.4c5.1,0,10.1,0,15.2,0c0.7,0,1.4,0.6,1.4,1.4c0,1.7,0,3.3,0,4.9c0,0.8-0.6,1.4-1.4,1.4c-5.1,0-10.1,0-15.2,0
	c-0.7,0-1.4-0.6-1.4-1.4C480.4,93.6,480.4,92,480.4,90.3z M491.6,87.7c-0.8,0-1.4-0.6-1.4-1.4c0-1.6,0-3.3,0-4.9
	c0-0.8,0.6-1.4,1.4-1.4c5,0,10,0,15.1,0c0.8,0,1.4,0.6,1.4,1.4c0,1.6,0,3.3,0,4.9c0,0.8-0.6,1.4-1.4,1.4
	C501.6,87.7,496.6,87.7,491.6,87.7z M501.5,78.8c-0.8,0-1.4-0.6-1.4-1.4c0-1.7,0-3.3,0-4.9c0-0.7,0.6-1.4,1.4-1.4c5,0,10.1,0,15.1,0
	c0.8,0,1.4,0.6,1.4,1.4c0,1.7,0,3.3,0,4.9c0,0.8-0.6,1.4-1.4,1.4C511.6,78.8,506.5,78.8,501.5,78.8z M490.3,63.5
	c0-0.8,0.6-1.4,1.4-1.4c5,0,10,0,15.1,0c0.8,0,1.4,0.6,1.4,1.4c0,1.6,0,3.3,0,4.9c0,0.8-0.6,1.4-1.4,1.4c-5.1,0-10.1,0-15.1,0
	c-0.8,0-1.4-0.6-1.4-1.4C490.3,66.8,490.3,65.1,490.3,63.5z M470.7,63.5c0-0.8,0.6-1.4,1.4-1.4c5.1,0,10.1,0,15.2,0
	c0.8,0,1.4,0.6,1.4,1.4c0,1.6,0,3.3,0,4.9c0,0.8-0.6,1.4-1.4,1.4c-5.1,0-10.1,0-15.2,0c-0.7,0-1.4-0.6-1.4-1.4
	C470.7,66.8,470.7,65.1,470.7,63.5z M451.1,63.5c0-0.8,0.6-1.4,1.4-1.4c5.1,0,10.1,0,15.2,0c0.7,0,1.4,0.6,1.4,1.4
	c0,1.7,0,3.3,0,4.9c0,0.7-0.6,1.4-1.4,1.4c-5.1,0-10.1,0-15.2,0c-0.7,0-1.4-0.6-1.4-1.4C451.1,66.8,451.1,65.1,451.1,63.5z
	 M431.2,63.6c0-0.8,0.6-1.4,1.4-1.4c5,0,10,0,15.1,0c0.8,0,1.4,0.6,1.4,1.4c0,1.6,0,3.3,0,4.9c0,0.8-0.6,1.4-1.4,1.4
	c-5.1,0-10.1,0-15.1,0c-0.8,0-1.4-0.6-1.4-1.4C431.2,66.9,431.2,65.2,431.2,63.6z M437.9,71c0.8,0,1.4,0.6,1.4,1.4
	c0,1.6,0,3.3,0,4.9c0,0.8-0.6,1.4-1.4,1.4c-5.1,0-10.1,0-15.1,0c-0.8,0-1.4-0.6-1.4-1.4c0-1.6,0-3.3,0-4.9c0-0.8,0.6-1.4,1.4-1.4
	C427.8,71,432.9,71,437.9,71z M411.6,63.6c0-0.8,0.6-1.4,1.4-1.4c5.1,0,10.1,0,15.2,0c0.8,0,1.4,0.6,1.4,1.4c0,1.6,0,3.3,0,4.9
	c0,0.8-0.6,1.4-1.4,1.4c-5.1,0-10.1,0-15.2,0c-0.7,0-1.4-0.6-1.4-1.4C411.6,66.9,411.6,65.2,411.6,63.6z M392,63.6
	c0-0.8,0.6-1.4,1.4-1.4c5.1,0,10.1,0,15.2,0c0.7,0,1.4,0.6,1.4,1.4c0,1.6,0,3.3,0,4.9c0,0.8-0.6,1.4-1.4,1.4c-5.1,0-10.1,0-15.2,0
	c-0.7,0-1.4-0.6-1.4-1.4C392,66.9,392,65.2,392,63.6z M372.4,63.6c0-0.8,0.6-1.4,1.4-1.4c5.1,0,10.1,0,15.2,0c0.7,0,1.4,0.6,1.4,1.4
	c0,1.6,0,3.3,0,4.9c0,0.8-0.6,1.4-1.4,1.4c-5.1,0-10.1,0-15.2,0c-0.8,0-1.4-0.6-1.4-1.4C372.4,66.9,372.4,65.2,372.4,63.6z
	 M352.7,63.6c0-0.8,0.6-1.4,1.4-1.4c5.1,0,10.1,0,15.1,0c0.8,0,1.4,0.6,1.4,1.4c0,1.6,0,3.3,0,4.9c0,0.8-0.6,1.4-1.4,1.4
	c-5,0-10,0-15.1,0c-0.8,0-1.4-0.6-1.4-1.4C352.7,66.9,352.7,65.2,352.7,63.6z M333.1,63.6c0-0.8,0.6-1.4,1.4-1.4c5,0,10.1,0,15.1,0
	c0.8,0,1.4,0.6,1.4,1.4c0,1.6,0,3.3,0,4.9c0,0.8-0.6,1.4-1.4,1.4c-5,0-10.1,0-15.1,0c-0.8,0-1.4-0.6-1.4-1.4
	C333.1,66.9,333.1,65.2,333.1,63.6z M341.3,72.4c0,1.6,0,3.3,0,4.9c0,0.8-0.6,1.4-1.4,1.4c-5,0-10.1,0-15.1,0
	c-0.8,0-1.4-0.6-1.4-1.4c0-1.6,0-3.3,0-4.9c0-0.8,0.6-1.4,1.4-1.4c5,0,10.1,0,15.1,0C340.7,71,341.3,71.6,341.3,72.4z M313.5,63.6
	c0-0.8,0.6-1.4,1.4-1.4c5,0,10.1,0,15.1,0c0.8,0,1.4,0.6,1.4,1.4c0,1.6,0,3.3,0,4.9c0,0.8-0.6,1.4-1.4,1.4c-5,0-10.1,0-15.1,0
	c-0.8,0-1.4-0.6-1.4-1.4C313.5,66.9,313.5,65.2,313.5,63.6z M321.7,72.4c0,1.6,0,3.3,0,4.9c0,0.8-0.6,1.4-1.4,1.4
	c-5,0-10.1,0-15.1,0c-0.8,0-1.4-0.6-1.4-1.4c0-1.6,0-3.3,0-4.9c0-0.8,0.6-1.4,1.4-1.4c5,0,10.1,0,15.1,0
	C321.1,71,321.7,71.6,321.7,72.4z M293.9,63.6c0-0.8,0.6-1.4,1.4-1.4c5,0,10.1,0,15.1,0c0.8,0,1.4,0.6,1.4,1.4c0,1.6,0,3.3,0,4.9
	c0,0.8-0.6,1.4-1.4,1.4c-5,0-10.1,0-15.1,0c-0.8,0-1.4-0.6-1.4-1.4C293.9,66.9,293.9,65.2,293.9,63.6z M274.3,63.6
	c0-0.8,0.6-1.4,1.4-1.4c5,0,10,0,15.1,0c0.8,0,1.4,0.6,1.4,1.4c0,1.6,0,3.3,0,4.9c0,0.8-0.6,1.4-1.4,1.4c-5.1,0-10.1,0-15.1,0
	c-0.8,0-1.4-0.6-1.4-1.4C274.3,66.9,274.3,65.2,274.3,63.6z M254.7,63.6c0-0.8,0.6-1.4,1.4-1.4c5.1,0,10.1,0,15.2,0
	c0.8,0,1.4,0.6,1.4,1.4c0,1.6,0,3.3,0,4.9c0,0.8-0.6,1.4-1.4,1.4c-5.1,0-10.1,0-15.2,0c-0.7,0-1.4-0.6-1.4-1.4
	C254.7,66.9,254.7,65.2,254.7,63.6z M235.2,63.5c0-0.8,0.6-1.4,1.4-1.4c5.1,0,10.1,0,15.2,0c0.7,0,1.4,0.6,1.4,1.4
	c0,1.7,0,3.3,0,4.9c0,0.7-0.6,1.4-1.4,1.4c-5.1,0-10.1,0-15.2,0c-0.7,0-1.4-0.6-1.4-1.4C235.2,66.8,235.2,65.1,235.2,63.5z
	 M215.9,63.5c0-0.8,0.6-1.4,1.4-1.4c5.1,0,10.1,0,15.2,0c0.7,0,1.4,0.6,1.4,1.4c0,1.7,0,3.3,0,4.9c0,0.7-0.6,1.4-1.4,1.4
	c-5.1,0-10.1,0-15.2,0c-0.7,0-1.4-0.6-1.4-1.4C215.9,66.8,215.9,65.1,215.9,63.5z M195.9,63.6c0-0.8,0.6-1.4,1.4-1.4
	c5,0,10,0,15.1,0c0.8,0,1.4,0.6,1.4,1.4c0,1.6,0,3.3,0,4.9c0,0.8-0.6,1.4-1.4,1.4c-5.1,0-10.1,0-15.1,0c-0.8,0-1.4-0.6-1.4-1.4
	C195.9,66.9,195.9,65.2,195.9,63.6z M176.3,63.6c0-0.8,0.6-1.4,1.4-1.4c5.1,0,10.1,0,15.2,0c0.8,0,1.4,0.6,1.4,1.4
	c0,1.6,0,3.3,0,4.9c0,0.8-0.6,1.4-1.4,1.4c-5.1,0-10.1,0-15.2,0c-0.7,0-1.4-0.6-1.4-1.4C176.3,66.9,176.3,65.2,176.3,63.6z
	 M156.7,63.6c0-0.8,0.6-1.4,1.4-1.4c5.1,0,10.1,0,15.2,0c0.7,0,1.4,0.6,1.4,1.4c0,1.6,0,3.3,0,4.9c0,0.8-0.6,1.4-1.4,1.4
	c-5.1,0-10.1,0-15.2,0c-0.7,0-1.4-0.6-1.4-1.4C156.7,66.9,156.7,65.2,156.7,63.6z M164.8,72.5c0,1.7,0,3.3,0,4.9
	c0,0.8-0.6,1.4-1.4,1.4c-5.1,0-10.1,0-15.2,0c-0.7,0-1.4-0.6-1.4-1.4c0-1.7,0-3.3,0-4.9c0-0.7,0.6-1.4,1.4-1.4c5.1,0,10.1,0,15.2,0
	C164.2,71.1,164.8,71.8,164.8,72.5z M137.1,63.6c0-0.8,0.6-1.4,1.4-1.4c5.1,0,10.1,0,15.2,0c0.7,0,1.4,0.6,1.4,1.4
	c0,1.6,0,3.3,0,4.9c0,0.8-0.6,1.4-1.4,1.4c-5.1,0-10.1,0-15.2,0c-0.8,0-1.4-0.6-1.4-1.4C137.1,66.9,137.1,65.2,137.1,63.6z
	 M145.2,72.5c0,1.7,0,3.3,0,4.9c0,0.8-0.6,1.4-1.4,1.4c-5,0-10.1,0-15.1,0c-0.8,0-1.4-0.6-1.4-1.4c0-1.7,0-3.3,0-4.9
	c0-0.7,0.6-1.4,1.4-1.4c5,0,10.1,0,15.1,0C144.6,71.1,145.2,71.8,145.2,72.5z M117.5,63.6c0-0.8,0.6-1.4,1.4-1.4
	c5.1,0,10.1,0,15.1,0c0.8,0,1.4,0.6,1.4,1.4c0,1.6,0,3.3,0,4.9c0,0.8-0.6,1.4-1.4,1.4c-5,0-10,0-15.1,0c-0.8,0-1.4-0.6-1.4-1.4
	C117.5,66.9,117.5,65.2,117.5,63.6z M19.5,81.3c0-0.8,0.6-1.4,1.4-1.4c5.1,0,10.1,0,15.2,0c0.8,0,1.4,0.6,1.4,1.4c0,1.6,0,3.3,0,4.9
	c0,0.8-0.6,1.4-1.4,1.4c-5.1,0-10.1,0-15.2,0c-0.7,0-1.4-0.6-1.4-1.4C19.5,84.6,19.5,82.9,19.5,81.3z M11,78.8
	c-0.7,0-1.4-0.6-1.4-1.4c0-1.7,0-3.3,0-4.9c0-0.7,0.6-1.4,1.4-1.4c5.1,0,10.1,0,15.2,0c0.7,0,1.4,0.6,1.4,1.4c0,1.7,0,3.3,0,4.9
	c0,0.8-0.6,1.4-1.4,1.4C21.1,78.8,16.1,78.8,11,78.8z M55.6,79.9c0.8,0,1.4,0.6,1.4,1.4c0,1.6,0,3.3,0,4.9c0,0.8-0.6,1.4-1.4,1.4
	c-5.1,0-10.1,0-15.1,0c-0.8,0-1.4-0.6-1.4-1.4c0-1.6,0-3.3,0-4.9c0-0.8,0.6-1.4,1.4-1.4C45.5,79.9,50.5,79.9,55.6,79.9z M48.9,77.4
	c0-1.7,0-3.3,0-4.9c0-0.7,0.6-1.4,1.4-1.4c5,0,10.1,0,15.1,0c0.8,0,1.4,0.6,1.4,1.4c0,1.7,0,3.3,0,4.9c0,0.8-0.6,1.4-1.4,1.4
	c-5,0-10.1,0-15.1,0C49.5,78.8,48.9,78.2,48.9,77.4z M47.2,90.2c0,1.7,0,3.3,0,4.9c0,0.8-0.6,1.4-1.4,1.4c-5.1,0-10.1,0-15.2,0
	c-0.7,0-1.4-0.6-1.4-1.4c0-1.7,0-3.3,0-4.9c0-0.7,0.6-1.4,1.4-1.4c5.1,0,10.1,0,15.2,0C46.5,88.9,47.2,89.5,47.2,90.2z M47.2,77.4
	c0,0.8-0.6,1.4-1.4,1.4c-5.1,0-10.1,0-15.2,0c-0.7,0-1.4-0.6-1.4-1.4c0-1.7,0-3.3,0-4.9c0-0.7,0.6-1.4,1.4-1.4c5.1,0,10.1,0,15.2,0
	c0.7,0,1.4,0.6,1.4,1.4C47.2,74.2,47.2,75.8,47.2,77.4z M26.2,88.9c0.7,0,1.4,0.6,1.4,1.4c0,1.7,0,3.3,0,4.9c0,0.8-0.6,1.4-1.4,1.4
	c-5.1,0-10.1,0-15.2,0c-0.7,0-1.4-0.6-1.4-1.4c0-1.7,0-3.3,0-4.9c0-0.7,0.6-1.4,1.4-1.4C16.1,88.9,21.1,88.9,26.2,88.9z M19.5,99.3
	c0-0.8,0.6-1.4,1.4-1.4c5.1,0,10.1,0,15.2,0c0.8,0,1.4,0.6,1.4,1.4c0,1.6,0,3.3,0,4.9c0,0.8-0.6,1.4-1.4,1.4c-5.1,0-10.1,0-15.2,0
	c-0.7,0-1.4-0.6-1.4-1.4C19.5,102.6,19.5,100.9,19.5,99.3z M26.2,106.9c0.7,0,1.4,0.6,1.4,1.4c0,1.7,0,3.3,0,4.9
	c0,0.8-0.6,1.4-1.4,1.4c-5.1,0-10.1,0-15.2,0c-0.7,0-1.4-0.6-1.4-1.4c0-1.7,0-3.3,0-4.9c0-0.7,0.6-1.4,1.4-1.4
	C16.1,106.9,21.1,106.9,26.2,106.9z M19.5,117c0-0.8,0.6-1.4,1.4-1.4c5.1,0,10.1,0,15.2,0c0.8,0,1.4,0.6,1.4,1.4c0,1.6,0,3.3,0,4.9
	c0,0.8-0.6,1.4-1.4,1.4c-5.1,0-10.1,0-15.2,0c-0.7,0-1.4-0.6-1.4-1.4C19.5,120.3,19.5,118.6,19.5,117z M26.2,124.6
	c0.7,0,1.4,0.6,1.4,1.4c0,1.7,0,3.3,0,4.9c0,0.8-0.6,1.4-1.4,1.4c-5.1,0-10.1,0-15.2,0c-0.7,0-1.4-0.6-1.4-1.4c0-1.7,0-3.3,0-4.9
	c0-0.7,0.6-1.4,1.4-1.4C16.1,124.6,21.1,124.6,26.2,124.6z M19.5,135c0-0.8,0.6-1.4,1.4-1.4c5.1,0,10.1,0,15.2,0
	c0.8,0,1.4,0.6,1.4,1.4c0,1.6,0,3.3,0,4.9c0,0.8-0.6,1.4-1.4,1.4c-5.1,0-10.1,0-15.2,0c-0.7,0-1.4-0.6-1.4-1.4
	C19.5,138.3,19.5,136.6,19.5,135z M30.6,132.3c-0.7,0-1.4-0.6-1.4-1.4c0-1.7,0-3.3,0-4.9c0-0.7,0.6-1.4,1.4-1.4c5.1,0,10.1,0,15.2,0
	c0.7,0,1.4,0.6,1.4,1.4c0,1.7,0,3.3,0,4.9c0,0.8-0.6,1.4-1.4,1.4C40.7,132.3,35.7,132.3,30.6,132.3z M40.5,123.3
	c-0.8,0-1.4-0.6-1.4-1.4c0-1.6,0-3.3,0-4.9c0-0.8,0.6-1.4,1.4-1.4c5,0,10,0,15.1,0c0.8,0,1.4,0.6,1.4,1.4c0,1.6,0,3.3,0,4.9
	c0,0.8-0.6,1.4-1.4,1.4C50.5,123.3,45.5,123.3,40.5,123.3z M47.2,113.1c0,0.8-0.6,1.4-1.4,1.4c-5.1,0-10.1,0-15.2,0
	c-0.7,0-1.4-0.6-1.4-1.4c0-1.7,0-3.3,0-4.9c0-0.7,0.6-1.4,1.4-1.4c5.1,0,10.1,0,15.2,0c0.7,0,1.4,0.6,1.4,1.4
	C47.2,109.9,47.2,111.5,47.2,113.1z M40.5,105.6c-0.8,0-1.4-0.6-1.4-1.4c0-1.6,0-3.3,0-4.9c0-0.8,0.6-1.4,1.4-1.4c5,0,10,0,15.1,0
	c0.8,0,1.4,0.6,1.4,1.4c0,1.6,0,3.3,0,4.9c0,0.8-0.6,1.4-1.4,1.4C50.5,105.6,45.5,105.6,40.5,105.6z M50.3,96.6
	c-0.8,0-1.4-0.6-1.4-1.4c0-1.7,0-3.3,0-4.9c0-0.7,0.6-1.4,1.4-1.4c5,0,10.1,0,15.1,0c0.8,0,1.4,0.6,1.4,1.4c0,1.7,0,3.3,0,4.9
	c0,0.8-0.6,1.4-1.4,1.4C60.4,96.6,55.3,96.6,50.3,96.6z M60.1,87.6c-0.8,0-1.4-0.6-1.4-1.4c0-1.6,0-3.3,0-4.9c0-0.8,0.6-1.4,1.4-1.4
	c5,0,10.1,0,15.1,0c0.8,0,1.4,0.6,1.4,1.4c0,1.6,0,3.3,0,4.9c0,0.8-0.6,1.4-1.4,1.4C70.2,87.6,65.1,87.6,60.1,87.6z M68.5,77.4
	c0-1.7,0-3.3,0-4.9c0-0.7,0.6-1.4,1.4-1.4c5,0,10.1,0,15.1,0c0.8,0,1.4,0.6,1.4,1.4c0,1.7,0,3.3,0,4.9c0,0.8-0.6,1.4-1.4,1.4
	c-5,0-10.1,0-15.1,0C69.1,78.8,68.5,78.2,68.5,77.4z M68.5,90.2c0-0.7,0.6-1.4,1.4-1.4c5,0,10.1,0,15.1,0c0.8,0,1.4,0.6,1.4,1.4
	c0,1.7,0,3.3,0,4.9c0,0.8-0.6,1.4-1.4,1.4c-5,0-10.1,0-15.1,0c-0.8,0-1.4-0.6-1.4-1.4C68.5,93.5,68.5,91.9,68.5,90.2z M79.7,87.6
	c-0.8,0-1.4-0.6-1.4-1.4c0-1.6,0-3.3,0-4.9c0-0.8,0.6-1.4,1.4-1.4c5,0,10.1,0,15.1,0c0.8,0,1.4,0.6,1.4,1.4c0,1.6,0,3.3,0,4.9
	c0,0.8-0.6,1.4-1.4,1.4C89.8,87.6,84.7,87.6,79.7,87.6z M89.5,78.8c-0.8,0-1.4-0.6-1.4-1.4c0-1.7,0-3.3,0-4.9c0-0.7,0.6-1.4,1.4-1.4
	c5,0,10.1,0,15.1,0c0.8,0,1.4,0.6,1.4,1.4c0,1.7,0,3.3,0,4.9c0,0.8-0.6,1.4-1.4,1.4C99.6,78.8,94.5,78.8,89.5,78.8z M97.9,81.3
	c0-0.8,0.6-1.4,1.4-1.4c5,0,10.1,0,15.1,0c0.8,0,1.4,0.6,1.4,1.4c0,1.6,0,3.3,0,4.9c0,0.8-0.6,1.4-1.4,1.4c-5,0-10.1,0-15.1,0
	c-0.8,0-1.4-0.6-1.4-1.4C97.9,84.6,97.9,82.9,97.9,81.3z M109.1,78.8c-0.8,0-1.4-0.6-1.4-1.4c0-1.7,0-3.3,0-4.9
	c0-0.7,0.6-1.4,1.4-1.4c5,0,10.1,0,15.1,0c0.8,0,1.4,0.6,1.4,1.4c0,1.7,0,3.3,0,4.9c0,0.8-0.6,1.4-1.4,1.4
	C119.2,78.8,114.1,78.8,109.1,78.8z M97.9,63.6c0-0.8,0.6-1.4,1.4-1.4c5,0,10.1,0,15.1,0c0.8,0,1.4,0.6,1.4,1.4c0,1.6,0,3.3,0,4.9
	c0,0.8-0.6,1.4-1.4,1.4c-5,0-10.1,0-15.1,0c-0.8,0-1.4-0.6-1.4-1.4C97.9,66.9,97.9,65.2,97.9,63.6z M78.3,63.6
	c0-0.8,0.6-1.4,1.4-1.4c5,0,10.1,0,15.1,0c0.8,0,1.4,0.6,1.4,1.4c0,1.6,0,3.3,0,4.9c0,0.8-0.6,1.4-1.4,1.4c-5,0-10.1,0-15.1,0
	c-0.8,0-1.4-0.6-1.4-1.4C78.3,66.9,78.3,65.2,78.3,63.6z M58.7,63.6c0-0.8,0.6-1.4,1.4-1.4c5,0,10.1,0,15.1,0c0.8,0,1.4,0.6,1.4,1.4
	c0,1.6,0,3.3,0,4.9c0,0.8-0.6,1.4-1.4,1.4c-5,0-10.1,0-15.1,0c-0.8,0-1.4-0.6-1.4-1.4C58.7,66.9,58.7,65.2,58.7,63.6z M39.1,63.6
	c0-0.8,0.6-1.4,1.4-1.4c5,0,10,0,15.1,0c0.8,0,1.4,0.6,1.4,1.4c0,1.6,0,3.3,0,4.9c0,0.8-0.6,1.4-1.4,1.4c-5.1,0-10.1,0-15.1,0
	c-0.8,0-1.4-0.6-1.4-1.4C39.1,66.9,39.1,65.2,39.1,63.6z M19.5,63.6c0-0.8,0.6-1.4,1.4-1.4c5.1,0,10.1,0,15.2,0
	c0.8,0,1.4,0.6,1.4,1.4c0,1.6,0,3.3,0,4.9c0,0.8-0.6,1.4-1.4,1.4c-5.1,0-10.1,0-15.2,0c-0.7,0-1.4-0.6-1.4-1.4
	C19.5,66.9,19.5,65.2,19.5,63.6z M1.4,69.8c-0.7,0-1.4-0.6-1.4-1.4c0-1.7,0-3.3,0-4.9c0-0.8,0.6-1.4,1.4-1.4c5.1,0,10.1,0,15.2,0
	c0.7,0,1.4,0.6,1.4,1.4c0,1.7,0,3.3,0,4.9c0,0.7-0.6,1.4-1.4,1.4C11.5,69.8,6.4,69.8,1.4,69.8z M1.4,87.5c-0.7,0-1.4-0.6-1.4-1.4
	c0-1.7,0-3.3,0-4.9c0-0.8,0.6-1.4,1.4-1.4c5.1,0,10.1,0,15.2,0c0.7,0,1.4,0.6,1.4,1.4c0,1.7,0,3.3,0,4.9c0,0.7-0.6,1.4-1.4,1.4
	C11.5,87.5,6.4,87.5,1.4,87.5z M1.4,105.5c-0.7,0-1.4-0.6-1.4-1.4c0-1.7,0-3.3,0-4.9c0-0.8,0.6-1.4,1.4-1.4c5.1,0,10.1,0,15.2,0
	c0.7,0,1.4,0.6,1.4,1.4c0,1.7,0,3.3,0,4.9c0,0.7-0.6,1.4-1.4,1.4C11.5,105.5,6.4,105.5,1.4,105.5z M1.4,123.2
	c-0.7,0-1.4-0.6-1.4-1.4c0-1.7,0-3.3,0-4.9c0-0.8,0.6-1.4,1.4-1.4c5.1,0,10.1,0,15.2,0c0.7,0,1.4,0.6,1.4,1.4c0,1.7,0,3.3,0,4.9
	c0,0.7-0.6,1.4-1.4,1.4C11.5,123.2,6.4,123.2,1.4,123.2z M1.4,141.2c-0.7,0-1.4-0.6-1.4-1.4c0-1.7,0-3.3,0-4.9
	c0-0.8,0.6-1.4,1.4-1.4c5.1,0,10.1,0,15.2,0c0.7,0,1.4,0.6,1.4,1.4c0,1.7,0,3.3,0,4.9c0,0.7-0.6,1.4-1.4,1.4
	C11.5,141.2,6.4,141.2,1.4,141.2z M27.6,148.9c0,0.8-0.6,1.4-1.4,1.4c-5.1,0-10.1,0-15.2,0c-0.7,0-1.4-0.6-1.4-1.4
	c0-1.7,0-3.3,0-4.9c0-0.7,0.6-1.4,1.4-1.4c5.1,0,10.1,0,15.2,0c0.7,0,1.4,0.6,1.4,1.4C27.6,145.6,27.6,147.2,27.6,148.9z
	 M47.2,148.9c0,0.8-0.6,1.4-1.4,1.4c-5.1,0-10.1,0-15.2,0c-0.7,0-1.4-0.6-1.4-1.4c0-1.7,0-3.3,0-4.9c0-0.7,0.6-1.4,1.4-1.4
	c5.1,0,10.1,0,15.2,0c0.7,0,1.4,0.6,1.4,1.4C47.2,145.6,47.2,147.2,47.2,148.9z M40.5,141.3c-0.8,0-1.4-0.6-1.4-1.4
	c0-1.6,0-3.3,0-4.9c0-0.8,0.6-1.4,1.4-1.4c5,0,10,0,15.1,0c0.8,0,1.4,0.6,1.4,1.4c0,1.6,0,3.3,0,4.9c0,0.8-0.6,1.4-1.4,1.4
	C50.5,141.3,45.5,141.3,40.5,141.3z M65.4,142.6c0.8,0,1.4,0.6,1.4,1.4c0,1.7,0,3.3,0,4.9c0,0.8-0.6,1.4-1.4,1.4c-5,0-10.1,0-15.1,0
	c-0.8,0-1.4-0.6-1.4-1.4c0-1.7,0-3.3,0-4.9c0-0.7,0.6-1.4,1.4-1.4C55.3,142.6,60.4,142.6,65.4,142.6z M65.4,124.6
	c0.8,0,1.4,0.6,1.4,1.4c0,1.7,0,3.3,0,4.9c0,0.8-0.6,1.4-1.4,1.4c-5,0-10.1,0-15.1,0c-0.8,0-1.4-0.6-1.4-1.4c0-1.7,0-3.3,0-4.9
	c0-0.7,0.6-1.4,1.4-1.4C55.3,124.6,60.4,124.6,65.4,124.6z M66.8,113.1c0,0.8-0.6,1.4-1.4,1.4c-5,0-10.1,0-15.1,0
	c-0.8,0-1.4-0.6-1.4-1.4c0-1.7,0-3.3,0-4.9c0-0.7,0.6-1.4,1.4-1.4c5,0,10.1,0,15.1,0c0.8,0,1.4,0.6,1.4,1.4
	C66.8,109.9,66.8,111.5,66.8,113.1z M76.6,104.2c0,0.8-0.6,1.4-1.4,1.4c-5,0-10.1,0-15.1,0c-0.8,0-1.4-0.6-1.4-1.4
	c0-1.6,0-3.3,0-4.9c0-0.8,0.6-1.4,1.4-1.4c5,0,10.1,0,15.1,0c0.8,0,1.4,0.6,1.4,1.4C76.6,100.9,76.6,102.6,76.6,104.2z M96.2,104.2
	c0,0.8-0.6,1.4-1.4,1.4c-5,0-10.1,0-15.1,0c-0.8,0-1.4-0.6-1.4-1.4c0-1.6,0-3.3,0-4.9c0-0.8,0.6-1.4,1.4-1.4c5,0,10.1,0,15.1,0
	c0.8,0,1.4,0.6,1.4,1.4C96.2,100.9,96.2,102.6,96.2,104.2z M106,95.1c0,0.8-0.6,1.4-1.4,1.4c-5,0-10.1,0-15.1,0
	c-0.8,0-1.4-0.6-1.4-1.4c0-1.7,0-3.3,0-4.9c0-0.7,0.6-1.4,1.4-1.4c5,0,10.1,0,15.1,0c0.8,0,1.4,0.6,1.4,1.4
	C106,91.9,106,93.5,106,95.1z M125.6,95.1c0,0.8-0.6,1.4-1.4,1.4c-5,0-10.1,0-15.1,0c-0.8,0-1.4-0.6-1.4-1.4c0-1.7,0-3.3,0-4.9
	c0-0.7,0.6-1.4,1.4-1.4c5,0,10.1,0,15.1,0c0.8,0,1.4,0.6,1.4,1.4C125.6,91.9,125.6,93.5,125.6,95.1z M135.4,86.2
	c0,0.8-0.6,1.4-1.4,1.4c-5,0-10,0-15.1,0c-0.8,0-1.4-0.6-1.4-1.4c0-1.6,0-3.3,0-4.9c0-0.8,0.6-1.4,1.4-1.4c5.1,0,10.1,0,15.1,0
	c0.8,0,1.4,0.6,1.4,1.4C135.4,82.9,135.4,84.6,135.4,86.2z M155,86.2c0,0.8-0.6,1.4-1.4,1.4c-5.1,0-10.1,0-15.2,0
	c-0.8,0-1.4-0.6-1.4-1.4c0-1.6,0-3.3,0-4.9c0-0.8,0.6-1.4,1.4-1.4c5.1,0,10.1,0,15.2,0c0.7,0,1.4,0.6,1.4,1.4
	C155,82.9,155,84.6,155,86.2z M174.6,86.2c0,0.8-0.6,1.4-1.4,1.4c-5.1,0-10.1,0-15.2,0c-0.7,0-1.4-0.6-1.4-1.4c0-1.6,0-3.3,0-4.9
	c0-0.8,0.6-1.4,1.4-1.4c5.1,0,10.1,0,15.2,0c0.7,0,1.4,0.6,1.4,1.4C174.6,82.9,174.6,84.6,174.6,86.2z M184.4,77.4
	c0,0.8-0.6,1.4-1.4,1.4c-5.1,0-10.1,0-15.2,0c-0.7,0-1.4-0.6-1.4-1.4c0-1.7,0-3.3,0-4.9c0-0.7,0.6-1.4,1.4-1.4c5.1,0,10.1,0,15.2,0
	c0.7,0,1.4,0.6,1.4,1.4C184.4,74.2,184.4,75.8,184.4,77.4z M204.1,77.4c0,0.8-0.6,1.4-1.4,1.4c-5.1,0-10.1,0-15.2,0
	c-0.7,0-1.4-0.6-1.4-1.4c0-1.7,0-3.3,0-4.9c0-0.7,0.6-1.4,1.4-1.4c5.1,0,10.1,0,15.2,0c0.7,0,1.4,0.6,1.4,1.4
	C204.1,74.2,204.1,75.8,204.1,77.4z M223.7,77.4c0,0.8-0.6,1.4-1.4,1.4h-15.1c-0.8,0-1.4-0.6-1.4-1.4v-4.9c0-0.7,0.6-1.4,1.4-1.4
	h15.1c0.8,0,1.4,0.6,1.4,1.4V77.4z M243.4,77.2c0,0.7-0.6,1.4-1.4,1.4c-5.1,0-10.1,0-15.2,0c-0.7,0-1.4-0.6-1.4-1.4
	c0-1.7,0-3.3,0-4.9c0-0.8,0.6-1.4,1.4-1.4c5.1,0,10.1,0,15.2,0c0.7,0,1.4,0.6,1.4,1.4C243.4,73.9,243.4,75.5,243.4,77.2z
	 M262.8,77.3c0,0.8-0.6,1.4-1.4,1.4c-5.1,0-10.1,0-15.2,0c-0.7,0-1.4-0.6-1.4-1.4c0-1.6,0-3.3,0-4.9c0-0.8,0.6-1.4,1.4-1.4
	c5.1,0,10.1,0,15.2,0c0.8,0,1.4,0.6,1.4,1.4C262.8,74,262.8,75.6,262.8,77.3z M282.5,77.3c0,0.8-0.6,1.4-1.4,1.4
	c-5.1,0-10.1,0-15.1,0c-0.8,0-1.4-0.6-1.4-1.4c0-1.6,0-3.3,0-4.9c0-0.8,0.6-1.4,1.4-1.4c5,0,10,0,15.1,0c0.8,0,1.4,0.6,1.4,1.4
	C282.5,74,282.5,75.6,282.5,77.3z M285.6,78.7c-0.8,0-1.4-0.6-1.4-1.4c0-1.6,0-3.3,0-4.9c0-0.8,0.6-1.4,1.4-1.4c5,0,10.1,0,15.1,0
	c0.8,0,1.4,0.6,1.4,1.4c0,1.6,0,3.3,0,4.9c0,0.8-0.6,1.4-1.4,1.4C295.6,78.7,290.6,78.7,285.6,78.7z M311.9,86.2
	c0,0.8-0.6,1.4-1.4,1.4c-5,0-10.1,0-15.1,0c-0.8,0-1.4-0.6-1.4-1.4c0-1.7,0-3.3,0-4.9c0-0.7,0.6-1.4,1.4-1.4c5,0,10.1,0,15.1,0
	c0.8,0,1.4,0.6,1.4,1.4C311.9,83,311.9,84.6,311.9,86.2z M331.5,86.2c0,0.8-0.6,1.4-1.4,1.4c-5,0-10.1,0-15.1,0
	c-0.8,0-1.4-0.6-1.4-1.4c0-1.7,0-3.3,0-4.9c0-0.7,0.6-1.4,1.4-1.4c5,0,10.1,0,15.1,0c0.8,0,1.4,0.6,1.4,1.4
	C331.5,83,331.5,84.6,331.5,86.2z M334.6,87.6c-0.8,0-1.4-0.6-1.4-1.4c0-1.7,0-3.3,0-4.9c0-0.7,0.6-1.4,1.4-1.4c5,0,10.1,0,15.1,0
	c0.8,0,1.4,0.6,1.4,1.4c0,1.7,0,3.3,0,4.9c0,0.8-0.6,1.4-1.4,1.4C344.7,87.6,339.6,87.6,334.6,87.6z M360.9,95
	c0,0.8-0.6,1.4-1.4,1.4c-5,0-10,0-15.1,0c-0.8,0-1.4-0.6-1.4-1.4c0-1.6,0-3.3,0-4.9c0-0.8,0.6-1.4,1.4-1.4c5.1,0,10.1,0,15.1,0
	c0.8,0,1.4,0.6,1.4,1.4C360.9,91.7,360.9,93.4,360.9,95z M364,96.4c-0.8,0-1.4-0.6-1.4-1.4c0-1.6,0-3.3,0-4.9c0-0.8,0.6-1.4,1.4-1.4
	c5.1,0,10.1,0,15.2,0c0.7,0,1.4,0.6,1.4,1.4c0,1.6,0,3.3,0,4.9c0,0.8-0.6,1.4-1.4,1.4C374.1,96.4,369,96.4,364,96.4z M373.8,105.4
	c-0.7,0-1.4-0.6-1.4-1.4c0-1.7,0-3.3,0-4.9c0-0.7,0.6-1.4,1.4-1.4c5.1,0,10.1,0,15.2,0c0.7,0,1.4,0.6,1.4,1.4c0,1.7,0,3.3,0,4.9
	c0,0.8-0.6,1.4-1.4,1.4C383.9,105.4,378.8,105.4,373.8,105.4z M400.1,113c0,0.8-0.6,1.4-1.4,1.4c-5.1,0-10.1,0-15.2,0
	c-0.7,0-1.4-0.6-1.4-1.4c0-1.6,0-3.3,0-4.9c0-0.8,0.6-1.4,1.4-1.4c5.1,0,10.1,0,15.2,0c0.7,0,1.4,0.6,1.4,1.4
	C400.1,109.7,400.1,111.4,400.1,113z M403.2,114.4c-0.7,0-1.4-0.6-1.4-1.4c0-1.6,0-3.3,0-4.9c0-0.8,0.6-1.4,1.4-1.4
	c5.1,0,10.1,0,15.2,0c0.8,0,1.4,0.6,1.4,1.4c0,1.6,0,3.3,0,4.9c0,0.8-0.6,1.4-1.4,1.4C413.3,114.4,408.2,114.4,403.2,114.4z
	 M403.2,132.1c-0.7,0-1.4-0.6-1.4-1.4c0-1.6,0-3.3,0-4.9c0-0.8,0.6-1.4,1.4-1.4c5.1,0,10.1,0,15.2,0c0.8,0,1.4,0.6,1.4,1.4
	c0,1.6,0,3.3,0,4.9c0,0.8-0.6,1.4-1.4,1.4C413.3,132.1,408.2,132.1,403.2,132.1z M419.7,148.7c0,0.8-0.6,1.4-1.4,1.4
	c-5.1,0-10.1,0-15.2,0c-0.7,0-1.4-0.6-1.4-1.4c0-1.6,0-3.3,0-4.9c0-0.8,0.6-1.4,1.4-1.4c5.1,0,10.1,0,15.2,0c0.8,0,1.4,0.6,1.4,1.4
	C419.7,145.4,419.7,147.1,419.7,148.7z M413,141.1c-0.7,0-1.4-0.6-1.4-1.4c0-1.7,0-3.3,0-4.9c0-0.7,0.6-1.4,1.4-1.4
	c5.1,0,10.1,0,15.2,0c0.7,0,1.4,0.6,1.4,1.4c0,1.7,0,3.3,0,4.9c0,0.8-0.6,1.4-1.4,1.4C423.1,141.1,418.1,141.1,413,141.1z
	 M439.4,148.7c0,0.8-0.6,1.4-1.4,1.4c-5.1,0-10.1,0-15.1,0c-0.8,0-1.4-0.6-1.4-1.4c0-1.6,0-3.3,0-4.9c0-0.8,0.6-1.4,1.4-1.4
	c5,0,10,0,15.1,0c0.8,0,1.4,0.6,1.4,1.4C439.4,145.4,439.4,147.1,439.4,148.7z M432.6,141.1c-0.8,0-1.4-0.6-1.4-1.4v-4.9
	c0-0.7,0.6-1.4,1.4-1.4h15.1c0.8,0,1.4,0.6,1.4,1.4v4.9c0,0.8-0.6,1.4-1.4,1.4H432.6z M459.2,148.6c0,0.7-0.6,1.4-1.4,1.4
	c-5.1,0-10.1,0-15.2,0c-0.7,0-1.4-0.6-1.4-1.4c0-1.7,0-3.3,0-4.9c0-0.8,0.6-1.4,1.4-1.4c5.1,0,10.1,0,15.2,0c0.7,0,1.4,0.6,1.4,1.4
	C459.2,145.4,459.2,147,459.2,148.6z M467.6,133.4c0.7,0,1.4,0.6,1.4,1.4c0,1.7,0,3.3,0,4.9c0,0.7-0.6,1.4-1.4,1.4
	c-5.1,0-10.1,0-15.2,0c-0.7,0-1.4-0.6-1.4-1.4c0-1.7,0-3.3,0-4.9c0-0.8,0.6-1.4,1.4-1.4C457.5,133.4,462.6,133.4,467.6,133.4z
	 M469,121.9c0,0.7-0.6,1.4-1.4,1.4c-5.1,0-10.1,0-15.2,0c-0.7,0-1.4-0.6-1.4-1.4c0-1.7,0-3.3,0-4.9c0-0.8,0.6-1.4,1.4-1.4
	c5.1,0,10.1,0,15.2,0c0.7,0,1.4,0.6,1.4,1.4C469,118.7,469,120.3,469,121.9z M478.7,113c0,0.8-0.6,1.4-1.4,1.4c-5.1,0-10.1,0-15.2,0
	c-0.7,0-1.4-0.6-1.4-1.4c0-1.7,0-3.3,0-4.9c0-0.7,0.6-1.4,1.4-1.4c5.1,0,10.1,0,15.2,0c0.7,0,1.4,0.6,1.4,1.4
	C478.7,109.7,478.7,111.3,478.7,113z M488.5,104c0,0.8-0.6,1.4-1.4,1.4c-5.1,0-10.1,0-15.2,0c-0.7,0-1.4-0.6-1.4-1.4
	c0-1.6,0-3.3,0-4.9c0-0.8,0.6-1.4,1.4-1.4c5.1,0,10.1,0,15.2,0c0.8,0,1.4,0.6,1.4,1.4C488.5,100.7,488.5,102.4,488.5,104z
	 M508.1,104c0,0.8-0.6,1.4-1.4,1.4c-5.1,0-10.1,0-15.1,0c-0.8,0-1.4-0.6-1.4-1.4c0-1.6,0-3.3,0-4.9c0-0.8,0.6-1.4,1.4-1.4
	c5,0,10,0,15.1,0c0.8,0,1.4,0.6,1.4,1.4C508.1,100.7,508.1,102.4,508.1,104z M517.9,95.3c0,0.8-0.6,1.4-1.4,1.4c-5,0-10.1,0-15.1,0
	c-0.8,0-1.4-0.6-1.4-1.4c0-1.7,0-3.3,0-4.9c0-0.7,0.6-1.4,1.4-1.4c5,0,10.1,0,15.1,0c0.8,0,1.4,0.6,1.4,1.4
	C517.9,92,517.9,93.6,517.9,95.3z M527.7,86.3c0,0.8-0.6,1.4-1.4,1.4c-5,0-10.1,0-15.1,0c-0.8,0-1.4-0.6-1.4-1.4c0-1.6,0-3.3,0-4.9
	c0-0.8,0.6-1.4,1.4-1.4c5,0,10.1,0,15.1,0c0.8,0,1.4,0.6,1.4,1.4C527.7,83,527.7,84.7,527.7,86.3z M547.3,86.3
	c0,0.8-0.6,1.4-1.4,1.4c-5,0-10.1,0-15.1,0c-0.8,0-1.4-0.6-1.4-1.4c0-1.6,0-3.3,0-4.9c0-0.8,0.6-1.4,1.4-1.4c5,0,10.1,0,15.1,0
	c0.8,0,1.4,0.6,1.4,1.4C547.3,83,547.3,84.7,547.3,86.3z M566.9,86.3c0,0.8-0.6,1.4-1.4,1.4c-5,0-10.1,0-15.1,0
	c-0.8,0-1.4-0.6-1.4-1.4c0-1.6,0-3.3,0-4.9c0-0.8,0.6-1.4,1.4-1.4c5,0,10.1,0,15.1,0c0.8,0,1.4,0.6,1.4,1.4
	C566.9,83,566.9,84.7,566.9,86.3z M576.9,77.4c0,0.8-0.6,1.4-1.4,1.4c-5,0-10.1,0-15.1,0c-0.8,0-1.4-0.6-1.4-1.4c0-1.7,0-3.3,0-4.9
	c0-0.7,0.6-1.4,1.4-1.4c5,0,10.1,0,15.1,0c0.8,0,1.4,0.6,1.4,1.4C576.9,74.1,576.9,75.7,576.9,77.4z M596.5,77.4
	c0,0.8-0.6,1.4-1.4,1.4c-5,0-10.1,0-15.1,0c-0.8,0-1.4-0.6-1.4-1.4c0-1.7,0-3.3,0-4.9c0-0.7,0.6-1.4,1.4-1.4c5,0,10.1,0,15.1,0
	c0.8,0,1.4,0.6,1.4,1.4C596.5,74.1,596.5,75.7,596.5,77.4z M616.1,77.4c0,0.8-0.6,1.4-1.4,1.4c-5.1,0-10.1,0-15.2,0
	c-0.7,0-1.4-0.6-1.4-1.4c0-1.7,0-3.3,0-4.9c0-0.7,0.6-1.4,1.4-1.4c5.1,0,10.1,0,15.2,0c0.7,0,1.4,0.6,1.4,1.4
	C616.1,74.1,616.1,75.7,616.1,77.4z M635.7,77.4c0,0.8-0.6,1.4-1.4,1.4c-5.1,0-10.1,0-15.2,0c-0.7,0-1.4-0.6-1.4-1.4
	c0-1.7,0-3.3,0-4.9c0-0.7,0.6-1.4,1.4-1.4c5.1,0,10.1,0,15.2,0c0.7,0,1.4,0.6,1.4,1.4C635.7,74.1,635.7,75.7,635.7,77.4z
	 M655.3,77.4c0,0.8-0.6,1.4-1.4,1.4c-5.1,0-10.1,0-15.2,0c-0.7,0-1.4-0.6-1.4-1.4c0-1.7,0-3.3,0-4.9c0-0.7,0.6-1.4,1.4-1.4
	c5.1,0,10.1,0,15.2,0c0.7,0,1.4,0.6,1.4,1.4C655.3,74.1,655.3,75.7,655.3,77.4z M674.9,77.4c0,0.8-0.6,1.4-1.4,1.4h-15.1
	c-0.8,0-1.4-0.6-1.4-1.4v-4.9c0-0.7,0.6-1.4,1.4-1.4h15.1c0.8,0,1.4,0.6,1.4,1.4V77.4z M694.6,77.2c0,0.7-0.6,1.4-1.4,1.4
	c-5.1,0-10.1,0-15.2,0c-0.7,0-1.4-0.6-1.4-1.4c0-1.7,0-3.3,0-4.9c0-0.8,0.6-1.4,1.4-1.4c5.1,0,10.1,0,15.2,0c0.7,0,1.4,0.6,1.4,1.4
	C694.6,73.9,694.6,75.5,694.6,77.2z M697.5,78.6c-0.7,0-1.4-0.6-1.4-1.4c0-1.6,0-3.3,0-4.9c0-0.8,0.6-1.4,1.4-1.4
	c5.1,0,10.1,0,15.2,0c0.8,0,1.4,0.6,1.4,1.4c0,1.6,0,3.3,0,4.9c0,0.8-0.6,1.4-1.4,1.4C707.6,78.6,702.6,78.6,697.5,78.6z
	 M723.7,86.3c0,0.8-0.6,1.4-1.4,1.4c-5.1,0-10.1,0-15.2,0c-0.7,0-1.4-0.6-1.4-1.4c0-1.6,0-3.3,0-4.9c0-0.8,0.6-1.4,1.4-1.4
	c5.1,0,10.1,0,15.2,0c0.8,0,1.4,0.6,1.4,1.4C723.7,83,723.7,84.7,723.7,86.3z M726.8,87.7c-0.8,0-1.4-0.6-1.4-1.4c0-1.6,0-3.3,0-4.9
	c0-0.8,0.6-1.4,1.4-1.4c5,0,10,0,15.1,0c0.8,0,1.4,0.6,1.4,1.4c0,1.6,0,3.3,0,4.9c0,0.8-0.6,1.4-1.4,1.4
	C736.9,87.7,731.8,87.7,726.8,87.7z M753.2,95.1c0,0.8-0.6,1.4-1.4,1.4c-5,0-10.1,0-15.1,0c-0.8,0-1.4-0.6-1.4-1.4
	c0-1.6,0-3.3,0-4.9c0-0.8,0.6-1.4,1.4-1.4c5,0,10.1,0,15.1,0c0.8,0,1.4,0.6,1.4,1.4C753.2,91.8,753.2,93.5,753.2,95.1z M756.3,96.5
	c-0.8,0-1.4-0.6-1.4-1.4c0-1.6,0-3.3,0-4.9c0-0.8,0.6-1.4,1.4-1.4c5,0,10.1,0,15.1,0c0.8,0,1.4,0.6,1.4,1.4c0,1.6,0,3.3,0,4.9
	c0,0.8-0.6,1.4-1.4,1.4C766.3,96.5,761.3,96.5,756.3,96.5z M782.6,104c0,0.8-0.6,1.4-1.4,1.4c-5,0-10.1,0-15.1,0
	c-0.8,0-1.4-0.6-1.4-1.4c0-1.7,0-3.3,0-4.9c0-0.7,0.6-1.4,1.4-1.4c5,0,10.1,0,15.1,0c0.8,0,1.4,0.6,1.4,1.4
	C782.6,100.8,782.6,102.4,782.6,104z M785.7,105.5c-0.8,0-1.4-0.6-1.4-1.4c0-1.7,0-3.3,0-4.9c0-0.7,0.6-1.4,1.4-1.4
	c5,0,10.1,0,15.1,0c0.8,0,1.4,0.6,1.4,1.4c0,1.7,0,3.3,0,4.9c0,0.8-0.6,1.4-1.4,1.4C795.8,105.5,790.7,105.5,785.7,105.5z
	 M795.5,114.2c-0.8,0-1.4-0.6-1.4-1.4c0-1.6,0-3.3,0-4.9c0-0.8,0.6-1.4,1.4-1.4c5.1,0,10.1,0,15.1,0c0.8,0,1.4,0.6,1.4,1.4
	c0,1.6,0,3.3,0,4.9c0,0.8-0.6,1.4-1.4,1.4C805.6,114.2,800.5,114.2,795.5,114.2z M805.3,123.2c-0.8,0-1.4-0.6-1.4-1.4
	c0-1.7,0-3.3,0-4.9c0-0.7,0.6-1.4,1.4-1.4c5,0,10.1,0,15.1,0c0.8,0,1.4,0.6,1.4,1.4c0,1.7,0,3.3,0,4.9c0,0.8-0.6,1.4-1.4,1.4
	C815.4,123.2,810.3,123.2,805.3,123.2z M805.3,141.2c-0.8,0-1.4-0.6-1.4-1.4c0-1.7,0-3.3,0-4.9c0-0.7,0.6-1.4,1.4-1.4
	c5,0,10.1,0,15.1,0c0.8,0,1.4,0.6,1.4,1.4c0,1.7,0,3.3,0,4.9c0,0.8-0.6,1.4-1.4,1.4C815.4,141.2,810.3,141.2,805.3,141.2z
	 M831.6,148.5c0,0.8-0.6,1.4-1.4,1.4c-5.1,0-10.1,0-15.2,0c-0.8,0-1.4-0.6-1.4-1.4c0-1.6,0-3.3,0-4.9c0-0.8,0.6-1.4,1.4-1.4
	c5.1,0,10.1,0,15.2,0c0.7,0,1.4,0.6,1.4,1.4C831.6,145.2,831.6,146.9,831.6,148.5z M851.2,148.5c0,0.8-0.6,1.4-1.4,1.4
	c-5.1,0-10.1,0-15.2,0c-0.7,0-1.4-0.6-1.4-1.4c0-1.6,0-3.3,0-4.9c0-0.8,0.6-1.4,1.4-1.4c5.1,0,10.1,0,15.2,0c0.7,0,1.4,0.6,1.4,1.4
	C851.2,145.2,851.2,146.9,851.2,148.5z M844.5,141.2c-0.7,0-1.4-0.6-1.4-1.4c0-1.7,0-3.3,0-4.9c0-0.7,0.6-1.4,1.4-1.4
	c5.1,0,10.1,0,15.2,0c0.7,0,1.4,0.6,1.4,1.4c0,1.7,0,3.3,0,4.9c0,0.8-0.6,1.4-1.4,1.4C854.6,141.2,849.5,141.2,844.5,141.2z
	 M870.8,148.5c0,0.8-0.6,1.4-1.4,1.4c-5.1,0-10.1,0-15.2,0c-0.7,0-1.4-0.6-1.4-1.4c0-1.6,0-3.3,0-4.9c0-0.8,0.6-1.4,1.4-1.4
	c5.1,0,10.1,0,15.2,0c0.8,0,1.4,0.6,1.4,1.4C870.8,145.2,870.8,146.9,870.8,148.5z M879.3,133.5c0.7,0,1.4,0.6,1.4,1.4
	c0,1.7,0,3.3,0,4.9c0,0.8-0.6,1.4-1.4,1.4c-5.1,0-10.1,0-15.2,0c-0.7,0-1.4-0.6-1.4-1.4c0-1.7,0-3.3,0-4.9c0-0.7,0.6-1.4,1.4-1.4
	C869.2,133.5,874.2,133.5,879.3,133.5z M880.6,121.8c0,0.8-0.6,1.4-1.4,1.4c-5.1,0-10.1,0-15.2,0c-0.7,0-1.4-0.6-1.4-1.4
	c0-1.7,0-3.3,0-4.9c0-0.7,0.6-1.4,1.4-1.4c5.1,0,10.1,0,15.2,0c0.7,0,1.4,0.6,1.4,1.4C880.6,118.5,880.6,120.1,880.6,121.8z
	 M890.5,112.8c0,0.8-0.6,1.4-1.4,1.4c-5.1,0-10.1,0-15.1,0c-0.8,0-1.4-0.6-1.4-1.4c0-1.6,0-3.3,0-4.9c0-0.8,0.6-1.4,1.4-1.4
	c5,0,10,0,15.1,0c0.8,0,1.4,0.6,1.4,1.4C890.5,109.5,890.5,111.2,890.5,112.8z M900.3,104c0,0.8-0.6,1.4-1.4,1.4h-15.1
	c-0.8,0-1.4-0.6-1.4-1.4v-4.9c0-0.7,0.6-1.4,1.4-1.4h15.1c0.8,0,1.4,0.6,1.4,1.4V104z M920.1,104c0,0.8-0.6,1.4-1.4,1.4
	c-5,0-10.1,0-15.1,0c-0.8,0-1.4-0.6-1.4-1.4c0-1.6,0-3.3,0-4.9c0-0.8,0.6-1.4,1.4-1.4c5,0,10.1,0,15.1,0c0.8,0,1.4,0.6,1.4,1.4
	C920.1,100.7,920.1,102.4,920.1,104z M930.1,95.3c0,0.8-0.6,1.4-1.4,1.4c-5,0-10.1,0-15.1,0c-0.8,0-1.4-0.6-1.4-1.4
	c0-1.7,0-3.3,0-4.9c0-0.7,0.6-1.4,1.4-1.4c5,0,10.1,0,15.1,0c0.8,0,1.4,0.6,1.4,1.4C930.1,92,930.1,93.6,930.1,95.3z M949.7,95.3
	c0,0.8-0.6,1.4-1.4,1.4c-5,0-10.1,0-15.1,0c-0.8,0-1.4-0.6-1.4-1.4c0-1.7,0-3.3,0-4.9c0-0.7,0.6-1.4,1.4-1.4c5,0,10.1,0,15.1,0
	c0.8,0,1.4,0.6,1.4,1.4C949.7,92,949.7,93.6,949.7,95.3z M959.5,86.3c0,0.8-0.6,1.4-1.4,1.4c-5,0-10,0-15.1,0
	c-0.8,0-1.4-0.6-1.4-1.4c0-1.6,0-3.3,0-4.9c0-0.8,0.6-1.4,1.4-1.4c5.1,0,10.1,0,15.1,0c0.8,0,1.4,0.6,1.4,1.4
	C959.5,83,959.5,84.7,959.5,86.3z M979.1,86.3c0,0.8-0.6,1.4-1.4,1.4c-5.1,0-10.1,0-15.2,0c-0.8,0-1.4-0.6-1.4-1.4
	c0-1.6,0-3.3,0-4.9c0-0.8,0.6-1.4,1.4-1.4c5.1,0,10.1,0,15.2,0c0.7,0,1.4,0.6,1.4,1.4C979.1,83,979.1,84.7,979.1,86.3z M989,77.4
	c0,0.8-0.6,1.4-1.4,1.4c-5.1,0-10.1,0-15.2,0c-0.7,0-1.4-0.6-1.4-1.4c0-1.7,0-3.3,0-4.9c0-0.7,0.6-1.4,1.4-1.4c5.1,0,10.1,0,15.2,0
	c0.7,0,1.4,0.6,1.4,1.4C989,74.1,989,75.7,989,77.4z M1008.6,77.4c0,0.8-0.6,1.4-1.4,1.4c-5.1,0-10.1,0-15.2,0
	c-0.7,0-1.4-0.6-1.4-1.4c0-1.7,0-3.3,0-4.9c0-0.7,0.6-1.4,1.4-1.4c5.1,0,10.1,0,15.2,0c0.7,0,1.4,0.6,1.4,1.4
	C1008.6,74.1,1008.6,75.7,1008.6,77.4z M1028.3,77.4c0,0.8-0.6,1.4-1.4,1.4c-5.1,0-10.1,0-15.2,0c-0.7,0-1.4-0.6-1.4-1.4
	c0-1.7,0-3.3,0-4.9c0-0.7,0.6-1.4,1.4-1.4c5.1,0,10.1,0,15.2,0c0.7,0,1.4,0.6,1.4,1.4C1028.3,74.1,1028.3,75.7,1028.3,77.4z
	 M1047.9,77.4c0,0.8-0.6,1.4-1.4,1.4h-15.1c-0.8,0-1.4-0.6-1.4-1.4v-4.9c0-0.7,0.6-1.4,1.4-1.4h15.1c0.8,0,1.4,0.6,1.4,1.4V77.4z
	 M1067.6,77.2c0,0.7-0.6,1.4-1.4,1.4c-5.1,0-10.1,0-15.2,0c-0.7,0-1.4-0.6-1.4-1.4c0-1.7,0-3.3,0-4.9c0-0.8,0.6-1.4,1.4-1.4
	c5.1,0,10.1,0,15.2,0c0.7,0,1.4,0.6,1.4,1.4C1067.6,73.9,1067.6,75.5,1067.6,77.2z M1087,77.2c0,0.8-0.6,1.4-1.4,1.4
	c-5.1,0-10.1,0-15.2,0c-0.7,0-1.4-0.6-1.4-1.4c0-1.6,0-3.3,0-4.9c0-0.8,0.6-1.4,1.4-1.4c5.1,0,10.1,0,15.2,0c0.8,0,1.4,0.6,1.4,1.4
	C1087,73.9,1087,75.6,1087,77.2z M1106.7,77.2c0,0.8-0.6,1.4-1.4,1.4c-5.1,0-10.1,0-15.1,0c-0.8,0-1.4-0.6-1.4-1.4
	c0-1.6,0-3.3,0-4.9c0-0.8,0.6-1.4,1.4-1.4c5,0,10,0,15.1,0c0.8,0,1.4,0.6,1.4,1.4C1106.7,73.9,1106.7,75.6,1106.7,77.2z
	 M1109.8,78.6c-0.8,0-1.4-0.6-1.4-1.4c0-1.6,0-3.3,0-4.9c0-0.8,0.6-1.4,1.4-1.4c5,0,10.1,0,15.1,0c0.8,0,1.4,0.6,1.4,1.4
	c0,1.6,0,3.3,0,4.9c0,0.8-0.6,1.4-1.4,1.4C1119.9,78.6,1114.8,78.6,1109.8,78.6z M1135.9,86.3c0,0.8-0.6,1.4-1.4,1.4
	c-5,0-10.1,0-15.1,0c-0.8,0-1.4-0.6-1.4-1.4c0-1.6,0-3.3,0-4.9c0-0.8,0.6-1.4,1.4-1.4c5,0,10.1,0,15.1,0c0.8,0,1.4,0.6,1.4,1.4
	C1135.9,83,1135.9,84.7,1135.9,86.3z M1155.5,86.3c0,0.8-0.6,1.4-1.4,1.4c-5,0-10.1,0-15.1,0c-0.8,0-1.4-0.6-1.4-1.4
	c0-1.6,0-3.3,0-4.9c0-0.8,0.6-1.4,1.4-1.4c5,0,10.1,0,15.1,0c0.8,0,1.4,0.6,1.4,1.4C1155.5,83,1155.5,84.7,1155.5,86.3z
	 M1158.6,87.7c-0.8,0-1.4-0.6-1.4-1.4c0-1.6,0-3.3,0-4.9c0-0.8,0.6-1.4,1.4-1.4c5,0,10.1,0,15.1,0c0.8,0,1.4,0.6,1.4,1.4
	c0,1.6,0,3.3,0,4.9c0,0.8-0.6,1.4-1.4,1.4C1168.7,87.7,1163.6,87.7,1158.6,87.7z M1168.4,96.5c-0.8,0-1.4-0.6-1.4-1.4
	c0-1.6,0-3.3,0-4.9c0-0.8,0.6-1.4,1.4-1.4c5.1,0,10.1,0,15.1,0c0.8,0,1.4,0.6,1.4,1.4c0,1.6,0,3.3,0,4.9c0,0.8-0.6,1.4-1.4,1.4
	C1178.5,96.5,1173.5,96.5,1168.4,96.5z M1194.8,104c0,0.8-0.6,1.4-1.4,1.4c-5,0-10.1,0-15.1,0c-0.8,0-1.4-0.6-1.4-1.4
	c0-1.7,0-3.3,0-4.9c0-0.7,0.6-1.4,1.4-1.4c5,0,10.1,0,15.1,0c0.8,0,1.4,0.6,1.4,1.4C1194.8,100.8,1194.8,102.4,1194.8,104z
	 M1197.8,105.5c-0.7,0-1.4-0.6-1.4-1.4c0-1.7,0-3.3,0-4.9c0-0.7,0.6-1.4,1.4-1.4c5.1,0,10.1,0,15.2,0c0.7,0,1.4,0.6,1.4,1.4
	c0,1.7,0,3.3,0,4.9c0,0.8-0.6,1.4-1.4,1.4C1207.9,105.5,1202.9,105.5,1197.8,105.5z M1207.6,114.2c-0.7,0-1.4-0.6-1.4-1.4
	c0-1.6,0-3.3,0-4.9c0-0.8,0.6-1.4,1.4-1.4c5.1,0,10.1,0,15.2,0c0.7,0,1.4,0.6,1.4,1.4c0,1.6,0,3.3,0,4.9c0,0.8-0.6,1.4-1.4,1.4
	C1217.7,114.2,1212.7,114.2,1207.6,114.2z M1217.5,123.2c-0.7,0-1.4-0.6-1.4-1.4c0-1.7,0-3.3,0-4.9c0-0.7,0.6-1.4,1.4-1.4
	c5.1,0,10.1,0,15.2,0c0.7,0,1.4,0.6,1.4,1.4c0,1.7,0,3.3,0,4.9c0,0.8-0.6,1.4-1.4,1.4C1227.5,123.2,1222.5,123.2,1217.5,123.2z
	 M1217.5,141.2c-0.7,0-1.4-0.6-1.4-1.4c0-1.7,0-3.3,0-4.9c0-0.7,0.6-1.4,1.4-1.4c5.1,0,10.1,0,15.2,0c0.7,0,1.4,0.6,1.4,1.4
	c0,1.7,0,3.3,0,4.9c0,0.8-0.6,1.4-1.4,1.4C1227.5,141.2,1222.5,141.2,1217.5,141.2z M1243.8,148.5c0,0.8-0.6,1.4-1.4,1.4
	c-5.1,0-10.1,0-15.2,0c-0.7,0-1.4-0.6-1.4-1.4c0-1.6,0-3.3,0-4.9c0-0.8,0.6-1.4,1.4-1.4c5.1,0,10.1,0,15.2,0c0.8,0,1.4,0.6,1.4,1.4
	C1243.8,145.2,1243.8,146.9,1243.8,148.5z M1263.4,148.5c0,0.8-0.6,1.4-1.4,1.4c-5.1,0-10.1,0-15.1,0c-0.8,0-1.4-0.6-1.4-1.4
	c0-1.6,0-3.3,0-4.9c0-0.8,0.6-1.4,1.4-1.4c5,0,10,0,15.1,0c0.8,0,1.4,0.6,1.4,1.4C1263.4,145.2,1263.4,146.9,1263.4,148.5z
	 M1283.3,148.4c0,0.7-0.6,1.4-1.4,1.4c-5.1,0-10.1,0-15.2,0c-0.7,0-1.4-0.6-1.4-1.4c0-1.7,0-3.3,0-4.9c0-0.8,0.6-1.4,1.4-1.4
	c5.1,0,10.1,0,15.2,0c0.7,0,1.4,0.6,1.4,1.4C1283.3,145.2,1283.3,146.8,1283.3,148.4z M1291.7,133.5c0.8,0,1.4,0.6,1.4,1.4v4.9
	c0,0.8-0.6,1.4-1.4,1.4h-15.1c-0.8,0-1.4-0.6-1.4-1.4v-4.9c0-0.7,0.6-1.4,1.4-1.4H1291.7z M1291.7,115.5c0.8,0,1.4,0.6,1.4,1.4v4.9
	c0,0.8-0.6,1.4-1.4,1.4h-15.1c-0.8,0-1.4-0.6-1.4-1.4v-4.9c0-0.7,0.6-1.4,1.4-1.4H1291.7z M1291.7,97.8c0.8,0,1.4,0.6,1.4,1.4v4.9
	c0,0.8-0.6,1.4-1.4,1.4h-15.1c-0.8,0-1.4-0.6-1.4-1.4v-4.9c0-0.7,0.6-1.4,1.4-1.4H1291.7z M1291.7,79.9c0.7,0,1.4,0.6,1.4,1.4
	c0,1.7,0,3.3,0,4.9c0,0.7-0.6,1.4-1.4,1.4c-5.1,0-10.1,0-15.2,0c-0.7,0-1.4-0.6-1.4-1.4c0-1.7,0-3.3,0-4.9c0-0.8,0.6-1.4,1.4-1.4
	C1281.6,79.9,1286.6,79.9,1291.7,79.9z M1293.1,68.2c0,0.8-0.6,1.4-1.4,1.4h-15.1c-0.8,0-1.4-0.6-1.4-1.4v-4.9
	c0-0.7,0.6-1.4,1.4-1.4h15.1c0.8,0,1.4,0.6,1.4,1.4V68.2z"/>
<rect x="-1.4" y="57.5" class="st2" width="1294.7" height="3.3"/>
<rect x="798.9" y="155.5" transform="matrix(-1 -1.224647e-16 1.224647e-16 -1 1687.2692 335.4284)" class="st3" width="89.5" height="24.5"/>
<rect x="393.4" y="155.5" transform="matrix(-1 -1.224647e-16 1.224647e-16 -1 867.1325 335.4284)" class="st3" width="80.4" height="24.5"/>
<rect x="-2.1" y="155.5" transform="matrix(-1 -1.224647e-16 1.224647e-16 -1 65.8005 335.4284)" class="st3" width="70.1" height="24.5"/>
<rect x="1213.9" y="155.5" transform="matrix(-1 -1.224647e-16 1.224647e-16 -1 2507.1221 335.4284)" class="st3" width="79.4" height="24.5"/>
</svg>
