<?xml version="1.0" encoding="utf-8"?>
<!-- Generator: Adobe Illustrator 16.0.0, SVG Export Plug-In . SVG Version: 6.00 Build 0)  -->
<!DOCTYPE svg PUBLIC "-//W3C//DTD SVG 1.1//EN" "http://www.w3.org/Graphics/SVG/1.1/DTD/svg11.dtd">
<svg version="1.1" id="Layer_1" xmlns="http://www.w3.org/2000/svg" xmlns:xlink="http://www.w3.org/1999/xlink" x="0px" y="0px"
	 width="1203px" height="529px" viewBox="0 0 1203 529" enable-background="new 0 0 1203 529" xml:space="preserve">
<path fill-rule="evenodd" clip-rule="evenodd" fill="#3A3A43" d="M794.525,501.412c4.064,0.236,8.126,0.475,12.189,0.711
	c3.872,2.602,7.746,5.201,12.754,8.566c0-6.203,0-10.328,0-14.455c-0.016-10.225-0.028-20.449-0.046-30.678
	c0.44-2.754-0.386-4.582-3.471-4.77c-3.191-0.504-6.386-1.004-12.307-1.936c7.161-3.035,16.435,1.463,16.248-8.18
	c-0.112-5.697,2.381-11.814-1.741-17.143c0.046-1.297,0.089-2.596,0.135-3.893c-2.217-7-8.068-3.506-11.989-3.512
	c-135.547-0.225-271.094-0.201-406.642-0.107c-4.13,0.004-8.592-1.465-12.653,1.52c4.583,2.975,9.505,1.492,14.126,1.496
	c108.96,0.104,217.921,0.049,326.882,0.111c16.972,0.01,33.943,0.441,50.917,0.68c0,1.191,0,2.383,0,3.574
	c-0.729,0.305-1.488,0.461-2.281,0.469c-2,0.006-3.997,0.01-5.997,0.016c-11.698,0.01-23.396,0.068-35.092,0.006
	c-4.521-0.023-8.419-0.375-8.476,6.375c-0.048,5.805,2.417,7.537,7.471,7.992c11.997,1.08,23.979,2.357,35.966,3.557
	c2.033,0.031,4.066,0.062,6.1,0.092c2.404,1.074,7.734-1.533,6.896,3.074c-0.809,4.436-5.898,2.045-8.967,1.717
	c-45.467-4.875-91.126-6.971-136.759-9.268c-33.989-1.709-68.011-0.363-101.93,1.979c-46.957,3.24-93.852,7.357-140.787,10.934
	c-6.151,0.469-9.404,2.08-9.089,9.264c0.571,13.035,0.162,26.113,0.162,42.064c16.451-14.84,30.917-11.275,45.232,0.652
	c5.499,4.584,12.227,3.125,18.584,0.139c1.931-0.906,4.578-5.877,6.95-0.176c-8.345,10.043-20.011,11.236-28.633,4.045
	c-14.976-12.488-27.488-12.125-40.929,0.834c-0.783,0.754-2.467,0.576-3.731,0.83c-1.064-1.08-2.129-2.16-3.193-3.24
	c0.317-20.328,0.825-40.656,0.902-60.984c0.11-28.639-0.025-28.639-29.396-27.564c-32.765,0-65.529,0-98.293,0
	c-0.024-1.428-0.048-2.855-0.073-4.281c2.393-0.297,4.913-1.236,7.157-0.789c12.666,2.529,14.241-4.199,13.528-14.547
	c-0.746-10.828-0.164-21.746-0.163-32.623c0.001-18.881,0-18.881-18.981-19.377c-1.617-1.037-2.147-0.221-2.253,1.318
	c0.22,0.691,0.097,1.312-0.37,1.865c-0.895-0.006-1.79-0.01-2.685-0.016c-1.321-5.475-8.687-0.465-10.506-6.934
	c6.203-0.605,9.958-2.326,10.11-10.488c0.974-52.072,1.111-53.262-9.961-58.635c2.279-4,10.606,0.15,9.946-8.729
	c-1.139-15.342-0.315-30.831-0.315-46.26c-10.494,15.598-17.075,32.869-27.597,47.945c-0.891-1.064-1.784-2.125-2.676-3.188
	c7.226-14.748,14.861-29.321,21.382-44.375c1.579-3.644,9.623-8.954,0.081-13.611c-1.252-0.614-0.628-1.89,9.236-5.104
	c1.093,0.01,2.185,0.021,3.278,0.031c1.776,0.399,3.554,0.795,5.33,1.194c4.203,0.002,8.408,0.005,12.612,0.005
	c6.458-5.478,3.302-12.9,2.917-19.132c-0.763-12.412,4.025-25.327-2.83-37.25c-1.719,0.023-3.438,0.049-5.156,0.072
	c-4.277-1.079-8.521-0.831-12.742,0.327c-1.179,0.01-2.358,0.018-3.537,0.026c-1.624-0.939-3.247-1.877-4.871-2.816
	c0.211-0.867,0.144-1.713-0.198-2.537c0.999-2.608,1.999-5.215,2.997-7.821c2.687-3.258,4.299-0.622,7.011,0.514
	c12.269,5.135,19.011,0.371,19.179-12.747c0.264-20.669,0.269-20.639-23.149-17.063c-0.93,0.141-2.116-1.394-3.183-2.148
	c-0.132-2.66-0.264-5.319-0.394-7.979c0.5-0.793,0.593-1.634,0.277-2.519c6.156-14.34,9.148-29.869,12.766-44.73
	c1.651-6.783,0.211-15.429,3.418-23.35c9.475,11.478,0.976,25.747,8.105,36.899c1.125,1.76,1.858,3.772,2.633,5.378
	c6.007,0.156,3.077-5.708,5.945-7.414c4.513,0.133,2.33,6.094,5.775,7.166c4.66-2.496,2.641-7.294,4.382-10.598
	c1.4-0.015,2.8-0.031,4.201-0.049c0.303,9.667-3.931,18.427-5.491,27.685c-1.966,11.662-8.729,22.733-4.818,35.196
	c-0.05,0.821-0.053,1.64-0.008,2.46c-7.169,1.374-5.337,7.115-4.834,11.36c0.711,5.979,6.04,3.43,9.417,3.583
	c7.772,0.353,15.57,0.138,23.357,0.087c13.172-0.082,14.069-1.662,8.679-15.084c-0.014-0.875-0.027-1.75-0.041-2.624
	c-0.009-4.302-0.018-8.604-0.027-12.905c2.725-0.847,5.45-1.693,8.175-2.542c-0.065,6.542-0.412,13.094-0.099,19.616
	c0.221,4.611-1.225,13.306,1.254,13.102c6.642-0.55,14.863,3.435,20.258-3.916c1.371-0.005,2.743-0.01,4.114-0.015
	c0.499,3.072,2.914,4.128,5.389,5.12c0.006,2.657,0.014,5.314,0.021,7.974c0,0-0.245,0.791-0.244,0.793
	c-1.499,0.616-2.999,1.23-4.499,1.844c-1.577-0.077-3.153-0.153-4.731-0.23c-6.341,0.238-12.681,0.478-19.022,0.716
	c-4.534,2.053-2.101,6.071-2.161,9.041c-0.322,15.59-0.198,31.188-0.229,46.781c0.07,1.678,0.142,3.355,0.212,5.031
	c0.11,1.327,0.221,2.657,0.331,3.984c-0.014,19.25-0.029,38.5-0.043,57.751c-0.51,2.086-1.011,4.17,1.664,5.25
	c-0.866,1.729-1.733,3.457-2.599,5.184c-1.031,0.023-2.062,0.047-3.091,0.068c-1.554-1.051-3.107-2.104-4.661-3.154
	c-0.002-1.352-0.006-2.699-0.01-4.049c7.406-9.539,2.942-20.535,3.133-30.708c0.689-36.669,0.267-36.677-37.168-34.285
	c-5.662-1.655-7.578,0.273-7.45,6.291c0.362,17.013,0.129,34.035,0.138,51.056c0.001,3.426-0.715,7.416,4.959,6.576l-0.37,0.93
	c0.068,1.432,0.136,2.861,0.205,4.293c-1.799,0.992-3.598,1.988-5.397,2.98c-1.308,0.008-2.616,0.012-3.924,0.02
	c-0.824-1.475-1.9-2.5-3.769-2.107c-17.723-0.82-17.725-0.82-17.725,16.234c-0.001,10.885-0.002,21.773,0.002,32.66
	c0.008,17.564,3.707,19.812,21.59,13.125c1.294,0.09,2.589,0.182,3.884,0.273c1.775,0.969,3.548,1.939,5.323,2.906
	c-0.205,1.381-0.408,2.762-0.612,4.139c-1.129,0.609-3.235,1.201-3.244,1.826c-0.311,20.025-0.42,40.057-0.557,60.086
	c-0.017,2.471,1.055,4.547,3.611,4.373c13.964-0.943,28.365,4.096,41.884-2.977c1.064,0.1,2.128,0.197,3.192,0.295
	c0.374,0.689,0.518,1.424,0.432,2.203c0.19,1.791,0.924,2.441,2.551,1.215l0.238-0.615l-0.5-0.43
	c19.237,1.359,19.231,1.359,19.214-18.053c-0.01-12.1,0.182-24.205-0.101-36.299c-0.093-3.941,2.176-8.885-3.212-11.469
	c0.1-0.688,0.063-1.367-0.112-2.041c0.896-1.713,1.792-3.426,2.687-5.141c1.292-20.096,1.051-40.197,0.119-60.299
	c-0.425-2.99-2.979-3.918-5.095-5.271c0.431-3.799,5.739-1.598,6.356-5.168c1.246-0.006,2.491-0.008,3.738-0.014
	c0.795,1.799,0.02,4.361,2.581,5.299c-0.794,2.529-1.587,5.059-2.381,7.588c0.01,1.926,0.019,3.852,0.029,5.777
	c0.004,17.221,0.009,34.438,0.013,51.654c0.84,1.008,1.68,2.018,2.521,3.025c1.716,0.1,3.432,0.201,5.148,0.301
	c0.153,1.055,0.307,2.111,0.46,3.164c-1.017,0.66-2.033,1.32-3.05,1.982c-3.208-0.746-4.773,0.15-4.748,3.818
	c0.126,18.293,0.386,36.596-0.049,54.879c-0.184,7.715,4.401,6.912,9.253,6.912c158.984-0.012,317.969-0.078,476.955,0.189
	c8.598,0.014,10.056-3.105,9.839-10.611c-0.476-16.539-0.156-33.098-0.161-49.65c0.905-2.232,1.844-4.477-1.597-5.432l0.312-0.504
	c-0.079-1.463-0.156-2.926-0.235-4.389c0.757-0.436,1.573-0.676,2.445-0.719c1.864,1.697,3.729,3.398,5.593,5.1
	c-3.144,19.826-0.553,39.781-1.384,59.66c-0.384,9.162,6.568,5.932,11.054,6.264c4.55,0.338,9.555,1.439,9.511-6.471
	c-0.104-19.572,0.491-39.146,0.806-58.719c1.223-0.16,2.442-0.314,3.665-0.475c0.011,19.314,0.153,38.627-0.048,57.938
	c-0.06,5.721,0.892,9.406,7.757,7.521c10.482-0.111,20.966-0.225,31.449-0.338c11.345-1.881,3.158-10.34,5.174-15.365
	c0.03-15.725,0.063-31.453,0.094-47.18c0.146-3.852-2.209-2.602-4.214-2.066l0.022-1.02c0,0,1.018-0.111,1.018-0.113
	c0.169-1.457,0.338-2.914,0.507-4.371l1.253-0.357l1.302,0.051c1.722-0.869,3.44-1.736,5.161-2.604
	c7.514,11.305,14.811,4.033,22.143-0.258c1.322,0.076,2.645,0.152,3.967,0.23c1.488,4.73,8.839-0.311,10.24,7.584
	c-11.746-3.193-9.831,4.553-9.777,11.057c0.141,17.389,0.243,34.773,0.358,52.162c8.455,4.539,16.884,4.818,25.283-0.15
	c2.028-4.242,4.059-4.246,6.095-0.006c-0.363,0.773-0.496,1.58-0.402,2.43c0.361,1.393,1.052,2.023,2.436,1.051
	c9.729-0.363,19.457-0.729,29.186-1.094c4.558,3.795,2.629,5.512-2.059,5.619c-9.721,0.219-19.447,0.117-29.171,0.148
	c-2.03-0.016-4.059-0.033-6.089-0.049c-0.731-0.109-1.436-0.01-2.107,0.299c-8.813-0.025-17.627-0.051-26.439-0.076
	c-40.388-0.107-80.778-0.248-121.166-0.27c-3.496-0.002-8.488-1.656-8.225,4.934c0.21,5.207,1.286,9.314,8.087,9.033
	c8.664-0.355,17.354-0.084,26.032-0.084c-7.368,0.637-14.805,1.264-22.094,0.498c-12.409-1.307-14.182,4.512-10.938,14.535
	c0,1.6,0,3.199,0,4.799c-4.281,11.975,0.729,15.123,12.327,14.693c7.872-0.291,16.621-2.969,25.631,3.107
	c-10.276,2.9-18.997,1.113-27.58,1.662c-5.266,0.338-11.705-2.115-11.68,7.514c0.025,8.803,5.787,6.629,10.662,7.041
	c2.169,0.184,5.294-1.061,5.9,2.766c-19.005,5.984-19.729,7.074-12.594,18.861c0,1.441,0,2.881-0.002,4.322
	c-5.908,0.133-10.742-2.361-15-6.197c-10.263-9.242-20.656-9.227-30.986-0.256c-3.665,3.182-7.695,5.547-12.432,6.184
	c-3.131,0.422-4.752-1.23-3.194-4.59c9.353-0.865,14.912-8.512,22.479-12.57C791.17,501.949,792.848,501.682,794.525,501.412z
	 M933.551,421.338l0.281-0.623l-0.499-0.469c18.692,1.424,18.695,1.424,18.7-17.168c0.005-12.617-0.67-25.279,0.23-37.83
	c0.654-9.143-2.941-11.391-10.943-10.189c-2.562,0.383-5.177,0.404-7.768,0.59c-4.468,2.57-2.15,6.85-2.212,10.24
	c-0.332,18.059-0.251,36.123-0.31,54.186C931.18,421.873,931.886,422.562,933.551,421.338z M253.697,247.752
	c0,6.997,0,13.994,0,20.992c-1.719,7.268-0.339,11.473,8.629,10.547c6.326-0.652,12.762,1.596,11.983-9.328
	c-1.072-15.04-0.712-30.231-0.096-45.323c0.367-8.989-2.788-11.846-11.208-9.452c-7.368-2.156-11.21-0.241-9.961,8.232
	c0.547,3.711,0.449,7.514,0.644,11.276c0.001,0.862,0.002,1.724,0.005,2.585c0.001,1.757,0.002,3.517,0.004,5.274
	C253.695,244.289,253.695,246.021,253.697,247.752z M280.983,209.891c6.946,0.182,13.893,0.494,20.84,0.522
	c22.08,0.087,22.08,0.046,22.104-21.744c0.047-41.344,0.047-41.344-42.563-35.071C277.648,172.337,278.118,191.106,280.983,209.891z
	 M387.448,456.457c5.542-0.58,11.126-1.197,16.717-1.738c5.596-0.543,11.202-1.451,16.798-1.406c8.369,0.062,9.194-4.373,9.4-11.494
	c0.269-9.305-5.362-7.951-10.918-7.908c-4.761,0.037-9.524,0.006-14.286,0.006c-20.768-0.002-20.771,0-18.35,21.373
	C386.851,455.662,387.191,456.002,387.448,456.457z M457.007,433.916c-3.473,0-7.007,0.416-10.409-0.08
	c-8.859-1.291-12.092,1.666-11.623,11.098c0.582,11.721,8.177,5.918,12.934,5.961c7.34,0.064,14.683-1.334,22.041-1.523
	c6.585-0.17,9.046-2.766,8.887-9.52c-0.166-7.057-4.613-5.895-8.805-5.928C465.691,433.891,461.35,433.916,457.007,433.916z
	 M505.427,433.914c-4.35,0-8.703,0.115-13.048-0.031c-5.098-0.168-9.229-0.354-9.097,7.139c0.124,7.072,4.119,6.16,8.537,6.086
	c2.999-0.049,6.656-0.717,8.891,0.688c9.29,5.836,16.36-2.316,24.493-3.311c3.498-0.428,2.042-4.162,2.24-6.535
	c0.311-3.719-2.222-4.049-5.051-4.025C516.737,433.965,511.083,433.936,505.427,433.914z M275.782,102.229
	c-4.39-12.933-5.648-26.728-12.896-41.797c-2.588,9.831-4.308,16.537-6.12,23.217C250.649,106.2,250.661,106.223,275.782,102.229z
	 M700.364,433.936c-5.215,0-10.432,0.064-15.646-0.025c-3.322-0.055-5.946,0.271-5.956,4.656c-0.006,3.469,0.444,5.729,4.738,5.947
	c10.839,0.559,21.66,1.434,32.478,2.307c4.267,0.346,6.392-0.885,6.226-5.662c-0.153-4.375-0.481-7.664-6.197-7.297
	C710.812,434.197,705.579,433.934,700.364,433.936z M552.497,444.309c0.001-0.359,0.003-0.721,0.004-1.08
	c6.037,0,12.085,0.227,18.104-0.096c3.079-0.166,5.921-1.434,5.659-5.547c-0.238-3.729-2.916-3.711-5.515-3.717
	c-11.227-0.027-22.454,0.08-33.678-0.025c-4.352-0.037-4.693,2.582-4.673,5.891c0.02,3.152,1.264,4.686,4.566,4.609
	C542.14,444.223,547.32,444.309,552.497,444.309z M655.596,443.66c0.003,0.09,0.005,0.176,0.011,0.266
	c3.47,0,6.94,0.057,10.411-0.016c3.578-0.074,8.097,1.807,8.03-4.92c-0.063-6.598-4.665-4.969-8.184-5.023
	c-9.555-0.152-19.115-0.158-28.67,0.025c-3.027,0.059-7.452-1.656-7.439,4.229c0.011,4.771,3.488,3.992,6.389,4.184
	C642.627,442.834,649.11,443.242,655.596,443.66z M602.075,442.344c0-0.176,0-0.35,0-0.523c6.03,0,12.063-0.07,18.095,0.029
	c3.191,0.051,4.744-1.174,4.498-4.494c-0.207-2.809-2.018-3.387-4.34-3.389c-11.199-0.01-22.401-0.002-33.603-0.027
	c-2.832-0.008-5.22,0.512-5.211,4.045c0.009,3.352,2.134,4.359,5.073,4.359C591.751,442.346,596.915,442.344,602.075,442.344z
	 M253.156,146.404c-0.047,0.409-0.093,0.818-0.141,1.228c32.118,0,64.236,0,96.354,0c0.002-0.409,0.003-0.818,0.005-1.228
	C317.302,146.404,285.229,146.404,253.156,146.404z"/>
<path fill-rule="evenodd" clip-rule="evenodd" fill="#272735" d="M857.476,354.934c-1.864-1.701-3.729-3.402-5.593-5.1
	c-0.287-1-0.576-2.002-0.865-3.002c-0.229-18.162-0.46-36.324-0.69-54.488c0.039-1.043,0.077-2.09,0.113-3.135
	c0.204-0.27,0.629-0.719,0.577-0.783c-0.411-0.512-0.915-0.951-1.391-1.414l0.01,0.025c-0.097-1.623-0.757-2.561-2.562-2.109
	c-1.605-0.914-4.69,0.465-4.654-2.998c2.67-0.068,5.442,0.172,7.299-2.383l-0.223-0.455c3.573-1.031,2.637-3.293,1.532-5.602
	c0.158-18.972,0.317-37.945,0.476-56.917c1.363-0.138,2.724-0.276,4.087-0.415c0.097,15.097,0.24,30.191,0.281,45.288
	c0.049,17.74,0.013,17.74,17.24,18.408c0.897,1.518,1.795,3.035,2.69,4.553c-6.09,0.316-12.182,0.637-18.271,0.953
	c-2.929,20.68-1.763,41.396-0.532,62.111c5.703,4.836,12.33,1.299,18.482,2.031c1.941-0.271,2.425-1.279,1.51-2.99
	c0.035-19.596,0.074-39.191,0.109-58.785c0.314-0.957,0.632-1.912,0.946-2.867c0.131-2.262,0.003-4.418-2.317-5.678
	c0.325-13.727,0.842-27.453,0.937-41.178c0.144-21.398,0.021-21.401-21.147-21.836c-0.085-2.048-0.169-4.097-0.256-6.146
	c2.596,0.156,5.228,0.095,7.782,0.504c10.355,1.652,15.025-1.591,13.94-13.071c-1.056-11.202-0.542-22.593-0.125-33.879
	c0.276-7.499-0.54-11.647-10.12-11.662c-9.959-0.018-11.34,4.025-11.059,12.363c0.409,12.13-0.261,24.301-0.468,36.454
	c-1.297-0.164-2.594-0.325-3.89-0.486c-0.366-2.512-0.731-5.023-1.098-7.532c1.998-19.613,1.998-19.619-16.689-19.644
	c-8.711-0.01-17.425,0.031-26.136,0c-60.962-0.217-121.925-0.448-182.888-0.673c0.003-1.141,0.005-2.284,0.008-3.424
	c1.683-0.517,3.365-1.036,5.049-1.555c24.29,0.296,48.581,0.869,72.87,0.826c46.446-0.084,92.893-0.519,139.339-0.808
	c3.24,0.701,7.562,2.54,8.616-1.951c1.046-4.471,3.325-10.205-3.021-13.424c-0.062-3.337-0.122-6.675-0.182-10.015
	c1.698-0.662,3.701-0.961,3.913-3.353c0,0,0.169,0.576,0.166,0.573c1.126-0.08,2.924-0.642,3.281-0.153
	c4.954,6.774,12.079,4.706,17.76,3.051c6.979-2.031,2.618-8.966,3.074-13.644c0.629-6.417,0.102-12.946,0.068-19.427
	c2.606-0.005,5.215-0.01,7.821-0.015c-4.062,14.155,2.859,16.685,15.122,15.173c7.995-0.984,16.204-0.238,24.316-0.269
	c0.052,1.002,0.105,2.005,0.156,3.008c-11.217,0.133-22.435,0.414-33.651,0.337c-4.975-0.036-8.117,0.701-8.22,6.885
	c-0.104,6.25,2.177,8.524,8.286,8.278c7.757-0.314,15.611-0.767,23.291,0.067c12.506,1.363,16.905-3.125,12.934-15.243
	c1.646-0.857,3.294-1.716,4.938-2.575c2.411,6.465-5.471,18.403,10.795,17.542c9.089-0.481,12.158-2.816,11.201-11.729
	c-0.779-7.253-0.437-14.626-0.593-21.946c-0.008-1.509-0.016-3.015-0.023-4.524c3.831-2.143,1.67-5.048,0.97-7.749
	c-2.972-11.468-5.962-22.933-8.946-34.398c0.627-1.663,1.253-3.325,1.88-4.987c6.076,19.02,14.537,37.26,11.757,58.457
	c-1.218,9.278-2.979,19.462,2.736,29.122c3.325,5.613-4.136,11.171-3.573,18.242c1.208,15.158,0.295,30.485,0.246,45.743
	c-1.521,0.279-3.046,0.555-4.567,0.834c-0.011-16.447-0.208-32.897,0.068-49.336c0.098-5.882-1.391-8.038-7.854-8.542
	c-10.614-0.824-14.864,2.322-13.662,13.396c0.931,8.555,0.177,17.291,0.184,25.946c0.021,20.219,0.023,20.219,21.128,18.772
	c-0.123,1.777-0.246,3.552-0.368,5.33c-0.908-0.097-1.813-0.197-2.722-0.294c-4.13,0.043-8.258,0.089-12.389,0.133
	c-3.792-0.399-5.468,1.269-4.951,5.074c-0.191,19.751-0.383,39.5-0.572,59.252c-1.837,0.057-3.673,0.115-5.509,0.172
	c-0.093-5.26-0.185-10.518-0.276-15.775c0-6.1,0.005-12.199,0.005-18.299c0.199-7.342,0.095-14.71,0.69-22.02
	c0.535-6.575-1.578-9.532-8.537-9.181c-11.648,0.588-23.326,0.657-34.993,0.944c-2.31,2.943-1.545,6.176-0.888,9.398
	c0.005,1.673,0.008,3.345,0.013,5.015c0,14.916,0,29.83,0.003,44.746c-1.783,6.885,3.447,5.381,6.82,5.404
	c12.355,0.092,24.71-0.082,37.065-0.156c0.021,1.672,0.041,3.346,0.062,5.018l-0.003-0.018c-1.803,0.184-3.608,0.367-5.414,0.549
	c-1.733-0.145-3.465-0.398-5.199-0.424c-33.68-0.49-33.73-0.486-33.664,33.514c0.018,10.01-3.084,22.344,1.606,29.367
	c4.637,6.945,17.974,1.1,27.288,3.186c-6.207,9.85-16.066,1.57-23.613,4.76c-1.842-0.025-3.683-0.053-5.524-0.082
	c-1.223,0.16-2.442,0.314-3.665,0.475C870.8,355.422,864.138,355.176,857.476,354.934z M925.668,169.265
	c0.837-19.406,2.87-17.593-17.866-17.662c-26.519-0.084-26.547,0.018-26.49,26.375c0.022,10.394-3.831,24.439,1.392,30.217
	c5.933,6.567,20.234,1.059,30.799,2.187c10.474,1.115,14.235-3.118,12.578-13.179c-0.547-3.325,0.811-7.018-2.046-9.859
	C928.748,181.695,925.814,175.354,925.668,169.265z M854.842,146.171c0.143,0.468,0.283,0.936,0.424,1.404
	c32.269,0,64.533,0,96.799,0c-0.003-0.468-0.006-0.936-0.011-1.404C919.65,146.171,887.247,146.171,854.842,146.171z"/>
<path fill-rule="evenodd" clip-rule="evenodd" fill="#414149" d="M883.278,109.078c-2.606,0.005-5.215,0.01-7.821,0.015
	c-8.575-0.153-17.147-0.304-25.723-0.458c1.895-17.35,7.754-33.729,12.406-50.398c0.558-1.998,3.01-4.967,2.479-5.542
	c-7.44-8.051,1.307-14.447,1.176-24.462c10.793,15.002,2.232,32.127,11.836,44.375c5.77-8.25,5.77-8.25,11.977,0.754
	c1.717-9.176,5.151-17.368,4.21-25.02c-1.245-10.102,14.869-18.286,2.547-28.802c5.33-2.284,5.507-7.511,6.461-13.534
	c3.396,5.092-1.335,14.493,11.068,11.435c-8.212,5.43-10.102,7.189-4.417,15.902c6.842,10.486,6.455,25.685,9.179,38.749
	c6.765,1.724,2.228-6.696,6.676-7.097c4.558,0.639,0.936,6.926,5.261,7.739c3.391,0.614,8.601-18.409,7.15-26.17
	c3.665-0.614,3.565,3.895,6.258,4.601c0.578,1.928,1.156,3.856,1.734,5.785c-0.627,1.663-1.253,3.325-1.88,4.987
	c-6.813,4.422-5.545,12.301-7.425,18.603c-6.516,21.818-6.186,21.915,15.401,23.544c0.008,1.509,0.016,3.016,0.023,4.524
	c-7.079,1.696-15.136-3.391-21.519,3.11c-2.246,1.729-2.228,3.401,0.12,5.021c-0.003,2.667-0.003,5.335-0.005,8.002
	c-1.645,0.859-3.292,1.718-4.938,2.575c-0.88-0.107-1.76-0.217-2.64-0.325c-0.051-1.002-0.104-2.005-0.156-3.008
	c-3.485-29.818-11.146-58.725-18.506-87.985C895.999,60.378,894.623,86.126,883.278,109.078z M854.972,103.563
	c6.757,0,12.343-0.015,17.931,0.008c3.64,0.013,6.332-1.284,4.818-5.34c-4.31-11.562-4.289-24.459-11.335-37.523
	C862.335,75.92,858.815,89.132,854.972,103.563z"/>
<path fill-rule="evenodd" clip-rule="evenodd" fill="#D3C6C0" d="M954.264,426.236c8.812,0.025,17.626,0.051,26.439,0.076
	c0.708,0.68,1.416,1.361,2.125,2.041c0.307,3.596,0.611,7.191,0.918,10.787c0.11,3.195-1.749,6.881,2.264,9.107
	c1.128,2.902-0.535,4.166-2.937,4.994c1.537,3.396-1.67,8.111,2.952,10.652c3.027,2.604,3.02,5.209,0.007,7.818
	c-5.711,6.354-1.1,14.148-2.936,21.043c0.353,0.596,0.708,1.195,1.062,1.791c-0.354,0.193-0.706,0.389-1.059,0.582
	c-1.322,12.66-13.678,20.51-28.936,18.375C954.197,484.416,954.23,455.324,954.264,426.236z"/>
<path fill-rule="evenodd" clip-rule="evenodd" fill="#414149" d="M954.164,513.504c15.258,2.135,27.613-5.715,28.936-18.375
	c1.327-1.389,2.542-1.297,3.616,0.27c-1.33,2.818-0.317,4.811,2.235,6.244c8.266-0.918,15.334,1.5,21.615,7.029
	c9.15,8.053,18.373,7.912,28.403,0.713c15.605-11.207,21.721-11.018,37.367,0.098c8.801,6.252,16.954,7.217,26.337,0.693
	c17.601-12.232,22.174-12.037,39.575-0.031c9.079,6.266,17.523,6.156,26.359-0.586c6.033-4.598,12.036-10.412,21.692-5.24
	c-11.24,1.447-17.928,10.695-27.814,14.35c-8.594,3.176-16.673,1.002-23.23-4.613c-11.078-9.48-21.316-9.65-32.679-0.387
	c-10.856,8.848-22.501,8.654-33.378-0.385c-10.223-8.496-19.803-8.615-30.577-0.469c-13.438,10.158-21.613,9.887-35.411-0.354
	c-9.7-7.201-18.58-7.74-28.5-0.355c-14.376,10.705-22.345,10.758-36.517,0.273c-10.316-7.631-19.493-7.154-29.641,0.494
	c-13.266,10.002-22.027,9.77-35.424-0.506c-9.772-7.496-18.974-7.666-28.411-0.016c-5.882,4.771-11.977,8.768-20.094,7.297
	c0.002-1.441,0.002-2.881,0.002-4.322c7.394-0.113,13.041-4.096,18.711-8.217c10.327-7.508,21.193-8.246,31.048,0.137
	c11.645,9.902,22.117,9.51,33.672-0.092c9.866-8.193,20.562-7.762,31.053-0.271C946.594,509.371,950.468,511.312,954.164,513.504z"
	/>
<path fill-rule="evenodd" clip-rule="evenodd" fill="#414149" d="M294.262,61.835c-1.4,0.018-2.801,0.034-4.201,0.049
	c3.385-18.531,6.77-37.065,10.154-55.597c8.587,21.289,10.413,44.007,16.542,65.947c5.949-7.304,5.949-7.304,14.083,3.33
	c-2.957-12.289,12.763-18.829,1.299-30.15c-1.257-1.24,6.598-8.135,6.139-14.826c0.948,7.253,10.497,11.197,4.166,20.831
	c-2.548,3.875,3.969,13.263,5.46,20.332c3.13,14.841,12.044,28.953,6.131,45.03c-1.335,0.005-2.668,0.007-4.003,0.01
	c0.055-5.123-0.969-8.864-7.612-7.987c-4.516,0.596-9.162,0.2-13.749,0.248c-2.725,0.849-5.45,1.696-8.175,2.542
	c-2.275-9.176-4.527-18.358-6.831-27.529c-2.405-9.573-0.957-21.736-7.845-28.122c-7.393-6.852,6.969-15.526-5.288-20.012
	C298.42,44.662,296.341,53.25,294.262,61.835z M340.527,63.289c-0.866-0.041-1.73-0.084-2.595-0.125
	c-3.007,10.593-6.157,21.15-8.923,31.805c-0.674,2.596-2.538,6.803,1.341,7.846c5.753,1.547,12.121,2.043,17.74-0.289
	c3.4-1.409,1.435-5.46,0.769-8.136C346.267,83.979,343.334,73.649,340.527,63.289z"/>
<path fill-rule="evenodd" clip-rule="evenodd" fill="#414149" d="M504.034,519.818c11.339-16.73,36.169-22.924,50.821-11.648
	c11.239,8.648,20.771,8.338,31.578-0.455c10.783-8.77,22.716-8.727,33.394,0.256c10.933,9.197,20.726,8.559,31.487-0.188
	c10.82-8.795,22.608-8.867,33.326,0.125c10.867,9.121,20.534,8.504,31.593,0.08c12.425-9.469,21.107-8.816,34.332,0.584
	c5.038,3.58,9.994,7.037,16.623,6.203c-2.483,5.783-4.327,7.635-8.771,3.982c-17.411-14.307-33.342-13.916-51.056-0.088
	c-6.092,4.756-14.989,1.197-21.915-3.672c-16.247-11.422-18.572-11.381-34.477-0.324c-9.561,6.645-20.141,8.588-29.035,0.986
	c-13.433-11.48-25.348-11.625-38.004,0.271c-1.847,1.736-4.427,2.688-6.669,4.002c-0.873,0.133-1.747,0.268-2.62,0.402
	c-6.301,0.279-12.208-1.41-18.01-3.619c-1.848-1.512-3.695-3.023-5.544-4.535c-0.798-1.986-2.473-2.605-4.407-2.822
	c-5.798-3.568-11.592-3.893-17.383,0.01c-5.263,1.117-8.181,5.646-12.29,8.445c-2.051-0.023-4.355-0.707-5.348,2.043
	C509.117,519.846,506.577,519.832,504.034,519.818z"/>
<path fill-rule="evenodd" clip-rule="evenodd" fill="#414149" d="M197.137,513.201c-10.265,9.674-21.541,9.621-31.796,1.15
	c-11.729-9.688-22.129-9.84-33.891-0.402c-11.414,9.156-23,8.1-34.062-1.531c-9.294-8.092-18.732-7.398-28.434-0.146
	c-14.68,10.98-21.363,11.115-36.185,0.074c-4.938-3.678-10.72-4.836-18.676-7.967c8.895-4.432,14.643-1.6,19.083,2.256
	c11.818,10.262,22.647,10.566,34.877,0.277c9.882-8.312,21.438-7.561,31.201,0.473c11.276,9.273,21.256,9.676,32.659,0.248
	c10.796-8.926,22.695-8.412,33.411,0.479c8.303,6.889,16.731,8.713,26.462,3.941C193.57,512.434,195.353,512.816,197.137,513.201z"
	/>
<path fill-rule="evenodd" clip-rule="evenodd" fill="#272735" d="M16.759,444.191c0.035-6.107,0.07-12.211,0.105-18.318
	c1.27,0.15,2.54,0.301,3.809,0.455c-3.422,13.887,3.046,16.127,15.693,15.963c54.091-0.695,108.195-0.244,162.294-0.352
	c6.479-0.014,13.096,1.203,19.444-1.223c-0.761,1.979-1.521,3.961-2.282,5.941c-0.879,0.195-1.757,0.393-2.634,0.59
	c-64.585-0.205-129.171-0.408-193.755-0.613C18.542,445.82,17.65,445.008,16.759,444.191z"/>
<path fill-rule="evenodd" clip-rule="evenodd" fill="#272735" d="M1187.36,446.514c-65.437,0.01-130.872,0.018-196.31,0.029
	c0.01-1.371,0.018-2.742,0.025-4.113c4.759-0.143,9.519-0.402,14.278-0.414c59.827-0.139,119.654-0.242,179.483-0.357
	C1185.68,443.275,1186.519,444.895,1187.36,446.514z"/>
<path fill-rule="evenodd" clip-rule="evenodd" fill="#3A3A43" d="M980.171,258.326c20.787,38.543,45.73,73.961,77.652,104.238
	c4.082,3.873,10.885,5.496,11.407,12.629c-5.121,2.562-9.752,3.865-10.809-4.15c-10.179-10.635-20.36-21.268-30.539-31.902
	c-0.9-0.762-1.803-1.527-2.703-2.289c-0.926-0.008-1.852-0.016-2.779-0.023c-0.443-0.035-0.862-0.148-1.262-0.34
	c-0.187-1.703-0.37-3.404-0.555-5.107c-5.038-7.418-9.708-15.127-15.215-22.18c-5.764-7.389-8.506-17.156-17.268-22.191
	c-1.071,1.318-2.141,2.639-3.21,3.955l-1.056,0.715l-1.025-0.758c-0.049-5.588-0.101-11.176-0.151-16.762
	c-1.7-4.184-3.401-8.367-5.104-12.549C978.427,260.516,979.299,259.422,980.171,258.326z"/>
<path fill-rule="evenodd" clip-rule="evenodd" fill="#414149" d="M380.424,514.752c1.063,1.08,2.129,2.16,3.193,3.24
	c-8.926,4.598-16.85,1.994-23.826-3.973c-10.878-9.303-21.107-9.629-32.55-0.459c-11.792,9.455-21.226,9.354-32.926,0.006
	c-11.349-9.066-21.593-9.01-32.531,0.463c-6.511,5.639-14.249,8.084-22.892,4.686c0.211-1.418,0.423-2.834,0.635-4.248
	c7.156,1.193,13.439-0.303,19.498-4.654c15.853-11.395,22.745-11.518,38.339-0.129c8.949,6.535,17.668,7.404,25.953,0.283
	c8.623-7.408,18.061-9.566,28.867-7.635C361.041,507.738,368.24,516.912,380.424,514.752z"/>
<path fill-rule="evenodd" clip-rule="evenodd" fill="#3A3A43" d="M566.562,164.015c5.14-12.759,16.768-20.173,25.132-30.275
	c2.404-2.903,6.483-2.87,9.092,0.302c8.131,9.869,19.125,17.332,24.739,29.316c-0.737,0.872-1.477,1.744-2.215,2.616
	c-0.826-0.074-1.604,0.087-2.335,0.481c-1.65-0.79-3.302-1.581-4.946-2.371c-0.706-0.813-1.42-1.627-2.133-2.44
	c1.01-0.645,2.022-1.289,3.035-1.934c-6.593-7.276-12.018-16.964-20.214-20.94c-5.02-2.438-10.25,8.417-15.229,13.411
	c-2.6,2.606-6.201,4.831-6.837,9.064c-0.018,1.754-0.036,3.506-0.054,5.261c-1.555,11.056,3.083,15.158,14.089,13.319
	c3.678-0.614,8.143-1.246,12.614,2.465c-5.691,4.041-11.133,3.128-15.661,2.337c-9.423-1.645-9.574,3.992-10.439,10.486
	c-1.256,9.427,8.076,3.629,10.356,7.703c-8.534,3.946-17.585,3.217-26.502,2.931c1.481-6.13,12.782-3.36,11.083-12.815
	c-1.188-6.608-0.747-13.509-1.033-20.278c-0.877-1.207-1.754-2.417-2.632-3.624c0.264-0.782,0.525-1.562,0.787-2.342
	c0.097-0.343,0.36-0.747,0.261-1.016C567.297,165.083,566.892,164.564,566.562,164.015z"/>
<path fill-rule="evenodd" clip-rule="evenodd" fill="#3A3A43" d="M215.822,446.658c0.761-1.98,1.521-3.963,2.282-5.941
	c-0.757-4.982-1.513-9.961-2.27-14.943c0.845-1.725,1.69-3.447,2.536-5.172c1.22,0.043,2.44,0.088,3.66,0.131
	c9.258-0.803,19.002,3.355,27.744-2.717c0.908-0.004,1.816-0.01,2.724-0.018c1.359,3.256,5.137,7.373-2.367,7.77
	c-5.157,0.271-10.428,0.744-15.488,0.014c-11.606-1.682-14.631,3-11.075,13.449l-0.182,1.189c-0.1,5.641-6.372,13.596,5.521,14.748
	c0,1.412,0,2.824,0,4.236c-7.308-0.477-6.872,4.404-6.717,9.398c0.189,6.078,4.506,5.293,8.332,5.312
	c9.74,0.053,19.48,0.018,29.222,0.018c-0.066,1.686-0.131,3.367-0.197,5.053c-9.771,0-19.544,0.154-29.309-0.064
	c-5.133-0.113-8.123,0.998-8.183,7.062c-0.057,5.58,1.649,7.9,7.433,7.582c3.1-0.168,6.802-1.52,9.751,2.078
	c-4.022,6.145-11.708,0.316-16.171,4.736c0.545,5.414,6.727,5.145,8.513,9.002c-0.994,0.955-1.986,1.916-2.979,2.871
	c-4.266-1.979-8.533-3.961-12.8-5.943c-1.706-1.461-3.41-2.92-5.116-4.381c0.836-0.215,1.67-0.436,2.504-0.66
	c1.75,0.029,3.904-0.115,3.866-2.227C216.737,481.711,219.13,464.111,215.822,446.658z"/>
<path fill-rule="evenodd" clip-rule="evenodd" fill="#3A3A43" d="M178.074,331.066c12.767-14.703,20.807-32.973,35.102-46.525
	c0.001,0-0.051-0.26-0.051-0.26c1.429,6.4-4.533,10.076-5.725,15.51c-17.984,18.529-26.455,39.852-23.244,66.354
	c2.065,17.039,0.496,34.516,0.555,51.797c-0.091,0.875-0.183,1.75-0.275,2.625c-0.011,0.893-0.023,1.787-0.036,2.682
	c-1.454-1.68-2.908-3.359-4.362-5.041c-0.372-4.457-0.746-8.918-1.119-13.375c0.243-21.836,0.486-43.674,0.728-65.512
	C182.728,335.883,181.779,333.213,178.074,331.066z"/>
<path fill-rule="evenodd" clip-rule="evenodd" fill="#272735" d="M566.473,169.03c0.877,1.208,1.754,2.417,2.632,3.624
	c-5.223,0.1-10.443,0.284-15.666,0.284c-62.265,0.023-124.53-0.077-186.793,0.228c-4.235,0.021-12.744-4.542-11.675,6.412
	c-1.28-0.018-2.559-0.039-3.839-0.057c-0.331-8.726-0.664-17.455-0.996-26.181c1.578,0.077,3.155,0.153,4.731,0.23
	c0.901,4.381-1.269,9.146,1.656,13.273l-0.176,0.494l0.184-0.522c1.119,0.218,2.238,0.438,3.358,0.655
	c30.498,0.279,60.996,0.599,91.495,0.824C489.746,168.577,528.11,168.787,566.473,169.03z"/>
<path fill-rule="evenodd" clip-rule="evenodd" fill="#414149" d="M101.841,395.662c2.71-1.219,5.271-1.072,6.238,2.037
	c0.785,2.525-1.187,3.381-3.454,4.25c-8.736,3.346-17.244,7.307-26.042,10.475c-4.408,1.584-8.378,2.65-6.738,8.596
	c-0.227,1.514-0.452,3.027-0.678,4.541c-1.264-0.008-2.527-0.012-3.79-0.018c-5.509-6.217-11.008-8.553-16.479,0.041
	c-10.075,0.248-20.15,0.496-30.226,0.744c-1.27-0.154-2.54-0.305-3.809-0.455c-2.027-9.09,5.006-7.264,9.553-7.484
	c14.695-0.711,29.006-3.07,42.743-8.473c6.253-1.084,12.172-2.982,17.189-7.074c0.537,0.244,0.922,0.094,1.153-0.449
	c2.264,0.031,4.211-0.602,5.501-2.617c1.699-0.811,3.398-1.621,5.098-2.43c1.164-0.559,2.327-1.119,3.491-1.68L101.841,395.662z"/>
<path fill-rule="evenodd" clip-rule="evenodd" fill="#3A3A43" d="M1090.991,388.977c8.524,4.639,17.049,9.275,25.57,13.912
	c-1.233,0.908-2.468,1.816-3.703,2.725c-3.818,0.088-6.565-4.793-10.888-2.42c-0.943,17.791-0.943,17.84,15.926,17.771
	c5.649-0.025,11.296-0.357,16.945-0.551l0.284,0.211c-0.025,1.678-0.051,3.357-0.079,5.035c-22.465,0.137-44.928,0.322-67.393,0.328
	c-2.611,0.002-6.368,1.414-7.02-3.256c0.386-2.123,1.631-2.951,3.738-2.488c5.562,0.201,11.243-0.248,16.662,0.736
	c13.877,2.523,17.401-3.729,14.665-16.041c-0.005-1.764-0.008-3.529-0.013-5.293c0.316-1.914-0.916-2.553-2.428-2.967
	c-1.765-1.678-3.529-3.359-5.294-5.037C1088.977,390.754,1089.984,389.865,1090.991,388.977z"/>
<path fill-rule="evenodd" clip-rule="evenodd" fill="#FDFBF4" d="M1095.7,404.939c2.736,12.312-0.788,18.564-14.665,16.041
	c-5.419-0.984-11.1-0.535-16.664-0.736c0-0.004,0.107,0.127,0.104,0.127c0.079-1.119,0.164-2.234,0.248-3.352
	c-0.606-2.031-1.757-4.59-3.918-2.896c-1.447,1.131-1.297,4.307-1.859,6.566l0.187-0.215c-10.933-0.012-21.863-0.021-32.797-0.033
	c0,0,0.12,0.1,0.123,0.1c-0.355-1.707-0.711-3.412-1.069-5.119c0.351-0.869,0.698-1.736,1.049-2.604
	c1.417,0.947,2.77,2.02,4.266,2.818c15.237,8.152,25.429,2.42,25.917-13.977c0.305-10.203-2.261-20.627,1.801-30.617
	c1.057,8.016,5.688,6.713,10.809,4.15c0.005,0.002,0.209-0.289,0.212-0.289c-3.698,2.84,0.67,4.105,1.191,6.121
	c-13.823,6.234-5.759,18.162-6.389,27.377c-0.455,6.652,5.522,9.086,12.708,9.934C1088.163,419.658,1093.413,414.949,1095.7,404.939
	z"/>
<path fill-rule="evenodd" clip-rule="evenodd" fill="#FDFBF4" d="M849.734,108.635c8.575,0.153,17.147,0.304,25.723,0.458
	c0.033,6.481,0.561,13.01-0.068,19.427c-0.456,4.678,3.905,11.613-3.074,13.644c-5.681,1.655-12.806,3.724-17.76-3.051
	c-0.357-0.489-2.155,0.074-3.281,0.153C848.399,129.177,850.442,118.837,849.734,108.635z M862.982,134.885
	c2.514-6.944,3.736-13.905-0.599-23.777C859.438,121.192,859.417,128.034,862.982,134.885z M872.411,134.872
	c0-6.811,0-13.619,0-20.429C867.852,121.228,867.084,127.998,872.411,134.872z"/>
<path fill-rule="evenodd" clip-rule="evenodd" fill="#F5EAE1" d="M247.155,109.031c1.066,0.754,2.253,2.289,3.183,2.148
	c23.417-3.575,23.413-3.606,23.149,17.063c-0.167,13.117-6.91,17.882-19.179,12.747c-2.712-1.136-4.325-3.772-7.011-0.514
	C249.29,129.985,243.878,119.527,247.155,109.031z M262.915,124.346c-2.099-2.724,2.531-9.657-4.11-9.445
	c-4.41,0.143-5.193,6.143-4.57,10.652c0.522,3.777-2.22,10.215,4.51,9.852C265.255,135.054,261.473,128.588,262.915,124.346z
	 M268.056,114.548c-2.739,6.9-2.971,13.803,0.002,20.657C271.25,128.392,271.036,121.507,268.056,114.548z"/>
<path fill-rule="evenodd" clip-rule="evenodd" fill="#414149" d="M113.754,395.176c-3.727-0.809-2.792-3.311-2.081-5.729
	c26.407-14.6,46.302-36.605,66.401-58.381c3.705,2.146,4.653,4.816,1.573,8.254c-3.784-0.434-4.297,2.9-5.827,5.061
	c-8.529,9.783-20.938,16.139-25.789,29.174c-0.343,0.875-0.687,1.748-1.029,2.627c-1.54-0.016-3.079-0.031-4.62-0.047
	C131.526,380.506,124.063,389.98,113.754,395.176z"/>
<path fill-rule="evenodd" clip-rule="evenodd" fill="#414149" d="M980.171,258.326c-0.872,1.096-1.744,2.189-2.616,3.285
	c-7.52-9.093-10.923-20.307-15.887-30.721c-0.881-1.844-2.121-3.514-3.195-5.266c-0.605,0.417-1.212,0.833-1.815,1.25
	c-1.348,0.018-2.693,0.033-4.038,0.051c-0.264-4.005-0.527-8.01-0.79-12.015c0.122-1.777,0.245-3.552,0.365-5.325
	c0,0.008,0.139-0.24,0.139-0.24c1.521-0.279,3.046-0.555,4.567-0.834c1.235,3.074,15.081-2.386,5.632,8.747
	c-1.638,1.926,2.852,9.386,4.959,14.092C971.55,240.419,975.926,249.342,980.171,258.326z"/>
<path fill-rule="evenodd" clip-rule="evenodd" fill="#272735" d="M222.03,420.732c-1.22-0.043-2.44-0.088-3.66-0.131
	c0.001,0-0.16-0.205-0.16-0.205c-0.132-41.658-0.169-83.316-0.547-124.973c-0.036-3.883,3.546-10.178-4.539-11.143
	c0,0,0.053,0.26,0.051,0.26c2.884-3.924,1.343-9.752,5.622-13.074c0.893,1.062,1.785,2.123,2.676,3.188
	C221.659,323.346,221.844,372.041,222.03,420.732z"/>
<path fill-rule="evenodd" clip-rule="evenodd" fill="#272735" d="M987.462,420.732c-1.22-0.043-2.439-0.088-3.66-0.131
	c0.002,0-0.159-0.205-0.159-0.205c-0.132-41.658-0.169-83.316-0.548-124.973c-0.035-3.883,3.547-10.178-4.538-11.143
	c0,0,0.053,0.26,0.052,0.26c2.883-3.924,1.342-9.752,5.621-13.074c0.893,1.062,1.785,2.123,2.676,3.188
	C987.091,323.346,987.276,372.041,987.462,420.732z"/>
<path fill-rule="evenodd" clip-rule="evenodd" fill="#414149" d="M1135.047,425.66c0.028-1.678,0.054-3.357,0.082-5.035
	c3.447-2.488,6.895-4.977,10.342-7.465c10.504,1.789,21.008,3.578,31.511,5.365c0.2,2.365,0.396,4.73,0.594,7.096
	c-6.33,0.008-12.659,0.016-18.992,0.023c-6.087-3.541-12.171-3.637-18.25,0.021C1138.571,425.662,1136.809,425.662,1135.047,425.66z
	"/>
<path fill-rule="evenodd" clip-rule="evenodd" fill="#E5E8D0" d="M215.822,446.658c3.308,17.453,0.916,35.053,1.234,52.584
	c0.038,2.111-2.115,2.256-3.866,2.227c-0.001-18.072-0.002-36.146-0.002-54.221C214.064,447.051,214.943,446.854,215.822,446.658z"
	/>
<path fill-rule="evenodd" clip-rule="evenodd" fill="#272735" d="M944,51.164c-2.692-0.706-2.593-5.215-6.258-4.601
	c-1.649-0.241-4.371-1.803-3.15-2.445c5.389-2.842,5.435-8.164,7.823-13.192C939.725,38.312,956.422,43.13,944,51.164z"/>
<path fill-rule="evenodd" clip-rule="evenodd" fill="#3A3A43" d="M1177.575,425.621c-0.197-2.365-0.394-4.73-0.594-7.096
	c10.995-2.336,14.793,2.715,12.992,12.988c-0.877,4.998,2.943,10.836-2.613,15c-0.842-1.619-1.681-3.238-2.522-4.855
	C1182.926,436.082,1190.488,426.215,1177.575,425.621z"/>
<path fill-rule="evenodd" clip-rule="evenodd" fill="#272735" d="M252.774,208.408c-1.093-0.01-2.185-0.021-3.278-0.031
	c-0.042-18.243-0.084-36.485-0.128-54.728c1.179-0.008,2.358-0.016,3.537-0.026c0.262,5.176,0.525,10.35,0.788,15.526
	c-0.004,2.657-0.008,5.312-0.012,7.969C253.379,187.549,253.076,197.978,252.774,208.408z"/>
<path fill-rule="evenodd" clip-rule="evenodd" fill="#414149" d="M1070.634,381.025c-0.521-2.016-4.89-3.281-1.191-6.121
	c8.514,2.652,14.649,8.949,21.549,14.072c-1.007,0.889-2.015,1.777-3.025,2.666C1082.188,388.104,1076.411,384.564,1070.634,381.025
	z"/>
<path fill-rule="evenodd" clip-rule="evenodd" fill="#4D4C53" d="M210.686,502.129c1.706,1.461,3.411,2.92,5.116,4.381
	c-7.137-0.322-13.033,2.818-18.666,6.691c-1.784-0.385-3.566-0.768-5.349-1.148c1.141-1.385,2.283-2.768,3.423-4.152
	c1.62-1.166,3.24-2.332,4.862-3.498C203.707,504.098,206.713,500.857,210.686,502.129z"/>
<path fill-rule="evenodd" clip-rule="evenodd" fill="#4D4C53" d="M350.033,116.791c1.335-0.003,2.668-0.005,4.003-0.01
	c0.054,7.02,0.109,14.041,0.163,21.058c-1.371,0.005-2.743,0.01-4.114,0.015C350.067,130.832,350.051,123.811,350.033,116.791z"/>
<path fill-rule="evenodd" clip-rule="evenodd" fill="#3A3A43" d="M983.097,492.756c1.836-6.895-2.775-14.689,2.936-21.043
	c5.156,6.424,2.003,13.734,1.831,20.605C987.8,494.865,984.915,494.42,983.097,492.756z"/>
<path fill-rule="evenodd" clip-rule="evenodd" fill="#3A3A43" d="M1145.471,413.16c-3.447,2.488-6.895,4.977-10.342,7.465
	c-0.003,0-0.287-0.211-0.287-0.211c0.903-5.283-2.749-6.879-6.68-8.25c0.956-1.225,1.915-2.451,2.875-3.68
	C1135.848,410.041,1140.66,411.602,1145.471,413.16z"/>
<path fill-rule="evenodd" clip-rule="evenodd" fill="#F8EFE7" d="M356.522,166.843c-2.924-4.128-0.754-8.893-1.656-13.273
	c1.5-0.614,3-1.228,4.499-1.844c0.174,5.245,0.348,10.496,0.523,15.744c-1.12-0.217-2.239-0.437-3.356-0.652
	C356.533,166.818,356.522,166.843,356.522,166.843z"/>
<path fill-rule="evenodd" clip-rule="evenodd" fill="#F8EFE7" d="M847.376,152.061c6.346,3.22,4.066,8.954,3.021,13.424
	c-1.054,4.491-5.376,2.652-8.616,1.951C845.684,163.053,847.951,158.074,847.376,152.061z"/>
<path fill-rule="evenodd" clip-rule="evenodd" fill="#4D4C53" d="M228.603,512.453c0.994-0.955,1.986-1.916,2.979-2.871
	c2.648,1.627,5.296,3.256,7.945,4.885c-0.212,1.414-0.424,2.83-0.635,4.248C234.644,517.973,230.881,516.434,228.603,512.453z"/>
<path fill-rule="evenodd" clip-rule="evenodd" fill="#EFF3D8" d="M529.297,509.369c5.792-3.902,11.585-3.578,17.383-0.01
	C540.885,509.361,535.091,509.363,529.297,509.369z"/>
<path fill-rule="evenodd" clip-rule="evenodd" fill="#414149" d="M1112.858,405.613c1.235-0.908,2.47-1.816,3.703-2.725
	c2.928,1.406,5.854,2.812,8.779,4.217c-1.12,0.889-2.237,1.775-3.357,2.662C1118.942,408.385,1115.901,406.998,1112.858,405.613z"/>
<path fill-rule="evenodd" clip-rule="evenodd" fill="#FDFBF4" d="M435.873,122.215c4.325,0.01,8.65,0.018,12.977,0.028
	C444.516,125.76,440.189,125.791,435.873,122.215z"/>
<path fill-rule="evenodd" clip-rule="evenodd" fill="#272735" d="M986.025,463.895c-4.622-2.541-1.415-7.256-2.952-10.652
	c2.013-1.703,3.683-1.414,5.008,0.865c-0.284,0.309-0.852,0.672-0.806,0.92c0.148,0.783,0.524,1.521,0.813,2.279
	C987.577,459.557,990.526,462.893,986.025,463.895z"/>
<path fill-rule="evenodd" clip-rule="evenodd" fill="#3A3A43" d="M991.076,442.43c-0.008,1.371-0.016,2.742-0.025,4.113
	c-1.775,0.285-2.551,3.533-5.041,1.703c-4.013-2.225-2.153-5.91-2.261-9.105c1.391-0.053,2.782-0.109,4.174-0.164
	C988.974,440.129,990.024,441.279,991.076,442.43z"/>
<path fill-rule="evenodd" clip-rule="evenodd" fill="#EFF3D8" d="M551.087,512.182c1.849,1.512,3.697,3.023,5.544,4.535
	C551.8,519.67,551.732,519.615,551.087,512.182z"/>
<path fill-rule="evenodd" clip-rule="evenodd" fill="#EFF3D8" d="M511.66,519.857c0.992-2.75,3.296-2.066,5.348-2.043
	C516.289,521.279,515.225,523.842,511.66,519.857z"/>
<path fill-rule="evenodd" clip-rule="evenodd" fill="#F8EFE7" d="M623.311,165.974c0.738-0.872,1.478-1.744,2.215-2.616
	c1.35,1.353,2.697,2.708,4.048,4.062c-1.686,0.519-3.368,1.038-5.051,1.555l0.353-0.762
	C624.354,167.467,623.832,166.721,623.311,165.974z"/>
<path fill-rule="evenodd" clip-rule="evenodd" fill="#3A3A43" d="M463.725,508.576c-1.412,1.244-2.823,2.486-4.235,3.732
	c-0.914,0.029-1.829,0.059-2.743,0.088c-4.799-5.748,2.612-5.002,3.977-7.473C461.724,506.143,462.725,507.359,463.725,508.576z"/>
<path fill-rule="evenodd" clip-rule="evenodd" fill="#3A3A43" d="M1121.983,409.768c1.12-0.887,2.237-1.773,3.357-2.662
	c1.897,0.461,3.796,0.918,5.696,1.379c-0.96,1.229-1.919,2.455-2.875,3.68C1126.104,411.367,1124.042,410.568,1121.983,409.768z"/>
<path fill-rule="evenodd" clip-rule="evenodd" fill="#F8EFE7" d="M359.609,150.933c-0.007-2.66-0.015-5.317-0.021-7.974
	C363.116,145.608,363.135,148.266,359.609,150.933z"/>
<path fill-rule="evenodd" clip-rule="evenodd" fill="#E5E8D0" d="M200.073,504.402c-1.622,1.166-3.242,2.332-4.862,3.498
	C195.908,505.451,197.724,504.557,200.073,504.402z"/>
<path fill-rule="evenodd" clip-rule="evenodd" fill="#3A3A43" d="M988.951,501.643c-2.553-1.434-3.565-3.426-2.235-6.244
	C989.795,496.666,987.933,499.666,988.951,501.643z"/>
<path fill-rule="evenodd" clip-rule="evenodd" fill="#414149" d="M988.089,457.307c-0.289-0.758-0.665-1.496-0.813-2.279
	c-0.046-0.248,0.521-0.611,0.806-0.92C988.084,455.174,988.086,456.24,988.089,457.307z"/>
<path fill-rule="evenodd" clip-rule="evenodd" fill="#EFF3D8" d="M574.641,520.336c0.874-0.135,1.747-0.27,2.62-0.402
	C576.579,521.311,575.734,521.637,574.641,520.336z"/>
<path fill-rule="evenodd" clip-rule="evenodd" fill="#414149" d="M16.759,444.191c0.891,0.816,1.783,1.629,2.674,2.443
	C17.485,446.977,16.406,446.369,16.759,444.191z"/>
<path fill-rule="evenodd" clip-rule="evenodd" fill="#F5EAE1" d="M247.038,98.533c0.316,0.885,0.223,1.726-0.277,2.519
	c-0.205-0.614-0.488-1.22-0.562-1.852C246.175,99.014,246.742,98.758,247.038,98.533z"/>
<path fill-rule="evenodd" clip-rule="evenodd" fill="#FDFBF4" d="M851.107,138.693c-0.212,2.392-2.215,2.691-3.913,3.353
	C847.818,140.138,848.896,138.752,851.107,138.693z"/>
<path fill-rule="evenodd" clip-rule="evenodd" fill="#F5EAE1" d="M244.299,148.296c0.342,0.824,0.409,1.67,0.198,2.537
	c-0.333-0.578-0.735-1.13-0.95-1.747C243.492,148.928,244.032,148.565,244.299,148.296z"/>
<path fill-rule="evenodd" clip-rule="evenodd" fill="#F8EFE7" d="M566.562,164.015c0.33,0.55,0.735,1.069,0.958,1.657
	c0.1,0.269-0.164,0.673-0.261,1.016c-0.495-0.568-1.042-1.105-1.441-1.734C565.748,164.841,566.299,164.337,566.562,164.015z"/>
<path fill-rule="evenodd" clip-rule="evenodd" fill="#E5E8D0" d="M101.593,395.666c-1.164,0.561-2.327,1.121-3.491,1.68
	C99.266,396.787,100.429,396.227,101.593,395.666z"/>
<path fill-rule="evenodd" clip-rule="evenodd" fill="#272735" d="M778.928,433.398c0-1.191,0-2.383,0-3.574
	c13.12-0.064,26.24-0.125,39.359-0.188c-0.046,1.297-0.089,2.596-0.135,3.893C805.078,433.486,792.002,433.443,778.928,433.398z"/>
<path fill-rule="evenodd" clip-rule="evenodd" fill="#414149" d="M460.724,504.924c15.025-5.975,22.324-4.26,32.078,8.924
	c-9.388-4.027-18.439-10.557-29.077-5.271C462.725,507.359,461.724,506.143,460.724,504.924z"/>
<path fill-rule="evenodd" clip-rule="evenodd" fill="#414149" d="M770.649,433.883c2-0.006,3.997-0.01,5.997-0.016
	c-0.01,6.014-0.021,12.025-0.03,18.037c-2.031-0.029-4.064-0.061-6.098-0.092C770.562,445.836,770.605,439.859,770.649,433.883z"/>
<path fill-rule="evenodd" clip-rule="evenodd" fill="#F8EFE7" d="M819.469,496.234c0,4.127,0,8.252,0,14.455
	c-5.008-3.365-8.882-5.965-12.754-8.566C812.224,502.883,815.487,498.781,819.469,496.234z"/>
<path fill-rule="evenodd" clip-rule="evenodd" fill="#F8EFE7" d="M794.525,501.412c-1.678,0.27-3.355,0.537-5.033,0.807
	C790.781,499.527,792.437,499.111,794.525,501.412z"/>
<path fill-rule="evenodd" clip-rule="evenodd" fill="#F8EFE7" d="M815.952,460.787c3.085,0.188,3.911,2.016,3.471,4.77
	C818.267,463.969,817.111,462.379,815.952,460.787z"/>
<path fill-rule="evenodd" clip-rule="evenodd" fill="#F5EAE1" d="M239.527,514.467c-2.648-1.629-5.296-3.258-7.945-4.885
	c-1.786-3.857-7.968-3.588-8.513-9.002c4.463-4.42,12.148,1.408,16.171-4.736c-2.95-3.598-6.652-2.246-9.751-2.078
	c-5.784,0.318-7.49-2.002-7.433-7.582c0.06-6.064,3.05-7.176,8.183-7.062c9.764,0.219,19.538,0.064,29.309,0.064
	c0.065-1.686,0.13-3.367,0.197-5.053c-9.741,0-19.481,0.035-29.222-0.018c-3.826-0.02-8.143,0.766-8.332-5.312
	c-0.155-4.994-0.591-9.875,6.717-9.398c18.974,0,37.949,0,56.925,0c0.001-1.412,0.002-2.824,0.002-4.236
	c-18.975,0-37.952,0-56.927,0c-11.894-1.152-5.621-9.107-5.521-14.748c11.174,0,22.347,0,33.521,0c0-0.396-0.001-0.793-0.001-1.189
	c-11.112,0-22.226,0-33.338,0c-3.556-10.449-0.531-15.131,11.075-13.449c5.06,0.73,10.331,0.258,15.488-0.014
	c7.503-0.396,3.726-4.514,2.367-7.77c-0.005-20.076-0.009-40.152-0.014-60.229c0.467-0.553,0.59-1.174,0.37-1.865
	c0.75-0.439,1.502-0.879,2.253-1.318c18.981,0.496,18.983,0.496,18.981,19.377c-0.001,10.877-0.583,21.795,0.163,32.623
	c0.713,10.348-0.862,17.076-13.528,14.547c-2.244-0.447-4.765,0.492-7.157,0.789c0.024,1.426,0.048,2.854,0.073,4.281
	c32.764,0,65.528,0,98.293,0c0.083,25.375,0.169,50.75,0.253,76.129c-10.806-1.932-20.244,0.227-28.867,7.635
	c-8.285,7.121-17.004,6.252-25.953-0.283c-15.594-11.389-22.487-11.266-38.339,0.129
	C252.966,514.164,246.683,515.66,239.527,514.467z"/>
<path fill-rule="evenodd" clip-rule="evenodd" fill="#F5EAE1" d="M954.164,513.504c-3.696-2.191-7.57-4.133-11.054-6.621
	c-10.491-7.49-21.187-7.922-31.053,0.271c-11.555,9.602-22.027,9.994-33.672,0.092c-9.854-8.383-20.721-7.645-31.048-0.137
	c-5.67,4.121-11.317,8.104-18.711,8.217c-7.135-11.787-6.411-12.877,12.594-18.861c-0.606-3.826-3.731-2.582-5.9-2.766
	c-4.875-0.412-10.637,1.762-10.662-7.041c-0.025-9.629,6.414-7.176,11.68-7.514c8.583-0.549,17.304,1.238,27.58-1.662
	c-9.01-6.076-17.759-3.398-25.631-3.107c-11.599,0.43-16.608-2.719-12.327-14.693c20.757,0,41.513,0,62.272,0
	c-0.062-1.336-0.123-2.672-0.185-4.006c-1.256-0.244-2.509-0.691-3.765-0.697c-19.442-0.062-38.882-0.074-58.323-0.096
	c-3.243-10.023-1.471-15.842,10.938-14.535c7.289,0.766,14.726,0.139,22.094-0.498c-8.678,0-17.368-0.271-26.032,0.084
	c-6.801,0.281-7.877-3.826-8.087-9.033c-0.264-6.59,4.729-4.936,8.225-4.934c40.388,0.021,80.778,0.162,121.166,0.27
	C954.23,455.324,954.197,484.416,954.164,513.504z"/>
<path fill-rule="evenodd" clip-rule="evenodd" fill="#EFF0EF" d="M991.076,442.43c-1.052-1.15-2.103-2.301-3.153-3.453
	c0.324-4.307,0.651-8.611,0.977-12.914c9.724-0.031,19.45,0.07,29.171-0.148c4.688-0.107,6.616-1.824,2.059-5.617
	c0,0.004-0.284,0.139-0.281,0.137c0.002,0-0.148,0.137-0.148,0.137c-0.442,3.139,0.842,4.885,4.09,4.604
	c2.893-0.25,2.933-2.418,2.667-4.633l-0.12-0.1c-1.117,1.277-2.401,3.871-0.734,4.084c11.652,1.492,23.488,4.674,34.849-1.443
	l0.185-0.35c0.651,4.67,4.408,3.258,7.02,3.256c22.465-0.006,44.928-0.191,67.393-0.328c1.762,0.002,3.524,0.002,5.286,0.006
	c6.084-0.008,12.166-0.016,18.25-0.021c6.333-0.008,12.662-0.016,18.992-0.023c12.913,0.594,5.351,10.461,7.263,16.037
	c-59.829,0.115-119.656,0.219-179.483,0.357C1000.595,442.027,995.835,442.287,991.076,442.43z"/>
<path fill-rule="evenodd" clip-rule="evenodd" fill="#D3C6C0" d="M352.184,502.332c-0.084-25.379-0.17-50.754-0.253-76.129
	c29.37-1.074,29.506-1.074,29.396,27.564c-0.078,20.328-0.585,40.656-0.902,60.984C368.24,516.912,361.041,507.738,352.184,502.332z
	"/>
<path fill-rule="evenodd" clip-rule="evenodd" fill="#EFF0EF" d="M325.04,417.635c-13.519,7.072-27.92,2.033-41.884,2.977
	c-2.556,0.174-3.628-1.902-3.611-4.373c0.137-20.029,0.246-40.061,0.557-60.086c0.009-0.625,2.115-1.217,3.244-1.826
	c13.425,0.17,26.851,0.342,40.276,0.51c1.028,4.496,0.836,8.969-0.268,13.422c-8.006,2.613-4.289,5.227,0.001,7.842
	c0.13,1.273,0.262,2.549,0.396,3.822c-1.284,7.389-10.866-7.318-10.732,4.055c0.106,9.104,0.021,18.209,0.021,28.723
	c7.676-5.543,3.376-15.504,11.345-18.473c-0.334,7.059-0.667,14.119-1.002,21.178c-1.081,0.445-2.163,0.889-3.244,1.334
	c1.123,0.365,2.247,0.729,3.369,1.094C324.008,417.676,324.519,417.611,325.04,417.635z M290.562,379.318
	c0,10.369,0,20.736,0,31.102C294.532,399.861,295.436,389.492,290.562,379.318z M304.291,369.936
	c-0.614,0.002-1.229,0.008-1.842,0.012c0,13.555,0,27.113,0,40.668c0.614-0.006,1.229-0.01,1.842-0.014
	C304.291,397.045,304.291,383.49,304.291,369.936z"/>
<path fill-rule="evenodd" clip-rule="evenodd" fill="#F8EFE7" d="M359.868,355.34c-0.001,16.564,0.613,33.16-0.221,49.684
	c-0.54,10.686,3.469,13.199,13.521,13.164c89.367-0.328,178.736-0.189,268.104-0.189c62.341,0,124.68,0,187.021-0.002
	c18.686,0,18.688-0.008,18.69-19.338c0-14.385-0.003-28.771-0.003-43.156c0.897-0.188,1.796-0.375,2.693-0.561l-0.312,0.504
	c0.532,1.811,1.064,3.621,1.597,5.432c0.005,16.553-0.314,33.111,0.161,49.65c0.217,7.506-1.241,10.625-9.839,10.611
	c-158.986-0.268-317.971-0.201-476.955-0.189c-4.852,0-9.437,0.803-9.253-6.912c0.435-18.283,0.175-36.586,0.049-54.879
	C355.094,355.49,356.66,354.594,359.868,355.34z"/>
<path fill-rule="evenodd" clip-rule="evenodd" fill="#EA656C" d="M294.262,61.835c2.079-8.585,4.158-17.173,6.271-25.904
	c12.256,4.486-2.105,13.161,5.288,20.012c6.888,6.386,5.439,18.549,7.845,28.122c2.304,9.171,4.556,18.353,6.831,27.529
	c0.009,4.301,0.018,8.603,0.027,12.905c-12.19,0.074-24.38,0.146-36.57,0.217c-3.911-12.462,2.852-23.534,4.818-35.196
	C290.331,80.262,294.565,71.503,294.262,61.835z M290.426,115.261c8.903,2,14.813,2.547,21.656,0.034
	C302.885,110.819,302.885,110.819,290.426,115.261z"/>
<path fill-rule="evenodd" clip-rule="evenodd" fill="#FDFBF4" d="M886.651,355.275c7.547-3.189,17.406,5.09,23.536-4.766
	c2.622-0.246,5.314-0.486,8.011-0.727l0.948,0.877l0.992-0.826c-2.604,3.164-1.519,4.582,2.24,4.738l-1.018,0.111l-0.022,1.02
	c-0.637,0.561-0.967,1.271-0.99,2.139c0.005,20.012,0.011,40.023,0.016,60.033c-0.049,0.814-0.074,1.627-0.079,2.439
	c-10.483,0.113-20.967,0.227-31.449,0.338C894.996,398.631,890.145,376.977,886.651,355.275z M904.007,368.23
	c-6.093,10.896-5.632,35.627,0,41.99C904.007,396.635,904.007,383.191,904.007,368.23z M914.789,410.336
	c3.138-10.43,3.798-20.834,0.033-31.168C911.521,389.535,912.431,399.947,914.789,410.336z"/>
<path fill-rule="evenodd" clip-rule="evenodd" fill="#EFF0EF" d="M286.491,214.95c37.435-2.392,37.857-2.384,37.168,34.285
	c-0.19,10.173,4.273,21.169-3.133,30.708c-12.253-0.047-24.505-0.096-36.758-0.141l0.37-0.93c0.508-1.193,0.828-2.521,1.552-3.562
	c9.547-13.705,14.437-26.953,1.727-42.308C285.146,230.259,281.569,221.223,286.491,214.95z M318.56,251.999
	c-2.445-5.337,3.271-15.349-4.269-15.543c-7.682-0.197-3.896,9.733-3.899,14.973c-0.002,5.384-3.822,15.353,3.446,15.485
	C322.113,267.068,315.891,256.989,318.56,251.999z M300.366,267.332c0.855-0.039,1.711-0.08,2.566-0.117c0-13.431,0-26.859,0-40.289
	c-0.855,0.008-1.711,0.015-2.566,0.023C300.366,240.409,300.366,253.871,300.366,267.332z"/>
<path fill-rule="evenodd" clip-rule="evenodd" fill="#F8EFE7" d="M857.476,354.934c6.662,0.242,13.324,0.488,19.986,0.734
	c-0.314,19.572-0.91,39.146-0.806,58.719c0.044,7.91-4.961,6.809-9.511,6.471c-4.485-0.332-11.438,2.898-11.054-6.264
	C856.923,394.715,854.332,374.76,857.476,354.934z"/>
<path fill-rule="evenodd" clip-rule="evenodd" fill="#EFF0EF" d="M281.365,153.598c42.61-6.273,42.61-6.273,42.563,35.071
	c-0.024,21.79-0.024,21.831-22.104,21.744c-6.947-0.028-13.894-0.34-20.836-0.524C298.977,184.835,299.027,177.268,281.365,153.598z
	 M309.262,183.533c3.174,4.826-2.794,15.25,4.368,15.207c8.492-0.051,3.724-10.36,4.142-15.997
	c0.369-4.967,3.177-14.465-3.243-14.419C305.927,168.385,312.334,178.155,309.262,183.533z M303.273,158.958
	c-0.854-0.038-1.71-0.079-2.564-0.12c0,13.532,0,27.063,0,40.595c0.854,0,1.709-0.002,2.564-0.002
	C303.273,185.94,303.273,172.449,303.273,158.958z"/>
<path fill-rule="evenodd" clip-rule="evenodd" fill="#F5EAE1" d="M344.453,281.73c2.116,1.354,4.67,2.281,5.095,5.271
	c-4.562,20.092-4.39,40.189-0.119,60.299c-0.895,1.715-1.79,3.428-2.687,5.141c-6.096-1.846-14.477,4.494-18.401-5.135
	c-0.018-20.076-0.036-40.152-0.052-60.229c0.866-1.727,1.733-3.455,2.599-5.184C335.408,281.84,339.93,281.785,344.453,281.73z"/>
<path fill-rule="evenodd" clip-rule="evenodd" fill="#F5EAE1" d="M952.744,347.031c-7.332,4.291-14.629,11.562-22.143,0.258
	c0.302-20.869,0.606-41.736,0.908-62.602c7.021,1.305,14.754-3.105,21.219,2.654l-0.644,0.273l-0.399-0.572
	c-4.243,20.088-4.104,40.186-0.1,60.287l0.463-0.602L952.744,347.031z"/>
<path fill-rule="evenodd" clip-rule="evenodd" fill="#F5EAE1" d="M274.751,347.008c-17.883,6.688-21.583,4.439-21.59-13.125
	c-0.005-10.887-0.003-21.775-0.002-32.66c0-17.055,0.001-17.055,17.725-16.234c-0.019,9.01-0.537,18.057,0.065,27.023
	c0.79,11.762-2.894,23.861,2.501,35.279l0.559-0.562L274.751,347.008z"/>
<path fill-rule="evenodd" clip-rule="evenodd" fill="#FDFBF4" d="M818.287,429.637c-13.119,0.062-26.239,0.123-39.359,0.188
	c-16.974-0.238-33.945-0.67-50.917-0.68c-108.961-0.062-217.921-0.008-326.882-0.111c-4.621-0.004-9.543,1.479-14.126-1.496
	c4.061-2.984,8.522-1.516,12.653-1.52c135.548-0.094,271.095-0.117,406.642,0.107C810.219,426.131,816.07,422.637,818.287,429.637z"
	/>
<path fill-rule="evenodd" clip-rule="evenodd" fill="#F5EAE1" d="M931.031,420.074c0.059-18.062-0.022-36.127,0.31-54.186
	c0.062-3.391-2.256-7.67,2.212-10.24c15.586,0.354,17.12,10.133,15.683,22.58c-0.744,6.445-0.727,13.113-0.002,19.561
	c1.401,12.516-0.771,21.918-15.9,22.457l0.499,0.469l-0.281,0.623C932.712,420.916,931.87,420.494,931.031,420.074z"/>
<path fill-rule="evenodd" clip-rule="evenodd" fill="#F5EAE1" d="M329.223,276.645c0.014-19.251,0.03-38.501,0.043-57.751
	c17.499,0.212,17.501,0.212,17.514,17.811c0.005,7.394,0.005,14.787,0.001,22.181C346.771,276.43,346.77,276.43,329.223,276.645z"/>
<path fill-rule="evenodd" clip-rule="evenodd" fill="#F5EAE1" d="M253.695,242.555c-0.001-1.757-0.002-3.517-0.004-5.274
	c0.719-0.266,1.438-0.532,2.157-0.798c-0.721-0.596-1.442-1.192-2.162-1.788c-0.194-3.762-0.096-7.565-0.644-11.276
	c-1.249-8.473,2.593-10.389,9.961-8.232c6.27,4.604,8.711,10.473,7.999,18.483c-0.802,9.02,0.189,18.186-0.331,27.248
	c-0.297,5.152,3.084,11.793-3.754,15.109c-7.412,3.598-8.395-5.561-13.221-7.283c0-6.998,0-13.995,0-20.992
	c1.037-0.652,2.722-1.107,2.987-1.993C257.357,243.514,255.383,243.013,253.695,242.555z"/>
<path fill-rule="evenodd" clip-rule="evenodd" fill="#F5EAE1" d="M328.723,209.878c0.031-15.593-0.093-31.191,0.229-46.781
	c0.06-2.969-2.373-6.987,2.161-9.041c0.394,1.844,1.361,3.435,3.401,2.846c10.626-3.059,12.687,2.256,12.385,11.48
	c-0.452,13.818-0.079,27.665-0.058,41.498C340.802,209.88,334.762,209.88,328.723,209.878z"/>
<path fill-rule="evenodd" clip-rule="evenodd" fill="#F8EFE7" d="M253.681,177.119c0.004-2.657,0.008-5.312,0.012-7.969
	c6.05-3.729,3.339-14.061,11.955-15.854c1.719-0.023,3.438-0.049,5.156-0.072c-0.029,18.795-0.059,37.59-0.087,56.382
	c-4.205,0-8.409-0.002-12.614-0.008c-3.977-7.764-4.217-15.879-1.835-24.066C257.317,181.933,258.498,178.723,253.681,177.119z"/>
<path fill-rule="evenodd" clip-rule="evenodd" fill="#D2D3D5" d="M286.491,214.95c-4.922,6.273-1.345,15.309,0.926,18.053
	c12.71,15.355,7.821,28.603-1.727,42.308c-0.725,1.041-1.044,2.369-1.552,3.562c-5.674,0.84-4.958-3.15-4.959-6.576
	c-0.009-17.021,0.224-34.043-0.138-51.056C278.914,215.223,280.829,213.295,286.491,214.95z"/>
<path fill-rule="evenodd" clip-rule="evenodd" fill="#272735" d="M328.723,209.878c6.04,0.002,12.079,0.002,18.119,0.002
	c8.171-7.092,0.623-16.917,4.306-24.79c1.228-0.036,2.457-0.074,3.684-0.11c5.018,10.749,13.875,2.887,20.82,4.296
	c5.198-0.074,10.396-0.146,15.593-0.22c3.328,1.936,8.403-1.55,12.222,4.619c-14.425,0-27.399-0.077-40.37,0.057
	c-3.166,0.033-8.167-1.218-7.882,3.923c0.292,5.24,5.294,2.558,8.322,3.033c0.83,0.13,1.725-0.161,2.591-0.258
	c0.182,1.581,1.025,3.706-1.109,4.258c-5.839,1.509-11.759,2.652-1.717,7.611c-1.161,0.913-2.322,1.824-3.483,2.737
	c-3.372-0.849-4.968,0.261-4.29,3.885c0.01,3.524,0.021,7.051,0.031,10.575c-0.338,15.685-0.675,31.367-1.012,47.052
	c-1.247,0.006-2.492,0.008-3.738,0.014c-0.153-13.809-0.376-27.614-0.442-41.424c-0.101-21.275-0.056-21.275-21.432-20.229
	C328.865,213.233,328.793,211.556,328.723,209.878z"/>
<path fill-rule="evenodd" clip-rule="evenodd" fill="#D2D3D5" d="M281.365,153.598c17.662,23.669,17.612,31.237-0.377,56.29
	C278.118,191.106,277.648,172.337,281.365,153.598z"/>
<path fill-rule="evenodd" clip-rule="evenodd" fill="#D2D3D5" d="M278.576,287.076c1.799-0.992,3.599-1.988,5.397-2.98
	c0.88,0.236,1.76,0.471,2.64,0.709c0.158,8.35-0.671,15.875,5.45,24.086c5.576,7.48,2.851,18.936,0.374,31.648
	c-6.07-11.857,0.26-22.475-6.863-32.732c-3.78,15.398-0.875,28.473,1.062,41.566c-0.893,0.271-1.785,0.543-2.678,0.814
	c-1.775-0.967-3.548-1.938-5.323-2.906C278.615,327.213,278.595,307.145,278.576,287.076z"/>
<path fill-rule="evenodd" clip-rule="evenodd" fill="#D3C6C0" d="M886.651,355.275c3.493,21.701,8.345,43.355,2.185,65.377
	c-6.865,1.885-7.816-1.801-7.757-7.521c0.201-19.311,0.059-38.623,0.048-57.938C882.969,355.223,884.81,355.25,886.651,355.275z"/>
<path fill-rule="evenodd" clip-rule="evenodd" fill="#D2D3D5" d="M920.233,284.873c1.806-0.182,3.611-0.365,5.414-0.549
	c0.941,21.861,1.276,43.717-0.207,65.568l-1.302-0.051l-1.253,0.357c-0.915-0.119-1.831-0.242-2.747-0.365l-0.992,0.826
	c0,0-0.948-0.877-0.936-0.881c2.302-3.619,2.902-6.449-1.064-9.996c-9.604-8.592-7.961-23.291-2.877-28.965
	C922.308,301.854,919.091,293.561,920.233,284.873z"/>
<path fill-rule="evenodd" clip-rule="evenodd" fill="#D2D3D5" d="M320.536,283.992c1.554,1.051,3.107,2.104,4.661,3.154
	c-0.506,20.113-1.011,40.227-1.517,60.34c-0.69,0.545-1.381,1.092-2.074,1.631c-1.472-2.631-2.479-5.703-4.497-7.801
	c-6.816-7.086-10.986-27.244-4.772-33.244c7.446-7.191,6.597-14.871,5.606-23.295C318.808,284.516,319.672,284.254,320.536,283.992z
	"/>
<path fill-rule="evenodd" clip-rule="evenodd" fill="#EA656C" d="M275.782,102.229c-25.121,3.995-25.132,3.972-19.016-18.58
	c1.812-6.68,3.532-13.386,6.12-23.217C270.134,75.5,271.392,89.295,275.782,102.229z"/>
<path fill-rule="evenodd" clip-rule="evenodd" fill="#F8EFE7" d="M350.033,116.791c0.018,7.02,0.034,14.041,0.052,21.063
	c-5.395,7.351-13.616,3.366-20.258,3.916c-2.479,0.205-1.033-8.491-1.254-13.102c-0.313-6.522,0.033-13.074,0.099-19.616
	c4.587-0.048,9.233,0.348,13.749-0.248C349.064,107.927,350.088,111.668,350.033,116.791z M343.673,134.693
	c2.995-6.867,4.501-13.665-0.915-22.421C340.744,121.346,340.77,128.054,343.673,134.693z"/>
<path fill-rule="evenodd" clip-rule="evenodd" fill="#D2D3D5" d="M320.564,127.123c5.39,13.422,4.494,15.002-8.679,15.084
	c-7.788,0.051-15.585,0.266-23.357-0.087c-3.377-0.153-8.706,2.396-9.417-3.583c-0.503-4.246-2.335-9.987,4.834-11.36
	C296.152,127.159,308.357,127.141,320.564,127.123z M284.336,136.407c11.844,0,23.688,0,35.532,0
	C308.028,132.072,296.202,132.813,284.336,136.407z"/>
<path fill-rule="evenodd" clip-rule="evenodd" fill="#272735" d="M323.384,415.404c0.335-7.059,0.668-14.119,0.992-21.113
	c-0.33-2.934-0.649-5.938-0.969-8.936c0-1.807,0-3.611,0-5.418l0.343-0.012c-0.132-1.277-0.264-2.553-0.394-3.826
	c1.118-2.615,1.111-5.229-0.001-7.842c1.104-4.453,1.295-8.926,0.266-13.422c-0.001,0.002-0.263,0.176-0.263,0.176
	c1.807,0.072,3.615,0.145,5.422,0.215c0.155,20.174,0.309,40.346,0.464,60.516c-0.426,0.453-0.44,0.918-0.044,1.395l-0.967,0.793
	c-1.064-0.098-2.128-0.195-3.192-0.295c-0.521-0.023-1.032,0.041-1.531,0.197C323.467,417.023,323.426,416.213,323.384,415.404z"/>
<path fill-rule="evenodd" clip-rule="evenodd" fill="#FDFBF4" d="M328.935,214.909c21.375-1.046,21.331-1.046,21.432,20.229
	c0.066,13.811,0.289,27.616,0.442,41.424c-0.618,3.57-5.925,1.369-6.356,5.168c-4.523,0.055-9.044,0.109-13.566,0.164
	c-2.675-1.08-2.174-3.164-1.664-5.25c17.547-0.215,17.548-0.215,17.559-17.76c0.004-7.395,0.004-14.788-0.001-22.181
	c-0.013-17.598-0.015-17.598-17.514-17.811C329.156,217.566,329.045,216.236,328.935,214.909z"/>
<path fill-rule="evenodd" clip-rule="evenodd" fill="#272735" d="M925.44,349.893c1.483-21.852,1.148-43.707,0.207-65.568
	l0.003,0.018c1.951,0.115,3.905,0.23,5.859,0.346c-0.302,20.865-0.606,41.732-0.908,62.602
	C928.881,348.156,927.162,349.023,925.44,349.893z"/>
<path fill-rule="evenodd" clip-rule="evenodd" fill="#414149" d="M825.96,454.883c19.441,0.021,38.881,0.033,58.323,0.096
	c1.256,0.006,2.509,0.453,3.765,0.697c0.062,1.334,0.123,2.67,0.185,4.006c-20.76,0-41.516,0-62.272,0
	C825.96,458.082,825.96,456.482,825.96,454.883z"/>
<path fill-rule="evenodd" clip-rule="evenodd" fill="#272735" d="M323.681,347.486c0.505-20.113,1.01-40.227,1.517-60.34
	c1.029-0.021,2.06-0.045,3.091-0.068c0.017,20.076,0.035,40.152,0.052,60.229c-1.644,0.066-3.289,0.131-4.933,0.195L323.681,347.486
	z"/>
<path fill-rule="evenodd" clip-rule="evenodd" fill="#F8EFE7" d="M354.547,276.549c0.336-15.686,0.674-31.367,1.012-47.052
	c7.969,4.138,3.258,11.478,4.202,17.314c1.902,11.754-4.818,25.127,7.449,34.455c-3.813,4.156-6.949-0.178-10.082,0.582
	C354.566,280.91,355.342,278.348,354.547,276.549z"/>
<path fill-rule="evenodd" clip-rule="evenodd" fill="#272735" d="M278.576,287.076c0.019,20.068,0.04,40.137,0.059,60.205
	c-1.294-0.092-2.59-0.184-3.884-0.273l-0.743-0.279l-0.559,0.562c0.401-20.066,0.802-40.131,1.202-60.195
	C275.959,287.088,277.268,287.084,278.576,287.076z"/>
<path fill-rule="evenodd" clip-rule="evenodd" fill="#272735" d="M956.706,287.096c0.003,20.053,0.003,40.109,0.005,60.166
	c-1.322-0.078-2.645-0.154-3.967-0.23l-0.695-0.303l-0.463,0.602c0.033-20.098,0.066-40.191,0.1-60.287l0.399,0.572l0.644-0.273
	C954.054,287.26,955.381,287.178,956.706,287.096z"/>
<path fill-rule="evenodd" clip-rule="evenodd" fill="#F8EFE7" d="M253.697,268.744c4.826,1.723,5.809,10.881,13.221,7.283
	c6.839-3.316,3.458-9.957,3.754-15.109c0.521-9.062-0.471-18.228,0.331-27.248c0.712-8.01-1.729-13.879-7.999-18.483
	c8.42-2.394,11.575,0.463,11.208,9.452c-0.617,15.092-0.976,30.283,0.096,45.323c0.779,10.924-5.657,8.676-11.983,9.328
	C253.358,280.217,251.978,276.012,253.697,268.744z"/>
<path fill-rule="evenodd" clip-rule="evenodd" fill="#D2D3D5" d="M920.364,417.875c-0.005-20.01-0.011-40.021-0.016-60.033
	c1.734-0.025,3.471-0.049,5.204-0.072c-0.03,15.727-0.063,31.455-0.094,47.18C920.827,408.104,925.192,414.801,920.364,417.875z"/>
<path fill-rule="evenodd" clip-rule="evenodd" fill="#FDFBF4" d="M933.333,420.246c15.13-0.539,17.302-9.941,15.9-22.457
	c-0.725-6.447-0.742-13.115,0.002-19.561c1.438-12.447-0.097-22.227-15.683-22.58c2.591-0.186,5.205-0.207,7.768-0.59
	c8.002-1.201,11.598,1.047,10.943,10.189c-0.9,12.551-0.226,25.213-0.23,37.83C952.028,421.67,952.025,421.67,933.333,420.246z"/>
<path fill-rule="evenodd" clip-rule="evenodd" fill="#7C777A" d="M253.156,146.404c32.073,0,64.146,0,96.219,0
	c-0.001,0.409-0.002,0.818-0.005,1.228c-32.118,0-64.236,0-96.354,0C253.062,147.222,253.108,146.813,253.156,146.404z"/>
<path fill-rule="evenodd" clip-rule="evenodd" fill="#FDFBF4" d="M346.854,354.482c5.389,2.584,3.119,7.527,3.212,11.469
	c0.283,12.094,0.091,24.199,0.101,36.299c0.017,19.412,0.023,19.412-19.214,18.053c-0.584-1.057-1.17-2.109-1.754-3.166
	c-0.396-0.477-0.381-0.941,0.044-1.393c16.176,4.355,17.466,3.436,17.53-12.672c0.033-8.289-0.667-16.646,0.165-24.85
	c1.266-12.479-0.335-22.158-15.762-22.658C336.403,355.205,341.628,354.844,346.854,354.482z"/>
<path fill-rule="evenodd" clip-rule="evenodd" fill="#FDFBF4" d="M351.147,185.091c-3.683,7.872,3.866,17.698-4.306,24.79
	c-0.021-13.833-0.394-27.679,0.058-41.498c0.302-9.225-1.758-14.539-12.385-11.48c-2.041,0.588-3.007-1.002-3.401-2.846
	c6.341-0.238,12.681-0.479,19.022-0.716c0.333,8.726,0.665,17.455,0.996,26.181C351.137,181.377,351.142,183.234,351.147,185.091z"
	/>
<path fill-rule="evenodd" clip-rule="evenodd" fill="#272735" d="M321.608,349.125c0.692-0.547,1.382-1.094,2.073-1.639
	c0,0-0.273,0.016-0.273,0.018c-0.017,2.504-0.033,5.008-0.05,7.508c0,0,0.262-0.174,0.263-0.176
	c-13.424-0.168-26.85-0.34-40.275-0.51c0.205-1.377,0.408-2.758,0.612-4.139c0.893-0.271,1.785-0.543,2.678-0.814
	C298.292,349.291,309.951,349.207,321.608,349.125z"/>
<path fill-rule="evenodd" clip-rule="evenodd" fill="#272735" d="M320.536,283.992c-0.864,0.262-1.729,0.523-2.593,0.785
	c-10.443,0.01-20.887,0.018-31.33,0.027c-0.88-0.238-1.76-0.473-2.64-0.709c-0.069-1.432-0.137-2.861-0.205-4.293
	c12.253,0.045,24.505,0.094,36.758,0.141C320.53,281.293,320.534,282.641,320.536,283.992z"/>
<path fill-rule="evenodd" clip-rule="evenodd" fill="#FDFBF4" d="M274.651,287.096c-0.4,20.064-0.801,40.129-1.202,60.195
	c-5.395-11.418-1.711-23.518-2.501-35.279c-0.603-8.967-0.084-18.014-0.065-27.023C272.751,284.596,273.828,285.621,274.651,287.096
	z"/>
<path fill-rule="evenodd" clip-rule="evenodd" fill="#272735" d="M249.773,418.016c0.009-20.086,0.017-40.176,0.024-60.262
	c0.895,0.006,1.79,0.01,2.685,0.016c0.005,20.076,0.009,40.152,0.014,60.229C251.589,418.006,250.681,418.012,249.773,418.016z"/>
<path fill-rule="evenodd" clip-rule="evenodd" fill="#FDFBF4" d="M349.428,347.301c-4.271-20.109-4.442-40.207,0.119-60.299
	C350.479,307.104,350.72,327.205,349.428,347.301z"/>
<path fill-rule="evenodd" clip-rule="evenodd" fill="#FDFBF4" d="M270.717,209.607c0.028-18.792,0.058-37.587,0.087-56.382
	c6.855,11.923,2.066,24.838,2.83,37.25C274.019,196.707,277.174,204.129,270.717,209.607z"/>
<path fill-rule="evenodd" clip-rule="evenodd" fill="#FDFBF4" d="M253.681,177.119c4.817,1.604,3.636,4.813,2.587,8.414
	c-2.382,8.187-2.142,16.302,1.835,24.066c-1.775-0.396-3.552-0.792-5.329-1.191C253.076,197.978,253.379,187.549,253.681,177.119z"
	/>
<path fill-rule="evenodd" clip-rule="evenodd" fill="#4D4C53" d="M323.357,355.012c0.017-2.5,0.033-5.004,0.05-7.508
	c1.645-0.066,3.289-0.131,4.933-0.197c3.925,9.629,12.306,3.289,18.401,5.135c0.175,0.674,0.212,1.354,0.112,2.041
	c-5.226,0.361-10.451,0.723-15.676,1.082c-0.766-0.355-1.565-0.467-2.399-0.338C326.972,355.156,325.164,355.084,323.357,355.012z"
	/>
<path fill-rule="evenodd" clip-rule="evenodd" fill="#FDFBF4" d="M265.647,153.296c-8.616,1.793-5.905,12.125-11.955,15.854
	c-0.262-5.176-0.526-10.35-0.788-15.526C257.126,152.465,261.37,152.217,265.647,153.296z"/>
<path fill-rule="evenodd" clip-rule="evenodd" fill="#F8EFE7" d="M988.91,417.908c10.915-0.83,22.618,3.344,32.328-5.109
	c0.349,0.838,0.699,1.678,1.047,2.52l-1.144,0.045c-0.433,1.691-0.864,3.381-1.297,5.072c0,0,0.284-0.135,0.284-0.139
	c-9.729,0.363-19.457,0.729-29.186,1.092c-0.812-0.35-1.624-0.699-2.436-1.051C988.414,419.488,988.547,418.682,988.91,417.908z"/>
<path fill-rule="evenodd" clip-rule="evenodd" fill="#272735" d="M320.564,127.123c-12.207,0.018-24.413,0.036-36.619,0.054
	c-0.045-0.821-0.042-1.639,0.008-2.46c12.19-0.071,24.38-0.143,36.57-0.217C320.538,125.374,320.55,126.249,320.564,127.123z"/>
<path fill-rule="evenodd" clip-rule="evenodd" fill="#414149" d="M988.899,426.062c-0.325,4.303-0.652,8.607-0.977,12.914
	c-1.392,0.055-2.783,0.111-4.174,0.164c-0.31-3.596-0.614-7.191-0.921-10.787c0.299-0.783,0.294-1.562-0.018-2.34
	C984.841,426.029,986.869,426.047,988.899,426.062z"/>
<path fill-rule="evenodd" clip-rule="evenodd" fill="#FDFBF4" d="M957.532,418.064c8.429-0.051,16.856-0.102,25.283-0.15
	C974.416,422.883,965.987,422.604,957.532,418.064z"/>
<path fill-rule="evenodd" clip-rule="evenodd" fill="#EFF0EF" d="M920.364,417.875c4.828-3.074,0.463-9.771,5.095-12.926
	c-2.016,5.025,6.171,13.484-5.174,15.365C920.29,419.502,920.315,418.689,920.364,417.875z"/>
<path fill-rule="evenodd" clip-rule="evenodd" fill="#272735" d="M849.673,354.941c-0.897,0.186-1.796,0.373-2.693,0.561
	c-1.733-0.693-4.381,0.336-4.989-2.461c-0.43-1.977,0.977-2.926,2.496-3.699c1.711,0.008,3.422,0.016,5.13,0.023l-0.567,0.521
	l0.389,0.666C849.517,352.016,849.594,353.479,849.673,354.941z"/>
<path fill-rule="evenodd" clip-rule="evenodd" fill="#F8EFE7" d="M253.695,242.555c1.688,0.458,3.662,0.959,2.988,3.204
	c-0.265,0.885-1.95,1.34-2.987,1.993C253.695,246.021,253.695,244.289,253.695,242.555z"/>
<path fill-rule="evenodd" clip-rule="evenodd" fill="#EFF0EF" d="M925.553,357.77c-1.733,0.023-3.47,0.047-5.204,0.072
	c0.023-0.867,0.354-1.578,0.99-2.139C923.344,355.168,925.699,353.918,925.553,357.77z"/>
<path fill-rule="evenodd" clip-rule="evenodd" fill="#989493" d="M850.957,360.877c-0.532-1.811-1.064-3.621-1.597-5.432
	C852.801,356.4,851.862,358.645,850.957,360.877z"/>
<path fill-rule="evenodd" clip-rule="evenodd" fill="#F8EFE7" d="M253.687,234.696c0.72,0.596,1.441,1.192,2.162,1.788
	c-0.72,0.266-1.438,0.532-2.157,0.798C253.689,236.419,253.688,235.558,253.687,234.696z"/>
<path fill-rule="evenodd" clip-rule="evenodd" fill="#4D4C53" d="M354.747,289.436c0.01,1.926,0.019,3.852,0.029,5.777
	C354.766,293.287,354.757,291.361,354.747,289.436z"/>
<path fill-rule="evenodd" clip-rule="evenodd" fill="#4D4C53" d="M354.789,346.867c0.84,1.008,1.68,2.018,2.521,3.025
	C356.469,348.885,355.629,347.875,354.789,346.867z"/>
<path fill-rule="evenodd" clip-rule="evenodd" fill="#989493" d="M851.018,346.832c0.289,1,0.578,2.002,0.865,3.002
	c-0.872,0.043-1.688,0.283-2.445,0.719l-0.389-0.666c0,0,0.567-0.521,0.57-0.521C850.085,348.521,850.553,347.676,851.018,346.832z"
	/>
<path fill-rule="evenodd" clip-rule="evenodd" fill="#4D4C53" d="M362.458,350.193c3.01,0.639,2.344,1.812,0.459,3.164
	C362.764,352.305,362.611,351.248,362.458,350.193z"/>
<path fill-rule="evenodd" clip-rule="evenodd" fill="#272735" d="M920.139,349.834c0.916,0.123,1.832,0.246,2.747,0.365
	c-0.169,1.457-0.338,2.914-0.507,4.371C918.62,354.416,917.535,352.998,920.139,349.834z"/>
<path fill-rule="evenodd" clip-rule="evenodd" fill="#4D4C53" d="M255.106,354.586c-0.751,0.439-1.503,0.879-2.253,1.318
	C252.959,354.365,253.489,353.549,255.106,354.586z"/>
<path fill-rule="evenodd" clip-rule="evenodd" fill="#F5EAE1" d="M329.199,417.137c0.584,1.057,1.17,2.109,1.754,3.166l0.5,0.43
	l-0.238,0.615c-0.851-0.402-1.701-0.811-2.551-1.215c0.085-0.779-0.059-1.514-0.432-2.203L329.199,417.137z"/>
<path fill-rule="evenodd" clip-rule="evenodd" fill="#4D4C53" d="M328.664,420.133c0.851,0.404,1.701,0.812,2.551,1.215
	C329.588,422.574,328.854,421.924,328.664,420.133z"/>
<path fill-rule="evenodd" clip-rule="evenodd" fill="#4D4C53" d="M931.031,420.074c0.839,0.42,1.681,0.842,2.52,1.264
	C931.886,422.562,931.18,421.873,931.031,420.074z"/>
<path fill-rule="evenodd" clip-rule="evenodd" fill="#414149" d="M988.508,420.338c0.812,0.352,1.624,0.701,2.436,1.051
	C989.56,422.361,988.869,421.73,988.508,420.338z"/>
<path fill-rule="evenodd" clip-rule="evenodd" fill="#E5E8D0" d="M982.811,426.014c0.312,0.777,0.316,1.557,0.018,2.34
	c-0.709-0.68-1.417-1.361-2.125-2.041C981.375,426.004,982.079,425.904,982.811,426.014z"/>
<path fill-rule="evenodd" clip-rule="evenodd" fill="#F8EFE7" d="M850.228,192.715c0.366,2.509,0.731,5.02,1.098,7.532
	c-0.624-0.184-1.254-0.327-1.896-0.427c-4.803-3.127-10.187-1.729-15.296-1.736c-64.053-0.1-128.107-0.322-192.154,0.184
	c-10.726,0.084-18.421-1.13-19.977-13.291c-0.007-2.64-0.013-5.276-0.018-7.916c70.195-0.002,140.388,0.064,210.583-0.095
	c8.531-0.021,16.158-0.248,14.754,11.818C847.187,189.965,849.207,191.397,850.228,192.715z"/>
<path fill-rule="evenodd" clip-rule="evenodd" fill="#EFF0EF" d="M882.575,214.917c11.667-0.287,23.345-0.355,34.993-0.944
	c6.959-0.351,9.072,2.606,8.537,9.181c-0.596,7.31-0.491,14.678-0.69,22.02c-6.146-0.412-7.94,2.87-7.887,8.514
	c0.051,5.611,0.542,10.299,7.882,9.785c0.092,5.258,0.184,10.516,0.276,15.775l-0.098,0.076c-12.355,0.074-24.71,0.248-37.065,0.156
	c-3.373-0.023-8.604,1.48-6.82-5.404c13.841-19.273,13.176-28.002-0.003-44.746c-0.005-1.67-0.008-3.342-0.013-5.015
	C889.191,221.865,883.695,218.185,882.575,214.917z M903.07,227.013c0,13.509,0,27.017,0,40.526
	C907.288,254.035,907.088,240.591,903.07,227.013z"/>
<path fill-rule="evenodd" clip-rule="evenodd" fill="#EA656C" d="M883.278,109.078c11.345-22.951,12.721-48.7,20.933-73.08
	c7.36,29.26,15.021,58.167,18.506,87.985c-8.112,0.031-16.321-0.716-24.316,0.269C886.138,125.763,879.217,123.233,883.278,109.078z
	"/>
<path fill-rule="evenodd" clip-rule="evenodd" fill="#EFF0EF" d="M920.233,284.873c-1.143,8.688,2.074,16.98-5.964,25.945
	c-5.084,5.674-6.727,20.373,2.877,28.965c3.967,3.547,3.366,6.377,1.064,9.996c-2.709,0.244-5.401,0.484-8.023,0.73
	c-9.237-2.08-22.574,3.766-27.211-3.18c-4.69-7.023-1.589-19.357-1.606-29.367c-0.066-34-0.016-34.004,33.664-33.514
	C916.769,284.475,918.5,284.729,920.233,284.873z M902.47,339.051c0.813-0.076,1.626-0.152,2.442-0.23c0-13.59,0-27.18,0-40.771
	c-0.816,0.031-1.629,0.064-2.442,0.098C902.47,311.781,902.47,325.418,902.47,339.051z M893.271,307.955
	c-4.606,10.168-4.729,20.498,0,31.002C893.271,328.625,893.271,318.289,893.271,307.955z"/>
<path fill-rule="evenodd" clip-rule="evenodd" fill="#F5EAE1" d="M924.034,187.344c2.856,2.841,1.499,6.534,2.046,9.859
	c1.657,10.061-2.104,14.294-12.578,13.179c-10.564-1.128-24.866,4.381-30.799-2.187c-5.223-5.777-1.369-19.823-1.392-30.217
	c-0.057-26.357-0.028-26.459,26.49-26.375c20.736,0.069,18.703-1.744,17.866,17.662c-13.015-2.852-14.675,4.727-13.354,14.747
	c0.583,4.419-2.553,11.015,3.158,12.683C921.955,198.587,920.822,190.288,924.034,187.344z M902.666,199.341
	c4.885-13.437,4.161-26.933,3.645-40.429c-1.215,0.005-2.43,0.01-3.645,0.015C902.666,172.401,902.666,185.871,902.666,199.341z
	 M893.37,167.271c-1.269,0.031-2.537,0.059-3.806,0.087c0.532,10.785-2.049,21.641,3.806,32.28
	C893.37,188.851,893.37,178.061,893.37,167.271z"/>
<path fill-rule="evenodd" clip-rule="evenodd" fill="#F8EFE7" d="M873.112,279.855c-17.228-0.668-17.191-0.668-17.24-18.408
	c-0.041-15.097-0.185-30.191-0.281-45.288c-0.003,0-0.069,0.013-0.069,0.013c21.166,0.432,21.289,0.435,21.146,21.833
	c-0.095,13.725-0.611,27.452-0.937,41.178C874.858,279.408,873.984,279.631,873.112,279.855z"/>
<path fill-rule="evenodd" clip-rule="evenodd" fill="#F5EAE1" d="M952.333,209.346c0,0-0.139,0.248-0.139,0.24
	c-21.102,1.442-21.104,1.442-21.125-18.777c-0.007-8.655,0.747-17.391-0.184-25.946c-1.202-11.074,3.048-14.22,13.662-13.396
	c6.463,0.504,7.951,2.66,7.854,8.542C952.125,176.449,952.322,192.899,952.333,209.346z"/>
<path fill-rule="evenodd" clip-rule="evenodd" fill="#FDFBF4" d="M850.228,192.715c-1.021-1.317-3.041-2.75-2.905-3.931
	c1.404-12.066-6.223-11.838-14.754-11.818c-70.195,0.159-140.388,0.092-210.583,0.095c-0.774-2.432,1.153-3.396,2.529-4.663
	c60.963,0.225,121.926,0.456,182.888,0.673c8.711,0.031,17.425-0.01,26.136,0C852.226,173.096,852.226,173.102,850.228,192.715z"/>
<path fill-rule="evenodd" clip-rule="evenodd" fill="#F5EAE1" d="M855.215,200.732c0.207-12.153,0.877-24.324,0.468-36.454
	c-0.281-8.337,1.1-12.381,11.059-12.363c9.58,0.015,10.396,4.163,10.12,11.662c-0.417,11.286-0.931,22.677,0.125,33.879
	c1.085,11.48-3.585,14.723-13.94,13.071c-2.555-0.409-5.187-0.348-7.782-0.504C856.235,206.921,856.433,203.822,855.215,200.732z"/>
<path fill-rule="evenodd" clip-rule="evenodd" fill="#F5EAE1" d="M936.719,214.75c4.131-0.043,8.259-0.089,12.389-0.133
	c0,13.884-0.711,27.817,0.213,41.641c0.828,12.422-0.363,22.078-15.795,22.441c-0.752,0.285-1.527,0.41-2.33,0.377
	c0.189-19.752,0.381-39.5,0.578-59.254C933.425,218.128,935.072,216.44,936.719,214.75z"/>
<path fill-rule="evenodd" clip-rule="evenodd" fill="#F5EAE1" d="M875.482,349.504c-6.152-0.732-12.779,2.805-18.482-2.031
	c5.394-20.658,4.324-41.375,0.532-62.111c6.089-0.316,12.181-0.637,18.271-0.953l-0.335,0.51c0.212,0.762,0.184,1.514-0.082,2.258
	c-3.823,19.979-3.353,39.969-0.156,59.965C875.439,347.916,875.523,348.703,875.482,349.504z"/>
<path fill-rule="evenodd" clip-rule="evenodd" fill="#F5EAE1" d="M930.336,111.717c6.383-6.501,14.439-1.414,21.519-3.11
	c0.156,7.319-0.187,14.693,0.593,21.946c0.957,8.913-2.112,11.248-11.201,11.729c-16.266,0.862-8.384-11.077-10.795-17.542
	c0.002-2.667,0.002-5.335,0.005-8.002C930.415,115.064,930.374,113.389,930.336,111.717z M946.317,134.663
	c2.608-6.844,4.161-13.665-0.872-22.726C943.355,121.274,943.379,127.99,946.317,134.663z"/>
<path fill-rule="evenodd" clip-rule="evenodd" fill="#EA656C" d="M951.831,104.083c-21.587-1.629-21.917-1.726-15.401-23.544
	c1.88-6.302,0.611-14.181,7.425-18.603c2.984,11.465,5.975,22.93,8.946,34.398C953.501,99.034,955.662,101.939,951.831,104.083z"/>
<path fill-rule="evenodd" clip-rule="evenodd" fill="#D2D3D5" d="M922.873,126.99c0.88,0.107,1.76,0.217,2.64,0.325
	c3.972,12.117-0.428,16.605-12.934,15.243c-7.68-0.834-15.534-0.381-23.291-0.067c-6.109,0.246-8.391-2.028-8.286-8.278
	c0.103-6.184,3.245-6.92,8.22-6.885C900.438,127.404,911.656,127.123,922.873,126.99z M886.408,134.164
	c0.019,0.698,0.033,1.396,0.049,2.095c11.928,0,23.856,0,35.784,0c-0.021-0.698-0.038-1.396-0.059-2.095
	C910.257,134.164,898.334,134.164,886.408,134.164z"/>
<path fill-rule="evenodd" clip-rule="evenodd" fill="#D2D3D5" d="M881.7,229.33c13.179,16.744,13.844,25.473,0.003,44.746
	C881.7,259.16,881.7,244.246,881.7,229.33z"/>
<path fill-rule="evenodd" clip-rule="evenodd" fill="#FDFBF4" d="M846.995,278.881c-1.319-20.828,2.905-41.883-2.586-62.54
	c1.85-0.207,3.698-0.415,5.545-0.622c0.297,0.683,0.813,0.969,1.55,0.854c-0.158,18.971-0.317,37.945-0.476,56.917
	c-0.509,1.867-1.021,3.734-1.532,5.602l0.223,0.455C848.811,279.326,847.903,279.104,846.995,278.881z"/>
<path fill-rule="evenodd" clip-rule="evenodd" fill="#FDFBF4" d="M875.229,347.141c-3.196-19.996-3.667-39.986,0.156-59.965
	c0.46,0.531,1.03,0.715,1.716,0.553c-0.035,19.594-0.074,39.189-0.109,58.785C876.281,346.375,875.692,346.586,875.229,347.141z"/>
<path fill-rule="evenodd" clip-rule="evenodd" fill="#D3C6C0" d="M924.034,187.344c-3.212,2.943-2.079,11.243-8.562,9.35
	c-5.711-1.667-2.575-8.263-3.158-12.683c-1.32-10.02,0.34-17.598,13.354-14.747C925.814,175.354,928.748,181.695,924.034,187.344z"
	/>
<path fill-rule="evenodd" clip-rule="evenodd" fill="#F8EFE7" d="M851.018,346.832c-0.465,0.844-0.933,1.689-1.398,2.533
	c-1.711-0.008-3.422-0.016-5.133-0.023c5.316-14.402,1.104-29.35,2.547-43.965c0.442-4.463-2.207-9.816,3.294-13.033
	C850.558,310.508,850.788,328.67,851.018,346.832z"/>
<path fill-rule="evenodd" clip-rule="evenodd" fill="#FDFBF4" d="M857.532,285.361c3.792,20.736,4.861,41.453-0.532,62.111
	C855.77,326.758,854.604,306.041,857.532,285.361z"/>
<path fill-rule="evenodd" clip-rule="evenodd" fill="#7C777A" d="M854.842,146.171c32.405,0,64.809,0,97.212,0
	c0.005,0.468,0.008,0.936,0.011,1.404c-32.266,0-64.53,0-96.799,0C855.125,147.107,854.984,146.639,854.842,146.171z"/>
<path fill-rule="evenodd" clip-rule="evenodd" fill="#414149" d="M624.515,172.398c-1.376,1.266-3.304,2.23-2.529,4.663
	c0.005,2.639,0.011,5.276,0.018,7.916c1.458,5.109-5.187,12.514,4.343,15.339c-5.199,11.1-13.36,5.182-20.708,3.647
	c9.9-2.501,12.649-9,11.384-18.605c-0.839-6.348-0.314-12.872-0.401-19.317c-0.33-0.611-0.529-1.263-0.597-1.956
	c1.65,0.79,3.302,1.581,4.954,2.371c0.731,1.852,1.99,2.527,3.897,1.757l-0.353,0.762
	C624.52,170.114,624.518,171.257,624.515,172.398z"/>
<path fill-rule="evenodd" clip-rule="evenodd" fill="#414149" d="M931.195,279.076c0.803,0.033,1.578-0.092,2.33-0.377
	c6.106,0.178,12.212,0.352,18.316,0.527c1.774-0.025,3.55-0.051,5.324-0.076c3.062,0.889,6.975-1.303,9.558,3.004
	c-1.76,4.578-8.56-0.029-10.018,4.941c-1.325,0.082-2.652,0.164-3.978,0.246c-6.465-5.76-14.198-1.35-21.219-2.654
	c-1.954-0.115-3.908-0.23-5.859-0.346c-0.021-1.672-0.041-3.346-0.062-5.018l0.098-0.076
	C927.522,279.191,929.358,279.133,931.195,279.076z"/>
<path fill-rule="evenodd" clip-rule="evenodd" fill="#FDFBF4" d="M951.842,279.227c-6.104-0.176-12.21-0.35-18.316-0.527
	c15.432-0.363,16.623-10.02,15.795-22.441c-0.924-13.823-0.213-27.756-0.213-41.641c0.908,0.097,1.813,0.197,2.722,0.294
	c0.263,4.005,0.526,8.01,0.79,12.015C952.36,244.36,952.103,261.793,951.842,279.227z"/>
<path fill-rule="evenodd" clip-rule="evenodd" fill="#F5EAE1" d="M925.41,263.473c-7.34,0.514-7.831-4.174-7.882-9.785
	c-0.054-5.644,1.741-8.925,7.887-8.514C925.415,251.273,925.41,257.373,925.41,263.473z"/>
<path fill-rule="evenodd" clip-rule="evenodd" fill="#414149" d="M851.504,216.574c-0.736,0.115-1.253-0.171-1.55-0.854
	c-1.084-0.67-2.169-1.337-3.253-2.005c1.327-3.593,6.49-8.45-3.307-7.859c-3.273,0.197-8.998,2.987-9.55-4.127
	c5.256-0.617,10.419-1.261,15.585-1.908c0.642,0.1,1.271,0.243,1.896,0.427c1.296,0.161,2.593,0.322,3.89,0.486
	c1.218,3.089,1.021,6.189,0.049,9.292c0.087,2.048,0.171,4.097,0.256,6.146c0.002,0.002,0.068-0.01,0.071-0.01
	C854.228,216.297,852.867,216.436,851.504,216.574z"/>
<path fill-rule="evenodd" clip-rule="evenodd" fill="#D2D3D5" d="M882.575,214.917c1.12,3.268,6.616,6.948-0.888,9.398
	C881.03,221.093,880.266,217.86,882.575,214.917z"/>
<path fill-rule="evenodd" clip-rule="evenodd" fill="#4D4C53" d="M873.112,279.855c0.872-0.225,1.746-0.447,2.618-0.672
	c2.32,1.26,2.448,3.416,2.32,5.678c-0.864-0.146-1.727-0.125-2.583,0.057l0.335-0.51
	C874.907,282.891,874.01,281.373,873.112,279.855z"/>
<path fill-rule="evenodd" clip-rule="evenodd" fill="#414149" d="M846.995,278.881c0.908,0.223,1.815,0.445,2.724,0.666
	c-1.856,2.555-4.629,2.314-7.299,2.383C842.545,278.811,845.387,279.771,846.995,278.881z"/>
<path fill-rule="evenodd" clip-rule="evenodd" fill="#989493" d="M849.496,279.092c0.512-1.867,1.023-3.734,1.532-5.602
	C852.133,275.799,853.069,278.061,849.496,279.092z"/>
<path fill-rule="evenodd" clip-rule="evenodd" fill="#FDFBF4" d="M936.719,214.75c-1.646,1.69-3.294,3.378-4.945,5.072
	C931.251,216.019,932.927,214.351,936.719,214.75z"/>
<path fill-rule="evenodd" clip-rule="evenodd" fill="#F8EFE7" d="M849.637,287.037c-0.854-0.703-1.708-1.406-2.562-2.109
	C848.88,284.477,849.54,285.414,849.637,287.037z"/>
<path fill-rule="evenodd" clip-rule="evenodd" fill="#989493" d="M875.468,284.918c0.856-0.182,1.719-0.203,2.583-0.057
	c-0.317,0.955-0.635,1.91-0.949,2.867c-0.686,0.162-1.256-0.021-1.716-0.553C875.651,286.432,875.68,285.68,875.468,284.918z"/>
<path fill-rule="evenodd" clip-rule="evenodd" fill="#F8EFE7" d="M850.44,289.209c-0.338-0.709-0.609-1.439-0.813-2.197
	c0.476,0.463,0.979,0.902,1.391,1.414C851.069,288.49,850.645,288.939,850.44,289.209z"/>
<path fill-rule="evenodd" clip-rule="evenodd" fill="#989493" d="M875.229,347.141c0.463-0.555,1.052-0.766,1.763-0.627
	c0.915,1.711,0.432,2.719-1.51,2.99C875.523,348.703,875.439,347.916,875.229,347.141z"/>
<path fill-rule="evenodd" clip-rule="evenodd" fill="#EA656C" d="M854.972,103.563c3.844-14.432,7.363-27.644,11.414-42.855
	c7.046,13.063,7.025,25.961,11.335,37.523c1.514,4.057-1.179,5.353-4.818,5.34C867.314,103.548,861.729,103.563,854.972,103.563z"/>
<path fill-rule="evenodd" clip-rule="evenodd" fill="#272735" d="M930.336,111.717c0.038,1.672,0.079,3.348,0.12,5.021
	C928.108,115.118,928.09,113.446,930.336,111.717z"/>
<path fill-rule="evenodd" clip-rule="evenodd" fill="#EA656C" d="M340.527,63.289c2.807,10.36,5.74,20.69,8.333,31.101
	c0.666,2.675,2.631,6.727-0.769,8.136c-5.619,2.332-11.987,1.836-17.74,0.289c-3.879-1.043-2.015-5.25-1.341-7.846
	c2.766-10.654,5.916-21.211,8.923-31.805C338.797,63.204,339.661,63.248,340.527,63.289z"/>
<path fill-rule="evenodd" clip-rule="evenodd" fill="#EFF0EF" d="M20.673,426.328c10.075-0.248,20.15-0.496,30.226-0.744
	c5.492-0.014,10.986-0.025,16.479-0.041c1.263,0.006,2.526,0.01,3.789,0.016c48.223,0.07,96.445,0.143,144.668,0.215
	c0.757,4.982,1.513,9.961,2.27,14.943c-6.349,2.426-12.965,1.209-19.444,1.223c-54.099,0.107-108.203-0.344-162.294,0.352
	C23.719,442.455,17.251,440.215,20.673,426.328z"/>
<path fill-rule="evenodd" clip-rule="evenodd" fill="#272735" d="M1025.701,339.793c0.262,6.9,0.522,13.801,0.783,20.701
	c-0.558,0.807-0.532,1.6,0.074,2.375c-1.368,16.646-1.228,33.295-0.12,49.949c-0.351,0.867-0.698,1.734-1.049,2.604
	c-1.036-0.035-2.069-0.07-3.104-0.104c-0.348-0.842-0.698-1.682-1.047-2.52c0.387-25.324,0.775-50.646,1.162-75.971
	c0.928,0.008,1.854,0.016,2.779,0.023C1025.354,337.832,1025.527,338.811,1025.701,339.793z"/>
<path fill-rule="evenodd" clip-rule="evenodd" fill="#F8EFE7" d="M1021.139,336.488c-3.749-1.314-3.626-3.051-0.555-5.107
	C1020.769,333.084,1020.952,334.785,1021.139,336.488z"/>
<path fill-rule="evenodd" clip-rule="evenodd" fill="#272735" d="M988.102,287.01c-0.166,2.049,0.839,5.047-3.207,3.951
	C985.961,289.648,987.03,288.328,988.102,287.01z"/>
<path fill-rule="evenodd" clip-rule="evenodd" fill="#989493" d="M1025.701,339.793c-0.174-0.982-0.348-1.961-0.521-2.941
	c0.9,0.762,1.803,1.527,2.703,2.289C1027.233,339.619,1026.507,339.836,1025.701,339.793z"/>
<path fill-rule="evenodd" clip-rule="evenodd" fill="#F8EFE7" d="M366.127,200.431c-0.866,0.097-1.761,0.389-2.591,0.258
	c-3.028-0.476-8.031,2.207-8.322-3.033c-0.285-5.141,4.716-3.89,7.882-3.923c12.97-0.133,25.944-0.057,40.37-0.057
	c-3.819-6.168-8.895-2.683-12.222-4.619c-1.06-1.491-2.12-2.979-3.18-4.471c0.655-5.301-2.992-4.977-6.455-4.974
	c-8.879,0.008-17.759-0.021-26.639-0.036c-1.069-10.954,7.44-6.391,11.675-6.412c62.263-0.305,124.529-0.205,186.793-0.228
	c5.223,0,10.443-0.185,15.666-0.284c0.286,6.77-0.155,13.67,1.033,20.278c1.699,9.455-9.602,6.686-11.083,12.815
	C494.593,207.441,430.429,201.461,366.127,200.431z"/>
<path fill-rule="evenodd" clip-rule="evenodd" fill="#EFF0EF" d="M616.62,166.04c0.087,6.445-0.438,12.969,0.401,19.317
	c1.266,9.606-1.483,16.104-11.384,18.605c-6.598-3.68-13.427-2.063-20.149-1.141c-2.212-4.079-11.544,1.719-10.289-7.708
	c0.866-6.494,1.017-12.13,10.439-10.486c4.528,0.791,9.97,1.704,15.661-2.337c-4.471-3.711-8.936-3.079-12.614-2.465
	c-11.006,1.839-15.644-2.264-14.089-13.319C588.605,166.35,602.612,166.196,616.62,166.04z"/>
<path fill-rule="evenodd" clip-rule="evenodd" fill="#F5EAE1" d="M574.651,161.245c0.637-4.233,4.238-6.458,6.837-9.064
	c4.978-4.995,10.208-15.849,15.229-13.411c8.197,3.977,13.622,13.665,20.214,20.94c-1.013,0.645-2.025,1.289-3.035,1.934
	c-7.854-0.026-15.706-0.054-23.558-0.08c-0.875,0-1.747,0-2.621,0C583.362,161.457,579.007,161.353,574.651,161.245z"/>
<path fill-rule="evenodd" clip-rule="evenodd" fill="#272735" d="M574.651,161.245c4.355,0.107,8.711,0.212,13.066,0.319
	c0.875,1.215,1.749,1.208,2.621,0c7.852,0.026,15.703,0.054,23.558,0.08c0.713,0.813,1.427,1.626,2.133,2.44
	c0.062,0.693,0.261,1.345,0.591,1.956c-14.008,0.156-28.015,0.31-42.022,0.466C574.616,164.751,574.634,163,574.651,161.245z"/>
<path fill-rule="evenodd" clip-rule="evenodd" fill="#989493" d="M624.875,168.211c-1.907,0.77-3.166,0.095-3.897-1.757
	c0.729-0.394,1.507-0.555,2.333-0.481C623.832,166.721,624.354,167.467,624.875,168.211z"/>
<path fill-rule="evenodd" clip-rule="evenodd" fill="#272735" d="M215.834,425.773c-48.223-0.072-96.445-0.145-144.668-0.215
	c0.228-1.512,0.453-3.025,0.679-4.539c11.331-0.121,22.663-0.242,33.994-0.363c0.729,1.424,1.618,1.531,2.664,0.322
	c10.462-0.127,20.924-0.248,31.385-0.371c0.831-0.078,1.661-0.152,2.492-0.227c0.321,0.229,0.641,0.453,0.962,0.682
	c-0.344-0.189-0.689-0.379-1.033-0.568c0.024-14.785,0.048-29.572,0.073-44.359c1.541,0.016,3.081,0.031,4.62,0.047
	c0.146,12.15,0.216,24.305,0.495,36.453c0.064,2.807-1.244,7.914,2.175,7.818c9.782-0.275,20.109,3.99,29.356-2.506l0.399,0.541
	l0.611-0.281c1.454,1.682,2.908,3.361,4.362,5.041c0.903-0.523,1.804-1.045,2.706-1.57c10.368-0.426,20.736-0.854,31.104-1.281
	c0,0,0.161,0.205,0.16,0.205C217.525,422.326,216.68,424.049,215.834,425.773z"/>
<path fill-rule="evenodd" clip-rule="evenodd" fill="#414149" d="M228.907,455.168c18.976,0,37.952,0,56.927,0
	c0,1.412-0.001,2.824-0.002,4.236c-18.976,0-37.951,0-56.925,0C228.907,457.992,228.907,456.58,228.907,455.168z"/>
<path fill-rule="evenodd" clip-rule="evenodd" fill="#4D4C53" d="M223.567,439.23c11.112,0,22.226,0,33.338,0
	c0,0.396,0.001,0.793,0.001,1.189c-11.174,0-22.347,0-33.521,0L223.567,439.23z"/>
<path fill-rule="evenodd" clip-rule="evenodd" fill="#4D4C53" d="M184.438,420.566c0.889,0.371,1.779,0.74,2.668,1.111
	c-0.901,0.525-1.803,1.047-2.706,1.57C184.413,422.354,184.425,421.459,184.438,420.566z"/>
<path fill-rule="evenodd" clip-rule="evenodd" fill="#4D4C53" d="M108.503,420.979c-1.046,1.209-1.935,1.102-2.664-0.322
	C106.727,420.764,107.616,420.871,108.503,420.979z"/>
<path fill-rule="evenodd" clip-rule="evenodd" fill="#3A3A43" d="M354.97,179.577c8.879,0.015,17.759,0.043,26.639,0.036
	c3.463-0.002,7.11-0.327,6.455,4.974c-10.225,0.223-20.45,0.445-30.676,0.665c-0.821-0.389-1.672-0.481-2.557-0.271
	c-1.228,0.036-2.457,0.074-3.684,0.11c-0.005-1.856-0.01-3.713-0.016-5.57C352.412,179.539,353.69,179.559,354.97,179.577z"/>
<polygon fill-rule="evenodd" clip-rule="evenodd" fill="#F0F5D9" points="356.522,166.843 356.532,166.818 356.346,167.337 "/>
<path fill-rule="evenodd" clip-rule="evenodd" fill="#272735" d="M67.378,425.543c-5.494,0.016-10.987,0.027-16.479,0.041
	C56.37,416.99,61.869,419.326,67.378,425.543z"/>
<path fill-rule="evenodd" clip-rule="evenodd" fill="#FDFBF4" d="M1060.635,422.732l-0.185,0.35
	c0.521-1.355,0.082-2.225-1.317-2.607c0,0-0.187,0.215-0.187,0.217c1.89,2.635,3.811,2.611,5.76,0.066l-0.228-0.387
	c0,0-0.107-0.131-0.107-0.127C1062.266,419.781,1061.021,420.609,1060.635,422.732z"/>
<path fill-rule="evenodd" clip-rule="evenodd" fill="#FDFBF4" d="M1095.688,399.646c-0.809-0.99-1.619-1.979-2.428-2.967
	C1094.771,397.094,1096.004,397.732,1095.688,399.646z"/>
<path fill-rule="evenodd" clip-rule="evenodd" fill="#3A3A43" d="M1059.133,420.475c1.399,0.383,1.839,1.252,1.317,2.607
	c-11.36,6.117-23.196,2.936-34.849,1.443c-1.667-0.213-0.383-2.807,0.734-4.084C1037.27,420.453,1048.2,420.463,1059.133,420.475z"
	/>
<path fill-rule="evenodd" clip-rule="evenodd" fill="#3A3A43" d="M1022.285,415.318c1.035,0.033,2.068,0.068,3.104,0.104
	c0.358,1.707,0.714,3.412,1.069,5.119c0.263,2.215,0.223,4.383-2.67,4.633c-3.248,0.281-4.532-1.465-4.08-4.607
	c2.399-1.211,1.916-3.207,1.433-5.203L1022.285,415.318z"/>
<path fill-rule="evenodd" clip-rule="evenodd" fill="#3A3A43" d="M1064.706,420.758c-1.949,2.545-3.87,2.568-5.76-0.066
	c0.562-2.262,0.412-5.438,1.859-6.568c2.161-1.693,3.312,0.865,3.918,2.896C1064.719,418.264,1064.714,419.51,1064.706,420.758z"/>
<path fill-rule="evenodd" clip-rule="evenodd" fill="#EFF0EF" d="M1064.706,420.758c0.008-1.248,0.013-2.494,0.018-3.738
	c-0.084,1.117-0.169,2.232-0.248,3.352C1064.479,420.371,1064.706,420.758,1064.706,420.758z"/>
<path fill-rule="evenodd" clip-rule="evenodd" fill="#3A3A43" d="M862.982,134.885c-3.565-6.852-3.545-13.693-0.599-23.777
	C866.719,120.98,865.496,127.941,862.982,134.885z"/>
<path fill-rule="evenodd" clip-rule="evenodd" fill="#414149" d="M872.411,134.872c-5.327-6.875-4.56-13.644,0-20.429
	C872.411,121.253,872.411,128.062,872.411,134.872z"/>
<path fill-rule="evenodd" clip-rule="evenodd" fill="#3A3A43" d="M262.915,124.346c-1.442,4.243,2.34,10.708-4.17,11.059
	c-6.73,0.363-3.988-6.074-4.51-9.852c-0.623-4.509,0.16-10.509,4.57-10.652C265.446,114.688,260.816,121.622,262.915,124.346z"/>
<path fill-rule="evenodd" clip-rule="evenodd" fill="#272735" d="M268.056,114.548c2.98,6.959,3.194,13.844,0.002,20.657
	C265.085,128.351,265.316,121.448,268.056,114.548z"/>
<path fill-rule="evenodd" clip-rule="evenodd" fill="#272735" d="M951.842,279.227c0.261-17.434,0.519-34.866,0.777-52.3
	c1.345-0.018,2.69-0.033,4.038-0.051c0.169,17.427,0.338,34.852,0.509,52.275C955.392,279.176,953.616,279.201,951.842,279.227z"/>
<path fill-rule="evenodd" clip-rule="evenodd" fill="#3A3A43" d="M1158.583,425.645c-6.084,0.006-12.166,0.014-18.25,0.021
	C1146.412,422.008,1152.496,422.104,1158.583,425.645z"/>
<path fill-rule="evenodd" clip-rule="evenodd" fill="#FDFBF4" d="M849.43,199.819c-5.166,0.647-10.329,1.292-15.585,1.908
	c-3.946-0.542-7.803-1.494-11.662-1.497c-65.29-0.041-130.583,0.039-195.854,0.087c-9.512-2.829-2.867-10.233-4.325-15.342
	c1.556,12.161,9.251,13.375,19.977,13.291c64.047-0.506,128.102-0.284,192.154-0.184
	C839.243,198.091,844.627,196.692,849.43,199.819z"/>
<path fill-rule="evenodd" clip-rule="evenodd" fill="#F8EFE7" d="M355.528,218.921c-0.678-3.624,0.918-4.734,4.29-3.885
	C359.519,217.581,357.993,218.771,355.528,218.921z"/>
<path fill-rule="evenodd" clip-rule="evenodd" fill="#989493" d="M846.701,213.714c1.084,0.667,2.169,1.335,3.253,2.005
	c-1.847,0.207-3.695,0.415-5.545,0.622C842.801,213.397,844.834,213.627,846.701,213.714z"/>
<path fill-rule="evenodd" clip-rule="evenodd" fill="#F0F5D9" d="M1021.142,415.363c0.483,1.996,0.967,3.992-1.433,5.203
	c-0.01,0.004,0.141-0.133,0.139-0.133C1020.277,418.744,1020.709,417.055,1021.142,415.363z"/>
<path fill-rule="evenodd" clip-rule="evenodd" fill="#414149" d="M323.407,385.355c0.32,2.998,0.639,6.002,0.969,8.936
	c-7.959,2.904-3.659,12.865-11.335,18.408c0-10.514,0.084-19.619-0.021-28.723c-0.133-11.373,9.449,3.334,10.732-4.055
	c-0.002,0.004-0.345,0.016-0.345,0.016c-2.783-0.701-4.664,0.141-4.375,3.24C319.278,385.822,321.393,385.725,323.407,385.355z"/>
<path fill-rule="evenodd" clip-rule="evenodd" fill="#3A3A43" d="M290.562,379.318c4.874,10.174,3.969,20.543,0,31.102
	C290.562,400.055,290.562,389.688,290.562,379.318z"/>
<path fill-rule="evenodd" clip-rule="evenodd" fill="#272735" d="M304.291,369.936c0,13.555,0,27.109,0,40.666
	c-0.614,0.004-1.229,0.008-1.842,0.014c0-13.555,0-27.113,0-40.668C303.062,369.943,303.677,369.938,304.291,369.936z"/>
<path fill-rule="evenodd" clip-rule="evenodd" fill="#F5EAE1" d="M323.354,368.258c1.113,2.613,1.119,5.227,0.001,7.842
	C319.066,373.484,315.349,370.871,323.354,368.258z"/>
<path fill-rule="evenodd" clip-rule="evenodd" fill="#F5EAE1" d="M323.384,415.404c0.042,0.809,0.083,1.619,0.125,2.428
	c-1.123-0.365-2.247-0.729-3.369-1.094C321.222,416.293,322.304,415.85,323.384,415.404z"/>
<path fill-rule="evenodd" clip-rule="evenodd" fill="#414149" d="M290.426,115.261c12.459-4.442,12.459-4.442,21.656,0.034
	C305.239,117.809,299.329,117.261,290.426,115.261z"/>
<path fill-rule="evenodd" clip-rule="evenodd" fill="#4D4C53" d="M904.007,368.23c0,14.961,0,28.404,0,41.99
	C898.375,403.857,897.914,379.127,904.007,368.23z"/>
<path fill-rule="evenodd" clip-rule="evenodd" fill="#3A3A43" d="M914.789,410.336c-2.358-10.389-3.269-20.801,0.033-31.168
	C918.587,389.502,917.927,399.906,914.789,410.336z"/>
<path fill-rule="evenodd" clip-rule="evenodd" fill="#D2D3D5" d="M318.56,251.999c-2.669,4.99,3.554,15.069-4.721,14.915
	c-7.269-0.133-3.449-10.102-3.446-15.485c0.002-5.24-3.783-15.17,3.899-14.973C321.831,236.65,316.114,246.662,318.56,251.999z"/>
<path fill-rule="evenodd" clip-rule="evenodd" fill="#3A3A43" d="M300.366,267.332c0-13.461,0-26.923,0-40.383
	c0.855-0.008,1.711-0.015,2.566-0.023c0,13.429,0,26.858,0,40.289C302.077,267.252,301.221,267.293,300.366,267.332z"/>
<path fill-rule="evenodd" clip-rule="evenodd" fill="#D2D3D5" d="M309.262,183.533c3.073-5.378-3.335-15.148,5.267-15.209
	c6.419-0.046,3.611,9.452,3.243,14.419c-0.418,5.637,4.351,15.946-4.142,15.997C306.468,198.784,312.436,188.359,309.262,183.533z"
	/>
<path fill-rule="evenodd" clip-rule="evenodd" fill="#3A3A43" d="M303.273,158.958c0,13.491,0,26.981,0,40.472
	c-0.854,0-1.71,0.002-2.564,0.002c0-13.531,0-27.063,0-40.595C301.563,158.879,302.419,158.92,303.273,158.958z"/>
<path fill-rule="evenodd" clip-rule="evenodd" fill="#FDFBF4" d="M951.686,287.043c-0.033,20.096-0.066,40.189-0.1,60.287
	C947.581,327.229,947.442,307.131,951.686,287.043z"/>
<path fill-rule="evenodd" clip-rule="evenodd" fill="#FDFBF4" d="M357.388,185.252c10.226-0.22,20.451-0.442,30.676-0.665
	c1.06,1.491,2.12,2.979,3.18,4.471c-5.197,0.074-10.395,0.146-15.593,0.22C370.24,184.871,362.646,190.362,357.388,185.252z"/>
<path fill-rule="evenodd" clip-rule="evenodd" fill="#D3C6C0" d="M357.388,185.252c5.258,5.11,12.852-0.381,18.263,4.025
	c-6.945-1.409-15.803,6.453-20.82-4.296C355.716,184.771,356.567,184.863,357.388,185.252z"/>
<path fill-rule="evenodd" clip-rule="evenodd" fill="#EFF0EF" d="M286.613,284.805c10.443-0.01,20.887-0.018,31.33-0.027
	c0.991,8.424,1.84,16.104-5.606,23.295c-6.213,6-2.043,26.158,4.772,33.244c2.018,2.098,3.025,5.17,4.497,7.801
	c-11.655,0.09-23.314,0.174-34.971,0.256c-1.938-13.094-4.843-26.168-1.062-41.566c7.123,10.258,0.792,20.875,6.863,32.732
	c2.477-12.713,5.202-24.168-0.374-31.648C285.941,300.68,286.771,293.154,286.613,284.805z M300.404,338.854
	c1.124,0.006,2.248,0.014,3.372,0.02c1.582-13.613,1.11-27.199,0.465-40.783c-1.278,0.012-2.557,0.02-3.837,0.027
	C300.404,311.693,300.404,325.273,300.404,338.854z"/>
<path fill-rule="evenodd" clip-rule="evenodd" fill="#3A3A43" d="M343.673,134.693c-2.903-6.639-2.929-13.348-0.915-22.421
	C348.174,121.029,346.667,127.826,343.673,134.693z"/>
<path fill-rule="evenodd" clip-rule="evenodd" fill="#272735" d="M284.336,136.407c11.866-3.593,23.691-4.335,35.532,0
	C308.024,136.407,296.18,136.407,284.336,136.407z"/>
<path fill-rule="evenodd" clip-rule="evenodd" fill="#F5EAE1" d="M328.779,355.227c0.833-0.129,1.633-0.018,2.399,0.338
	c15.425,0.5,17.026,10.18,15.76,22.658c-0.833,8.203-0.132,16.561-0.165,24.85c-0.064,16.107-1.354,17.027-17.53,12.672
	C329.088,395.572,328.934,375.4,328.779,355.227z"/>
<path fill-rule="evenodd" clip-rule="evenodd" fill="#EFF0EF" d="M323.407,385.355c-2.014,0.369-4.129,0.467-4.375-2.178
	c-0.289-3.1,1.592-3.941,4.375-3.24C323.407,381.744,323.407,383.549,323.407,385.355z"/>
<path fill-rule="evenodd" clip-rule="evenodd" fill="#414149" d="M903.07,227.013c4.018,13.578,4.218,27.022,0,40.526
	C903.07,254.03,903.07,240.522,903.07,227.013z"/>
<path fill-rule="evenodd" clip-rule="evenodd" fill="#414149" d="M902.47,339.051c0-13.633,0-27.27,0-40.904
	c0.813-0.033,1.626-0.066,2.442-0.098c0,13.592,0,27.182,0,40.771C904.096,338.898,903.283,338.975,902.47,339.051z"/>
<path fill-rule="evenodd" clip-rule="evenodd" fill="#414149" d="M893.271,307.955c0,10.334,0,20.67,0,31.002
	C888.541,328.453,888.664,318.123,893.271,307.955z"/>
<path fill-rule="evenodd" clip-rule="evenodd" fill="#414149" d="M902.666,199.341c0-13.47,0-26.94,0-40.414
	c1.215-0.005,2.43-0.01,3.645-0.015C906.827,172.408,907.551,185.904,902.666,199.341z"/>
<path fill-rule="evenodd" clip-rule="evenodd" fill="#4D4C53" d="M893.37,167.271c0,10.79,0,21.58,0,32.367
	c-5.854-10.639-3.273-21.496-3.806-32.28C890.833,167.329,892.102,167.301,893.37,167.271z"/>
<path fill-rule="evenodd" clip-rule="evenodd" fill="#3A3A43" d="M946.317,134.663c-2.938-6.672-2.962-13.389-0.872-22.726
	C950.479,120.998,948.926,127.819,946.317,134.663z"/>
<path fill-rule="evenodd" clip-rule="evenodd" fill="#272735" d="M886.408,134.164c11.926,0,23.849,0,35.774,0
	c0.021,0.698,0.038,1.396,0.059,2.095c-11.928,0-23.856,0-35.784,0C886.441,135.56,886.427,134.862,886.408,134.164z"/>
<path fill-rule="evenodd" clip-rule="evenodd" fill="#FDFBF4" d="M1026.559,362.869c-0.606-0.775-0.632-1.568-0.074-2.375
	c0.678,0.537,1.353,1.072,2.03,1.607C1027.862,362.357,1027.211,362.613,1026.559,362.869z"/>
<path fill-rule="evenodd" clip-rule="evenodd" fill="#3A3A43" d="M590.339,161.564c-0.872,1.208-1.747,1.215-2.621,0
	C588.592,161.564,589.464,161.564,590.339,161.564z"/>
<path fill-rule="evenodd" clip-rule="evenodd" fill="#4D4C53" d="M142.31,420.494c0.344,0.189,0.689,0.379,1.033,0.568
	c-0.321-0.229-0.641-0.453-0.962-0.682C142.381,420.379,142.31,420.494,142.31,420.494z"/>
<path fill-rule="evenodd" clip-rule="evenodd" fill="#3A3A43" d="M300.404,338.854c0-13.58,0-27.16,0-40.736
	c1.28-0.008,2.559-0.016,3.837-0.027c0.645,13.584,1.117,27.17-0.465,40.783C302.652,338.867,301.528,338.859,300.404,338.854z"/>
</svg>
