<?xml version="1.0" encoding="utf-8"?>
<!-- Generator: Adobe Illustrator 16.0.0, SVG Export Plug-In . SVG Version: 6.00 Build 0)  -->
<!DOCTYPE svg PUBLIC "-//W3C//DTD SVG 1.1//EN" "http://www.w3.org/Graphics/SVG/1.1/DTD/svg11.dtd">
<svg version="1.1" id="Layer_1" xmlns="http://www.w3.org/2000/svg" xmlns:xlink="http://www.w3.org/1999/xlink" x="0px" y="0px"
	 width="293.3px" height="96px" viewBox="0 0 293.3 96" enable-background="new 0 0 293.3 96" xml:space="preserve">
<rect x="5" y="82.8" fill-rule="evenodd" clip-rule="evenodd" fill="#FFFFFF" width="284.4" height="5.8"/>
<path fill="#FFFFFF" d="M29.2,76.2C36.5,65.3,48.9,58.2,63,58.2c3.8,0,7.5,0.5,11.2,1.6l2.3,0.7l1.1-2.1
	c7.1-13.3,20.8-21.5,35.9-21.5c6.6,0,12.9,1.5,18.8,4.6l2.5,1.3l1.4-2.5C146.4,23,165,12.3,184.9,12.3c28.2,0,52.2,21,55.9,48.9
	l0.3,2.2l2.2,0.4c8.5,1.4,16.1,5.8,21.5,12.4h7.4c-5.9-9.2-15.2-15.6-25.8-17.9c-5-29.8-31.1-52-61.5-52
	c-21.1,0-40.9,10.9-52.4,28.5c-6-2.7-12.5-4.1-19-4.1c-16.5,0-31.6,8.6-40,22.6c-3.5-0.8-7-1.2-10.5-1.2c-17.5,0-32.8,9.7-40.8,24.1
	H29.2z"/>
</svg>
