<?xml version="1.0" encoding="utf-8"?>
<!-- Generator: Adobe Illustrator 19.0.0, SVG Export Plug-In . SVG Version: 6.00 Build 0)  -->
<svg version="1.1" id="Layer_1" xmlns="http://www.w3.org/2000/svg" xmlns:xlink="http://www.w3.org/1999/xlink" x="0px" y="0px"
	 viewBox="100 92.1 300 116.9" style="enable-background:new 100 92.1 300 116.9;" xml:space="preserve">
<style type="text/css">
	.st0{fill:#FFFFFF;}
	.st1{filter:url(#Adobe_OpacityMaskFilter);}
	.st2{fill:url(#SVGID_2_);}
	.st3{opacity:0.5;mask:url(#SVGID_1_);fill:#FFFFFF;}
</style>
<path class="st0" d="M331,167.1l31.5,0v-1.8h-30.4l-0.4-0.5c-3-3.2-7.2-5.1-11.6-5.1c-0.7,0-1.5,0.1-2.3,0.2l-1.2,0.1l-0.4-1.1
	c-2.6-7.5-9.2-13-17-14.3l-1-0.2l-0.2-1c-3.1-14.4-15.5-24.4-30.2-24.4c-15.3,0-28.1,10.9-30.5,25.9l-0.3,2l-1.8-0.9
	c-5-2.5-10.9-3.7-17-3.7c-13.5,0-25.2,6.5-28,15.3l-0.4,1.4l-1.4-0.3c-2.6-0.6-4.9-1-7.1-1c-7.2,0-13.8,2.7-17.6,7.3l-0.4,0.5h-30.6
	v1.8H164c3.1-4.6,9.7-7.7,16.9-7.7c3.3,0,6.4,0.6,9.1,1.7l1.3,0.5l0.1-1.4c0.7-8.9,12.5-16.2,26.4-16.2c7.1,0,14.1,2,19.2,5.4l1.5,1
	l0.1-1.8c0.6-15.6,13.3-27.8,28.9-27.8c14.3,0,26.4,10.3,28.6,24.5l0.1,0.8l0.8,0.1c8.5,0.8,15.7,6.9,17.7,15.2l0.2,1l0.9-0.3
	c1.6-0.4,2.9-0.6,4.1-0.6C324.3,161.7,328.4,163.7,331,167.1z"/>
<defs>
	<filter id="Adobe_OpacityMaskFilter" filterUnits="userSpaceOnUse" x="164.3" y="121.1" width="166.4" height="45.8">
		<feColorMatrix  type="matrix" values="1 0 0 0 0  0 1 0 0 0  0 0 1 0 0  0 0 0 1 0"/>
	</filter>
</defs>
<mask maskUnits="userSpaceOnUse" x="164.3" y="121.1" width="166.4" height="45.8" id="SVGID_1_">
	<g class="st1">
		<linearGradient id="SVGID_2_" gradientUnits="userSpaceOnUse" x1="247.5" y1="112.7232" x2="247.5" y2="170.3697">
			<stop  offset="0" style="stop-color:#FFFFFF"/>
			<stop  offset="1" style="stop-color:#000000"/>
		</linearGradient>
		<path class="st2" d="M319.9,161.8c-1.2,0-2.5,0.2-4.1,0.6l-0.9,0.3l-0.2-1c-2-8.4-9.2-14.5-17.7-15.2l-0.8-0.1l-0.1-0.8
			c-2.2-14.2-14.2-24.5-28.6-24.5c-15.6,0-28.3,12.2-28.9,27.8l-0.1,1.8l-1.5-1c-5.1-3.4-12.1-5.4-19.2-5.4
			c-13.9,0-25.7,7.3-26.4,16.2l-0.1,1.4l-1.3-0.5c-2.7-1.1-5.8-1.7-9.1-1.7c-6.9,0-13.3,2.8-16.5,7.2h166.4
			C328,163.7,324.1,161.8,319.9,161.8z"/>
	</g>
</mask>
<path class="st3" d="M319.9,161.8c-1.2,0-2.5,0.2-4.1,0.6l-0.9,0.3l-0.2-1c-2-8.4-9.2-14.5-17.7-15.2l-0.8-0.1l-0.1-0.8
	c-2.2-14.2-14.2-24.5-28.6-24.5c-15.6,0-28.3,12.2-28.9,27.8l-0.1,1.8l-1.5-1c-5.1-3.4-12.1-5.4-19.2-5.4
	c-13.9,0-25.7,7.3-26.4,16.2l-0.1,1.4l-1.3-0.5c-2.7-1.1-5.8-1.7-9.1-1.7c-6.9,0-13.3,2.8-16.5,7.2h166.4
	C328,163.7,324.1,161.8,319.9,161.8z"/>
</svg>
