<?xml version="1.0" encoding="utf-8"?>
<!-- Generator: Adobe Illustrator 19.0.0, SVG Export Plug-In . SVG Version: 6.00 Build 0)  -->
<svg version="1.1" id="Layer_1" xmlns="http://www.w3.org/2000/svg" xmlns:xlink="http://www.w3.org/1999/xlink" x="0px" y="0px"
	 viewBox="100 92.1 300 116.9" style="enable-background:new 100 92.1 300 116.9;" xml:space="preserve">
<style type="text/css">
	.st0{fill:#FFFFFF;}
	.st1{filter:url(#Adobe_OpacityMaskFilter);}
	.st2{fill:url(#SVGID_2_);}
	.st3{opacity:0.4;mask:url(#SVGID_1_);fill:#FFFFFF;}
</style>
<path class="st0" d="M329.9,168.3l-0.3-1.1c-3.1-11.6-21.3-20.1-43.2-20.1c-6.8,0-13.6,0.9-19.7,2.5l-2.4,0.7l0.6-2.5
	c0.4-1.8,0.7-3.9,0.7-6.2c0-17.6-15.5-32-34.6-32c-19.1,0-34.6,14.4-34.6,32c0,0.8,0,1.6,0.1,2.3l0.2,1.7l-3.5,0
	c-12.9,0-23.4,7.9-23.4,17.5v1.9h-26v1.8H160h8.9h3.3l-0.2-1c-0.1-0.2-0.1-0.5-0.1-0.8v-0.1h0c-0.1-0.6-0.2-1.3-0.2-1.9
	c0-8.7,9.7-15.7,21.7-15.7c1.4,0,2.8,0.1,4.1,0.3l1.3,0.2l-0.2-1.4c-0.3-1.5-0.4-3.2-0.4-5.1c0-16.5,14.6-30,32.6-30
	c18,0,32.6,13.5,32.6,30c0,3.3-0.6,6.7-1.8,9.9l-0.8,2.1l2.1-0.7c7-2.5,15.1-3.8,23.5-3.8c22.6,0,41.1,9.4,41.7,21h28.3v-1.8
	L329.9,168.3L329.9,168.3z"/>
<defs>
	<filter id="Adobe_OpacityMaskFilter" filterUnits="userSpaceOnUse" x="171.6" y="111.6" width="155.7" height="55.1">
		<feColorMatrix  type="matrix" values="1 0 0 0 0  0 1 0 0 0  0 0 1 0 0  0 0 0 1 0"/>
	</filter>
</defs>
<mask maskUnits="userSpaceOnUse" x="171.6" y="111.6" width="155.7" height="55.1" id="SVGID_1_">
	<g class="st1">
		<linearGradient id="SVGID_2_" gradientUnits="userSpaceOnUse" x1="249.477" y1="110.2279" x2="249.477" y2="170.8946">
			<stop  offset="0" style="stop-color:#FFFFFF"/>
			<stop  offset="1" style="stop-color:#000000"/>
		</linearGradient>
		<path class="st2" d="M286.3,149.1c-8.4,0-16.5,1.3-23.5,3.8l-2.1,0.7l0.8-2.1c1.2-3.2,1.8-6.6,1.8-9.9c0-16.5-14.6-30-32.6-30
			c-18,0-32.6,13.5-32.6,30c0,1.9,0.1,3.5,0.4,5.1l0.2,1.4l-1.3-0.2c-1.4-0.2-2.8-0.3-4.1-0.3c-12,0-21.7,7-21.7,15.7
			c0,0.6,0.1,1.3,0.2,1.9h0v0.1c0,0.3,0.1,0.5,0.1,0.8l0.2,0.7h155.2C323.7,156.7,306.7,149.1,286.3,149.1z"/>
	</g>
</mask>
<path class="st3" d="M286.3,149.1c-8.4,0-16.5,1.3-23.5,3.8l-2.1,0.7l0.8-2.1c1.2-3.2,1.8-6.6,1.8-9.9c0-16.5-14.6-30-32.6-30
	c-18,0-32.6,13.5-32.6,30c0,1.9,0.1,3.5,0.4,5.1l0.2,1.4l-1.3-0.2c-1.4-0.2-2.8-0.3-4.1-0.3c-12,0-21.7,7-21.7,15.7
	c0,0.6,0.1,1.3,0.2,1.9h0v0.1c0,0.3,0.1,0.5,0.1,0.8l0.2,0.7h155.2C323.7,156.7,306.7,149.1,286.3,149.1z"/>
</svg>
