<?xml version="1.0" encoding="utf-8"?>
<!-- Generator: Adobe Illustrator 16.0.0, SVG Export Plug-In . SVG Version: 6.00 Build 0)  -->
<!DOCTYPE svg PUBLIC "-//W3C//DTD SVG 1.1//EN" "http://www.w3.org/Graphics/SVG/1.1/DTD/svg11.dtd">
<svg version="1.1" id="Layer_1" xmlns="http://www.w3.org/2000/svg" xmlns:xlink="http://www.w3.org/1999/xlink" x="0px" y="0px"
	 width="300px" height="116.9px" viewBox="28.65 0 300 116.9" enable-background="new 28.65 0 300 116.9" xml:space="preserve">
<rect x="401.971" y="-19.52" width="33.759" height="4.801"/>
<rect x="355.603" y="71.074" fill="#00A952" width="29.42" height="8"/>
<path fill="#FFFFFF" d="M213.872,20.119c29.17,0,54.054,21.77,57.883,50.638l0.103,0.754l0.772,0.141
	c8.594,1.416,16.407,5.797,22.074,12.368h29.315v-1.8h-28.234l-0.594-0.636c-5.443-5.838-12.443-9.817-20.243-11.511l-1.324-0.287
	l-0.225-1.336c-2.343-13.964-9.639-26.742-20.545-35.98c-10.926-9.254-24.77-14.351-38.982-14.351
	c-20.168,0-39.604,10.573-50.726,27.594l-0.936,1.432l-1.56-0.702c-5.705-2.566-11.991-3.923-18.179-3.923
	c-15.847,0-30.159,8.085-38.285,21.628l-0.746,1.244l-1.415-0.322c-3.339-0.764-6.722-1.15-10.054-1.15
	c-13.949,0-26.852,6.385-35.398,17.519l-0.601,0.782h-20.69v1.8h21.842c7.98-11.29,20.934-18,34.847-18
	c4.11,0,7.96,0.55,11.77,1.683l0.728,0.221l0.331-0.631c7.435-13.929,21.867-22.573,37.671-22.573c6.993,0,13.631,1.625,19.73,4.83
	l0.772,0.401l0.453-0.809C173.99,31.225,193.311,20.119,213.872,20.119z"/>
</svg>
