<?xml version="1.0" encoding="utf-8"?>
<!-- Generator: Adobe Illustrator 16.0.0, SVG Export Plug-In . SVG Version: 6.00 Build 0)  -->
<!DOCTYPE svg PUBLIC "-//W3C//DTD SVG 1.1//EN" "http://www.w3.org/Graphics/SVG/1.1/DTD/svg11.dtd">
<svg version="1.1" id="Layer_1" xmlns="http://www.w3.org/2000/svg" xmlns:xlink="http://www.w3.org/1999/xlink" x="0px" y="0px"
	 width="357.3px" height="116.9px" viewBox="0 0 357.3 116.9" enable-background="new 0 0 357.3 116.9" xml:space="preserve">
<rect x="8.9" y="92.5" fill-rule="evenodd" clip-rule="evenodd" fill="#FEFEFE" width="337.6" height="4.8"/>
<path fill="#FEFEFE" d="M34,88c5.3-8.3,14.1-13.3,23.6-13.3c5.6,0,11,1.7,15.7,5l3.4,2.4l0.5-4.1c2.1-17.2,21.9-30.7,45.2-30.7
	c9.1,0,17.9,2,25.4,5.8l2.9,1.5l0.7-3.2c3.8-18.6,28-32.6,56.3-32.6c31.3,0,56.8,16.9,56.8,37.7c0,1.3-0.1,2.7-0.4,4.1l-0.5,3
	l3.1-0.1c0.8,0,1.6,0,2.5,0c21.6,0,40.9,9.3,48,23.2l0.4,0.8l0.9,0.3c0.1,0.1,0.3,0.1,0.4,0.2h11.5c-2.8-1.6-5.9-3.1-9.2-4.5
	c-8.2-15-28.8-25-51.7-25.1c0-0.7,0.1-1.3,0.1-2c0-23.5-27.7-42.7-61.8-42.7c-29.1,0-54.3,14.2-60.4,33.5
	c-7.6-3.3-16.1-5.1-24.9-5.1c-24.5,0-45,13.2-49.4,31.4c-4.7-2.6-10-3.9-15.3-3.9c-11.9,0-22.9,6.6-28.9,17.4
	c-0.4,0.3-0.8,0.6-1.2,0.9H34z"/>
</svg>
