<?xml version="1.0" encoding="utf-8"?>
<!-- Generator: Adobe Illustrator 16.0.0, SVG Export Plug-In . SVG Version: 6.00 Build 0)  -->
<!DOCTYPE svg PUBLIC "-//W3C//DTD SVG 1.1//EN" "http://www.w3.org/Graphics/SVG/1.1/DTD/svg11.dtd">
<svg version="1.1" id="Layer_1" xmlns="http://www.w3.org/2000/svg" xmlns:xlink="http://www.w3.org/1999/xlink" x="0px" y="0px"
	 width="300px" height="116.9px" viewBox="28.65 0 300 116.9" enable-background="new 28.65 0 300 116.9" xml:space="preserve">
<path fill="#FFFFFF" d="M251.133,60.521l1.062-0.034l2.125-0.001c18.492,0,35.03,8.051,41.152,20.034l0.2,0.401h30.6v-1.5h-29.456
	l-0.358-0.64c-6.674-11.911-23.509-19.968-41.894-20.047l-1.246-0.005v-1.246c0-0.326,0.022-0.629,0.046-0.931
	c0.019-0.24,0.038-0.479,0.038-0.738c0-18.949-22.563-34.366-50.298-34.366c-23.543,0-44.229,11.384-49.187,27.069l-0.419,1.323
	l-1.272-0.552c-6.253-2.715-13.263-4.15-20.271-4.15c-19.636,0-36.454,10.613-39.989,25.234l-0.386,1.595l-1.436-0.794
	c-3.663-2.026-7.866-3.097-12.156-3.097c-8.308,0-15.985,3.949-21.062,10.835l-0.375,0.51H31.028v1.5h26.434
	c4.701-6.959,12.264-11.093,20.36-11.093c4.94,0,9.717,1.521,13.814,4.398l1.129,0.796l0.164-1.343
	c1.828-14.975,18.934-26.707,38.943-26.707c7.81,0,15.332,1.72,21.752,4.973l0.979,0.507l0.235-1.076
	c3.28-16.056,23.996-28.177,48.184-28.177c26.813,0,48.628,14.668,48.628,32.697c0,1.344-0.118,2.548-0.36,3.683L251.133,60.521z"/>
</svg>
