<?xml version="1.0" encoding="utf-8"?>
<!-- Generator: Adobe Illustrator 16.0.0, SVG Export Plug-In . SVG Version: 6.00 Build 0)  -->
<!DOCTYPE svg PUBLIC "-//W3C//DTD SVG 1.1//EN" "http://www.w3.org/Graphics/SVG/1.1/DTD/svg11.dtd">
<svg version="1.1" id="Layer_1" xmlns="http://www.w3.org/2000/svg" xmlns:xlink="http://www.w3.org/1999/xlink" x="0px" y="0px"
	 width="293.3px" height="96px" viewBox="0 0 293.3 96" enable-background="new 0 0 293.3 96" xml:space="preserve">
<rect x="30.4" y="79.5" fill-rule="evenodd" clip-rule="evenodd" fill="#FEFEFE" width="236.4" height="4.8"/>
<path fill="#FEFEFE" d="M50.3,74.1h8.5c3.7-1.8,8.6-2.9,13.8-2.9c1,0,2,0,3,0.1l3.5,0.3l-0.8-3.4c-0.2-0.8-0.3-1.6-0.3-2.4
	C78,58,87,51.6,98.2,51.6c1.3,0,2.6,0.1,3.9,0.3l3.4,0.5l-0.6-3.4c-0.3-1.6-0.4-3.2-0.4-4.8c0-15.7,14-28.5,31.1-28.5
	s31.1,12.8,31.1,28.5c0,3.2-0.6,6.4-1.7,9.4l-1.9,5.1l5.1-1.8c6.8-2.4,14.7-3.7,23-3.7c21.8,0,40.2,9.2,40.2,20.1l0,0.9h21.4
	c-3.8-2.1-8.6-3.4-13.8-3.4c-0.9,0-1.8,0-2.8,0.1c-2.1-12.9-21.1-22.7-45-22.7c-7,0-13.9,0.9-20.1,2.6c0.5-2.1,0.7-4.3,0.7-6.5
	c0-18.5-16.2-33.5-36.1-33.5s-36.1,15-36.1,33.5c0,0.8,0,1.7,0.1,2.5c-0.4,0-0.9,0-1.3,0C84.3,46.6,73,55.2,73,65.8
	c0,0.1,0,0.2,0,0.4C63.2,66.1,54.9,69.3,50.3,74.1z"/>
</svg>
