<?xml version="1.0" encoding="utf-8"?>
<!-- Generator: Adobe Illustrator 16.0.0, SVG Export Plug-In . SVG Version: 6.00 Build 0)  -->
<!DOCTYPE svg PUBLIC "-//W3C//DTD SVG 1.1//EN" "http://www.w3.org/Graphics/SVG/1.1/DTD/svg11.dtd">
<svg version="1.1" id="Layer_1" xmlns="http://www.w3.org/2000/svg" xmlns:xlink="http://www.w3.org/1999/xlink" x="0px" y="0px"
	 width="300px" height="116.9px" viewBox="28.65 0 300 116.9" enable-background="new 28.65 0 300 116.9" xml:space="preserve">
<rect x="401.971" y="-19.52" width="33.759" height="4.801"/>
<path fill="#FFFFFF" d="M259.751,74.874l31.479-0.019v-1.801h-30.351l-0.445-0.481c-3.001-3.24-7.242-5.099-11.634-5.099
	c-0.708,0-1.531,0.091-2.314,0.188l-1.201,0.149l-0.4-1.143c-2.632-7.518-9.157-13.003-17.03-14.315l-1.005-0.167l-0.215-0.997
	c-3.088-14.375-15.521-24.415-30.234-24.415c-15.275,0-28.11,10.908-30.519,25.937l-0.321,2.002l-1.82-0.893
	c-5-2.451-10.893-3.747-17.04-3.747c-13.462,0-25.224,6.453-27.967,15.343l-0.418,1.357l-1.379-0.345
	c-2.571-0.644-4.905-0.956-7.136-0.956c-7.221,0-13.798,2.715-17.593,7.262l-0.45,0.538h-30.57v1.801h31.519
	c3.058-4.63,9.739-7.7,16.895-7.7c3.333,0,6.39,0.578,9.084,1.719l1.299,0.528l0.122-1.379c0.659-8.905,12.5-16.168,26.394-16.168
	c7.121,0,14.131,1.951,19.232,5.353l1.488,1.005l0.081-1.824c0.633-15.605,13.327-27.834,28.899-27.834
	c14.34,0,26.36,10.29,28.582,24.467l0.119,0.755l0.849,0.085c8.55,0.758,15.673,6.882,17.706,15.238l0.239,1.03l0.948-0.304
	c1.555-0.393,2.852-0.571,4.057-0.571C253.012,69.474,257.089,71.479,259.751,74.874z"/>
<rect x="355.603" y="71.074" fill="#00A952" width="29.42" height="8"/>
<rect x="343.152" y="-24.908" fill="#00A952" width="29.42" height="8"/>
</svg>
