<?xml version="1.0" encoding="utf-8"?>
<!-- Generator: Adobe Illustrator 16.0.0, SVG Export Plug-In . SVG Version: 6.00 Build 0)  -->
<!DOCTYPE svg PUBLIC "-//W3C//DTD SVG 1.1//EN" "http://www.w3.org/Graphics/SVG/1.1/DTD/svg11.dtd">
<svg version="1.1" id="Layer_1" xmlns="http://www.w3.org/2000/svg" xmlns:xlink="http://www.w3.org/1999/xlink" x="0px" y="0px"
	 width="300px" height="116.9px" viewBox="28.65 0 300 116.9" enable-background="new 28.65 0 300 116.9" xml:space="preserve">
<rect x="401.971" y="-19.52" width="33.759" height="4.801"/>
<rect x="355.603" y="71.074" fill="#00A952" width="29.42" height="8"/>
<rect x="253.875" y="-35.711" fill="#00A952" width="29.42" height="8"/>
<path fill="#FFFFFF" d="M261.457,78.279l-0.299-1.109c-3.137-11.641-21.313-20.09-43.219-20.09c-6.815,0-13.629,0.88-19.705,2.546
	l-2.442,0.669l0.587-2.463c0.438-1.84,0.66-3.91,0.66-6.152c0-17.645-15.521-32-34.601-32c-19.079,0-34.6,14.355-34.6,32
	c0,0.753,0,1.607,0.088,2.314l0.211,1.686l-3.48-0.003c-12.913,0-23.419,7.852-23.419,17.504v1.899H75.282v1.801h16.335h8.918h3.267
	l-0.225-0.956c-0.062-0.249-0.096-0.505-0.141-0.758v-0.087h-0.016c-0.108-0.63-0.183-1.266-0.183-1.899
	c0-8.658,9.735-15.701,21.7-15.701c1.368,0,2.756,0.107,4.128,0.318l1.333,0.196l-0.239-1.353c-0.284-1.513-0.423-3.173-0.423-5.061
	c0-16.542,14.625-30,32.6-30c17.976,0,32.601,13.458,32.601,30c0,3.334-0.604,6.67-1.793,9.916l-0.783,2.103l2.077-0.732
	c7.015-2.477,15.141-3.786,23.499-3.786c22.605,0,41.067,9.366,41.684,21.001h28.289v-1.801H261.457z"/>
</svg>
