<?xml version="1.0" encoding="utf-8"?>
<!-- Generator: Adobe Illustrator 21.0.0, SVG Export Plug-In . SVG Version: 6.00 Build 0)  -->
<svg version="1.1" id="Layer_1" xmlns="http://www.w3.org/2000/svg" xmlns:xlink="http://www.w3.org/1999/xlink" x="0px" y="0px"
	 viewBox="0 0 285.9 91.8" style="enable-background:new 0 0 285.9 91.8;" xml:space="preserve">
<style type="text/css">
	.st0{fill:#FFFFFF;}
	.st1{filter:url(#Adobe_OpacityMaskFilter);}
	.st2{fill:url(#SVGID_2_);}
	.st3{opacity:0.54;mask:url(#SVGID_1_);fill:#FFFFFF;}
</style>
<path class="st0" d="M242.1,71.9c-4.4-3.5-9.5-5.9-15-6.9c-3.6-25.3-25.6-44.4-51.4-44.4c-18,0-35,9.6-44.5,25.1
	c-5.3-2.6-11-3.9-17-3.9c-14,0-26.7,7.5-33.5,19.6c-3.3-0.9-6.5-1.3-9.9-1.3c-10.5,0-20.5,4.4-27.7,11.9H4.4V75h36h4.4
	c6.6-7.3,16-11.6,26-11.6c3.3,0,6.4,0.5,9.7,1.4l2,0.6l0.9-1.8c6.1-11.4,17.9-18.5,30.9-18.5c5.7,0,11.2,1.3,16.2,3.9l2.1,1l1.3-2
	c8.8-14.9,24.9-24.1,41.9-24.1c24.2,0,44.9,18.1,48.1,42l0.3,2l2,0.2c5.3,0.9,10.2,3.2,14.3,6.6V75h0.3h5h35.2v-3.1H242.1z"/>
<defs>
	<filter id="Adobe_OpacityMaskFilter" filterUnits="userSpaceOnUse" x="45.5" y="24.2" width="194.2" height="50.3">
		<feColorMatrix  type="matrix" values="1 0 0 0 0  0 1 0 0 0  0 0 1 0 0  0 0 0 1 0"/>
	</filter>
</defs>
<mask maskUnits="userSpaceOnUse" x="45.5" y="24.2" width="194.2" height="50.3" id="SVGID_1_">
	<g class="st1">
		<linearGradient id="SVGID_2_" gradientUnits="userSpaceOnUse" x1="142.5684" y1="5.0817" x2="142.5684" y2="63.4999">
			<stop  offset="0" style="stop-color:#FFFFFF"/>
			<stop  offset="1" style="stop-color:#000000"/>
		</linearGradient>
		<path class="st2" d="M224,68.2l-0.3-2c-3.2-23.9-23.8-42-48.1-42c-17.1,0-33.1,9.2-41.9,24.1l-1.3,2l-2.1-1
			c-5-2.6-10.4-3.9-16.2-3.9c-13,0-24.8,7.1-30.9,18.5l-0.9,1.8l-2-0.6c-3.2-0.9-6.4-1.4-9.7-1.4c-9.6,0-18.8,4-25.3,10.9h194.2
			c-4-3.1-8.7-5.3-13.7-6.1L224,68.2z"/>
	</g>
</mask>
<path class="st3" d="M224,68.2l-0.3-2c-3.2-23.9-23.8-42-48.1-42c-17.1,0-33.1,9.2-41.9,24.1l-1.3,2l-2.1-1
	c-5-2.6-10.4-3.9-16.2-3.9c-13,0-24.8,7.1-30.9,18.5l-0.9,1.8l-2-0.6c-3.2-0.9-6.4-1.4-9.7-1.4c-9.6,0-18.8,4-25.3,10.9h194.2
	c-4-3.1-8.7-5.3-13.7-6.1L224,68.2z"/>
</svg>
