<?xml version="1.0" encoding="utf-8"?>
<!-- Generator: Adobe Illustrator 16.0.0, SVG Export Plug-In . SVG Version: 6.00 Build 0)  -->
<!DOCTYPE svg PUBLIC "-//W3C//DTD SVG 1.1//EN" "http://www.w3.org/Graphics/SVG/1.1/DTD/svg11.dtd">
<svg version="1.1" id="Layer_1" xmlns="http://www.w3.org/2000/svg" xmlns:xlink="http://www.w3.org/1999/xlink" x="0px" y="0px"
	 width="293.3px" height="96px" viewBox="0 0 293.3 96" enable-background="new 0 0 293.3 96" xml:space="preserve">
<rect x="42.8" y="66.6" fill-rule="evenodd" clip-rule="evenodd" fill="#FEFEFE" width="214" height="4.8"/>
<path fill="#FEFEFE" d="M67.2,60.9c2.5-4.4,8.8-7.6,16-7.6c3,0,5.9,0.5,8.5,1.6l3.2,1.3l0.3-3.4C95.8,44.7,107,38,120.1,38
	c6.9,0,13.6,1.9,18.4,5.1l3.7,2.5l0.2-4.5c0.6-14.8,12.6-26.4,27.4-26.4c13.6,0,25,9.8,27.1,23.2l0.3,1.9l2,0.2
	c7.9,0.7,14.5,6.3,16.4,14.1l0.6,2.6l2.5-0.8c1.2-0.3,2.4-0.5,3.6-0.5c4.2,0,8,2.1,10.3,5.4h5.7c-2.7-6.2-8.9-10.4-15.9-10.4
	c-0.8,0-1.7,0.1-2.5,0.2c-2.8-8-9.8-13.9-18.2-15.3c-3.2-14.9-16.2-25.6-31.7-25.6c-16.1,0-29.5,11.6-32,27.2
	c-5.1-2.5-11.2-3.9-17.7-3.9c-14.4,0-26.5,7-29.4,16.4c-2.4-0.6-4.9-1-7.5-1c-10.4,0-19,5.3-21.5,12.6H67.2z"/>
</svg>
