<?xml version="1.0" encoding="utf-8"?>
<!-- Generator: Adobe Illustrator 16.0.0, SVG Export Plug-In . SVG Version: 6.00 Build 0)  -->
<!DOCTYPE svg PUBLIC "-//W3C//DTD SVG 1.1//EN" "http://www.w3.org/Graphics/SVG/1.1/DTD/svg11.dtd">
<svg version="1.1" id="Layer_1" xmlns="http://www.w3.org/2000/svg" xmlns:xlink="http://www.w3.org/1999/xlink" x="0px" y="0px"
	 width="293.3px" height="96px" viewBox="0 0 293.3 96" enable-background="new 0 0 293.3 96" xml:space="preserve">
<rect x="108.4" y="56" fill-rule="evenodd" clip-rule="evenodd" fill="#FEFEFE" width="91.1" height="3.9"/>
<path fill="#FDFDFE" d="M121,51.7c0-0.3-0.1-0.6-0.1-1c0-4.3,4.2-8.3,10.3-9.9l1.3-0.3l0.2-1.3c0.7-5.2,5.2-9.2,10.5-9.2
	c4.7,0,8.9,3.2,10.2,7.7l0.6,2.2l2.1-0.9c1.3-0.6,2.7-0.9,4.2-0.9c4.4,0,8.4,2.8,10,7l0.5,1.4l1.4,0c0.2,0,0.5,0,0.7,0
	c6,0,11.2,2.1,14,5.3h4.9c-2.9-5.3-10-9.1-18.3-9.3c-2.4-5-7.6-8.3-13.2-8.3c-1.3,0-2.5,0.2-3.8,0.5c-2.3-5.2-7.6-8.7-13.4-8.7
	c-6.8,0-12.8,4.8-14.3,11.4c-7.3,2.3-12.1,7.6-12.1,13.4c0,0.3,0,0.6,0,1H121z"/>
</svg>
