<?xml version="1.0" encoding="utf-8"?>
<!-- Generator: Adobe Illustrator 16.0.0, SVG Export Plug-In . SVG Version: 6.00 Build 0)  -->
<!DOCTYPE svg PUBLIC "-//W3C//DTD SVG 1.1//EN" "http://www.w3.org/Graphics/SVG/1.1/DTD/svg11.dtd">
<svg version="1.1" id="Layer_1" xmlns="http://www.w3.org/2000/svg" xmlns:xlink="http://www.w3.org/1999/xlink" x="0px" y="0px"
	 width="170px" height="170px" viewBox="0 0 170 170" enable-background="new 0 0 170 170" xml:space="preserve">
<path fill-rule="evenodd" clip-rule="evenodd" fill="#822D33" d="M161,162.8c-4.5,0-9.1-0.1-13.6-0.1c-44.8,0-89.5,0-134.3,0
	c-0.8,0-1.5,0.1-2.3,0.1c-1.4-0.6-0.8-1.9-0.8-2.9c0-16.2,0-32.5,0-48.7c0-34,0-67.9,0-101.9c0-0.4,0-0.8,0.1-1.3
	c2.3-1.4,2.1,0.8,2.7,1.8c0.1,10,0.4,20-0.1,29.9c-0.2,3,0.5,6,0.2,9c-0.4,1-0.3,2.1-0.4,3.2c-0.7,1.9,0,3.8,0,5.7
	c0.1,9.1,0.2,18.2,0,27.4c-0.1,2.2,0.2,4.3,0.1,6.5c0.1,0.9,0.1,1.8,0,2.7c-0.2,5.1-0.5,10.2-0.3,15.3c0.4,8.8,0.1,17.6,0.3,26.4
	c0.1,5.7,0,11.4,0,17.1c0,1.4-0.1,2.8-0.4,4.2c0,0.3,0,0.5,0.1,0.8c0.2,0.8-0.3,1.6,0,2.3c0.5,0.4,1.1,0.3,1.7,0.3
	c16.9,0,33.9,0,50.8,0c26-0.9,52-0.3,78-0.5c1.8,0,3.5,0.8,5.2,0.2c2.7-0.4,5.5-0.1,8.2-0.2c1,0,2,0.2,2.7-0.9c0.4-1,0.2-2,0.2-3
	c0-37.9,0-75.8,0-113.7c0-1.3,0.4-2.5-0.1-3.8c0-0.3,0-0.6,0.1-0.9c0.2-9.3,0-18.5,0.1-27.8c0.3-1.2,0-2.7,1.4-3.5
	c0.3,0.1,0.5,0.2,0.7,0.5c0.1,0.3,0.1,0.6,0.1,0.9c0,19,0,38,0,57c0,30.8,0,61.7,0,92.5c0,1.2-0.1,2.4,0.1,3.5
	C161.4,161.7,162,162.4,161,162.8z"/>
<path fill-rule="evenodd" clip-rule="evenodd" fill="#84343A" d="M11.8,93.6c0.3-0.5,0.3-1,0-1.5c0.6-2.9,0.2-5.8,0.2-8.7
	c0.1-8.3,0.1-16.6,0-25c0-2.2-0.2-4.5-0.2-6.7c0.1-0.9-0.3-1.8,0.5-2.5c0.2,0,0.3,0,0.5,0c0.3,0.1,0.6,0.1,0.9,0.2
	c16.9,0.1,33.7,0.2,50.5-0.1c0.3,0,0.6,0.1,0.9,0.2c1.1,0.6,1,1.6,1,2.6c-0.2,35,0,69.9-0.1,104.9c0,0.2-0.1,0.5,0.2,0.6
	c-0.3-0.7-0.1-1.4-0.1-2c0-33.5,0-67.1,0-100.6c0-1.7-0.2-3.5,0.6-5.2c1.3,0,1.1,1,1.3,1.8c0.2,1.3,0,2.7,0,4c0,33.2,0,66.3,0,99.5
	c0,1.2-0.3,2.4,0.4,3.4c2.9,1.3,5.9,0.4,8.8,0.5c0.8,0,1.1-0.6,1-1.4c-0.1-1.2-0.1-2.5-0.1-3.7c0-0.6,0-1.1,0-1.7
	c0.1-1.6-0.4-2.6-2.3-2.8c-0.7-0.1-1.8,0.1-1.5-1.3c0.6-0.2,1.3-0.1,1.4-0.1c-0.8,0.1-1.4-0.5-1.5-1.8c-0.3-6.9-0.1-13.9-0.1-20.8
	c0-0.8,0.3-1.5,0.9-2c0.3-0.1,0.5-0.1,0.8,0c0.8,1,0.6,2.2,0.6,3.4c0,5,0,10.1,0,15.1c0,1-0.2,2,0.5,3c1-0.4,1.4-1.7,2.5-2
	c1-0.5,2.1-0.6,3.2-0.5c7.1,0.3,14.2-0.1,21.3,0c0.3,0,0.6,0,0.9,0c10.6,0.2,21.2-0.1,31.8,0c3.6,0.6,7.2-0.4,10.8,0.5
	c1.6,0.4,2.7,1,2.4,2.8c0.8,0.1-2.2,1.2,0.2,1c0.5-0.1,1.1,0.2,1.1,0.9c-0.4,0.7-1.8,0.5-1.6,1.8c-0.3,1.9-0.1,3.9-0.8,5.8
	c-0.3,0.5-0.8,0.7-1.4,0.7c-1.4-0.9-0.2-2.1-0.6-2.9c-0.1,2,0.2,4.2,0.9,6.4c0.3,0.4,0.4,0.9,0.4,1.4c-0.4,0.6-1,0.5-1.6,0.5
	c-18.9-1.1-37.8-0.2-56.7-0.5c-4.7-0.1-9.3,0.4-14,0.1c-3.7-0.2-7.4-0.2-11,0.4c-0.6-0.4-1.3-0.2-2-0.2c-16,0-32.1,0-48.1,0
	c-0.7,0-1.4-0.2-2,0.2c-0.6,0-1.1,0.1-1.5-0.5c0.2-0.8,1.1-1.5,0.5-2.5v0c0.6-15.5,0.2-31,0.2-46.6c0-4.2,0.1-8.3,0.2-12.5
	c1.1-0.1,1.1,0.7,1.2,1.5c0.1,0.9,0.1,1.8,0.1,2.8c0,17.3,0,34.6,0,51.8c0,1.1-0.3,2.4,0.8,3.3c0.9,0.5,2,0.4,3,0.4
	c14.4,0,28.8,0,43.2,0c3.4,0,3.5-0.1,3.5-3.6c0-33.2,0-66.3,0-99.5c0-3.8-0.2-3.9-4-3.9c-14.1,0-28.3,0-42.4,0
	c-1.2,0-2.4-0.1-3.5,0.5c-0.9,0.9-0.6,2.1-0.6,3.1c0,11.7,0,23.5,0,35.2c0,1.2,0.2,2.5-0.5,3.7C11.8,95.2,12.2,93.8,11.8,93.6z"/>
<path fill-rule="evenodd" clip-rule="evenodd" fill="#893940" d="M12.3,49.2c0-13.3,0-26.6,0-39.9c0.1-0.8,0.5-0.4,0.8-0.2
	c0.3,0.4,0.3,0.8,0.4,1.3c0.1,9.2,0,18.5,0,27.7c0,0.4,0,0.8,0,1.2c1.4,0.3,2.8,0,4.2,0c45.4,0,90.7,0,136.1,0c1.3,0,2.7,0,4,0.1
	c0.3-0.1,0.5-0.2,0.8-0.3c0.2-0.2,0.5-0.2,0.8-0.1c1.5,0.6,0.5,1.6,0.5,2.5c-0.2,0.2-0.5,0.3-0.7,0.5c-0.3,0.1-0.6,0.2-0.9,0.2
	c-0.5,0-0.9,0.1-1.4,0.1c-46.1,0-92.2,0-138.3,0c-1.3,0-2.5,0-3.8,0c-1.2,0.1-1.2,0.9-1.3,1.8c-0.1,1.7,0.2,3.4,0,5
	C13.1,49.5,12.7,49.4,12.3,49.2L12.3,49.2z"/>
<path fill-rule="evenodd" clip-rule="evenodd" fill="#88383E" d="M12.8,8.8c-0.2,0.2-0.4,0.3-0.5,0.5c-1,0-0.4-1.7-1.6-1.6
	c0-0.3,0.1-0.6,0.1-0.9c49.4,0,98.8,0,148.2,0c0.4,0,0.8,0.1,1.3,0.1c-0.2,0.8-0.3,1.6-0.5,2.4c-0.2,0.2-0.4,0.3-0.7,0.2
	c-0.2-0.1-0.5-0.2-0.6-0.4c-0.2-0.2-0.4-0.3-0.7-0.4c-1,0.3-2,0.3-3,0.3C108.2,9,61.8,9,15.3,9c-0.7,0-1.3,0-2-0.1
	C13.1,8.9,13,8.8,12.8,8.8z"/>
<path fill-rule="evenodd" clip-rule="evenodd" fill="#8D4247" d="M160.9,7.1c0.8,0.6,0.6,1.5,0.6,2.3c0,50.1,0,100.3,0,150.4
	c0,0.5-0.1,1-0.1,1.5c-0.7-0.6-0.5-1.4-0.5-2.1c0-50.5,0-100.9,0-151.4C160.8,7.6,160.8,7.3,160.9,7.1z"/>
<path fill-rule="evenodd" clip-rule="evenodd" fill="#8D4247" d="M158.7,41.6c0.2,0,0.4,0,0.6,0c0.2,0.7,0.2,1.3,0.2,2
	c0,38.1,0,76.2,0,114.4c0,0.6,0.1,1.2-0.1,1.7c-0.3,1.3-1.3,1.1-2.2,1.1c-3,0-6,0-9,0c-0.4-0.2-0.5-0.6-0.5-1c-0.7-1.3-0.7-2.7,0-4
	c0.2-0.4,0.5-0.5,0.9-0.5c0.4,0.3,0.7,0.8,0.7,1.3c0.1,2,1.3,2.4,3,2.5c5.6,0.2,5.6,0.2,5.6-5.4c0-35.8,0-71.6,0-107.4
	C158,44.7,157.6,43,158.7,41.6z"/>
<path fill-rule="evenodd" clip-rule="evenodd" fill="#7B2027" d="M159.4,159.7c0-37.2,0-74.4,0-111.6c0-2.2,0-4.4,0-6.6
	c0.1,0,0.3,0,0.4,0c0,38.3,0,76.5,0,114.8C159.7,157.5,160.5,158.7,159.4,159.7z"/>
<path fill-rule="evenodd" clip-rule="evenodd" fill="#81313A" d="M11.8,93.6c0.4,0.2,0.5,0.6,0.5,1c0.9,1.5,0.9,3,0,4.4
	c0,18.6,0,37.2,0,55.7c0,1.2,0.2,2.4-0.5,3.4c-1.2-1.1,0-2.2,0-3.3c-0.2-14.3,0.2-28.5-0.2-42.8C11.4,106,11.7,99.8,11.8,93.6z"/>
<path fill-rule="evenodd" clip-rule="evenodd" fill="#81313A" d="M12.8,161.3c0.7-0.8,1.6-0.5,2.4-0.5c15.8,0,31.5,0,47.3,0
	c0.8,0,1.7-0.3,2.4,0.5C47.5,161.3,30.1,161.3,12.8,161.3z"/>
<path fill-rule="evenodd" clip-rule="evenodd" fill="#81313A" d="M11.8,51.7c0.8,0.7,0.5,1.6,0.5,2.4c0,11.9,0,23.8,0,35.7
	c0,0.8,0.3,1.7-0.5,2.4c0-11,0-22,0-33C11.8,56.6,10.6,54.2,11.8,51.7z"/>
<path fill-rule="evenodd" clip-rule="evenodd" fill="#A7675B" d="M158.8,9.2c0.2,0,0.3,0,0.5,0.1c0.5,2.1,0.2,4.1,0.2,6.2
	c0,7.7,0.2,15.4-0.1,23c0,0.2-0.1,0.4-0.1,0.6c-0.2,0-0.3,0-0.5,0.1c-0.1-0.1-0.2-0.2-0.3-0.3c-0.2-0.3-0.3-0.6-0.3-0.9
	c-0.1-9.2-0.1-18.3,0-27.5c0.1-0.3,0.2-0.6,0.3-0.9C158.6,9.4,158.7,9.3,158.8,9.2z"/>
<path fill-rule="evenodd" clip-rule="evenodd" fill="#7B2332" d="M159.4,38.5c0-9.7,0-19.5-0.1-29.2c0.2,0,0.3,0,0.5,0
	c0,8.9,0,17.7,0,26.6C159.8,36.7,160.1,37.7,159.4,38.5z"/>
<path fill-rule="evenodd" clip-rule="evenodd" fill="#81313A" d="M11.8,158.3c1,1.1,0.1,1.8-0.5,2.5C11.4,160,11.6,159.1,11.8,158.3
	z"/>
<path fill-rule="evenodd" clip-rule="evenodd" fill="#FDA855" d="M13.2,51.7c0.7-0.6,1.6-0.4,2.4-0.4c15.4,0,30.8,0,46.2-0.1
	c2.3,0,3,0.6,3,3c-0.1,34.1,0,68.2-0.1,102.3c0,3.5,0,3.5-3.6,3.5c-15.1,0-30.1,0-45.2,0c-0.9,0-1.8-0.1-2.8-0.1
	c-0.5-0.8-0.2-1.6-0.2-2.5c0-18.3,0-36.6-0.1-55c0-2.3,1.3-4.1,1.7-6.2c0.2-0.9,1.2-1,2-1.3c0.6-0.2,1.1-0.5,0.9-1.3
	c-0.1-0.5-0.6-0.7-1.2-0.8c-1-0.1-2,0.1-2.9-0.7c-0.6-1-0.3-2.1-0.3-3.2c0-12.3,0-24.5,0-36.8C13.3,52,13.2,51.8,13.2,51.7z"/>
<path fill-rule="evenodd" clip-rule="evenodd" fill="#B64D4D" d="M104.7,143.1l-0.2,0l-0.2,0c-0.4-0.6-1.4-0.7-1-1.7
	c2.5-1.6,3.2-4,2.9-6.8c-0.1-0.6,0.1-1.3-0.6-1.5c-0.6-0.2-1.2,0.2-1.5,0.7c-1.4,2.2-2.8,1.9-4.2-0.1c-0.3-0.4-0.8-0.7-1.3-0.6
	c-0.7,0.2-0.6,0.9-0.7,1.5c-0.1,2.4-0.3,4.8,2,6.4c0.3,0.2,0.6,0.6,0.3,1.1c-2.9,1-5.9,1.3-8.8,0.1c-0.1-0.9,0.7-1.3,1.2-1.8
	c1.7-1.6,2-3.6,1.9-5.8c-0.1-1.7-0.8-1.9-2.1-1.1c-0.5,0.3-0.9,0.7-1.3,1.2c-0.9,1-1.6,1.1-2.3-0.1c-0.2-0.4-0.5-0.7-0.9-0.9
	c-0.5-0.3-1-0.8-1.6-0.5c-0.7,0.3-0.6,0.9-0.6,1.5c-0.3,2.9,0.3,5.4,3,6.9c0.3,1.1-0.2,1.3-1.2,1.2c-1.8-0.2-3.6,0.1-5.4,0.1
	c-0.8,0-1.7-0.3-2.2,0.7c-0.8,0.1-1.4,0.5-1.5,1.4c-0.1,0.8-0.2,1.6-1.3,1.5c-1-0.2-1.3-0.9-1.3-1.9c0-3.1,0-6.2,0-9.3
	c0-3.9,0-7.9,0-11.8c0.7-1.2,2-1.2,3.1-1.2c22.9,0,45.7-0.1,68.6,0c3.4,0,4.2,0.8,4.2,4.2c0,3.7,0,7.5-0.3,11.3
	c-0.2,2.3,0.1,4.7,0,7c0,1.9-0.7,2.3-2.3,1.4c0.8-1.8,0-2.2-1.8-2.6c-3.5-0.8-7,0.3-10.4-0.4c-3-1-6,0.1-9.1-0.3
	c-0.7-0.1-1.3,0-1.3-1c2.3-1.7,4.1-3.7,3.6-6.9c-0.1-0.6,0.2-1.5-0.6-1.8c-0.7-0.3-1.3,0.2-1.7,0.7c-1.4,1.9-2.7,1.4-4.1-0.1
	c-0.4-0.4-0.9-0.9-1.5-0.7c-0.7,0.3-0.4,1-0.4,1.6c-0.2,2.6,0,5.1,2.6,6.6c0.4,0.2,0.5,0.6,0.3,1.1c-2.4,1.4-5.1,0.4-7.6,0.6
	c-0.9,0.1-2,0.6-2.7-0.6c-0.1-0.7,0.4-1,0.9-1.3c2.5-1.5,2.8-3.8,2.6-6.4c-0.1-1.7-1-2.1-2-0.9c-1.7,1.9-2.9,1.7-4.5,0
	c-0.9-0.9-1.7-0.7-1.8,0.7c-0.1,2.4-0.3,4.9,2.3,6.5c0.4,0.2,0.8,0.6,0.7,1.2c-1.5,1.3-3.3,0.7-5,0.8
	C106.8,142.9,105.7,142.6,104.7,143.1z"/>
<path fill-rule="evenodd" clip-rule="evenodd" fill="#FCFCFC" d="M158.7,41.6c0.1,4.2,0.2,8.4,0.2,12.6c0,34.1,0,68.1,0,102.2
	c0,3.9,0.4,3.4-3.3,3.4c-0.7,0-1.3,0-2,0c-4.8,0-4.8,0-5-4.6c0.2-2.2,0.4-4.4,0.6-6.6c0.8-0.9,2.3-0.1,2.9-1.3
	c0.6-0.9,0.4-2,0.4-2.9c0-6.1,0-12.2,0-18.4c0-1.3-0.1-2.5,0.5-3.7c0.8-2.9,0.9-5.8,0-8.7c-0.6-1.4-0.5-2.8-0.5-4.2
	c0-18.6,0-37.2,0-55.8c0-1.3,0.2-2.7-0.4-4c-0.5-1.2-1.5-0.8-2.4-0.8c-4.6,0-9.2,0-13.9,0c-4.1,0.1-6.5-2.8-9-5.3
	c-0.6-0.6-0.3-1.2,0.6-1.4c0.7-0.1,1.5-0.1,2.3-0.1c8.4,0,16.8,0,25.2,0c1,0,2,0.2,2.9-0.4C158.1,41.6,158.4,41.6,158.7,41.6z"/>
<path fill-rule="evenodd" clip-rule="evenodd" fill="#FDFCFC" d="M115.3,159.7c-10.6,0-21.2,0.1-31.8,0.1c-0.9,0-1.5-0.1-1.6-1.3
	c-0.2-3.5-0.5-7-0.9-10.6c-0.2-1.4,0.2-1.9,1.7-1.9c16.4,0.1,32.8,0.1,49.2,0.1c0.1,1.1-0.8,1.6-1.5,2.1c-4.3,3.5-8.7,6.8-12.9,10.3
	C116.9,159.2,116,159.3,115.3,159.7z"/>
<path fill-rule="evenodd" clip-rule="evenodd" fill="#F9F9F6" d="M157.8,41.7c-0.4,1.5-1.6,0.9-2.5,0.9c-9.4,0-18.8,0-28.4,0
	c3.2,3.7,6.5,6.2,11.6,5.6c4.2-0.4,8.4-0.2,12.6-0.2c0.6,0,1.8-0.4,1.2,1.1c-0.1,0.1-0.2,0.2-0.3,0.4c-0.3,0.2-0.6,0.3-0.9,0.4
	c-1.2,0.2-2.3,0.1-3.5,0.1c-23,0-45.9,0-68.9,0c-1,0-2.2-0.4-3.1,0.6c-0.5,1.1-0.3,2.3-0.3,3.5c0,18.3,0,36.5,0,54.8
	c0,1.3,0.1,2.7-0.2,4c-2.1,2.8-1.1,6.1-1.3,9.2c0,0.6,0,1.2-0.5,1.7c-1.7,0.4-1.8-1-1.9-2c-0.1-3.2-0.8-6.5,0.9-9.6
	c0.5-1,0.4-2.1,0.4-3.2c0-18.1,0-36.2,0-54.2c0-0.8,0.4-1.9-0.5-2.3c-1-0.4-1.6,0.7-2.3,1.2c-0.7,0.6-1.1,1.5-1.2,2.4
	c-0.1,0.8-0.1,1.7-0.1,2.5c0,26.4,0.1,52.8-0.1,79.2c0,3.5,1.3,5.7,4.3,7.1c-0.5-2-0.2-4-0.2-6c-0.1-4,0-7.9,0-11.9
	c0-1.3,0-2.5,0.8-3.6c1.6,0.3,1,1.5,1,2.4c0.1,7.1-0.1,14.3,0.1,21.4c0.1,0.3,0.1,0.6,0,0.9c0.1,0.1,0.2,0.3,0.3,0.3
	c4.1,0.7,4.1,0.7,4,5.2c-1,1.3-1.4,0.2-1.3-0.5c0.2-1.1-0.6-1.1-1.2-1.4c-2.2-1.2-3.4-3.5-5.5-4.9c-0.8-0.5-1.5-1.1-2.4-1.9
	c0.1,4.1,0,8,0.1,11.9c0,1,0.2,2-0.7,2.8c-1-0.5-0.5-1.5-0.5-2.2c0-34.5,0-69,0-103.5c0-1.5,0.4-3-0.4-4.5c-0.1-0.1-0.2-0.2-0.2-0.4
	c0-0.1,0-0.2,0-0.2c0.2-0.3,0.4-0.6,0.7-0.7c1-0.4,1.2,0.2,1.3,1c0,0.5-0.4,1.1,0.1,1.4c0.5,0.3,0.8-0.4,1.1-0.6
	c2.6-2.4,5.6-4.3,8.7-6.6c-5.1,0-9.9,0-14.7,0c-15.4,0-30.7,0-46.1,0c-1.3,0-2.7,0.2-4-0.5c-0.4-0.3-0.5-0.8-0.2-1.2
	c1.8,0,3.5-0.1,5.3-0.1c45.4,0,90.8,0,136.2,0C156.1,41.6,156.9,41.6,157.8,41.7z"/>
<path fill-rule="evenodd" clip-rule="evenodd" fill="#FEFEFE" d="M134,146.2c3.8,0,7.6,0,11.4-0.1c1.3,0,1.5,0.4,1.4,1.6
	c-0.4,3.5-0.8,7-1,10.6c-0.1,1.2-0.4,1.6-1.6,1.6c-9.1-0.1-18.2-0.1-27.3-0.1c0.6-2,2.6-2.7,4-3.9c3.7-3,7.4-6,11.3-8.8
	C132.8,146.7,133.4,146.6,134,146.2z"/>
<path fill-rule="evenodd" clip-rule="evenodd" fill="#FDFCFC" d="M67.8,159.7c0-5.2,0-10.3,0-15.6c3,1.3,4.8,4,7.3,5.7
	c0.2,0.1,1,0.6,1.3,1c0.5,0.8,2,0.9,1.6,2.3c-0.2,0.7,0.3,0.8,0.9,0.6c0,2,1.2,4.5,0.1,5.8c-1.1,1.2-3.7,0.3-5.6,0.4
	C71.5,159.9,69.7,159.8,67.8,159.7z"/>
<path fill-rule="evenodd" clip-rule="evenodd" fill="#81313A" d="M65.8,159.8c-1.1-0.3-0.5-1.2-0.5-1.8c0-34.7,0-69.4-0.1-104.1
	c0-1.4,1.1-3-0.5-4.2c0.9-0.5,1.6-0.4,1.7,0.8c0.1,0.6,0,1.2,0,1.8c0,34.8,0,69.7,0,104.5C66.6,157.8,67,159,65.8,159.8z"/>
<path fill-rule="evenodd" clip-rule="evenodd" fill="#7D2228" d="M65.8,159.8c0.5-0.8,0.5-1.7,0.5-2.7c0-35,0-70,0-105
	c0-1.1,0.5-2.6-1.5-2.5c-0.2,0-0.3,0-0.5,0c-0.6,0.4-1.3,0.2-2,0.2c-16,0-32.1,0-48.1,0c-0.5,0-1,0-1.5-0.3
	c-0.2-0.2-0.3-0.3-0.5-0.5c0.4,0,0.7,0,1.1-0.1c0.8-0.8,1.9-0.7,2.8-0.7c16,0,31.9,0,47.8,0c1,0,2-0.1,2.8,0.7c0,0.1,0,0.3,0,0.4
	c0,1.1-0.1,2.2-0.1,3.3c0,34.7,0,69.5,0,104.2C66.8,158,67.5,159.3,65.8,159.8z"/>
<path fill-rule="evenodd" clip-rule="evenodd" fill="#E99F56" d="M13.8,92.1c1.1,0,2.2,0,3.3,0c1.3-0.1,1.8,0.4,1.8,1.7
	c0,1.2-0.4,1.9-1.7,1.8c-1.5-0.1-2.6,0.2-2,2.1c0.1,0.3-0.1,0.7-0.3,0.9c-2.5,2.2-1.5,5.1-1.5,7.6c-0.1,17.8,0,35.6,0,53.5
	c-0.9-0.8-0.5-1.9-0.5-2.8c0-18.3,0-36.6,0-55c0-1,0.4-2-0.4-2.9c0-1.5,0-3,0-4.4c0.7-0.9,0.5-1.9,0.5-2.9c0-12.5,0-25,0-37.5
	c0-0.9-0.4-1.9,0.4-2.6l0.1,0.1c0.4,2.3,0.1,4.7,0.2,7c0,10.3,0,20.6,0,30.9C13.6,90.5,13.2,91.3,13.8,92.1z"/>
<path fill-rule="evenodd" clip-rule="evenodd" fill="#8A393F" d="M149.2,146.1c1,0,1.7,0.3,1.7-1.5c0.1-3-0.1-6,0.1-8.9
	c0.2-3.4,0.5-6.8,0.2-10.2c-0.1-1.6-0.7-2.7-2.6-2.5c-0.8,0.1-1.5,0-2.3,0c-22.1,0-44.3,0-66.4,0c-1.4,0-2.7,0.1-4,0.5
	c-0.2,0-0.3,0-0.5,0c-0.1-0.3-0.1-0.6,0.2-0.9c1-0.9,2.2-0.8,3.4-0.8c23.1,0,46.3,0,69.4,0c1.7,0,3.2,0.2,3.8,2.2
	c0.5,7.3,0.1,14.6,0.2,21.9c0,0.8,0,1.8-1.2,1.9c-0.6-0.8-1.5-0.4-2.3-0.5c-0.3-0.1-0.7-0.2-0.5-0.5
	C148.5,146.4,148.9,146.3,149.2,146.1z"/>
<path fill-rule="evenodd" clip-rule="evenodd" fill="#802C32" d="M146.5,145.1c-21.4,0-42.9,0-64.3,0c0-0.1,0-0.2,0-0.3
	c21.5,0,42.9,0,64.4,0C146.5,144.9,146.5,145,146.5,145.1z"/>
<path fill-rule="evenodd" clip-rule="evenodd" fill="#81313A" d="M12.8,49.7c17.2,0,34.3,0,51.5,0c-0.8,0.9-1.9,0.5-2.9,0.5
	c-15.1,0-30.2,0-45.2,0C15.1,50.1,13.7,51.2,12.8,49.7z"/>
<path fill-rule="evenodd" clip-rule="evenodd" fill="#F7F7F7" d="M134,146.2c-3.4,2.7-6.7,5.4-10.1,8c-2.3,1.8-4.7,3.7-7.1,5.5
	c-0.5,0-1,0-1.5,0c5.4-4.4,10.9-8.8,16.3-13.2c0.1-0.1,0.2-0.2,0.3-0.4C132.7,146.2,133.3,146.2,134,146.2z"/>
<path fill-rule="evenodd" clip-rule="evenodd" fill="#BB4F50" d="M114.8,141.6c0.1,0.2,0.2,0.6,0.3,0.7c3.1,0.5,6.2,0.6,9.3-0.1
	c0.2,0,0.3-0.4,0.5-0.6c0.7-0.6,1.4-0.6,2,0c1.9,1.3,4.1,1.2,6.1,0.8c1.5-0.3,2.8-0.2,4,0.7c-10.8,0-21.6,0-32.3,0
	c2.2-1.2,4.8,0.1,7-1c0.4-0.2,0.7-0.3,1.1-0.5C113.5,141,114.2,141,114.8,141.6z"/>
<path fill-rule="evenodd" clip-rule="evenodd" fill="#BB4F50" d="M91.6,141.6c2,2,4.4,0.6,6.6,0.8c0.6,0.1,1.3-0.5,2-0.8
	c1-0.9,2-0.9,3,0c0.3,0.5,1.1,0.7,1,1.5c-6,0.2-11.9-0.1-17.9,0.3c-2.1,0.1-4.3-0.6-6.4,0.1c-0.1-0.4-0.8-1.3,0.3-1
	c2.6,0.6,5.2-1,7.8-0.1c0.1,0,0.3-0.5,0.5-0.7C89.6,140.8,90.6,140.8,91.6,141.6z"/>
<path fill-rule="evenodd" clip-rule="evenodd" fill="#7C242B" d="M151.2,147.7c0.8-0.7,0.5-1.7,0.5-2.6c0-7,0-14.1,0-21.1
	c-0.2-0.5-0.3-1.1,0.5-0.9c0.6,0.2,0.5,1,0.5,1.6c0,7.4,0,14.8,0,22.2c0,0.5-0.2,1-0.4,1.4c-1,0.6-2.1,0.1-3.1,0.4
	C149,146.6,150.6,148.2,151.2,147.7z"/>
<path fill-rule="evenodd" clip-rule="evenodd" fill="#7E272E" d="M75.4,122.9c0,0.2,0,0.3,0,0.5c-0.2,0.6-0.5,1.3-0.5,1.9
	c0,6.7,0.2,13.4,0.1,20.2c0,1.8,0.5,2.4,2.2,2.2c0.4-0.1,0.8,0,1.2,0.5c-1.3,0-2.6,0-3.9,0c-0.1-0.1-0.2-0.3-0.2-0.4
	c-0.3-8.2-0.1-16.4-0.1-24.5C74.5,122.6,74.9,122.6,75.4,122.9z"/>
<path fill-rule="evenodd" clip-rule="evenodd" fill="#822D33" d="M80.8,151.2c-0.2,2.8,0.8,5.8-0.7,8.9
	C79.6,156.9,80.2,154,80.8,151.2z"/>
<path fill-rule="evenodd" clip-rule="evenodd" fill="#822D33" d="M147.7,155.7c0,1.3,0,2.7,0,4c-0.7-0.1-1-0.5-1-1.2
	c0-2.1,0-4.2,0-6.8C147.6,153.3,146.6,154.8,147.7,155.7z"/>
<path fill-rule="evenodd" clip-rule="evenodd" fill="#FDFCFC" d="M66.9,49.1c-12.3,0-24.6-0.1-36.9-0.1c-5.6,0-11.1,0.1-16.7,0.1
	C12.4,46.8,13,44.4,13,42c0-0.4,0.5-0.3,0.8-0.3c0,0.3,0,0.6,0,0.9c0.3,0.6,0.1,1-0.2,1.5c0,0.6,0,1.2,0,1.8c0-1.6,0-1.6,1-2.1
	c0.6,2.4,2.5,2.6,4.6,2.6c14.3,0,28.6,0,42.9,0c1.3,0,2.7-0.1,4,0.5c0.7,0.3,2,0.4,1.4,1.8C67.2,48.8,67,49,66.9,49.1z"/>
<path fill-rule="evenodd" clip-rule="evenodd" fill="#77222D" d="M158.8,39.6c-0.2,1.1-1,0.5-1.5,0.5c-47.6,0-95.3,0-142.9,0
	c-0.5,0-1-0.1-1.5-0.1c0,0-0.1-0.1-0.1-0.2c0-0.1,0.1-0.2,0.1-0.2c0.9-0.8,2-0.7,3.1-0.7c46.6,0,93.1,0,139.7,0
	C156.7,38.9,157.8,38.7,158.8,39.6z"/>
<path fill-rule="evenodd" clip-rule="evenodd" fill="#A7675B" d="M158.8,8.8c0,0.1,0,0.3,0.1,0.4l-0.2,0.2c-1.3,1-2.8,0.6-4.1,0.6
	c-45.6,0-91.1,0-136.7,0c-1.3,0-2.7,0-4,0c-0.3,0-0.7,0-1-0.2c0-0.4,0-0.7,0-1.1l0,0c0.9-0.5,1.8-0.2,2.7-0.3c46.9,0,93.7,0,140.5,0
	C156.9,8.5,157.9,8.3,158.8,8.8z"/>
<path fill-rule="evenodd" clip-rule="evenodd" fill="#A7675B" d="M158.8,39.6c-48.6,0-97.3,0-145.9,0c0-0.4,0-0.7,0-1.1
	c0.3-0.1,0.6-0.2,1-0.2c46.8,0.1,93.6,0,140.5,0c1.5,0,3-0.4,4.4,0.6c0,0,0.2,0.1,0.2,0.2C158.8,39.3,158.8,39.4,158.8,39.6z"/>
<path fill-rule="evenodd" clip-rule="evenodd" fill="#F8EBBA" d="M13.3,38.7c-0.2-0.1-0.3-0.1-0.5-0.2c0-9.5,0-19.1,0-28.6
	c0.2-0.1,0.3-0.1,0.5-0.2c0.1,0.1,0.2,0.2,0.3,0.4c0.2,0.4,0.3,0.8,0.3,1.2c0,8.9,0.2,17.8-0.1,26.6C13.7,38.2,13.6,38.5,13.3,38.7z
	"/>
<path fill-rule="evenodd" clip-rule="evenodd" fill="#77232E" d="M158.8,8.8c-48.7,0-97.3,0-146,0c0.6-0.8,1.5-0.5,2.4-0.5
	c47.3,0,94.6,0,141.9,0c0.6,0,1.2,0.1,1.7,0.1c0,0,0.1,0.1,0.1,0.2C158.8,8.6,158.8,8.7,158.8,8.8z"/>
<path fill-rule="evenodd" clip-rule="evenodd" fill="#D3A58B" d="M13.3,9.6C14,9,14.8,9.3,15.5,9.3c47.3,0,94.6,0,141.9,0
	c0.4,0,0.8,0.1,1.3,0.1c0,0.2,0,0.3,0,0.5c-0.2,0.2-0.5,0.4-0.8,0.5c-0.3,0.1-0.7,0.1-1,0.1c-46.9,0.1-93.8,0-140.7,0
	c-1,0-2,0.1-2.9-0.5C13.2,9.8,13.3,9.7,13.3,9.6z"/>
<path fill-rule="evenodd" clip-rule="evenodd" fill="#D2A589" d="M158.7,39c-0.9,0-1.8,0.1-2.8,0.1c-46.5,0-92.9,0-139.4,0
	c-1.1,0-2.2,0.4-3.2-0.4c-0.1-0.1-0.1-0.2-0.1-0.3c1.2-0.7,2.6-0.5,3.9-0.5c23.2,0,46.4,0,69.6,0c0.5,0,1,0,1.5,0
	c21.9,0.1,43.9,0,65.8,0c1.3,0,2.5-0.1,3.8,0.1c0.3,0.1,0.6,0.3,0.9,0.5C158.7,38.7,158.7,38.8,158.7,39z"/>
<path fill-rule="evenodd" clip-rule="evenodd" fill="#F7E2AE" d="M158.7,38.5c-0.2,0-0.3,0-0.5,0c-0.8-0.8-0.7-1.9-0.7-2.9
	c0-7.6,0-15.3,0-22.9c0-1-0.1-2,0.7-2.9c0.2,0,0.3,0,0.4,0C158.7,19.4,158.7,28.9,158.7,38.5z"/>
<path fill-rule="evenodd" clip-rule="evenodd" fill="#86373B" d="M58.2,109.2c0,0.4,0,0.7,0,1.1c-0.3,1.7-0.3,3.3,0,5
	c0,0.4,0,0.7,0,1.1c-0.5,4.2,0.2,8.4-0.7,12.6c-1.2-5.1-0.3-10.4-0.8-15.5c-0.1-0.5-0.1-0.9,0-1.4c0.2-9.5,0-19,0.1-28.5
	c0-6.4-0.1-12.8,0.1-19.1c-0.2,14.1,0,28.2-0.1,42.3c0,6.5,0,13.1,0,19.6c0,1,0.2,2-0.3,3c-0.3,0.2-0.6,0.2-0.8,0
	c-0.8-1.2-0.5-2.6-0.5-3.9c0-20,0-40,0-60c0-3.7-0.2-3.9-3.8-3.9c-8.2,0-16.3,0-24.5,0c-1,0-2-0.2-3,0.3c-0.9,0.9-0.6,2-0.6,3.1
	c0,9.8,0,19.6,0,29.4c0,1.2,0.2,2.4-0.5,3.4c-0.7,0.6-1.3,0.8-1.6-0.4c-0.2-0.6-0.1-1.2-0.1-1.8c0-11.9,0-23.9,0-35.8
	c0-0.5,0.2-1,0.5-1.4c11.9,0,23.9,0,35.8,0c0.3,0.3,0.4,0.8,0.8,1c0,1.5,0.1,3,0.1,4.5c-0.3,7.7-0.3,15.4,0,23.2c0,0.4,0,0.7,0,1.1
	C57.9,95.1,57.9,102.2,58.2,109.2z"/>
<path fill-rule="evenodd" clip-rule="evenodd" fill="#87363A" d="M56.7,113.3c1,1.2,0.4,2.6,0.5,3.9c0.1,3.7,0,7.5,0.5,11.2
	c0-3.1,0-6.3,0-9.4c0-0.9-0.3-1.9,0.4-2.6c0,4.2,0,8.4,0.1,12.6c0.1,2.2-0.7,3-2.9,3c-8.1-0.1-16.3,0-24.4,0c-2.8,0-5.5-0.1-8.3-0.1
	c-0.8,0-1.5,0-1.9-0.8c-0.4-7.4-0.1-14.7-0.2-22.1c0-1.1,0-2.2,0-3.3c0-1.2,0.5-1.9,1.7-2c1,1,0.7,2.3,0.7,3.5
	c0.1,7.1-0.2,14.2,0.2,21.2c0.1,0.2,0.3,0.5,0.6,0.6c1.1,0.4,2.2,0.2,3.2,0.2c9.4,0,18.7-0.1,28.1,0c0.2,0,0.3,0.1,0.5,0.1
	c0.2,0,0.4,0,0.6,0c0.5-4.5,0.1-9,0.2-13.4C56.5,115.1,56.2,114.2,56.7,113.3z"/>
<path fill-rule="evenodd" clip-rule="evenodd" fill="#86343B" d="M57.7,136.6c0.1,0.1,0.1,0.2,0.1,0.3c0.2,5.6,0.4,11.2-0.1,16.8
	l0,0c-0.4,0.3-1,0.3-1.5,0.3c-11.2,0-22.3,0-33.5,0c-0.5,0-1,0.1-1.5-0.2l0,0c-0.7-0.4-0.7-1-0.7-1.7c0-3.7,0-7.4,0-11
	c0-0.3,0-0.7,0.5-0.9c0.9,0.6,0.9,1.6,0.9,2.6c0.1,2.3,0,4.7,0,7c0,0.9,0,1.9,1.2,2.2c10.5,0.1,21,0.2,31.5-0.1
	c0.4-0.2,0.7-0.4,1-0.8c0.4-3.9,0.8-7.7-0.2-11.5c-0.3-0.1-0.5-0.1-0.8-0.1c-9.2-0.1-18.4,0-27.6,0c-1.2,0-2.3,0-3.5-0.1
	c-0.3,0-0.5-0.1-0.8-0.2c-1.3-2.2-0.9,1.3-1.8,0.4c-0.6-0.7-0.4-1.6-0.2-2.5c0.1-0.1,0.3-0.3,0.4-0.4c1.1-0.4,2.3-0.2,3.5-0.2
	c10.1,0,20.2,0,30.2,0C55.9,136.3,56.8,136.1,57.7,136.6z"/>
<path fill-rule="evenodd" clip-rule="evenodd" fill="#87353A" d="M62.8,100.9c0,4,0,8,0,12.1c0,1,0.1,2.3-1.3,2.3
	c-1.4,0-1.3-1.3-1.3-2.3c0-8.1,0-16.3,0-24.4c0-1-0.1-2.3,1.2-2.3c1.3,0,1.3,1.3,1.3,2.3C62.8,92.7,62.8,96.8,62.8,100.9z"/>
<path fill-rule="evenodd" clip-rule="evenodd" fill="#F9AE57" d="M58.9,58.9c0,24.2,1.9,48.3,0,71.9C58.9,107.2,58.9,83,58.9,58.9z"
	/>
<path fill-rule="evenodd" clip-rule="evenodd" fill="#86353B" d="M20.8,137c0,0.7,0.1,1.4,0.1,2.3c0.7-0.7,0.3-2,1.4-1.9
	c0.6,0-0.1,0.8,0.1,1.3c1.4,3,0.4,6.1,0.7,9.2c0.1,1-0.4,2.3,0.9,2.9c3,0.5,6,0.2,9,0.2c6.1,0.1,12.2,0,18.4,0
	c3.3,0,3.5-0.2,3.5-3.6c0-1.9,0-3.9,0-5.8c0-1,0-2,0.7-2.9c0.2,0,0.4,0,0.7,0c0.3,4.3,0.3,8.7,0,13c-0.2,0.2-0.4,0.4-0.6,0.6
	c-0.9,0.4-1.8,0.2-2.7,0.2c-9.1,0-18.2,0-27.4,0c-0.9,0-1.8-0.2-2.7,0.2c-1.5,0.1-1.5-0.8-1.5-1.9c0-3.4,0-6.8-0.2-10.1
	c0.1,4.4-0.9,8.8,0.2,13.1c-0.4-0.1-0.8-0.3-0.8-0.8C20.6,147.6,20,142.3,20.8,137z"/>
<path fill-rule="evenodd" clip-rule="evenodd" fill="#A46365" d="M22.3,103.7c-1.4,0.8-1.5,2-1.5,3.5c0,8,0,15.9,0,23.9
	c-0.8-0.9-0.4-1.9-0.4-2.9c-0.1-7.6-0.1-15.3-0.1-22.9c-0.8-1-0.5-2,0.1-3c0-13.6,0-27.2,0.1-40.8c0-1.1-0.5-2.4,1-3.1
	c0,0.3,0,0.6,0,0.8c-0.4,0.5-0.2,1.1-0.2,1.7c0,11.7,0,23.5,0,35.2c0,0.7-0.7,2,0.9,2.2c0.3,0,0.6,0.1,0.9,0.2
	c0.9,1,0.7,2.2,0.5,3.4C23.2,102.5,23,103.2,22.3,103.7z"/>
<path fill-rule="evenodd" clip-rule="evenodd" fill="#FEB259" d="M13.8,92.1c-0.8,0.1-0.5-0.5-0.5-0.8c0-13.2,0-26.4,0.1-39.5
	c0.8,0.8,0.4,1.8,0.4,2.6C13.8,67,13.8,79.5,13.8,92.1z"/>
<path fill-rule="evenodd" clip-rule="evenodd" fill="#FEB55C" d="M21.5,154.8c11.8,0,23.7,0,35.5,0c0,0.1,0,0.2,0,0.2
	c-11.9,0-23.7,0-35.6,0C21.5,155,21.5,154.9,21.5,154.8z"/>
<path fill-rule="evenodd" clip-rule="evenodd" fill="#86353B" d="M21.3,153.7c12.1,0,24.2,0,36.4,0c-0.6,0.7-1.4,0.5-2.1,0.5
	c-10.7,0-21.4,0-32.2,0C22.7,154.2,21.9,154.4,21.3,153.7z"/>
<path fill-rule="evenodd" clip-rule="evenodd" fill="#86353B" d="M57.7,136.6c-12.2,0-24.3,0-36.5,0c0.6-0.6,1.4-0.4,2.2-0.4
	c10.7,0,21.5,0,32.2,0C56.3,136.1,57.1,135.8,57.7,136.6z"/>
<path fill-rule="evenodd" clip-rule="evenodd" fill="#87363A" d="M58.2,87c-0.5-0.5-0.4-1.1-0.4-1.6c0-6.6,0-13.3,0-19.9
	c0-0.6-0.1-1.2,0.4-1.6C58.2,71.6,58.2,79.3,58.2,87z"/>
<path fill-rule="evenodd" clip-rule="evenodd" fill="#87363A" d="M58.2,109.2c-0.6-0.6-0.4-1.4-0.4-2.1c0-5.6,0-11.2,0-16.9
	c0-0.7-0.2-1.5,0.4-2.1C58.2,95.1,58.2,102.2,58.2,109.2z"/>
<path fill-rule="evenodd" clip-rule="evenodd" fill="#FBBB7A" d="M20.3,102.2c0,1-0.1,2-0.1,3c-0.9,0-1.8,0-2.7,0
	c-0.8,0-1.2-0.4-1.2-1.2c0-0.8,0.3-1.3,1.1-1.3C18.5,102.7,19.5,102.8,20.3,102.2z"/>
<path fill-rule="evenodd" clip-rule="evenodd" fill="#86353B" d="M57.7,153.7c0-5.6,0.1-11.2,0.1-16.8c0.9,1,0.4,2.3,0.5,3.4
	c0.1,3.7,0,7.4,0,11.1C58.3,152.2,58.6,153.1,57.7,153.7z"/>
<path fill-rule="evenodd" clip-rule="evenodd" fill="#87363A" d="M58.2,115.3c-0.7-1.7-0.7-3.3,0-5C58.2,112,58.2,113.6,58.2,115.3z
	"/>
<path fill-rule="evenodd" clip-rule="evenodd" fill="#87363A" d="M58.1,59.3c-0.3,0.1-0.7,0.4-0.8,0.3c-0.5-0.3,0.1-0.8,0-1.2
	C57.8,58.4,58,58.8,58.1,59.3z"/>
<path fill-rule="evenodd" clip-rule="evenodd" fill="#FC6067" d="M91.6,141.6c-1,0-2,0-3,0c-2.6-0.2-3-2.3-3.5-4.3
	c-0.2-0.7-0.1-1.5,0-2.3c0.1-1-0.7-2.6,0.6-2.9c1.3-0.4,2.6,0.5,3.4,1.6c0.3,0.4,0.5,0.8,0.7,1.3c1.1-1.1,1.9-2.6,3.7-2.9
	c0.6-0.1,1.1-0.4,1.5,0.3C96.5,135.2,94.6,140.2,91.6,141.6z"/>
<path fill-rule="evenodd" clip-rule="evenodd" fill="#FB6067" d="M133.5,131.9c2.9,0.6,2.9,0.6,5,2.8c1.1-0.7,1.4-2.3,2.9-2.6
	c0.8-0.1,1.7-0.3,1.7,0.8c0,2.1,0.6,4.1-0.4,6.2c-1,1.9-3.3,3.1-5.7,2.5c-1.9-0.5-3.4-1.9-3.5-4.1
	C133.4,135.6,133.5,133.8,133.5,131.9z"/>
<path fill-rule="evenodd" clip-rule="evenodd" fill="#FC6067" d="M103.2,141.7c-1,0-2,0-3,0c-3-0.9-3.3-3.3-3-5.8
	c0.1-1.2-0.8-3.1,0.7-3.6c1.4-0.5,2.5,1,3.4,2.1c0.2,0.3,0.4,0.5,0.7,0.8c1.1-0.9,1.5-2.7,3.2-2.9c0.6-0.1,1.1-0.4,1.5,0.3
	c1.4,2.4-0.4,7.7-2.9,9C103.6,141.6,103.4,141.6,103.2,141.7z"/>
<path fill-rule="evenodd" clip-rule="evenodd" fill="#FB6066" d="M127,141.6c-0.7,0-1.4,0-2,0c-2.5-0.7-3.7-2.3-3.6-5
	c0.1-1.6,0-3.1,0-4.9c0.7,0.2,1.1,0.2,1.4,0.5c2.1,1.8,4.1,3,6.3,0.1c0.4-0.5,1.4-0.6,1.9,0.4c1.1,2.3-0.4,7.3-2.5,8.6
	C128,141.5,127.4,141.5,127,141.6z"/>
<path fill-rule="evenodd" clip-rule="evenodd" fill="#FB6066" d="M114.8,141.6c-0.7,0-1.4,0-2,0c-3-1.4-5-6.5-3.4-9
	c0.8-1.3,2.2-0.3,2.6,0.2c1.4,1.8,2.4,2.6,3.9,0.1c0.4-0.7,1.5-1.2,2.5-0.8c1,0.5,0.6,1.5,0.6,2.3
	C118.9,139.2,118,140.8,114.8,141.6z"/>
<path fill-rule="evenodd" clip-rule="evenodd" fill="#84343A" d="M75.4,122.9c-0.3,0-0.7,0-1,0c-0.7,0.3-1-0.2-1.5-0.5
	c0-2.4,0-4.8-0.1-7.2c0-1.1,0.2-1.8,1.4-1.9c0.8-0.8,0.4-1.8,0.4-2.6c0-19.8,0-39.6,0-59.4c0.1-0.3,0.3-0.6,0.6-0.7
	c0.7,0.2,1,0.7,1.2,1.4c0.3,1.4,0.2,2.8,0.2,4.3c0,17.7,0,35.5,0,53.2c0,2.9,0.5,3.4,3.1,3.1c1.3-0.1,1.7-0.6,1.6-1.9
	c-0.4-5.2-0.2-10.4-0.2-15.6c0-3.4,0.8-4.1,4.2-4.1c5.8-0.1,11.6-0.1,17.4,0c3.1,0,3.6,0.5,4.1,3.5c0.2,1.4,1,1.9,2.2,2.4
	c4.8,1.8,6.4,7.4,3.5,11.6c-1.1,1.5-2.6,2.1-4.2,2.5c-0.5,0.1-1.1,0.3-1,0.9c0.1,0.6,0.7,0.6,1.2,0.6c1.8,0.1,3.7,0,5.5,0
	c1.5,0,2-0.6,2-2.1c0-4.2-0.7-8.4-1.2-12.5c-0.5-4.3-0.4-8.6-1.3-12.8c-0.3-1.3-0.5-2.5-1.7-3.2c-0.6-0.3-1.1-0.9-0.9-1.7
	c0.2-0.9,1.1-1.3,1.9-1.4c2.1-0.3,4.2-0.1,6.3-0.1c3,0,6.1,0.1,9.1-0.1c1.3,0.2,2.6,0,3.8-0.1c2.7,0.3,5.4,0.1,8.1,0.2
	c1,0,2.1,0,2.5,1.2c0.4,1.2-0.4,1.9-1.3,2.4c-0.9,0.6-1.2,1.6-1.3,2.6c-0.6,8.3-1.6,16.5-2.5,24.8c-0.1,0.9-0.3,1.8,0,2.7
	c0.2,0.2,0.3,0.5,0.5,0.5c4.2,0.1,8.5,0.6,12.7-0.3c0.6-0.1,1,0.2,1.4,0.5c0.3,0.2,0.6,0.4,0.9,0.7c0.3,0.5,0.3,1,0.1,1.5
	c-0.4,0.7-1.1,0.9-1.9,0.8c-0.3,0-0.6-0.1-0.9-0.1c-23.9-0.1-47.7,0-71.6,0c-0.7,0-1.3,0-2,0.3c-1.5,1.3-1.3,2.6-0.2,4
	c0.8,0.4,1.6,0.3,2.5,0.3c23.1,0,46.1,0,69.2,0c0.7,0,1.3,0,2-0.1c0.3-0.1,0.5-0.2,0.8-0.3c1.2-0.4,1.6,0.4,2.1,1.2
	c0.2,0.3,0.3,0.7,0.4,1c-0.8,0.9-0.7,2-0.7,3.1c0,6.8,0,13.6,0,20.4c0,0.8,0.5,1.9-0.9,2.3c0-8.1,0-16.2-0.1-24.4
	c0-0.1-0.1-0.4-0.1-0.4c-0.3-0.1-0.3,0.2-0.4,0.4c-0.6-1.1-1.4-1.6-2.8-1.6c-23.4,0.1-46.9,0-70.3,0
	C77.5,122.4,76.5,122.7,75.4,122.9z"/>
<path fill-rule="evenodd" clip-rule="evenodd" fill="#8A393F" d="M153.3,113.9c-0.4,0-0.7-0.1-1.1-0.1c-0.5-1.3-0.7-2.7-0.7-4.2
	c0-19,0-38,0-57c0-1.1-0.2-2.4,0.7-3.3c-0.1-0.1-0.1-0.1-0.1-0.2c1.5,0.7,0.9,2,0.9,3.1c0,19.5,0,39,0,58.5c0,1.1-0.3,2.2,0.6,3.1
	C153.6,114,153.5,114,153.3,113.9z"/>
<path fill-rule="evenodd" clip-rule="evenodd" fill="#761E25" d="M153.3,113.9c0.2,0,0.3,0,0.5-0.1c0.8,2.9,0.6,5.8,0.1,8.7
	c-0.2-0.2-0.4-0.4-0.6-0.6c-0.5-2.2-1.4-4.4,0-6.5C153.2,114.9,153.3,114.4,153.3,113.9z"/>
<path fill-rule="evenodd" clip-rule="evenodd" fill="#FDFCFC" d="M73.4,123.4c0,7.5,0,14.9,0,22.7c-1-0.5-1.6-0.7-2.1-1.1
	c-2.1-1.5-3.6-2.9-3.6-6c0.2-27.2,0.1-54.3,0-81.5c0-3.1,1.2-4.8,3.6-6.1c0.5-0.3,1-0.6,1.5-1c0.9,0.5,0.5,1.3,0.5,2
	c0,19.3,0,38.7,0,58c0,1.1,0.1,2.2-1,2.9c-0.6,0.4-0.5,1-0.5,1.6c0,2.2-0.1,4.4,0,6.6C72,122.4,71.6,123.8,73.4,123.4L73.4,123.4z"
	/>
<path fill-rule="evenodd" clip-rule="evenodd" fill="#FDFDFD" d="M67.3,48.7c-1-1.5-2.5-1.5-4.1-1.5c-14.1,0-28.2,0-42.3,0
	c-0.5,0-1,0-1.5,0c-4.4,0-4.4,0-5.6-3.5c0-0.3-0.6-0.7,0-1c22,0,44,0,66.2,0c-0.7,1.6-2.2,2.3-3.4,3.2c-2.4,1.7-4.8,3.3-6.8,5.4
	c-2.3,0.7-0.8-1.5-1.5-2C68.4,48.3,67.9,48.4,67.3,48.7z"/>
<path fill-rule="evenodd" clip-rule="evenodd" fill="#FDFDFD" d="M76,48c2-1.7,3.7-3.1,5.5-4.5c0.9-0.7,1.9-0.9,3.1-0.9
	c12.6,0,25.2,0,37.9,0c1.1,0,2,0.2,2.8,0.9c1.8,1.4,3.7,2.8,6,4.5C112.5,48,94.5,48,76,48z"/>
<path fill-rule="evenodd" clip-rule="evenodd" fill="#84343A" d="M74.5,49.7c0.3-0.9,1.1-0.5,1.7-0.5c24.9,0,49.9,0,74.8,0
	c0.2,0,0.5,0.1,0.7,0.1c0.1,0.3,0.1,0.7-0.1,1c-0.9,1.6-2.5,1.2-3.9,1.2c-15.7,0-31.5,0-47.2,0c-7.2,0-14.3,0-21.5,0
	c-1.3,0-2.5,0.1-3.7-0.7l0,0C75,50.5,74.7,50.1,74.5,49.7z"/>
<path fill-rule="evenodd" clip-rule="evenodd" fill="#7C252A" d="M151.7,49.7c0-0.2,0-0.3,0-0.5c0.2,0,0.4,0,0.5,0.1
	c0,21.5,0,43,0,64.5c-0.4-0.2-0.5-0.6-0.5-1c-1-1.1-0.7-2.6-0.7-3.9c0-18.7,0-37.4,0-56.1c0-0.3,0-0.6-0.1-0.9
	C150.9,51.1,151.4,50.5,151.7,49.7z"/>
<path fill-rule="evenodd" clip-rule="evenodd" fill="#7A1F26" d="M74.5,49.7c0.3,0.3,0.6,0.7,0.9,1c-0.9,0.8-0.5,1.9-0.5,2.9
	c0,19,0,38,0,57c0,0.9,0.5,2-0.6,2.8c0-20.2,0-40.4,0-60.6C74.3,51.7,74.4,50.7,74.5,49.7z"/>
<path fill-rule="evenodd" clip-rule="evenodd" fill="#B68589" d="M72.9,122.4c0.5,0.2,1,0.4,1.5,0.5c0,8.3-0.1,16.5-0.1,24.8
	c-0.7-0.7-0.3-1.6-0.3-2.4c0-6.4,0-12.9,0-19.3c0-0.9,0.5-1.9-0.5-2.5l0,0C73.2,123.1,73.1,122.7,72.9,122.4z"/>
<path fill-rule="evenodd" clip-rule="evenodd" fill="#FDFCFC" d="M68.3,49.2c0.7,0.1,1,0.4,0.7,1.1c-0.3,0.7,0.3,0.8,0.8,0.9
	c-0.5,0.7-1.1,0.6-1.7,0C67.6,50.5,68.1,49.8,68.3,49.2z"/>
<path fill-rule="evenodd" clip-rule="evenodd" fill="#F5B679" d="M13.9,99.6c-0.9-2.2-0.8-3.8-0.5-5.4c0.3-1.4,3.7-2.3,4.6-1.2
	c0.6,0.8,0.7,1.7-0.5,2.2C14.6,96.1,14.6,96,13.9,99.6z"/>
<path fill-rule="evenodd" clip-rule="evenodd" fill="#FDFDFD" d="M16,47.7c16.1,0,32.1,0,48.2,0c0,0.1,0,0.2,0,0.3
	c-16.1,0-32.2,0-48.3,0C15.9,47.9,15.9,47.8,16,47.7z"/>
<path fill-rule="evenodd" clip-rule="evenodd" fill="#FDFDFD" d="M13.7,43.6c0,1.1,0,2.3,0,3.4C13.4,45.9,12.9,44.7,13.7,43.6z"/>
<path fill-rule="evenodd" clip-rule="evenodd" fill="#FCEDB9" d="M87,38.5c-24.3,0-48.5,0-72.8,0c-0.3,0-0.7-0.1-1-0.2
	c0-9.5,0-18.9,0-28.4c0.7-0.1,1.3-0.2,2-0.2c47.2,0,94.3,0,141.5,0c0.3,0,0.7,0,1,0c0.3,0.5,0.2,0.9-0.2,1.3c-1,0.5-2.1,0.4-3.2,0.4
	c-11.9,0-23.7,0.1-35.6,0c-7.6-0.1-15.1,0.1-22.7,0.1c-25.8-0.1-51.6,0-77.4,0c-1.2,0-2.6-0.4-3.6,0.7c-0.6,1-0.4,2.1-0.4,3.2
	c0,6.7,0,13.4,0,20c0,1.5,0.9,1.5,2,1.4c22.2-0.2,44.5,0,66.7-0.1c1,0,2-0.1,3,0.4C86.8,37.5,87.1,37.9,87,38.5z"/>
<path fill-rule="evenodd" clip-rule="evenodd" fill="#FDF3C0" d="M157.8,10.8c0-0.3,0-0.6,0-1c0.2,0,0.3,0,0.5,0
	c0,9.5,0,19.1,0,28.6c-14.6,0-29.3,0.1-43.9,0.1c-8.7,0-17.5,0-26.2,0c0.5-1.6,1.9-1.2,2.9-1.2c9-0.1,18-0.1,27,0
	c12.2,0.1,24.4,0,36.6,0.1c1.9,0,2.5-0.7,2.5-2.5c0-6.9,0-13.8,0-20.7C157.1,13,156.9,11.8,157.8,10.8z"/>
<path fill-rule="evenodd" clip-rule="evenodd" fill="#F7E2AE" d="M157.8,10.8c0,8.1-0.1,16.1,0.1,24.2c0,2.4-0.5,3.1-3,3.1
	c-21.3-0.1-42.5-0.1-63.8,0c-1,0-2-0.4-2.9,0.4c-0.4,0-0.7,0-1.1,0c-0.5-1.1-1.5-0.9-2.4-0.9c-22.3,0-44.6,0-66.9,0
	c-0.5,0-1.1-0.1-1.5,0.1c-2.4,1-2.6-0.4-2.4-2.2c2.5,0.8,5.1,0.7,7.7,0.7c20.7,0,41.4,0,62,0c2.5,0,4.7-0.4,6.5-2.1
	c0.6-0.3,1.3-0.3,2-0.3c8,0,16.1,0,24.1,0c0.7,0,1.3,0,1.9,0.4c0.5,1.6,1.7,2,3.2,2c2.9,0.1,5.9,0,8.8,0c7.7,0,15.3,0,23,0
	c3.2,0,3.4-0.2,3.4-3.2c0-6,0-11.9,0-17.9c0-2.8-0.3-3-3.1-3c-11.9,0-23.9,0-35.8,0c-1.5,0-2.8,0.4-4,1.2c-1.2,0.8-2.5,1.1-3.5-0.4
	c-0.5-0.7-1.3-0.7-2-0.8c-3.2-0.1-6.4,0.1-9.6,0c-0.6,0-1.2,0-1.5,0.6c-0.8,1.6-2.1,1.3-3.2,0.5C91.9,12.1,90,12,88.1,12
	c-23.3,0-46.6,0-69.9,0c-1.5,0-3.1,0.3-4.4-0.8c0.8-0.9,1.9-0.5,2.9-0.5c18.9,0,37.9,0,56.8,0c12.2,0,24.5,0,36.7,0
	C126,10.8,141.9,10.8,157.8,10.8z"/>
<path fill-rule="evenodd" clip-rule="evenodd" fill="#E0D0CF" d="M22.8,102.3c0-1.2,0-2.4,0-3.6c-0.4-0.5-0.2-1.1-0.2-1.7
	c0-11.2,0-22.5,0-33.7c0-0.8-0.3-1.7,0.3-2.4c10.3,0,20.7,0,31-0.1c1.9,0,1.9,1.1,1.9,2.5c0,13.7,0,27.4,0,41.1c0,7.4,0,14.8,0,22.2
	c0,1-0.2,2-0.2,3l0.1,0c-0.4,0.4-0.9,0.3-1.4,0.3c-10,0-20,0-30,0c-0.5,0-1,0.1-1.4-0.3l0.1,0.1c-0.4-0.4-0.3-0.9-0.3-1.4
	c0-8.3,0-16.6,0-24.8C22.6,102.9,22.7,102.6,22.8,102.3z"/>
<path fill-rule="evenodd" clip-rule="evenodd" fill="#7C2428" d="M56.7,113.3c0,4.6,0,9.2,0,13.8c0,0.8,0.3,1.7-0.5,2.4
	c0-22.9,0-45.8,0-69.3c1.2,1,0.9,1.6,1,2.1C56.7,63.2,57,64.1,57,65c0,14.9,0,29.7,0,44.6c0,0.9,0.2,1.8-0.2,2.7
	C56.7,112.6,56.7,113,56.7,113.3z"/>
<path fill-rule="evenodd" clip-rule="evenodd" fill="#87363A" d="M56.7,112.3c0-15.9,0-31.8,0-47.6c0-0.8-0.3-1.7,0.5-2.4
	c0,15.7,0,31.4,0,47.1C57.2,110.4,57.6,111.5,56.7,112.3z"/>
<path fill-rule="evenodd" clip-rule="evenodd" fill="#7D2E37" d="M22.4,98.7c-1.3,0.1-1.5-0.5-1.5-1.7c0-12.1,0-24.3,0-36.4
	c0-0.5,0-1,0.5-1.4c0,12.2,0,24.5,0.1,36.7c0,0.5-1.1,2.1,1,1.8C22.7,98,22.7,98.3,22.4,98.7z"/>
<path fill-rule="evenodd" clip-rule="evenodd" fill="#7C2229" d="M22.4,98.7c0-0.3,0-0.7,0-1c0-11.4,0-22.7,0-34
	c0-0.9-0.4-2,0.6-2.8c0,12.6-0.1,25.2-0.1,37.9l-0.2,0L22.4,98.7z"/>
<path fill-rule="evenodd" clip-rule="evenodd" fill="#781E25" d="M23.6,59.8c10.5,0,21,0,31.5,0c0,0.1,0,0.2,0,0.2
	c-10.5,0-21.1,0-31.6,0C23.5,60,23.5,59.9,23.6,59.8z"/>
<path fill-rule="evenodd" clip-rule="evenodd" fill="#791E26" d="M22.9,129.4c10.9,0,21.9,0,32.8,0c-0.6,0.8-1.5,0.6-2.3,0.6
	c-9.4,0-18.8,0-28.2,0C24.4,130,23.5,130.3,22.9,129.4z"/>
<path fill-rule="evenodd" clip-rule="evenodd" fill="#7C2229" d="M22.8,102.3c0.1,9.1,0.1,18.2,0.2,27.2c-0.9-0.7-0.6-1.7-0.6-2.5
	c0-7.8-0.1-15.5-0.1-23.3C22.4,103.2,22.3,102.6,22.8,102.3z"/>
<path fill-rule="evenodd" clip-rule="evenodd" fill="#FCFBF9" d="M55.6,138.6c0.1,3.8,0.1,7.6,0.2,11.4c0,1.9-1.2,1.6-2.4,1.6
	c-9.8,0-19.5,0-29.3,0c-0.3,0-0.7,0-1,0.1c-0.9-1.4-0.4-2.9-0.4-4.4c0.1-2.9-0.5-5.8,0.3-8.7C33.9,138.6,44.7,138.6,55.6,138.6z"/>
<path fill-rule="evenodd" clip-rule="evenodd" fill="#86353B" d="M56.5,137.8c-9.9,0-19.8,0-29.7,0c4.9-1,9.8-0.6,14.7-0.8
	c5-0.2,9.9,1,14.9-0.1C56.4,137.3,56.5,137.5,56.5,137.8z"/>
<path fill-rule="evenodd" clip-rule="evenodd" fill="#7F292E" d="M22.9,152.7c0.8-0.8,1.7-0.5,2.6-0.5c10.1,0,20.1,0,30.2,0
	c-0.7,0.8-1.7,0.5-2.6,0.5C43,152.7,33,152.7,22.9,152.7z"/>
<path fill-rule="evenodd" clip-rule="evenodd" fill="#7C232A" d="M23,138.6c0,4.3,0,8.7,0,13.1c-0.9-0.4-0.7-1.2-0.7-2
	c0-3.7,0-7.4,0-11.1C22.6,138.6,22.8,138.6,23,138.6z"/>
<path fill-rule="evenodd" clip-rule="evenodd" fill="#7C2429" d="M56.3,151.6c0-4.3,0-8.7,0-13C57,143,57.1,147.3,56.3,151.6z"/>
<path fill-rule="evenodd" clip-rule="evenodd" fill="#B64D4D" d="M129,79c-2.5,1-5.2,0.4-7.7,0.5c-2.6,0.1-5.2,0-7.8,0
	c-0.8,0-1.7-0.1-1.9,0.8c-0.2,1,0.7,1.2,1.4,1.3c1.1,0.2,1.2,0.9,1.3,1.8c1,9.5,1.9,18.9,2.9,28.4c0.1,1.3-0.5,1.6-1.6,1.6
	c-2.7,0-5.4,0-8.1,0c-0.6,0-1.8,0.4-1.6-0.9c0.1-0.8-0.1-1.9,1.3-2.1c1.4-0.2,2.9-0.2,4-1.3c2.2-2,2.4-4.6,1.9-7.2
	c-0.5-2.5-2.3-4.2-4.8-4.4c-2-0.2-2.3-1.2-2.1-2.8c0.3-2.4-0.7-3-3-3c-6.1,0.1-12.1,0.1-18.2,0c-2.2,0-3.2,0.5-3.1,3
	c0.2,4.9,0,9.8,0,14.6c0,0.5-0.1,1.1,0.1,1.5c1.7,3.1-0.5,2.7-2.3,2.7c-0.5,0-1-0.1-1.5,0c-1.9,0.5-2.3-0.4-2.3-2.1
	c0.1-4.8,0-9.6,0-14.4c0-15.1,0-30.1,0-45.2c0.5-1,1.4-0.8,2.2-0.8c23.6,0,47.2,0,70.8,0c0.8,0,1.7-0.2,2.2,0.8l0,0
	c0.7,2.3,0,4.7,0,7c0.1,17.1,0,34.2,0,51.4c0,3.5,0,3.6-3.6,3.5c-3.7-0.1-7.4,0.4-11-0.3c0.5-3.6,1.4-7.3,1.4-10.9
	c0.1-6.2,2-12.2,1.7-18.5c0-1,0.4-2.2,1.9-2.2c0.6,0,1.1-0.5,1-1.2c-0.1-0.9-0.7-1-1.4-1c-2.1,0-4.2,0-6.3,0c-1,0-2,0-2.9-0.6
	c-0.6-0.8-0.2-1.6,0.1-2.4c1.4-4,2.9-7.9,4.1-11.9c0.9-2.8,1.8-3.4,4.8-3.5c1.4,0,2.9,0.1,4.3-0.1c0.2,0,0.5-0.1,0.8-0.9
	c-3.1-0.3-6-0.5-8.9,0.2c-0.9,0.2-1.1,1.2-1.4,2c-0.7,1.8-1.3,3.7-2,5.4c-0.5,0.9-0.9,1.7-1,2.7c-0.1,0.7-0.3,1.4-0.7,2
	c-0.5,0.8-0.9,1.6-0.9,2.6C130.6,76.5,130.2,77.9,129,79z"/>
<path fill-rule="evenodd" clip-rule="evenodd" fill="#FDFDFD" d="M94.4,94c2.4,0,4.9,0.1,7.3,0c1.5-0.1,2.1,0.4,2.1,2
	c-0.1,4.5,0,9.1,0,13.6c0,2.7-1.2,3.8-3.9,3.8c-3.8,0.1-7.6,0.1-11.4,0c-2.3,0-3.6-1.1-3.6-3.5c0-4.7,0.1-9.4,0-14.1
	c0-1.6,0.7-1.8,2-1.8C89.3,94.1,91.9,94,94.4,94z"/>
<path fill-rule="evenodd" clip-rule="evenodd" fill="#FCFBFB" d="M75.9,120.4c-0.8-1.5-0.6-3.1,0-4.6c0.8-0.4,1.6-0.2,2.5-0.2
	c23.6,0,47.2,0,70.9,0c0.8,0,1.7-0.3,2.4,0.3l-0.1,0c1.2,1.5,1.1,2.9,0.1,4.4l0,0c-0.9,0.8-1.9,0.5-2.9,0.5c-23.3,0-46.6,0-69.9,0
	C77.9,120.9,76.9,121,75.9,120.4z"/>
<path fill-rule="evenodd" clip-rule="evenodd" fill="#FDA855" d="M119.2,106.6c-0.1,0.1-0.2,0.1-0.3,0.1c-0.4-0.3-0.3-0.6-0.1-0.9
	c-0.2-6.7-0.9-13.4-1.8-20.1c1-0.2,1.3,1,2.1,1.1c5.6,0,11.1,0.2,16.7-0.1c0.3,0,0.6,0.1,0.8,0.2c0.1,5.7-0.8,11.2-1.6,16.8
	c-0.9,0.8-2,0.7-3.1,0.7c-2.7,0-5.3,0.1-8,0C121.9,104.3,120.3,104.8,119.2,106.6z"/>
<path fill-rule="evenodd" clip-rule="evenodd" fill="#FDFDFC" d="M119.2,106.6c-0.4-2.5,0.8-3,3.1-2.9c4.2,0.2,8.4,0.1,12.6,0.1
	c0,1,0.1,2,0.1,3c0.2,0.8,0.4,1.6-0.1,2.4c-1.3,4.3-1.3,4.3-6.3,4.3c-2.4,0-4.7,0-7.1,0c-1.3,0-1.8-0.4-1.8-1.7
	C119.8,110,119.5,108.3,119.2,106.6z"/>
<path fill-rule="evenodd" clip-rule="evenodd" fill="#FCF9F7" d="M136.6,86.9c-0.2,0-0.4,0-0.5,0.1c-5.2,0.6-10.5,0.1-15.8,0.3
	c-0.6,0-1.3,0.2-1.9-0.3c-0.4-0.4-0.9-0.9-1.3-1.3c-0.3-4-0.3-4,3.7-4c4.7,0,9.4,0.1,14.1-0.1c2.4-0.1,3,0.7,2.4,2.9
	C137,85.3,136.8,86.1,136.6,86.9z"/>
<path fill-rule="evenodd" clip-rule="evenodd" fill="#8A393F" d="M75.9,120.4c22.9,0,45.8,0,68.7-0.1c2.4,0,4.7,0,7.1,0
	c-0.1,1.3-1.1,1.1-1.9,1.1c-23.9,0-47.8,0-71.7,0C77.2,121.4,76.4,121.3,75.9,120.4z"/>
<path fill-rule="evenodd" clip-rule="evenodd" fill="#F9F4F3" d="M131.4,72.3c0.2-0.6,0.4-1.3,0.6-1.9c0.6-0.7,0.6-1.7,0.9-2.6
	c0.7-2.1,1.4-4.3,2.1-6.4c0.4-1.2,1.1-2.1,2.5-2c2.7,0,5.4,0,8.1,0c1,0,1.6,0.2,1.6,1.4c0,1.3-0.9,1.2-1.8,1.2c-1.9,0-3.7,0.1-5.6,0
	c-1.6-0.1-2.4,0.5-2.9,2c-1.7,5-3.4,10-5.2,14.9c-0.9,0.4-1.9,0.8-2.9,0.1c0.5-1.3,1-2.7,1.5-4C131.1,74.1,131.1,73.2,131.4,72.3z"
	/>
<path fill-rule="evenodd" clip-rule="evenodd" fill="#8A393F" d="M136.6,113.3c3.9,0,7.7-0.1,11.6,0.1c2.3,0.1,2.6-0.8,2.6-2.8
	c-0.1-13-0.3-25.9,0.1-38.9c0.2-6.7-0.7-13.4,0.4-20c0.8,0.7,0.5,1.7,0.5,2.6c0,19.5,0,39,0,58.5c-0.6,0.5-1,1-1.9,1
	c-4.1-0.1-8.1,0-12.2,0C137.2,113.8,136.8,113.6,136.6,113.3z"/>
<path fill-rule="evenodd" clip-rule="evenodd" fill="#8A393F" d="M151.2,51.7c-0.9-0.6-1.9-0.5-2.9-0.5c-23.1,0-46.3,0-69.4,0
	c-1,0-2-0.1-2.9,0.5c-0.2-0.3-0.3-0.7-0.5-1c24.3,0,48.6,0,72.8,0c1.2,0,2.6,0.3,3.4-1C151.8,50.4,151.5,51.1,151.2,51.7z"/>
<path fill-rule="evenodd" clip-rule="evenodd" fill="#7A222A" d="M151.7,115.9c-24.2,0-48.5,0-72.7,0c-1,0-2,0-3-0.1
	c0.7-0.8,1.7-0.5,2.6-0.5c23.5,0,46.9,0,70.3,0C149.8,115.4,150.9,114.9,151.7,115.9z"/>
<path fill-rule="evenodd" clip-rule="evenodd" fill="#B44C4D" d="M106.2,103.7c0-0.4-0.1-0.9,0-1.2c0.2-1-0.7-2.8,1.2-2.6
	c1.4,0.1,3.3,0.6,3.3,2.7c0,1.6,0.7,3.4-1.3,4.5c-0.8,0.4-1.6,1-2.5,0.6c-1-0.4-0.6-1.4-0.6-2.2
	C106.2,104.8,106.2,104.3,106.2,103.7z"/>
<path fill-rule="evenodd" clip-rule="evenodd" fill="#7A202A" d="M85.5,93.2c5.8,0,11.7,0,17.5,0c0,0.1,0,0.1,0,0.2
	c-5.8,0-11.7,0-17.5,0C85.5,93.4,85.5,93.3,85.5,93.2z"/>
<path fill-rule="evenodd" clip-rule="evenodd" fill="#792028" d="M104.4,111.2c0-5.5,0-11,0-16.5c0.1,0,0.2,0,0.2,0
	c0,5.5,0,11,0,16.5C104.5,111.2,104.4,111.2,104.4,111.2z"/>
<path fill-rule="evenodd" clip-rule="evenodd" fill="#772128" d="M83.9,94.8c0,5.1,0,10.2,0,15.3c-0.1,0-0.2,0-0.2,0
	c0-5.1,0-10.3,0-15.4C83.8,94.7,83.8,94.8,83.9,94.8z"/>
<path fill-rule="evenodd" clip-rule="evenodd" fill="#8A393F" d="M151.6,120.4c0-1.5,0-3-0.1-4.4c0.5-0.2,1.1-0.4,1.6-0.6
	c0,2.2,0,4.4,0,6.5C152.6,121.5,152.7,120.3,151.6,120.4z"/>
<path fill-rule="evenodd" clip-rule="evenodd" fill="#8A393F" d="M148.9,114.7c-4.4,0-8.9,0-13.3,0c0-0.1,0-0.2,0-0.3
	c4.5,0,9,0,13.5,0C149.1,114.6,149,114.7,148.9,114.7z"/>
<path fill-rule="evenodd" clip-rule="evenodd" fill="#7C2428" d="M118.9,105.8c0,0.3,0,0.6,0.1,0.9c0,1.4,0,2.7,0,4.1
	C118.5,109.1,117.9,107.4,118.9,105.8z"/>
<path fill-rule="evenodd" clip-rule="evenodd" fill="#7E2129" d="M135,109.1c0-0.8,0.1-1.6,0.1-2.4c0.9,1.5,0.3,3,0.1,4.5
	C135.1,110.6,135,109.9,135,109.1z"/>
<path fill-rule="evenodd" clip-rule="evenodd" fill="#7A2128" d="M74.8,116.4c0,1.1,0,2.2,0,3.3c-0.1,0-0.2,0-0.2,0
	c0-1.1,0-2.2,0-3.3C74.6,116.5,74.7,116.4,74.8,116.4z"/>
<path fill-rule="evenodd" clip-rule="evenodd" fill="#FAE3B1" d="M13.8,11.3c25,0,50,0,75,0c2,0,4-0.2,5.5,1.7
	c0.5,0.6,1.2,0.4,1.9,0.2c0.3-0.8-0.9-1-0.5-1.9c4.7,0,9.3,0,14,0c0.5,0,1.2-0.3,1.4,0.6c0.4,1.6,0.9,1.9,1.9,0.8
	c1.3-1.4,2.9-1.5,4.6-1.5c12.3,0,24.5,0.1,36.8,0c2.4,0,3,0.7,2.9,3c-0.1,6.8-0.1,13.6,0,20.5c0,1.9-0.6,2.4-2.4,2.4
	c-11.3-0.1-22.6,0-33.8,0c-1.1,0-2-0.3-3-1c-1.5-1,0.2-1.1,0.3-1.5c1.2-1.1,2.6-0.6,4-0.7c1-0.1,2,0.2,2.9-0.2
	c0.9-0.4,1.6-1,2.1-1.8c0.7-1.1,0.9-2.4,0.9-3.6c0-2.9,0-5.7,0-8.6c-0.1-4-1.1-5-5.2-5.1c-0.6,0-1.2,0-1.8,0c-22.8,0-45.5,0-68.3,0
	c-1.6,0-3.2-0.1-4.8,0.4c-1.4,0.2-1.9,1.1-1.9,2.5c0,4,0,8.1,0,12.1c0,2,1.1,3.1,2.6,4c1.1,0.5,2.3,0.3,3.5,0.3c11.3,0,22.7,0,34,0
	c1.2,0,2.6-0.3,3.6,0.7c-0.9,1.7-2.2,2.5-4.2,2.5c-23.1,0-46.2,0-69.4,0c-1.4,0-2.2-0.4-2.8-1.6C13.8,27.4,13.8,19.4,13.8,11.3z"/>
<path fill-rule="evenodd" clip-rule="evenodd" fill="#FBDFA6" d="M125.4,34c-0.7,1.3-1.9,0.3-2.8,0.4c-1.4,0.2-2.8,0-4.3,0
	c-9.4,0-18.9,0-28.3,0c-13,0-26,0-39.1,0c-1,0-2,0.4-2.9-0.5c0.9-0.9,2-0.7,3.1-0.7c23.7,0,47.4,0,71.1,0
	C123.4,33.3,124.6,33.1,125.4,34z"/>
<path fill-rule="evenodd" clip-rule="evenodd" fill="#FCFBFB" d="M23.9,61.3c9.7,0,19.4,0,29-0.1c1.8,0,2.2,0.6,2.2,2.3
	c0,20.9,0,41.8,0,62.6c0,1.8-0.5,2.3-2.3,2.3c-9.7-0.1-19.4,0-29-0.1c-0.6-3.9-0.1-7.8-0.2-11.7c-0.1-2.6,0-5.2,0-7.8
	c1.4-1.6,2.1-1.4,3.3,1c0.5,3.5,0,7,0.3,10.5c0.1,0.8-0.3,2,1.1,2.2c6.7,0.1,13.3,0,20,0.1c1.9,0,2.8-0.7,2.8-2.7c0-17,0-34,0-51
	c0-1.6-0.5-2.5-2.3-2.5c-6.8,0.1-13.6-0.1-20.4,0.1c-1.3,0.7-1.1,2-1.1,3.1c0,4.3,0,8.5,0,12.8c0,1.2,0,2.5-0.6,3.7
	c-0.8,0.7-0.9,3.1-2.9,1.4c0-8,0-16.1,0-24.1C23.7,62.8,23.4,62,23.9,61.3z"/>
<path fill-rule="evenodd" clip-rule="evenodd" fill="#F0E4E5" d="M23.9,61.3c0,8.9,0,17.8,0,26.7c0.7,0.7,0.8,1.7,0.8,2.6
	c0,5,0,10,0,15.1c0,0.9,0,1.9-0.8,2.6c0,6.7,0,13.5,0,20.2c-0.9-0.7-0.5-1.7-0.5-2.6c0-20.7,0-41.3,0-62C23.4,63,23,62,23.9,61.3z"
	/>
<path fill-rule="evenodd" clip-rule="evenodd" fill="#FDA856" d="M51.6,147.1c-0.6,1-1.5,0.5-2.3,0.5c-6.2,0-12.4,0-18.6,0
	c-3.5,0-3.5,0-3.3-3.6c0.6-1.1,1.6-0.7,2.5-0.7c6.1,0,12.2,0,18.3,0c2.9,0,2.9,0,3.1,2.8C51.4,146.5,51.5,146.9,51.6,147.1z"/>
<path fill-rule="evenodd" clip-rule="evenodd" fill="#FDA246" d="M51.6,147.1c-0.3-3.6-2.7-3.7-5.5-3.6c-5.2,0.2-10.4,0.1-15.7,0.1
	c-1,0-2-0.1-2.9,0.5c-0.2-1,0.5-1,1.2-1c7.1,0,14.3,0,21.4,0c1.2,0,1.7,0.4,1.6,1.6C51.6,145.5,51.7,146.3,51.6,147.1z"/>
<path fill-rule="evenodd" clip-rule="evenodd" fill="#AC3938" d="M136.6,58.4c3.3,0,6.6,0,9.9,0c0,0.1,0,0.1,0,0.2
	c-3.3,0-6.6,0-9.9,0C136.6,58.5,136.6,58.4,136.6,58.4z"/>
<path fill-rule="evenodd" clip-rule="evenodd" fill="#E8CAC8" d="M131.4,72.3c0.1,1,0.2,2-0.9,2.6C130.4,73.9,130.9,73.1,131.4,72.3
	z"/>
<path fill-rule="evenodd" clip-rule="evenodd" fill="#E2BDBB" d="M133,67.8c0.1,1,0.1,2-0.9,2.6C132.1,69.4,132.4,68.6,133,67.8z"/>
<path fill-rule="evenodd" clip-rule="evenodd" fill="#90403D" d="M128,93c1.7,0.9,1.8,2.3,0.8,3.7c-0.7,1-1.8,1.4-3,0.3
	c-1.5-1.4-1.5-2.7,0.1-3.9C126.6,92.6,127.3,92.6,128,93z"/>
<path fill-rule="evenodd" clip-rule="evenodd" fill="#FD9D40" d="M118.3,87c5.9,0,11.8,0,17.7,0c-0.6,0.8-1.5,0.5-2.3,0.5
	c-4.9,0.1-9.7,0.1-14.6,0.2C118.5,87.7,118.4,87.4,118.3,87z"/>
<path fill-rule="evenodd" clip-rule="evenodd" fill="#E29051" d="M128,93c-0.7,0-1.4,0-2.1,0.1C126.6,91.7,127.3,91.7,128,93z"/>
<path fill-rule="evenodd" clip-rule="evenodd" fill="#FDFDFD" d="M47.6,14.3c0.9-0.6,1.9-0.5,2.9-0.5c24.5,0,49,0,73.4,0
	c3.6,0,4.9,1.3,5,5c0,3.3-0.1,6.6,0,9.8c0.1,1.7-0.3,3.1-1.6,4.3c-2.9,1.4-6,0.8-8.9,0.7c-6-0.3-12.1,0.2-18.1,0.1
	c-8.4-0.2-16.7,0.1-25.1-0.1c-5.4-0.1-10.9-0.4-16.3,0.1c-2.8,0.2-5.7-0.1-8.5,0c-3.3,0.1-4.5-1.4-4.6-4.6c0-3.7,0-7.4,0-11.1
	C45.8,16.4,46.3,15.1,47.6,14.3z"/>
<path fill-rule="evenodd" clip-rule="evenodd" fill="#FCF4E1" d="M47.6,14.3c-1.3,1.5-1.6,3.2-1.5,5.1c0.1,3.1,0,6.2,0,9.3
	c0.1,3.3,1.6,5.1,4.8,4.6c2.5-0.4,4.8,0.1,7.2,0c2.5,0,5-0.5,7.5-0.4c6.4,0.2,12.8,0.6,19.1,0.4c5.8-0.1,11.6,0,17.4,0
	c4.6,0,9.1-0.6,13.7-0.4c3.9,0.1,7.7,0.5,11.6-0.1c-0.5,0.7-1.2,0.9-2,1.1c-25.8,0-51.5,0-77.3,0c-1.9-1.2-2.7-2.9-2.6-5.3
	c0.2-3.8,0.1-7.7,0-11.5C45.6,15.7,45.9,14.6,47.6,14.3z"/>
<path fill-rule="evenodd" clip-rule="evenodd" fill="#893B3E" d="M144.6,21.8c1.2,0.1,1.9,0.8,1.8,1.9c-0.1,1.2-0.9,1.9-2,1.7
	c-1-0.1-1.9-0.6-1.8-1.9C142.7,22.2,143.5,21.8,144.6,21.8z"/>
<path fill-rule="evenodd" clip-rule="evenodd" fill="#87393C" d="M33.5,21.9c0.5,0.8,1.2,1.5,0.6,2.5c-0.4,0.7-1,1.2-1.8,1.1
	c-0.8-0.2-1.7-0.4-1.8-1.4c-0.2-1.2,0.3-1.9,1.5-2.2C32.5,21.5,33,21.5,33.5,21.9z"/>
<path fill-rule="evenodd" clip-rule="evenodd" fill="#86373C" d="M27.4,24c-0.1,1-1,1.4-2,1.4c-1,0-1.8-0.7-1.7-1.8
	c0.1-1.1,0.7-1.9,2-1.8C26.9,21.9,27.5,22.5,27.4,24z"/>
<path fill-rule="evenodd" clip-rule="evenodd" fill="#87383C" d="M138.4,21.8c1.3,0,1.7,0.9,1.7,2c0,1.1-0.8,1.7-1.8,1.7
	c-1-0.1-1.9-0.5-1.8-1.9C136.5,22.3,137.2,21.8,138.4,21.8z"/>
<path fill-rule="evenodd" clip-rule="evenodd" fill="#E7CA9D" d="M33.5,21.9c-0.5,0-1-0.1-1.5-0.1C32.6,20.3,33,21.2,33.5,21.9z"/>
<path fill-rule="evenodd" clip-rule="evenodd" fill="#F5EBEB" d="M27.4,123.4c-0.9-0.1-1-0.6-1-1.4c0-4.1,0-8.2,0-12.2
	c-1-2.6-0.8-5.3-0.8-7.9c0.1-5.3-0.3-10.5,0.3-15.8c0.6-1,0.5-2.1,0.5-3.2c0.1-5.3-0.3-10.6,0.2-15.8c0.1-0.7,0-1.2,0.8-1.2
	c0.2,0.3,0.4,0.5,0.5,0.9c0.2,0.7,0.2,1.5,0.2,2.3c0,17.1,0,34.2,0,51.4c0,0.8,0,1.5-0.2,2.3C27.8,122.9,27.7,123.2,27.4,123.4z"/>
<path fill-rule="evenodd" clip-rule="evenodd" fill="#FDFDFD" d="M25.9,86c0.8,0.7,0.5,1.7,0.5,2.6c0,7,0,14.1,0,21.1
	c-0.4-1.2-1.6-1.1-2.5-1.5c0-6.7,0-13.5,0-20.2C25.1,87.9,25.3,86.8,25.9,86z"/>
<path fill-rule="evenodd" clip-rule="evenodd" fill="#B03C3B" d="M27.4,123.4c0-0.2,0-0.3,0.1-0.5c1.1-1,2.5-0.7,3.8-0.7
	c2.2-0.1,4.5,0,6.7-0.1c3.3-0.1,6.5,0,9.8,0c1.7,0,2.5-0.7,2.5-2.4c0-1.2,0.1-2.3,0.1-3.5c0-14.7,0-29.4,0-44.1c0-5,0-5-5.2-5
	c-4.4,0-8.7,0-13.1,0c-1.5-0.3-3.2,0.4-4.6-0.8c0-0.2,0-0.3-0.1-0.5c7.6,0,15.1,0,22.7-0.1c1.4,0,1.6,0.5,1.6,1.7
	c0,18.1,0,36.2,0,54.2c0,1.2-0.2,1.8-1.6,1.8C42.6,123.4,35,123.4,27.4,123.4z"/>
<path fill-rule="evenodd" clip-rule="evenodd" fill="#86373D" d="M69.8,30.1c-2.6-1-3.7-2.6-3.6-5.6c0.1-2.5,0.8-4.8,3.6-5.6
	c1.3,0.3,2.7,0.3,4,0c2.5,0.7,3.5,2.5,3.6,5c0.1,2.6-0.2,5-3.1,6.1C72.9,30,71.3,29.6,69.8,30.1z"/>
<path fill-rule="evenodd" clip-rule="evenodd" fill="#86353B" d="M118.4,23.3c0.7,0.2,1.3,0.6,1.2,1.3c-0.1,0.8-0.8,1.1-1.6,1.2
	c-0.6,0.1-1.1,0.2-1.7,0.2c-0.6,1-0.1,1.4,0.9,1.4c0.6,0,1.2,0,1.7,0.4c0.8,0.1,1.1,0.7,1,1.4c-0.1,0.7-0.7,0.9-1.3,1
	c-1.3,0.1-2.5,0.1-3.8,0c-1.1,0-1.6-0.8-1.7-1.8c0-2.6,0-5.2,0-7.8c0-1.3,0.6-2,2-1.9c1,0.1,2,0,3,0c0.8,0,1.6,0,1.6,1.1
	c0,1-0.7,1.2-1.5,1.3c-0.7,0.1-1.3,0.1-2,0.2C116.3,22.6,116.3,22.6,118.4,23.3z"/>
<path fill-rule="evenodd" clip-rule="evenodd" fill="#87383E" d="M63.2,28.1c-0.7,2.8-2.8,3.4-6,1.9c1.2-0.5,2.4-0.2,3.5-0.3
	c-1.2,0.2-2.4-0.3-3.5,0.3c-2.8-0.8-3.2-3.1-3.3-5.5c0-2.7,1-4.8,3.8-5.7c0.1,0,0.2,0,0.3,0c1,0,1.9,0,2.9,0c0.1,0,0.2,0,0.3,0
	c1.1,0.2,2,0.7,1.7,2c-0.3,1-1.1,1-2.1,0.7c-1.3-0.4-2.5-0.3-3.3,1c-0.9,1.4-0.9,2.8-0.2,4.2c0.7,1.5,2,1.6,3.3,1.3
	C61.6,27.4,62.5,27,63.2,28.1z"/>
<path fill-rule="evenodd" clip-rule="evenodd" fill="#85343A" d="M95.2,23.3c0.4,0,0.8,0,1.3-0.1c0.9,0,1.9,0,1.9,1.1
	c0.1,1-0.9,1.4-1.7,1.3c-1.9-0.2-2.1,0.9-2,2.3c0.1,1,0,2.3-1.3,2.3C92,30.3,92,29,92,27.9c0-1.9,0-3.8,0-5.8c0-3.3,0-3.3,3.4-3.3
	c0.4,0,0.8,0,1.3,0c0.7,1.2,0.7,2-0.9,2.3C94.2,21.5,94.1,22.3,95.2,23.3z"/>
<path fill-rule="evenodd" clip-rule="evenodd" fill="#893A40" d="M87,23.3c1.7,1,1.1,2.2-0.3,2.3c-2.3,0.1-2.7,1.1-2.4,3
	c0.1,0.6-0.1,1.2-0.7,1.5c-1.5-0.2-1.2-1.3-1.2-2.3c-0.1-2.6,0.2-5.3-0.4-7.9c0.8-1,5.4-1.6,6-0.7c0.5,0.9,0.4,1.8-0.9,2
	c-0.8,0.2-1.9-0.5-2.5,0.6C84.6,23.6,86.4,22.5,87,23.3z"/>
<path fill-rule="evenodd" clip-rule="evenodd" fill="#8C4146" d="M102.7,19.8c0.9-0.9,5.2-1.5,6.1-0.7c1.3,1.4,0,1.8-1,2.2
	c-0.9,0.7-3,0.4-2,2.6c0.1,1.2-0.2,2.3-1.4,2.8c-1.2,0.2-1.9-0.2-1.9-1.5C102.6,23.4,102.2,21.6,102.7,19.8z"/>
<path fill-rule="evenodd" clip-rule="evenodd" fill="#7E2831" d="M81.9,19.8c1.4,0.6,1.1,1.9,1,2.9c-0.2,2.1,0.4,4.2-0.1,6.3
	c-0.1,0.3,0.4,0.7,0.7,1c-1.5,1-1.9-0.3-1.9-1.2C81.6,25.8,81.1,22.8,81.9,19.8z"/>
<path fill-rule="evenodd" clip-rule="evenodd" fill="#8A4046" d="M107.8,27.8c0.7,0.1,1.5,0.3,1.5,1.3c-0.1,0.8-0.7,1.2-1.4,1.2
	c-1.9,0-4,0.6-5.7-0.8c-0.2-0.2-0.1-0.4,0-0.7c0.2-0.1,0.4-0.3,0.7-0.3c1.1-0.1,2.1-0.4,3.1-0.9C106.6,27.4,107.2,27.4,107.8,27.8z"
	/>
<path fill-rule="evenodd" clip-rule="evenodd" fill="#A16569" d="M105.8,28c-0.8,1.3-2.1,0.9-3.2,0.8c-0.6-0.6-0.9-1.4-0.7-2.3
	c0.1-0.2,0.2-0.4,0.4-0.6c0.4-2-0.4-4.1,0.5-6.1c0,1.6,0.1,3.3,0.1,4.9c-0.1,1.5,0.6,1.9,1.9,1.7c0.1,0.1,0.2,0.1,0.3,0.2
	C105.4,26.9,105.7,27.4,105.8,28z"/>
<path fill-rule="evenodd" clip-rule="evenodd" fill="#A1676B" d="M104.7,26.4c0.3-1,0.7-1.9,0.6-3c1-0.9,2-0.7,3-0.1
	c1.4,1.2,0.6,1.9-0.5,2.6c-0.4,0.3-1,0.1-1.5,0.3c-0.2,0.1-0.4,0.1-0.6,0.2c-0.3,0.1-0.6,0.2-0.9,0.1
	C104.8,26.5,104.7,26.4,104.7,26.4z"/>
<path fill-rule="evenodd" clip-rule="evenodd" fill="#9E6267" d="M95.2,23.3c-1.7-0.9-1.4-2,0.1-2.4c1.4-0.4,1.4-1.1,1.3-2.1
	c0.9-0.1,2-0.2,2,1.1c0,1.2-1.2,1.3-2,1.3C94.9,21.3,94.5,21.9,95.2,23.3z"/>
<path fill-rule="evenodd" clip-rule="evenodd" fill="#E6DEDE" d="M108.3,23.3c-1,0-2,0-3,0.1c-0.6-2.3-0.5-2.4,2.5-2
	C107.9,22,108.1,22.7,108.3,23.3z"/>
<path fill-rule="evenodd" clip-rule="evenodd" fill="#7B222B" d="M69.8,30.1c1.5-1.4,3-0.8,4.6-0.1C72.9,30.9,71.4,31.1,69.8,30.1z"
	/>
<path fill-rule="evenodd" clip-rule="evenodd" fill="#E3D6D6" d="M104.9,26.5c0.3-0.2,0.6-0.4,0.9-0.6c0.1,0.1,0.2,0.2,0.2,0.3
	c-0.1-0.1-0.2-0.2-0.2-0.3c0.7-0.7,1.4-0.3,2,0c0,0.6,0,1.3,0,1.9c-0.7,0.1-1.4,0.1-2,0.2C105.1,27.7,104.9,27.2,104.9,26.5z"/>
<path fill-rule="evenodd" clip-rule="evenodd" fill="#EFE2E3" d="M118.9,27.9c-0.9-0.6-3.7,1.5-2.5-1.9
	C116.4,27.7,118.8,26.2,118.9,27.9z"/>
<path fill-rule="evenodd" clip-rule="evenodd" fill="#D5BABC" d="M57.7,18.7c1.2-1.4,2.3-1.4,3.5,0l0,0.2c-1.2,0.2-2.4,0.2-3.5,0
	L57.7,18.7z"/>
<path fill-rule="evenodd" clip-rule="evenodd" fill="#E8DBDB" d="M118.4,23.3c-1.1-0.1-3.3,0.9-2-1.9
	C116.3,22.9,118.4,21.9,118.4,23.3z"/>
<path fill-rule="evenodd" clip-rule="evenodd" fill="#E7E7E6" d="M102.2,25.9c0,0.2,0,0.3,0,0.5c-0.9,0.8-0.3,1.7,0,2.5
	c0,0.2,0,0.3,0,0.5c-1.5,0.1-1.5-0.8-1.5-1.9C100.6,26.5,101,25.8,102.2,25.9z"/>
<path fill-rule="evenodd" clip-rule="evenodd" fill="#EADDDD" d="M87,23.3c-0.9-0.5-3.1,1.3-2.6-1.5C85,22.8,86.6,22.1,87,23.3z"/>
<path fill-rule="evenodd" clip-rule="evenodd" fill="#7A1E25" d="M73.9,18.9c-1.3,0.7-2.7,0.7-4,0C71.2,18.5,72.6,18.5,73.9,18.9z"
	/>
<path fill-rule="evenodd" clip-rule="evenodd" fill="#D6BFC1" d="M63.2,28.1c-0.8-0.5-1.6-0.3-2.5-0.2
	C61.7,26.7,62.5,26.5,63.2,28.1z"/>
<path fill-rule="evenodd" clip-rule="evenodd" fill="#B24745" d="M27.5,66.3c1.5,0,3,0,4.5,0c0,0.5-0.3,0.9-0.7,0.9
	c-2.6,0.3-2.7,2.1-2.6,4c0.2,4.2,0.5,8.5,0.3,12.6c-0.5,11-0.1,22-0.3,33c-0.1,4.7,0,4.6,4.6,4.8c1.6,0.1,3.6-0.9,4.7,1.2
	c-3.5,0-7,0-10.5,0C27.5,104.1,27.5,85.2,27.5,66.3z"/>
<path fill-rule="evenodd" clip-rule="evenodd" fill="#B64D4D" d="M38,122.9c-2.5-1.1-5.1-0.4-7.7-0.4c-1.8,0-2.5-0.5-2.5-2.4
	c0.1-11.3,0-22.6,0-33.8c0-5.4,0.1-10.9-0.1-16.3c-0.1-2.3,0.5-3.5,3-3.1c0.3,0,0.7-0.3,1.1-0.5c5.5,0,10.9,0.1,16.4,0
	c2,0,2.8,0.5,2.8,2.7c-0.1,16.7,0,33.3,0,50c0,0.1,0,0.2,0,0.3c-0.1,3.7-0.1,3.7-3.8,3.7C44.3,122.9,41.2,122.9,38,122.9z"/>
<path fill-rule="evenodd" clip-rule="evenodd" fill="#FAF9F9" d="M74.5,25.9c-0.6,1.5-1.6,2.3-3.3,2c-1.4-0.3-1.8-1.5-2-2.6
	c-0.3-1.6,0-3.2,1.5-3.9c1.9-0.9,3.1,0.1,3.7,2C75.1,24.2,74.9,25.1,74.5,25.9z"/>
<path fill-rule="evenodd" clip-rule="evenodd" fill="#965258" d="M74.5,25.9c0-0.8,0-1.7,0-2.5C76.1,24.2,75.5,25.1,74.5,25.9z"/>
<path fill-rule="evenodd" clip-rule="evenodd" fill="#782126" d="M57.2,30c1.2-1.1,2.6-0.2,4,0C59.9,30,58.6,30,57.2,30L57.2,30z"/>
<path fill-rule="evenodd" clip-rule="evenodd" fill="#781E25" d="M57.7,19c1.2-0.2,2.4-0.3,3.5,0C60.1,19.6,58.9,19.6,57.7,19z"/>
<path fill-rule="evenodd" clip-rule="evenodd" fill="#FAFBFC" d="M102.2,28.9c-1.6-0.9-1.6-1.7,0-2.5c0.1,0.8,0.2,1.6,0.3,2.4
	C102.4,28.8,102.3,28.9,102.2,28.9z"/>
<path fill-rule="evenodd" clip-rule="evenodd" fill="#FCFDFC" d="M105.7,25.9c0.4,0.3,1.2,0.2,1.1,1c0,0.1-0.4,0.4-0.5,0.4
	C105.5,27.1,105.8,26.4,105.7,25.9L105.7,25.9z"/>
<path fill-rule="evenodd" clip-rule="evenodd" fill="#FBF9F9" d="M45.6,76c-3.9,3.9-7.7,7.8-11.6,11.7c-0.8,0.8-1.6,1.5-2.6,0.7
	c-1.1-1,0.1-1.9,0.7-2.5c3.8-3.8,7.7-7.6,11.5-11.4C45.6,73.8,45.9,74,45.6,76z"/>
<path fill-rule="evenodd" clip-rule="evenodd" fill="#F8F4F3" d="M35.6,105.1c-0.6,0.1-0.9-0.4-1.2-0.8c-0.4-0.5-0.2-1,0.1-1.4
	c3.3-3.3,6.6-6.6,9.9-9.9c0.5-0.5,1-0.4,1.6,0c0.6,0.5,0.7,1.1,0.3,1.5c-3.4,3.5-6.9,7-10.3,10.4C35.9,105.1,35.7,105.1,35.6,105.1z
	"/>
<path fill-rule="evenodd" clip-rule="evenodd" fill="#F8F2F1" d="M44.1,86.8c-0.1,0.2-0.3,0.5-0.6,0.8c-1.9,1.9-3.8,3.8-5.7,5.7
	c-0.6,0.6-1.3,1.1-2.1,0.3c-0.8-0.9-0.3-1.4,0.3-2.1c1.8-1.8,3.5-3.7,5.3-5.5c0.5-0.5,1.2-0.9,2-0.6C44,85.6,44.1,86,44.1,86.8z"/>
<path fill-rule="evenodd" clip-rule="evenodd" fill="#E9CBC7" d="M45.6,76c0.1-1.5-0.8-1.7-2-1.5c0.4-0.9,1.1-1.4,1.9-0.7
	C46.4,74.4,46.8,75.2,45.6,76z"/>
</svg>
