<?xml version="1.0" encoding="utf-8"?>
<!-- Generator: Adobe Illustrator 16.0.0, SVG Export Plug-In . SVG Version: 6.00 Build 0)  -->
<!DOCTYPE svg PUBLIC "-//W3C//DTD SVG 1.1//EN" "http://www.w3.org/Graphics/SVG/1.1/DTD/svg11.dtd">
<svg version="1.1" id="Layer_1" xmlns="http://www.w3.org/2000/svg" xmlns:xlink="http://www.w3.org/1999/xlink" x="0px" y="0px"
	 width="376.3px" height="117px" viewBox="0 0 376.3 117" enable-background="new 0 0 376.3 117" xml:space="preserve">
<polygon fill-rule="evenodd" clip-rule="evenodd" fill="#FFFFFF" points="58.9,39.3 48.7,103 12.3,89.4 26.9,43.7 "/>
<path fill-rule="evenodd" clip-rule="evenodd" d="M65.9,86.4c0-1,0-2,0.1-3c0.6-1.3,0.2-2.6,0.3-3.9c0.1-1.5-0.3-3,0.3-4.5
	c0-1.2,0-2.4,0.1-3.6c0.6-1.1,0.2-2.3,0.3-3.4c0.1-1.7-0.3-3.4,0.3-5c0-1.4,0-2.8,0-4.2c0.8-2.6-0.2-5.3,0.6-7.8
	c0-1.2,0-2.4,0.1-3.6c0.6-1.2,0.2-2.6,0.3-3.8c0.1-1.3-0.3-2.7,0.3-4c0-1.6,0-3.2,0-4.8c0.8-2.4-0.2-4.9,0.6-7.2
	c0.2-2.1-0.3-4.2,0.7-6.2c0.4,0.3,0.9,0.5,1.2,0.9c3,3.8,6.7,6.2,11.8,5.7c2-0.2,2.6,0.9,2.9,2.9c3.1,21.3,6.3,42.6,9.4,63.9
	c0.4,2.7,0.8,5.4,1.2,8c0.2,1.3-0.1,1.9-1.6,2.2c-9.5,1.9-19,4-28.5,6c-2.2-0.6-0.9-2.5-1.3-3.7c0.8-2.6-0.2-5.3,0.6-7.8
	c0-1.4,0-2.8,0.1-4.2c0.6-1.8,0.1-3.6,0.3-5.4C65.8,88.4,65.4,87.3,65.9,86.4z"/>
<path fill-rule="evenodd" clip-rule="evenodd" d="M169.8,93.5c1.5-8.1,3-16,4.5-23.8c0.4-2.2,0.7-4.4,0.8-6.6
	c0.1-1.6-0.3-3.3-1.9-4.1c-1.8-0.9-3.6-0.5-5.1,0.6c-3.1,2.2-4.9,5.4-5.7,8.9c-1.7,7.4-3.2,14.9-4.5,22.4c-0.4,2.2-1.2,2.8-3.3,2.7
	c-2.4-0.2-4.8-0.2-7.2,0c-2.2,0.2-2.5-0.7-2.1-2.6c2.5-12.8,4.9-25.6,7.3-38.4c1.3-6.9,2.7-13.8,3.9-20.7c0.3-1.6,0.9-2.2,2.5-2.1
	c2.7,0.1,5.4,0.2,8.1,0c2.1-0.1,2.2,0.7,1.9,2.5c-1.5,7.3-2.8,14.6-4.4,22.7c4.1-4.2,8.2-6.6,13.5-6.6c5.7,0.1,9.4,3.5,9.9,9.2
	c0.4,4.4-0.4,8.6-1.2,12.8c-1.4,7-2.7,14-4,21c-0.3,1.5-0.7,2.2-2.4,2.2C176.8,93.4,173.4,93.5,169.8,93.5z"/>
<path fill-rule="evenodd" clip-rule="evenodd" d="M373.6,49.4c-5,10.7-9.7,21-14.5,31.2c-3.7,7.8-7.7,15.4-13.2,22.2
	c-3.8,4.7-8.4,8.3-14.2,10.3c-1.3,0.5-1.9,0.4-2.3-1.1c-0.7-2.4-1.4-4.8-2.3-7.1c-0.6-1.6-0.1-2.1,1.2-2.6c4.6-1.8,8.4-4.7,11.2-8.8
	c1-1.4,1.3-2.9,1-4.5c-2.3-12.2-4.5-24.5-6.9-36.7c-0.5-2.4,0.1-3,2.4-2.8c2.6,0.2,5.2,0.2,7.8,0c1.9-0.1,2.6,0.5,2.8,2.5
	c0.8,8.9,1.7,17.8,2.6,26.7c1.2-0.1,1-1.1,1.2-1.8c3.2-8.4,6.4-16.9,9.5-25.3c0.4-1.2,0.8-2.1,2.4-2.1
	C365.8,49.5,369.5,49.4,373.6,49.4z"/>
<path fill-rule="evenodd" clip-rule="evenodd" d="M301.3,93.5c2.1-11,4-21.7,6.1-32.4c0.4-2,0.2-2.8-1.9-2.5
	c-2.8,0.5-3.9-0.5-2.7-3.4c0.3-0.6,0.3-1.4,0.3-2.1c0.2-3,1.3-4.7,4.6-4c1.5,0.3,2.2-0.5,2.4-1.9c0.3-2.5,1.1-4.9,2.1-7.2
	c3.8-8.6,12.7-12.9,21.9-10.8c1.7,0.4,2.6,0.9,1.7,2.8c-0.3,0.7-0.5,1.5-0.6,2.3c-0.3,3.5-1.2,5.7-5.8,5c-3.5-0.6-7.9,5.7-7.1,9
	c0.2,0.8,0.7,0.8,1.3,0.8c1,0,2,0,3,0c4.1,0,4.1,0,3.4,3.9c-1,5.4-1.1,5.6-6.6,5.4c-2.3-0.1-3.2,0.5-3.6,3
	c-1.6,9.8-3.6,19.5-5.4,29.3c-0.4,1.9-0.9,2.9-3.2,2.7C308,93.3,304.8,93.5,301.3,93.5z"/>
<path fill-rule="evenodd" clip-rule="evenodd" d="M123,94.2c-3.5,0.1-7.1-0.7-10.6-2c-1.3-0.5-2-1.3-1.2-2.7
	c0.1-0.2,0.1-0.4,0.2-0.6c0.7-2,0.9-4.6,2.3-5.8c1.6-1.3,3.6,1.1,5.6,1.3c2.3,0.3,4.5,1,6.8,0.2c3.3-1.1,4.2-4.3,1.9-6.9
	c-1.3-1.5-3.2-2.4-4.9-3.5c-4.6-2.9-7.9-6.7-7.1-12.6c0.8-5.8,4.2-9.6,9.6-11.7c5.6-2.2,11.4-2,17.1-0.5c1.8,0.5,2.2,1.3,1.5,3
	c-0.8,1.9-0.8,4.5-2.1,5.9c-1.6,1.7-3.7-1-5.7-0.6c-0.1,0-0.2,0-0.3,0c-3.9-0.4-6.8,0.5-7.4,2.6c-1,3.7,2,4.8,4.3,6.3
	c1.4,0.9,2.9,1.8,4.2,2.9c8.1,6.2,5,16.8-0.6,20.7C132.7,93.3,128.1,94.3,123,94.2z"/>
<path fill-rule="evenodd" clip-rule="evenodd" d="M284.3,93.5c-6.4,0-6.3,0-5.1-6.4c2.3-11.8,4.6-23.6,6.7-35.4
	c0.4-2.1,1.2-2.4,2.9-2.3c2.5,0.1,5,0.1,7.5,0c1.9-0.1,2.6,0.3,2.2,2.5c-2.5,12.7-5.1,25.3-7.3,38.1c-0.5,3.1-1.6,4.1-4.6,3.7
	C286,93.4,285.1,93.5,284.3,93.5z"/>
<path fill-rule="evenodd" clip-rule="evenodd" d="M288.4,37.8c0-4.1,3.1-7.3,7.1-7.3c3.6,0,6.3,2.7,6.3,6.3c0,4.1-3.1,7.2-7.2,7.3
	C290.9,44.1,288.4,41.6,288.4,37.8z"/>
<path fill-rule="evenodd" clip-rule="evenodd" d="M69.6,21c-1.2-0.9-2.3-0.1-3.4,0.2c-1,0.3-1.6,0.3-2.1-0.9
	c-1.9-4.7-4.6-8.5-10.3-8.8c-0.3,0-0.6-0.2-0.8-0.4c-4.4-4.2-8.9-2.7-13.2,0c-5.2,3.2-8.8,8.1-10.2,13.8
	c-1.8,7.1-5.6,10.7-12.6,11.6c-2,0.2-2.8,1.7-3.1,3.8c-2.3,18.7-4.6,37.4-7.3,56.1c-0.5,3.6,0.8,4,3.6,4.6c15.7,2.8,31.3,5.9,47,8.8
	c2.9,0.5,5.7,1.8,8.8,1c-0.3-1.4-0.5-2.7-0.5-4.1c0.1-2.5-0.3-5,0.4-7.5c0.3-1.4,0.3-2.8,0.2-4.2c-0.1-1.7,0-3.4,0-5.1
	c0-1.2,0-2.3,0.4-3.4c0.2-1,0.3-2,0.3-3c0-1.2,0-2.3,0-3.5c0-1.7-0.2-3.3,0.4-4.9c0.2-1.2,0.3-2.4,0.3-3.5c-0.1-1,0-2,0-3
	c0-1.8-0.2-3.7,0.4-5.5c0.3-1.4,0.3-2.8,0.2-4.2c0.1-2.6-0.4-5.2,0.3-7.7c0.2-1.2,0.3-2.4,0.3-3.6c-0.1-1.2,0-2.4,0-3.6
	c0-1.5-0.1-3,0.4-4.5c0.3-1.5,0.3-3.1,0.2-4.7c0-2.4-0.3-4.8,0.3-7.2C69.8,25.1,70.2,23.1,69.6,21z M52.4,18.1c1.5,6,1,7.2-4.8,8.9
	c-1.4,0.4-2.8,0.8-4.5,1.3c1.3-4.6,2.9-8.4,6.5-11.2C50.9,16,51.8,15.9,52.4,18.1z M48.9,12.5c-1.7,1.7-3.7,2.9-5.1,4.7
	c-2,2.7-3.6,5.7-4.2,8.9c-0.5,2.9-2,4.3-4.8,4.8c-1.2,0.2-2.4,0.7-3.7,1.1C32.4,21.3,41.4,11.3,48.9,12.5z M53.2,47.3
	c-0.4,0.8-0.6,1.7-0.9,2.5c-0.7,2.1-0.9,4.8-2.3,6.1c-1.4,1.3-3.7-0.9-5.8-0.9c-1.1,0-2.2-0.1-3.3,0c-2.2,0.2-4.1,1.2-4.8,3.5
	c-0.7,2.3,0.5,3.9,2.2,5.2c2.5,2,5.4,3.5,7.5,6c4.7,5.4,4.8,11.5,2.2,17.7c-2.5,5.8-7.3,8.3-13.5,8.1c-4.7,0-8.8-1.5-12.6-4.3
	c-1.5-1.1-2.2-2.1-1.4-4c0.8-1.9,0.7-4.9,2.1-5.8c1.6-1.1,3.3,1.8,5.2,2.3c0.5,0.1,0.9,0.4,1.4,0.5c2.4,0.7,4.8,1.4,6.5-1.2
	c1.3-2,0.6-4.8-1.7-7c-0.9-0.8-1.8-1.6-2.8-2.3c-9.9-7.2-6.3-20.3,0.3-25.5c6-4.6,12.7-5.6,19.9-4.1C53.4,44.6,54.2,45.5,53.2,47.3z
	 M57.6,23.8c-1.3,0.6-1.2-0.5-1.2-1.3c0-2.4-0.5-4.7-1.1-7.3c3.6,1.1,5,3.8,5.6,6.5C61.4,23.8,58.8,23.2,57.6,23.8z"/>
<path fill-rule="evenodd" clip-rule="evenodd" fill="#91B565" d="M65.3,99c-0.2,2.6,0.7,5.3-0.6,7.8C65.1,104.3,64.1,101.6,65.3,99z
	"/>
<path fill-rule="evenodd" clip-rule="evenodd" fill="#90B467" d="M67.7,50.8c-0.2,2.6,0.7,5.3-0.6,7.8C67.5,56,66.5,53.3,67.7,50.8z
	"/>
<path fill-rule="evenodd" clip-rule="evenodd" fill="#91B567" d="M68.9,27.3c-0.2,2.4,0.6,4.9-0.6,7.2
	C68.7,32.1,67.8,29.6,68.9,27.3z"/>
<path fill-rule="evenodd" clip-rule="evenodd" fill="#90B466" d="M67.1,62.8c0,1.8,0,3.6,0,5.4c-0.2,0.3-0.4,0.3-0.6,0
	C66.8,66.5,66,64.6,67.1,62.8z"/>
<path fill-rule="evenodd" clip-rule="evenodd" fill="#8FB268" d="M65.9,89.4c-0.2,1.8,0.6,3.7-0.6,5.5c0-1.8,0-3.6,0-5.4
	C65.5,89.1,65.7,89.1,65.9,89.4z"/>
<path fill-rule="evenodd" clip-rule="evenodd" fill="#91B566" d="M66.5,74.9c0,1.6,0,3.2,0,4.8c-0.2,0.3-0.4,0.3-0.5,0
	C66.2,78.1,65.4,76.4,66.5,74.9z"/>
<path fill-rule="evenodd" clip-rule="evenodd" fill="#92B566" d="M68.3,39.3c0,1.4,0,2.8,0,4.2c-0.2,0.3-0.4,0.3-0.5,0
	C68,42.1,67.2,40.6,68.3,39.3z"/>
<path fill-rule="evenodd" clip-rule="evenodd" fill="#85A964" d="M67.8,43.5c0.2,0,0.4,0,0.5,0c-0.1,1.2,0.5,2.5-0.5,3.6
	C67.8,45.9,67.8,44.7,67.8,43.5z"/>
<path fill-rule="evenodd" clip-rule="evenodd" fill="#87AB65" d="M66,79.7c0.2,0,0.4,0,0.5,0c-0.1,1.2,0.5,2.5-0.5,3.6
	C66,82.1,66,80.9,66,79.7z"/>
<path fill-rule="evenodd" clip-rule="evenodd" fill="#82A762" d="M66.6,68.2c0.2,0,0.4,0,0.6,0c-0.1,1,0.4,2.2-0.5,3
	C66.6,70.3,66.6,69.3,66.6,68.2z"/>
<path fill-rule="evenodd" clip-rule="evenodd" fill="#93B95B" d="M65.9,89.4c-0.2,0-0.4,0-0.6,0c0.1-1-0.4-2.1,0.5-3
	C65.9,87.4,65.9,88.4,65.9,89.4z"/>
<path fill-rule="evenodd" clip-rule="evenodd" d="M277.5,60.9c-1.3-11.4-11.3-16-20.7-10.1c-1.8,1.1-3.2,2.7-4.8,4.3
	c-0.7-2.3,1.2-4.8-0.2-5.8c-1.4-1-3.9-0.3-5.9-0.4c-0.8,0-1.6,0.1-2.4,0c-1.8-0.2-2.4,0.5-2.6,2.3c-0.6,4.7-1.3,9.3-2.1,14
	c-2.7,14.6-5.4,29.2-8.3,43.7c-0.4,1.8-0.1,2.3,1.7,2.2c2.8-0.1,5.6-0.1,8.4,0c1.4,0,2-0.3,2.3-1.9c0.9-5.4,2-10.8,3.1-16.3
	c9,3,16.8,1.2,23.2-5.7C276,79.9,278.6,70.8,277.5,60.9z M264.6,67c-0.3,4.7-1.8,9.6-4.9,14c-1.5,2.1-3.5,3.6-6.1,4
	c-4,0.5-5.8-1.4-5-5.2c0.8-3.9,1.2-7.9,2.4-11.8c0.8-2.6,2-5,4-7c1.8-1.7,3.9-3,6.5-2c2.6,1,3.1,3.2,3.2,5.6
	C264.6,65.2,264.6,65.8,264.6,67z"/>
<path fill-rule="evenodd" clip-rule="evenodd" d="M207.8,49.9c-9.8,3.8-16.4,14.3-16.5,26.4c-0.1,9.7,5.1,16.6,13.6,17.8
	c8.3,1.1,15.5-1.4,21-7.8c4.6-5.3,6.8-11.6,7.1-18.5C233.7,52.6,222.1,44.3,207.8,49.9z M217,79.2c-2.3,4.5-5.4,6.3-8.7,5.3
	c-2.8-0.8-4.3-3.7-4.2-9.5c0.3-4.2,1.4-9.1,4.5-13.4c2.1-3,5-4.2,7.7-3.4c2.5,0.8,4,3.3,4,7.1C220.3,70.2,219.3,74.8,217,79.2z"/>
<path fill-rule="evenodd" clip-rule="evenodd" d="M63.6,110.9l5-89.8l1.2,0.2l0.7,3.5l-3.5,85C67.2,109.7,68.7,110.5,63.6,110.9z"/>
</svg>
