<?xml version="1.0" encoding="utf-8"?>
<!-- Generator: Adobe Illustrator 16.0.0, SVG Export Plug-In . SVG Version: 6.00 Build 0)  -->
<!DOCTYPE svg PUBLIC "-//W3C//DTD SVG 1.1//EN" "http://www.w3.org/Graphics/SVG/1.1/DTD/svg11.dtd">
<svg version="1.1" id="Layer_1" xmlns="http://www.w3.org/2000/svg" xmlns:xlink="http://www.w3.org/1999/xlink" x="0px" y="0px"
	 width="376.3px" height="117px" viewBox="0 0 376.3 117" enable-background="new 0 0 376.3 117" xml:space="preserve">
<path fill-rule="evenodd" clip-rule="evenodd" d="M116.2,51.1c-1.9,5.8-3.9,11.6-5.8,17.4c-0.6,1.8-1.2,3.7-1.8,5.5
	c-0.2,0.5-0.2,1.2-0.9,1.3c-0.9,0.1-0.8-0.8-1-1.3c-2.8-8.4-5.5-16.9-8.2-25.3c-0.4-1.2-0.8-2.4-1.3-3.5c-1-2.3-2.5-3.8-5.2-3.9
	c-0.6,0-1.5,0.2-1.4-0.9c0.1-1.2,1-0.7,1.6-0.7c4.9,0,9.8,0,14.7,0c0.5,0,1.3-0.4,1.4,0.7c0.1,1.2-0.8,0.9-1.4,1
	c-3.5,0.5-4.2,1.5-3.2,4.9c1.8,5.6,3.6,11.3,5.6,17.3c1.5-4.4,2.9-8.5,4.2-12.5c1.1-3.4,2.3-6.8,3.4-10.1c0.2-0.6,0.2-1.3,1.1-1.3
	c1-0.1,1.1,0.7,1.3,1.3c2.2,6.8,4.5,13.5,6.7,20.3c0.2,0.6,0.2,1.2,0.9,1.8c1.5-4.3,2.9-8.5,4.3-12.8c0.6-1.7,1.3-3.4,1.6-5.2
	c0.4-2.3-0.2-3.2-2.6-3.6c-0.8-0.2-2.3,0.5-2.2-1c0.1-1.5,1.5-0.7,2.3-0.7c3.7-0.1,7.4-0.1,11.1,0c0.6,0,1.5-0.4,1.5,0.8
	c0,1-0.8,0.9-1.3,0.9c-3.7,0-5.3,2.4-6.3,5.5c-3,8.9-6,17.8-9,26.7c-0.1,0.2-0.1,0.5-0.2,0.7c-0.2,0.5-0.1,1.2-0.9,1.3
	c-0.9,0.1-0.9-0.8-1-1.3c-2.3-7-4.6-14-6.9-21c-0.2-0.6-0.4-1.2-0.6-1.7C116.5,51.1,116.3,51.1,116.2,51.1z"/>
<path fill-rule="evenodd" clip-rule="evenodd" d="M322.8,69.4c0-1.4,0-2.9,0-4.3c0-0.5-0.2-1.1,0.6-1.1c0.7-0.1,1,0.2,1.1,0.9
	c0.3,1.4,0.7,2.7,1.6,3.8c2.1,2.9,5,4,8.5,3.5c1.5-0.2,2.7-1.1,3.2-2.6c0.5-1.6-0.1-2.8-1.2-3.9c-1.4-1.3-3.1-2.1-4.8-2.9
	c-1.8-0.9-3.7-1.6-5.3-2.7c-3-2.1-4.3-5.4-3.4-8.3c0.9-2.8,3.9-5,7.3-5.2c2.2-0.1,4.3,0.1,6.1,1.4c1,0.7,1.4,0.4,1.7-0.6
	c0.2-0.6,0.5-1,1.2-0.9c0.9,0.1,0.7,0.8,0.7,1.3c0,2.1,0,4.3,0,6.4c0,0.6,0.4,1.5-0.7,1.7c-1.2,0.2-1.1-0.7-1.3-1.4
	c-0.8-3-2.5-5-5.7-5.4c-1.1-0.1-2.1,0-3.1,0.5c-2.3,1.1-2.7,3.5-0.8,5.2c1.2,1.1,2.6,1.6,4,2.4c1.7,0.9,3.5,1.7,5.2,2.6
	c3.5,1.9,5.2,4.9,4.7,8c-0.6,3.7-3.6,6.5-7.5,7.1c-2.9,0.5-5.7,0-8.1-1.7c-1.2-0.8-1.7-0.6-2.1,0.7c-0.2,0.6-0.3,1.5-1.3,1.2
	c-0.9-0.2-0.5-1-0.5-1.6C322.7,72.1,322.8,70.8,322.8,69.4z"/>
<path fill-rule="evenodd" clip-rule="evenodd" d="M347.3,69.5c0-1.5,0-3,0-4.5c0-0.5-0.1-1,0.7-1c0.7,0,0.8,0.3,1,0.9
	c0.3,1,0.6,2.1,1.1,3c1.7,3.2,5.2,5,8.8,4.4c1.6-0.2,2.9-1,3.4-2.6c0.6-1.7-0.1-3.1-1.4-4.2c-1.9-1.6-4.2-2.4-6.4-3.5
	c-1.4-0.7-2.8-1.3-4.1-2.3c-2.4-2.1-3.8-4.6-2.8-7.8c0.9-3.3,3.5-4.8,6.7-5.2c2.3-0.4,4.7,0,6.7,1.3c0.9,0.6,1.5,0.6,1.8-0.5
	c0.2-0.7,0.6-1.1,1.3-0.9c0.7,0.2,0.5,0.8,0.5,1.2c0,2.3,0,4.6,0,7c0,0.6,0,1.1-0.8,1.2c-0.7,0-0.9-0.3-1.1-1
	c-0.8-3.1-2.3-5.4-5.8-5.9c-1.2-0.2-2.3,0-3.3,0.5c-2.2,1.1-2.5,3.4-0.8,5.1c0.8,0.7,1.7,1.2,2.7,1.7c2.2,1.1,4.4,2.1,6.5,3.3
	c3.6,1.9,5.3,5,4.7,8.2c-0.6,3.6-3.7,6.4-7.6,7c-2.8,0.4-5.5,0-7.9-1.7c-1.1-0.8-1.7-0.7-2.1,0.6c-0.2,0.6-0.3,1.5-1.3,1.3
	c-1.1-0.2-0.5-1.1-0.6-1.7C347.2,72,347.3,70.8,347.3,69.5z"/>
<path fill-rule="evenodd" clip-rule="evenodd" d="M220.8,48.1c-6.2-1.4-12.5-0.5-18.7-0.7c-0.5,0-1.4-0.3-1.4,0.7
	c0,1.1,0.8,0.7,1.4,0.8c1.8,0.2,3.4,0.8,3.5,2.9c0.5,5.9,0.5,11.8,0,17.6c-0.1,1.5-1.1,2.4-2.6,2.7c-2.8,0.6-5.2-0.4-7.3-2
	c-2.8-2.1-4.8-4.9-7.4-7.5c1-0.3,1.7-0.5,2.3-0.7c4.1-1.6,6.2-5.4,4.8-9.1c-1.2-3.3-3.9-4.7-7.1-5.1c-5.4-0.8-10.9-0.2-16.3-0.3
	c-0.6,0-0.9,0.2-0.9,0.8c0,0.8,0.6,0.6,1.1,0.7c3.3,0.6,3.8,0.9,4,4.3c0.3,5,0.3,10,0,15c-0.2,3.1-0.8,3.6-3.8,4.1
	c-0.5,0.1-1.2-0.2-1.2,0.8c0,1,0.8,0.8,1.3,0.8c4.3,0,8.6,0,13,0c0.5,0,1.4,0.4,1.5-0.6c0.1-1.2-0.8-0.8-1.4-0.9
	c-2.7-0.4-3.3-1-3.6-3.7c-0.2-1.4-0.2-2.9-0.2-4.3c0-0.5-0.3-1.2,0.5-1.5c0.7-0.2,1.1,0.3,1.5,0.8c1.7,2.1,3.6,4.1,5,6.4
	c2,3.2,4.6,4.2,8.4,4c7.2-0.4,14.5,0.3,21.8-0.4c6.1-0.6,10.7-4.2,12-9.2C232.8,56.7,228.7,49.9,220.8,48.1z M181.5,57.1
	c0-0.6,0-1.2,0-1.9c0-1.2,0.1-2.5,0-3.7c-0.1-1.4,0.4-1.8,1.7-1.6c0.6,0.1,1.1,0,1.7,0c3.2,0.1,5.1,2,5.1,5.2c0,3-1.8,5.1-4.8,5.4
	C181.5,60.8,181.5,60.8,181.5,57.1z M223,68c-1.7,2.8-6.8,4.3-10,3.3c-1.1-0.3-1.4-1.1-1.5-2.1c-0.4-3.2,0-6.5-0.2-9.2
	c0-3.3,0-6,0-8.7c0-1.1,0.3-1.7,1.5-1.5c0.4,0.1,0.9,0,1.3,0c3.9-0.1,7.7,0.4,9.5,4.5C225.7,58.9,225.7,63.6,223,68z"/>
<path fill-rule="evenodd" clip-rule="evenodd" d="M317.2,66.6c-1.1-0.2-0.9,1-1.1,1.6c-0.5,1.7-1.6,2.8-3.4,3
	c-2.3,0.4-4.6,0.3-6.9,0.1c-1.3-0.1-2.1-0.9-2.5-2.2c-0.6-2.4-0.3-4.7-0.3-7.1c0-0.3,0-0.6,0.4-0.7c2.5-1,5.8,0.8,6.2,3.4
	c0.1,0.5-0.2,1.2,0.8,1.2c1,0,0.8-0.8,0.8-1.4c0-3,0-6,0-9c0-0.5,0.4-1.3-0.7-1.4c-1.1-0.1-0.8,0.7-0.9,1.3c-0.2,1.2-0.3,2.5-1.8,3
	c-1.4,0.4-2.7,0.3-4.1,0.4c-0.8,0-0.7-0.5-0.7-1c0-2.3,0-4.5,0-6.8c0-0.8,0.3-1.1,1.1-1.1c1.6,0.1,3.1,0.1,4.7,0c3,0,5.5,0.6,6,4.2
	c0.1,0.4,0.3,0.8,0.9,0.8c0.8-0.1,0.5-0.7,0.5-1.1c-0.1-1.6-0.3-3.2-0.3-4.9c0-1.1-0.4-1.5-1.5-1.5c-6.8,0-13.7,0-20.5,0
	c-0.5,0-1.4-0.3-1.4,0.7c-0.1,1,0.8,0.8,1.3,0.9c2,0.1,3.5,0.9,3.6,3.1c0.3,5.7,0.3,11.4,0,17.1c-0.1,2.4-1.9,3.5-4.4,3.1
	c-1.4-0.2-2.6-0.8-3.8-1.6c-3.1-2.1-5.3-5.2-8.1-8c1.6-0.5,2.9-0.9,4.1-1.6c4.7-3,4.6-9.2-0.2-12c-1.3-0.8-2.7-1.2-4.2-1.4
	c-5.1-0.5-10.3-0.1-15.4-0.2c-0.6,0-1.4-0.3-1.4,0.7c0,1.1,0.8,0.7,1.4,0.8c2.8,0.5,3.6,1.2,3.6,4c0.1,5.1,0.1,10.3,0,15.4
	c0,2.7-0.9,3.5-3.6,3.9c-0.6,0.1-1.6-0.3-1.4,0.9c0.1,1,0.9,0.6,1.5,0.6c4.3,0,8.5,0,12.8,0c0.6,0,1.5,0.4,1.5-0.8
	c0-1-0.9-0.7-1.4-0.8c-2.7-0.4-3.4-1.1-3.7-3.9c-0.1-1.4-0.1-2.8-0.1-4.1c0-0.5-0.3-1.2,0.3-1.5c0.8-0.3,1.2,0.3,1.7,0.8
	c2.4,3,4.9,6.1,7.3,9.1c0.5,0.7,1,1.1,2,1.1c10.1,0,20.2,0,30.3,0c0.9,0,1.4-0.1,1.4-1.2c0-1.4,0.3-2.9,0.3-4.3
	C317.6,67.8,318.2,66.8,317.2,66.6z M274.9,60.4c-0.6-0.2-0.5-0.6-0.5-1c0-1.4,0-2.9,0-4.3c0-0.4-0.1-0.9,0-1.3
	c0.5-1.3-1.4-3.6,1.1-3.9c4.5-0.5,6.7,0.9,7.2,4.1C283.3,58.7,279.4,61.9,274.9,60.4z"/>
<path fill-rule="evenodd" clip-rule="evenodd" d="M261.4,46.4c-1.4-4.1-4.7-5.8-8.6-6.6c-3.5-0.7-7-0.2-9.9-0.3c-3.3,0-6.1,0-8.8,0
	c-0.6,0-1.3-0.3-1.3,0.8c0,1,0.8,0.8,1.3,0.9c0.2,0,0.4,0,0.6,0.1c2.8,0.3,3.9,1.4,4.1,4.2c0.6,7.1,0.5,14.1,0.1,21.2
	c-0.3,4.6-0.7,4.9-5.2,5.7c-0.6,0.1-0.9,0.2-0.9,0.9c0,0.7,0.4,0.8,1,0.8c5.4,0,10.9,0,16.3,0c0.6,0,1-0.2,1-0.8
	c0-0.7-0.4-0.8-1-0.8c-0.2,0-0.4,0-0.6,0c-3-0.3-3.9-1.1-4.5-4.1c-0.4-2.4-0.1-4.8-0.3-7.1c-0.1-1.5,0.3-2.1,1.9-2
	c3.2,0.1,6.4,0.1,9.4-1.2C260.7,55.8,263,51.1,261.4,46.4z M250.3,56.1c-5.5,0.8-5.3,0.8-5.3-4.7c0-0.7,0-1.4,0-2.1
	c0-1.9-0.1-3.8-0.2-5.6c0-1.1,0.2-1.4,1.3-1.3c1.2,0.1,2.3,0,3.5,0c3.6,0.1,5.9,2.5,6.1,6.3C255.9,53,254.1,55.6,250.3,56.1z"/>
<path fill-rule="evenodd" clip-rule="evenodd" d="M162.4,48.8c-6.3-3.6-12.6-3.4-18.6,0.7c-7.8,5.4-8.1,15.9-0.6,21.8
	c3.1,2.4,6.6,3.6,10.7,3.6c2.1,0,4.4-0.3,6.5-1.3c5.1-2.3,8.5-6,9.1-11.7C170,56.1,167.3,51.7,162.4,48.8z M162.5,66.5
	c-1.6,3.9-4.8,6-8.9,6c-4,0-7.1-2.1-8.7-6c-1.6-3.9-1.6-7.9,0.1-11.9c1.6-3.7,4.4-5.7,8.5-5.7c4.1-0.1,7,1.8,8.8,5.5
	c0.9,2,1.3,4,1.3,6.2C163.6,62.6,163.3,64.6,162.5,66.5z"/>
<g>
	<path fill-rule="evenodd" clip-rule="evenodd" d="M64.8,40.9c-0.8-1.6-1.4-3.2-1.2-5c0.4-3.4,2.5-5.3,5.9-5.9
		c-16-15.1-42.7-10.2-52.4,6.8c0.5,0,1,0,1.5,0c3.1-0.1,6.1-0.2,9.2-0.4c1.1-0.1,2,0.2,2,1.4c0.1,1.2-0.9,1.5-1.9,1.6
		c-0.6,0-1.3,0.1-1.9,0.1c-1.1,0-1.5,0.2-1.1,1.5c4.1,12.1,8.1,24.2,12.2,36.3c0.7-0.5,0.7-1.1,0.8-1.6c2.2-6.5,4.3-13,6.6-19.5
		c0.4-1.1,0.3-2-0.1-3.1c-1.4-3.6-2.8-7.1-3.9-10.7c-0.6-2.1-1.6-3.2-3.9-3c-1,0.1-2.2-0.2-2.1-1.5c0.1-1.5,1.2-1.5,2.4-1.4
		c4.5,0.4,9,0.4,13.5,0.3c1.4-0.1,2.7-0.2,4.1-0.3c1-0.1,1.6,0.4,1.6,1.4c0.1,0.9-0.5,1.4-1.4,1.5c-0.7,0.1-1.5,0.2-2.2,0.2
		c-1.4,0-1.7,0.4-1.2,1.8c2.6,7.6,5.1,15.1,7.7,22.7c1.5,4.3,2.9,8.7,4.4,13c2.2-6.3,4.2-12.7,5.9-19c1.1-4.2,0.3-8.2-1.7-12
		C66.7,44.3,65.7,42.6,64.8,40.9z"/>
	<path fill-rule="evenodd" clip-rule="evenodd" d="M87.1,53.8c-0.8-21.5-20.2-39.4-42-38.7c-23.4,0.8-40.8,19.6-40,43.3
		C5.8,80,25.3,98,47.1,97.2C70.6,96.4,87.9,77.5,87.1,53.8z M46,95.4C24.4,95.3,6.9,77.7,7,56.1C7,34.5,24.6,17,46.1,17
		c21.6,0,39.2,17.6,39.2,39.2C85.2,77.8,67.6,95.4,46,95.4z"/>
</g>
<path fill-rule="evenodd" clip-rule="evenodd" d="M46.7,59.3c2.7,7.2,5.1,14,7.6,20.8c1,2.8,2,5.5,3,8.3c0.3,0.8,0.2,1.2-0.7,1.4
	c-6.4,1.9-12.8,2.1-19.3,0.5c-1.1-0.3-1.3-0.6-0.9-1.6C40,79,43.3,69.3,46.7,59.3z"/>
<path fill-rule="evenodd" clip-rule="evenodd" d="M30.6,87.6C13.8,80,6.2,58.6,14,42C19.6,57.2,25.1,72.3,30.6,87.6z"/>
<path fill-rule="evenodd" clip-rule="evenodd" d="M77.7,40.6c9,18.4,0.1,38.2-13.3,45.4c-0.5-0.4-0.1-0.8,0.1-1.2
	c3.6-10.3,7.1-20.7,10.7-31c1.3-3.8,2.1-7.7,2.1-11.8C77.2,41.5,76.7,40.9,77.7,40.6z"/>
<path fill-rule="evenodd" clip-rule="evenodd" d="M77.7,40.6c-0.6,0.4-0.1,1.1-0.4,1.5c-0.3-0.7-0.4-1.5-0.2-2.3
	C77.5,39.9,77.6,40.2,77.7,40.6z"/>
</svg>
